<?xml version="1.0" encoding="UTF-8" standalone="no"?>
<svg
   xmlns:dc="http://purl.org/dc/elements/1.1/"
   xmlns:cc="http://creativecommons.org/ns#"
   xmlns:rdf="http://www.w3.org/1999/02/22-rdf-syntax-ns#"
   xmlns:svg="http://www.w3.org/2000/svg"
   xmlns="http://www.w3.org/2000/svg"
   xmlns:sodipodi="http://sodipodi.sourceforge.net/DTD/sodipodi-0.dtd"
   xmlns:inkscape="http://www.inkscape.org/namespaces/inkscape"
   version="1.1"
   width="1012.4825"
   height="1000"
   id="svg2"
   inkscape:version="0.48.5 r10040"
   sodipodi:docname="Flag_of_the_Democratic_Republic_of_the_Congo.svg">
  <metadata
     id="metadata14">
    <rdf:RDF>
      <cc:Work
         rdf:about="">
        <dc:format>image/svg+xml</dc:format>
        <dc:type
           rdf:resource="http://purl.org/dc/dcmitype/StillImage" />
      </cc:Work>
    </rdf:RDF>
  </metadata>
  <defs
     id="defs12">
    <clipPath
       clipPathUnits="userSpaceOnUse"
       id="clipPath3817">
      <path
         inkscape:connector-curvature="0"
         style="opacity:0.46303502;fill:#fefee4;stroke:none"
         d="M 273.71684,6.5000002e-5 273.37144,0.127315 l 0.29087,0.52719 -0.41812,0.10908 -0.74534,0.29086 -0.29087,-0.0545 -0.36358,-0.3454 -0.10907,-0.0727 -0.0545,0.12725 -1.39979,0.74534 -0.6908,0.18179 -0.58173,-0.29086 -0.29086,0.3454 -0.5272,0.18179 -0.18179,0.16361 0.41812,0.58173 -0.70898,0.23633 -0.3454,0.47265 -0.23633,0.63627 -0.0545,0.6908 -0.18179,0.41812 -0.39994,0.45448 -0.29087,0.52719 0.23633,0.70898 0.16361,0.10908 0.65445,0.10907 0.21815,0.23633 0.0727,0.23633 -0.18179,0.63626 -0.0545,0.29087 -0.12729,0.23633 -0.45447,0.52719 -0.0545,0.3454 -0.0727,0.81806 -0.10908,0.29086 -0.29086,0.3454 -0.47266,0.10908 -1.3816,0.12725 -0.29087,0.29086 -0.41812,0.16362 -2.03605,0.12725 -0.29086,-0.12725 -0.23636,-0.10908 -0.21815,-0.10907 -0.36358,-0.0727 -0.21815,0.36358 -0.23632,0.16361 -0.29087,0.12725 -0.12725,0.10908 -0.3454,0.63626 -0.16362,0.70899 -0.29086,0.0545 -1.10892,-0.34541 -1.10892,-0.58172 -1.16346,-0.36359 -0.3454,0 -0.23633,0.12726 -0.63627,0.39994 -0.12725,0.12725 -0.74534,0.16361 -1.16346,0.70898 -0.63627,0.21815 -0.36358,0 -0.29086,-0.16361 -0.21815,-0.0545 -0.29087,0.10908 -0.36358,0.3454 -0.3454,0.29086 -0.3454,0.0545 -0.3454,-0.3454 -0.52719,0.3454 -0.63627,0.0727 -2.09059,-0.23633 -0.36358,-0.18179 0.12725,-0.3454 0.39994,-0.52719 -0.39994,-0.3454 -0.99985,-0.29087 -0.3454,-0.23632 -0.16361,-0.39994 0,-0.63627 -0.29086,-0.29086 -0.41812,-0.1818 -0.81806,-0.10907 -0.29087,-0.12725 -0.16361,-0.23633 -0.29086,-0.58173 -0.18179,-0.29086 -0.63627,-0.39994 -0.81805,-0.47266 -0.8726,-0.16361 -0.74534,0.16361 -0.12725,0.41812 0,0.39994 -0.0545,0.29086 -0.47266,-0.23632 -0.16361,-0.21815 -0.29086,-0.99985 -0.18182,-0.3454 -0.45448,0.47265 -0.47265,0.74534 -0.18179,0.70899 0.36358,0.29086 0.74534,0.16361 0.0545,0.41812 -0.39991,0.39994 -0.5272,0.3454 -2.32691,0.29087 -0.29087,0.23632 -0.0545,0.10908 -0.39993,0.87259 -0.0727,0.36358 -0.0545,0.3454 -0.0545,0.23633 -0.23632,0.16361 -0.23633,0 -0.16361,-0.74534 -0.5272,-0.23633 -0.63626,0.10908 -0.63627,0.41812 -0.87259,1.16346 -0.29087,0.16361 -0.47265,-0.10908 -0.58173,-0.41812 -0.39994,-0.10907 -0.58173,0.0545 -0.52719,0.3454 -0.81806,0.65445 -1.63611,0.74534 -0.58173,0.3454 -0.45448,-0.45448 -0.23641,-0.0545 -0.18179,0.10908 -0.10908,0.18179 -0.10906,0.3454 -0.0727,0.3454 0.18178,0.29087 0.0545,0.39994 -0.81806,0 -1.32707,-0.29087 -0.23632,0.0727 -0.29087,0.29087 -0.29083,0.10907 -0.23633,-0.0545 -0.63628,-0.18179 -0.39994,0 -0.58173,0.18179 -1.23617,0.87259 -0.6908,0.23633 -1.39979,0.21815 -0.63627,0.18179 -1.27253,0.6908 -1.45432,0.36359 -0.70899,0.29086 -1.9088,1.5634 -0.52719,0.18179 -0.76352,0.10907 -0.52719,0.23633 -0.3454,0.39994 -0.23633,0.58173 -0.0545,0.3454 0,0.29086 -0.0546,0.23633 -0.10908,0.23633 -0.29086,0.10907 -0.58173,-0.0545 -0.23633,0.12726 -0.52719,-0.29087 -0.58173,-0.18179 -0.58173,-0.10907 -0.58173,-0.0727 -0.10907,-0.0545 -0.36358,-0.3454 -0.10908,-0.10908 -0.10907,-0.12725 -0.70899,-0.10907 -0.29086,-0.12726 -0.39994,-0.87259 -0.87259,-0.50902 -0.12726,-0.12725 -0.3454,-0.23633 -0.81806,-1.09074 -0.45447,-0.41812 -1.45432,0.70899 -0.76352,0.10907 -0.69081,-0.29086 -0.3454,-0.29087 -0.41812,-0.23633 -0.3454,-0.16361 -0.47265,-0.0727 -0.3454,-0.16361 -0.23633,-0.41812 -0.10908,-0.45447 -0.3454,-0.70899 -0.3454,-0.79987 -0.23633,-0.29087 -0.41812,0 -0.3454,0.10908 -0.39994,0.18179 -0.3454,0.16361 -0.47265,-0.0545 -0.29087,-0.0545 -0.23631,0 -0.34542,0.3454 -0.18178,0.39994 0,0.36358 0.12725,0.39994 0.29087,0.3454 -0.23634,0.29087 -0.76352,0.58172 -0.3454,0.8726 -0.52719,-0.10908 -0.58173,-0.3454 -0.50901,-0.18179 -0.5272,0.18179 -0.29086,0.45448 -0.3454,1.10892 -0.29086,0.47266 -0.23632,0.39993 -0.34541,0.34541 -0.47265,0.29086 0,0.3454 0.18179,0.65445 0.0545,0.29086 -0.0545,0.21815 -0.36359,0.58173 -0.0545,0.18179 -0.10907,0.18179 -0.41811,0.3454 -0.10908,0.16361 0,0.76352 -0.0545,0.29087 -0.18178,0.3454 -0.4,0.23633 -0.70898,0.0545 -1.38161,-0.0545 -0.58173,0.3454 -0.18179,0.76352 0.0545,0.87259 0.18179,0.63627 0.52719,0.63627 0.1091,0.23632 -0.18179,0.34541 -0.29086,0.3454 -0.3454,0.29086 -0.39994,0.0727 -0.23633,0.3454 -0.92713,1.69066 0,0.3454 0.16361,0.63626 0.0727,0.29087 -0.18179,0.3454 -0.58173,0.47266 -0.18179,0.16361 -0.21815,0.47265 -0.58173,0.58173 -1.10892,0.76352 -0.18179,0.10907 -0.63627,0.23633 -0.29086,0.10908 -3.78125,0.23632 -3.09043,-0.6908 -0.69081,-0.47265 -0.76352,-0.29087 -0.29086,-0.18179 -0.58173,-0.63627 -0.16361,-0.10907 -0.63627,-0.23633 -1.63611,-0.29086 -1.50886,-0.76352 -0.29087,-0.0545 -0.3454,0 -0.18179,0.0545 -0.10907,0.0727 -0.29087,0.10907 -0.70898,0.10908 -1.85426,-0.10908 -0.76352,-0.10907 -0.45448,-0.36358 -0.47265,-0.3454 -0.58173,-0.29087 -0.29087,0 -0.92713,0 -0.3454,-0.0545 -0.12725,-0.10907 -0.10908,-0.12726 -0.18179,-0.10907 -0.63626,-0.29087 -0.47266,-0.0545 -1.09074,0.10908 -1.16346,-0.10908 -0.58173,0.0545 -3.0359,1.5634 -0.3454,-0.10907 -0.63627,0 -0.3454,-0.12726 -0.23633,-0.10907 -0.23633,-0.23633 -0.29086,-0.16361 -0.39994,-0.12725 -1.39979,0.0545 -0.58172,-0.0545 -0.76352,-0.16361 -0.5272,-0.23633 -1.50886,-0.99985 -0.16361,-0.21815 -0.18179,-0.23632 -0.3454,-0.0545 -0.41812,0 -0.29086,0.0545 -0.29087,0.16361 -0.21815,0.18179 -0.18179,0.18179 -0.18179,0.29086 -0.21815,0.21815 -0.29086,0.18179 -0.36358,0 -0.29087,-0.10907 -0.21814,-0.23633 -0.29087,-0.12725 -0.65444,0 -0.21815,-0.10908 -0.29087,-0.52719 -0.36358,-0.16361 -0.79988,-0.29087 -0.29086,-0.36358 -0.65445,-1.16346 -0.21815,-0.16361 -0.52719,-0.12725 -3.09043,-1.09074 -2.90865,-0.65445 -1.27253,0.0727 -0.41812,0.21815 -0.39994,0.29086 -0.47266,0.29087 -0.74534,0.12725 -2.56324,0 -2.67232,0.39994 -0.76352,-0.16361 -0.63627,-0.41812 -3.43584,-3.25405 -0.3454,-0.63626 0.18179,-0.63627 0.3454,-0.52719 0.16362,-0.47266 -0.21815,-0.63626 -0.52719,-0.76352 -0.58173,-0.58173 -0.5272,-0.21815 -0.29086,-0.23633 -0.6908,-1.50886 -0.65445,-0.99985 -0.45448,-0.52719 -0.52719,-0.21815 -0.63626,-0.0727 -1.50887,-0.45447 -0.58172,-0.29087 -0.65445,-0.52719 -1.45432,-1.79972 -0.58173,-0.41812 -2.09059,-0.79988 -1.03621,-0.65445 -0.76352,-0.6908 -0.81805,-0.52719 -2.85411,-0.58173 -0.74534,-0.29087 -0.34541,-0.39993 -0.18179,-0.5272 -0.81805,-1.34525 -0.34541,-0.39993 -0.47265,-0.34541 -1.38161,-0.63626 -0.99985,-0.23633 -0.63626,-0.29087 -0.29087,-0.0545 -3.67216,-0.0727 -1.16346,-0.58172 -0.63627,0.18179 -0.98167,0.47265 -0.63626,0.0545 -2.10877,-0.0545 -0.69081,0.16361 -0.47265,0.41812 -0.69081,0.98167 -2.85411,1.74519 -1.45432,0.6908 -0.23633,0.23633 -0.50901,0.87259 -0.58173,0.81806 -0.52719,0.10907 -1.45432,0 -0.58173,0.18179 -1.05439,0.98167 -0.39994,0.58173 -0.41812,0.76352 -0.21814,0.98167 -0.18179,0.29086 -0.29087,0.29087 -0.29086,0.23633 -0.18179,0.23632 -0.29087,1.218 -0.39994,0.47265 -0.58173,0.34541 -0.58173,0.47265 -1.10892,1.85426 -0.10907,0.10908 -0.63627,0.23632 -0.12725,0.12726 -0.0545,0.0545 -0.3454,0.92713 -1.10892,0.87259 -0.76352,1.05439 -1.61794,4.0721 -0.76352,1.03621 -1.0362,0.70898 -1.52704,0.50901 -0.63627,0.12726 -0.63627,0.0545 -0.58172,-0.10908 -0.63627,-0.36358 -0.58173,-0.0545 -0.63627,0.58173 -0.47265,0.8726 -0.18179,0.63626 0.29086,0.58173 0.8726,0.76352 0.18179,0.3454 0.18179,0.58173 1.09074,2.09059 0.47265,1.29071 0.39994,2.67232 0,2.03606 -0.10907,0.76352 -0.23633,0.6908 -0.6908,1.10892 -0.0545,0.6908 0.0545,1.45433 -0.63627,3.96303 1.03621,7.43523 0.29086,0.87259 0.23633,3.96303 -0.3454,4.65384 -0.29087,0.6908 -0.12725,0.36358 -0.16361,0.58173 -0.52719,0.39994 -1.10893,0.58173 -0.63626,0.39994 -0.39994,0.58173 -1.10892,3.14497 -0.47266,0.81806 -0.10907,0.29086 -0.12725,0.69081 -0.16362,0.36358 -0.58173,0.79988 -0.76352,1.63611 -0.10907,0.39994 -0.12725,0.87259 -0.74534,2.21784 -2.45417,4.07211 -0.10908,0.29086 -0.3454,0.10908 -1.79973,1.69065 -0.41811,0.52719 -0.29087,0.52719 -0.3454,1.85427 -0.18179,0.63626 -0.29086,0.58173 -0.34541,0.58173 -0.45447,1.10892 -0.29087,0.52719 -0.58173,0.10908 -0.12725,0.36358 -0.74534,0.92713 -0.23633,0.3454 -1.21799,3.381315 0,0.45448 0.16361,0.92713 0.0545,0.99985 -0.10908,3.07226 0.18179,1.45432 0,0.52719 -0.12722,0.52719 -0.3454,1.05439 -0.0545,0.58173 0.23632,9.12588 -0.0727,0.63626 -1.85426,4.12665 -0.18179,0.65444 -0.16362,1.16346 -1.10892,3.54491 -0.10907,1.98152 -0.23633,0.63627 -1.34525,2.19966 -0.6908,0.81806 -0.58173,1.16345 -0.23633,0.76352 0.3454,2.19967 0,2.50871 0.99985,4.0721 0,0.8726 -0.52719,2.43599 0.0545,0.94531 0.18179,0.74534 0.58173,1.58157 0.45447,0.21815 0.3454,0.5272 0.23633,0.58172 0.0545,0.58173 -0.21815,3.09044 -0.18179,0.52719 -2.72686,3.83578 -2.5087,6.79896 -0.58173,1.16346 -1.27254,5.94455 -0.12725,0.79988 0.12725,0.76352 0.74535,3.19951 0.29086,5.6355 -0.23633,0.36358 -0.45447,0.58173 -2.03606,1.9088 -0.18179,0.23632 -0.10907,0.23633 -0.0545,0.45448 -0.0727,0.12725 -0.10908,0.10908 -0.3454,0.29086 -0.41812,0.47266 -0.6908,0.52719 -6.05362,7.27161 -0.81806,0.79988 -0.6908,0.76352 -0.23633,0.23633 -0.81806,0.39994 -0.10907,0.18179 -0.63627,0.6908 -0.29086,0.23633 -1.69065,0.47266 -1.63612,0.21814 -0.58173,0.18179 -2.14512,0.8726 -1.50887,0.39994 -1.05438,0.18179 -0.16361,0.0545 -0.36358,0.23632 -0.16361,0.10908 -0.12726,0.18179 -0.74534,0.87259 -1.21799,1.10892 -0.99985,1.16346 -1.50886,1.16346 -0.6908,0.45448 -0.23633,0.23632 -0.12726,0.18179 -0.3454,0.92714 -0.74534,1.27253 -0.47265,1.23617 -0.52719,0.69081 -1.218,2.38145 -1.05439,1.39979 -0.6908,1.45432 -1.10892,1.63611 -0.23633,0.50902 -0.10907,0.52719 -0.0545,0.3454 0,1.10892 -0.18179,0.92713 -0.39994,0.81806 -2.56324,3.32677 -0.0545,0.10907 -0.18179,0.39994 -0.10908,0.41812 -0.18179,0.10907 -0.58173,0.41812 -0.45447,0.21815 -0.18179,0.0727 -0.29087,0.21815 -0.47265,0.65445 -2.03606,1.96333 -1.32707,1.05439 -1.74518,1.69065 -0.92713,0.58173 -0.76352,0.6908 -0.81806,1.05439 -0.39994,0.63626 -0.18179,0.76352 0,0.74534 0.0545,0.23633 0,0.18179 -0.39994,1.45433 -0.0545,0.50901 0.10907,0.47265 0.29087,0.47266 0.0545,0.16361 0.0727,0.29086 0,1.50887 1.03621,7.68973 -0.63627,4.65383 -0.76352,2.32692 -0.0545,0.39994 -0.0545,0.47266 0.3454,2.96318 -0.10908,1.63611 0.16362,1.79973 -0.10908,1.69065 0.10908,0.50901 0.29086,0.65445 0,0.6908 -0.16361,1.39979 0.16361,0.6908 0.36358,0.3454 0.39994,0.23633 0.10907,0.3454 -0.0545,0.76352 -0.10908,0.58173 -0.41812,0.98167 -1.56339,2.6905 -0.69081,1.74519 -0.70898,1.32707 -1.98152,2.45417 -1.27253,2.61778 -0.23633,0.6908 -0.45447,0.47266 -0.52719,1.50886 -0.99985,1.74519 -0.21815,0.23632 -0.18179,0.34541 -0.58173,1.85426 -0.76352,0.70898 -0.16361,0.16361 -1.218,0.63627 -1.45432,0.41812 -1.39979,0.23632 -1.39978,0.21815 -4.5993,1.45433 -0.58173,0.23632 -0.45448,0.41812 -0.41811,0.58173 -0.98167,3.1268 -0.18179,0.29086 -0.69081,0.70899 -0.12725,0.23632 -0.29086,0.10908 -0.79988,0.39994 -1.23618,0.47265 -3.54491,1.79973 -0.63627,0.3454 -0.87259,0.41812 -0.76352,0.45447 -0.3454,0.58173 -0.16361,0.47266 -1.16346,1.69065 -1.69065,2.38145 -0.70899,0.63627 -1.67247,0.87259 -0.29086,0.3454 -0.18179,0.41812 -2.50871,2.38146 -2.54507,4.36297 -0.29086,0.52719 -0.29086,0.45447 -0.5272,0.41812 -1.45432,0.69081 -2.16331,1.29071 -0.92713,0.3454 -1.21799,0.10907 -0.34541,-0.10907 -0.99984,-0.63627 -0.39994,-0.12725 -0.10908,-0.10907 -0.29086,-0.41812 -0.12725,-0.10908 -0.29087,-0.0545 -0.6908,0.0545 -0.12726,-0.10907 -0.29086,-0.36358 -0.58173,-0.0545 -0.58173,0.18179 -0.39994,0.23633 -0.63626,0.6908 -0.41812,0.18179 -0.58173,0.10908 -0.58173,0.0545 -0.10919,-0.92711 0.52719,-2.5087 -0.12725,-0.29087 -0.16361,-0.29086 -0.12726,-0.34541 -0.0545,-0.3454 0.12725,-0.29086 0.21815,-0.58173 0.0727,-0.29087 -0.12725,-0.81805 -0.39994,-0.45448 -0.47265,-0.47265 -0.45448,-0.58173 -0.29086,-1.218 -0.23633,-0.70898 0.0545,-0.29087 0.23632,-0.45447 0.5272,-0.47266 1.21799,-0.45447 0.3454,-0.41812 0.3454,-0.45448 0.5272,-0.65444 0.47265,-0.63627 0.10908,-0.58173 -0.23633,-0.23633 -1.10892,-0.6908 -0.58173,-0.6908 -0.50902,-0.81806 -0.23632,-0.47266 0,-0.16361 0.10907,-0.18179 0.12725,-0.39994 0.0545,-0.41811 0,-0.34541 -0.0545,-0.29086 -0.18179,-0.10908 -0.63626,0.0545 -1.34525,0.69081 -1.45432,0.3454 -0.63627,0.47265 -1.218,1.05439 -1.16346,0.58173 -1.21799,0.39994 -2.79957,0.29086 -1.218,0.52719 -0.92713,1.218 -0.0727,0.10907 -0.0545,0.0727 -0.5272,0.3454 -0.50901,0.63627 -0.36358,0.23632 -0.29087,0 -0.98166,-0.29086 -0.8726,0.0545 -0.29086,-0.0545 -0.3454,-0.29086 -0.47266,-0.8726 -0.29086,-0.3454 -0.69081,-0.47266 -0.63626,-0.0545 -2.03606,0.6908 -0.36358,0.18179 -0.16364,0.3454 0.3454,3.09044 -0.10907,0.63627 -0.47266,1.27253 -0.10907,0.70898 0.39994,1.32707 -0.18179,0.29087 -0.29087,0 -0.21814,-0.0545 -0.29087,0.10907 -0.12725,0.36358 0.12725,0.58173 -0.18179,0.21815 -0.29086,0 -0.76352,-0.16361 -0.29087,-0.0545 -0.63627,0.45448 -0.6908,1.29071 -0.63627,0.16361 -0.41811,-0.16361 -0.63627,-0.65445 -0.39994,-0.16361 -0.36358,0.0545 -1.0362,0.58173 0.3454,0.29086 0.10907,0.29087 -0.10907,0.23633 -0.3454,0.16361 -1.63612,1.23617 -0.87259,1.03621 -0.3454,0.29086 -0.69081,-1.39978 -0.23633,-1.09075 -0.18179,-0.41811 -0.29086,-0.29087 -0.45448,-0.23635 -1.92698,-0.69081 -0.58172,-0.39994 -1.50886,-1.29071 -0.81806,-0.52719 -0.3454,-0.3454 -0.34541,-1.03621 -0.58172,-0.81806 -0.29087,-0.47265 -0.65444,-0.81806 -0.79988,0.0727 -0.5272,0.74534 0.0545,1.05438 -0.23632,0.92714 -1.16346,0.39993 -6.21724,1.45433 -0.99984,0.52719 -0.50902,0.58173 -0.36358,0.70898 -0.21815,0.69081 -0.0727,0.76351 -0.29087,0.39994 -1.45432,0.81806 -0.45448,0.39994 -0.29086,0.63627 -0.0545,0.52719 -0.23633,0.3454 -0.76352,0.29086 -1.21799,0.0727 -0.29087,0.21815 -0.10907,0.65444 -0.52719,1.218 -1.16346,0.74534 -2.67232,0.94531 -0.29086,0 -0.23633,0 -0.18179,0.0545 -0.16361,0.29086 0,0.29087 0.0545,0.3454 0.10908,0.29087 0.18179,0.18179 1.98151,0.6908 0.34541,0.23633 0.23632,1.10892 -0.70898,17.90635 -5.23556,-0.0545 -2.72686,0.39994 -1.5089,0.87259 1.218,2.10877 0.58173,0.6908 2.14512,2.14513 0.63627,0.81806 0.12725,0.12725 0.39994,0.16361 0.18179,0.18179 0.10908,0.23633 0.12725,0.58173 0.16361,0.21815 0,-0.39994 0.0545,-0.10908 0,-0.36358 0,-0.29086 0.29086,-0.10908 0.29087,0.0545 0.58173,0.12725 0.29086,0.0545 0.52719,0.10908 0.18179,0.41811 -0.0545,0.45448 -0.29087,0.41812 -0.76349,0.45453 -0.18179,0.23633 0.41812,0.29087 0.45447,0.0545 0.47266,-0.10907 3.43584,-1.74519 1.0362,-0.18179 2.21785,0 0.81805,-0.3454 0.69081,-0.92713 0.52719,-1.45433 0.23633,-0.41811 0.6908,-0.63627 0.23633,-0.16358 0.58173,0.0545 0.23632,-0.12726 0.81806,-0.50901 1.16346,-0.29087 1.16346,-0.18179 0.92713,0 0.52719,0.10908 1.09075,0.47265 0.41811,0.0545 1.85427,0.23633 0.3454,0.10907 0.47265,0.29087 0.58173,0.18179 0.52719,0.0545 0.5272,0 0.98166,-0.34532 0.5272,-0.0545 0.39994,0.23633 2.74503,0.21815 1.27253,0.29086 1.05439,0.5272 0.3454,-0.23633 0.63627,-0.69083 0.18179,-0.10908 1.0362,0 2.56325,0.0545 0.92713,0.29086 0.41812,-0.0545 0.58173,-0.23633 0.29086,-0.0545 2.49053,0.29087 9.65307,-0.76352 1.23617,0.3454 0.74535,0.41812 0.47265,0.16361 3.78124,-0.23633 0.74534,0.0727 1.87244,0.63626 0.63627,0.10908 6.21723,0.12725 1.45433,-0.23633 2.03605,0.45448 0.94531,0.12725 4.0721,-0.76352 44.5023,-0.6908 6.8535,-0.12725 0.81805,0.18178 0.5272,0.29087 0.52719,0.39994 0.6908,0.36358 0.52719,0.10907 0.45448,-0.0545 1.05438,-0.34541 0.58173,-0.0727 0.58173,0 0.58173,0.12725 1.218,0.52719 0.23633,0.10902 1.16345,0.58173 -0.10907,0.29086 -0.41812,0.47267 0,0.21814 0.29087,0.41812 0.18179,0.3454 0.0545,0.29086 0.10908,1.98152 0.12725,0.3454 0.16361,0 0.29087,-0.18179 0.29086,0 0.12726,0.29086 -0.63627,0.76352 0.58173,0.10909 0.39994,0.23631 0.52719,0.76353 0.39994,0.23633 0.41812,0.10908 0.3454,0.18179 0.16361,0.45447 0.52719,0.63627 0.29087,0.47265 -0.0545,0.39994 -0.23633,0.41812 -0.10907,0.52719 0.0545,2.32692 0.0545,0.29087 0.0545,0.29086 0.0727,0.29086 0,0.34541 -0.18179,0.10907 -0.29087,0 -0.29086,0.12725 -0.10908,0.29087 -0.0727,1.21798 0.0727,0.16362 0.21815,0.29086 0.18179,0.12725 0.23633,-0.0545 0.16361,0.0545 0.0727,0.39994 -0.18179,0.41812 -0.29087,0.45448 0,0.29086 0.63627,0 -0.16361,0.47267 0,0.39994 0.21815,0.29086 0.29086,0.29087 0.29087,0.34539 0,0.29087 -0.39994,0.70898 -0.10908,0.52719 0.10908,0.50901 0.47265,1.10892 0.10916,0.5272 0.10908,1.16346 0.12725,0.58172 0.29087,0.5272 1.74518,2.43599 0.10908,0.47265 0.0545,0.45448 0.12725,0.47265 0.3454,0.29087 0.3454,0.18179 0.76352,0.0545 0.39994,0.0545 0.76352,0.58173 0.39994,0.76352 0.23633,1.79973 -0.10908,0.10907 -0.12725,0.3454 0.0545,0.29087 0.23633,0.12725 0.41811,0.0545 0.16361,0.23633 0.12726,0.23632 0.16361,0.21815 0.29086,0.58173 -0.10907,0.52719 -0.23627,0.52728 -0.0545,0.69081 -0.99984,-0.29087 -0.0545,0.81806 0.63626,2.09059 -0.0545,1.69065 0.18179,0.29087 0.29086,0.18178 0.39994,0.39994 0.52719,0.70899 0.0545,0.50901 0,0.52719 0.12725,0.3454 0.8726,0.29087 1.09074,0.76352 0.81806,0.3454 0.3454,0.3454 0.12725,0.47266 0,1.10892 0.16361,0.45447 0.47266,0.29087 0.29086,-0.45448 0.18179,-0.0545 0.16361,0.10908 0.29087,0.18179 0.63627,0.16361 0.29086,0.12725 0.12725,0.21815 -0.18179,0.23633 -0.3454,0.12725 -0.39994,0.16361 -0.12725,0.41812 0.0545,0.29087 0.18179,0.16361 0.29086,0.23633 0.29087,0.23632 0.47265,0.74534 0.50902,1.52704 0.47265,0.69081 1.5634,0.76352 0.58173,0.45447 -0.10908,0.63627 0.18179,0.47266 -0.0727,0.76351 0.12725,0.50903 0.45448,-0.21815 0.0727,0.21815 0.0545,0.0727 0,0.0545 -0.12725,0.10908 0.52719,0.23632 0,0.29087 -0.16361,0.29086 -0.12725,0.29086 0.18179,0.39995 0.52719,0.47264 0.16361,0.29087 0.12725,0.18179 0.74534,0.10907 0.29087,0.18179 0.0545,0.29087 0,0.39994 0.12725,0.29086 0.63627,0 0,0.23633 -0.29087,0.23633 0.18179,0.10907 0.39994,0 0.3454,0.0545 0.12726,0.3454 -0.0727,0.41812 0.12725,0.23632 0.45448,-0.12725 0.36358,0.41812 -0.12725,0.29086 -0.29087,0.29087 -0.16361,0.39994 0.10907,0.23633 0.29087,0.23632 0.6908,0.29087 -0.16361,0.29086 0,0.0545 0.0545,0.10907 0.10907,0.23633 0.12726,-0.18179 0.16361,-0.16361 0.12725,-0.12725 0.29087,0.99984 0.16361,0.34541 0.36358,0.29086 0.6908,0.3454 0.23633,0.23633 0.10907,0.52719 -0.34534,0.92719 0.23633,0.47266 0.29086,0.29086 1.74519,0.45448 0.92713,-0.0545 2.67232,-0.92713 0.99985,0.0545 1.0362,0.39994 0.41812,-0.0545 1.96334,-1.03621 0.52719,-0.12725 1.05438,0.12725 0.92714,0.45448 1.63611,1.34525 0.87259,0.16361 2.83593,-0.0545 -0.21814,-0.74534 0.0545,-0.94531 0.29087,-0.6908 0.58173,-0.34541 0.45447,-0.12725 1.34525,-0.63627 0.52719,-0.0545 3.89032,0.10907 1.218,0.47266 0.41811,0.0545 0.45448,-0.16361 0.70898,-0.36358 0.52719,-0.0545 1.96334,-0.0545 0.18179,0.0545 0.63627,-0.0545 -0.16361,-1.16346 0.0545,-0.63627 0.39994,-0.29086 7.10801,0 0.21815,0.16361 0.18179,0.94531 0.18179,0.39994 0.50901,0.76352 18.50627,0 -0.63627,-2.50871 -0.12725,-0.81806 0.12725,-0.98167 1.39979,-4.36297 0.10907,-0.87259 -0.0545,-0.76352 -0.23633,-0.81806 -0.3454,-0.87259 -0.29086,-0.79988 0.10907,-0.87259 2.16331,0.16361 0.63627,-0.10908 0.45447,-0.47265 0.29087,-1.27253 0.47265,-0.5272 0,-0.0545 0.0545,0 0.92713,-0.76352 0,-0.92714 -0.79988,-2.14512 -0.29086,-1.10892 -0.0727,-0.99985 0.36358,-5.16285 0.29087,-0.99985 0.3454,-0.63626 0.87259,-1.10892 0.23633,-0.45448 -0.0727,-0.36358 -0.58173,-1.27253 14.03422,0 10.5802,0 0,-0.47266 0.10907,-1.03621 0.12726,-0.47265 0.29086,-0.45448 0.23633,-0.23632 0.39994,-0.0545 8.90773,0 -2.74504,7.1989 -0.23633,1.52704 0.0727,3.07226 39.66667,-0.10908 0.63627,0 0,0.10908 0.12725,0.18179 0.16361,0.0545 0.23633,0.1818 0.23633,0.21814 0.6908,1.52704 0.18179,0.16361 0.16361,0.29087 -0.0545,0.29086 -0.16361,0.23633 -0.0727,0.18179 0.18179,0.3454 0.23632,0.23633 0.16362,0.21815 0.12725,0.41812 -0.0545,0.16361 -0.18179,0.29086 0,0.18179 0.0545,0.18179 0.29086,0.29087 0.0545,0.16361 -0.0545,0.41812 -0.29086,0.63627 -0.0545,0.39993 -0.0545,0.34541 0.0545,0.23632 0.10907,0.18179 0.12726,0.29087 0,1.21799 -0.12726,0.23633 -0.45447,0.45448 -0.12725,0.18179 -0.0545,0.58173 -0.10908,0.47265 -1.79972,5.10831 -0.18179,1.39979 0.18179,0.81806 0.0545,0.3454 -0.12726,0.39994 -0.45447,0.65444 -0.12726,0.29087 0.12726,2.14512 0.10907,0.58173 0.3454,0.23633 0.99985,0.58173 0.23633,0.3454 0.0545,0.81806 0.16361,0.63627 0.36358,0.52719 0.79988,0.92713 0.18179,0.39994 0.10907,0.58173 0.0727,1.34525 0.3454,1.50886 0.29086,0.58173 0.92713,0.92713 0.29087,0.58173 -0.47266,0.23632 -0.16361,0.41812 0.3454,0.79988 0.81806,1.23617 0.23633,1.32707 -0.12725,1.39979 -0.74535,2.43599 0.16362,0.0727 0.0545,0.10907 0.12726,0.0545 0.29086,0 -0.58173,0.99985 -0.3454,0.98167 -0.70898,4.36297 -0.23633,0.23632 -0.21815,1.03621 -0.36358,0.76352 -0.29086,2.56324 0.12725,1.61794 -0.47266,3.67217 0.41812,3.19951 -0.0727,1.27253 -0.29087,1.34525 -0.98161,1.98143 -0.23633,1.10892 -0.3454,0.6908 0,0.39994 0.10908,0.36358 0.52719,0.63627 0.23633,0.29086 0.39994,1.32707 0.36358,2.79958 0.3454,1.27253 0.74534,1.29071 2.03605,2.09059 0.47266,1.218 0.18179,-0.10908 0.50901,-0.18179 0.18179,-0.10907 0.0545,1.0362 0.41812,0.8726 1.79972,2.1633 0.3454,0.16361 0.18178,-0.10907 0.21815,-0.23633 0.36358,0.23633 0.58173,0.39994 1.21801,0.81806 0.39994,0.47265 0.23631,0.6908 0.29087,1.16346 0.63628,1.74519 0.29086,1.34525 0.12725,0.39994 -0.18179,0.99985 0.58173,1.45432 0.76352,1.45432 0.58173,1.50886 0.74534,1.27254 0.23633,0.99984 0.47266,0.50902 0.10907,0.41811 0,0.34541 -0.18179,0.63626 -0.0545,0.29087 -0.10907,0.47265 -0.76352,1.16346 -0.23633,0.6908 0.12725,0.63627 0.29087,0.47266 0.39994,0.39993 0.29086,0.65445 0.12725,1.32707 -0.0727,1.34525 0.0727,1.10892 0.50902,0.79988 -0.16361,0.23633 0,0.0545 0.0545,1.23618 -0.0545,0.63627 -0.34541,0.23633 -0.58173,0.10907 -0.81805,0.23634 -1.34525,0.52719 -0.58173,0.39993 -0.6908,0.6908 -0.58173,0.70899 0,0.52718 0.29086,0.45448 0.6908,2.21784 0,1.218 0.12726,0.18179 0.45447,0.3454 0.12726,0.10909 0.0545,0.58173 0.58172,0.92712 0.16362,0.58174 0.41811,2.85411 -0.12725,1.34523 -0.45448,1.27254 0.81806,-0.0545 0.58173,-0.3454 1.38161,-1.45433 0.47268,-0.3454 3.19951,-1.05438 0.92713,-0.81806 0.99985,-2.49053 1.16346,-0.18179 3.59945,1.45433 1.218,0.29086 1.21799,0.10907 1.16345,-0.16361 0.70898,-0.41811 0.63628,-0.45448 0.76352,-0.3454 0.74534,0.0545 0.63627,0.29086 1.23617,0.81806 0.63627,0.21815 1.21799,0.23632 1.39979,-0.0545 5.81729,-0.92713 5.6355,-3.09043 1.34525,-0.39994 1.27254,-0.0545 1.21799,0.10907 4.72655,1.27254 1.03621,0.0727 1.21799,-0.0727 1.23618,0.12725 1.32707,0.39994 1.2907,0.23633 1.03621,-0.39994 0.23632,-0.29086 0.23633,-0.70899 0.16361,-0.3454 0.36358,-0.23633 0.63628,-0.39994 0.29086,-0.29086 0.29087,-0.63627 0.10906,-0.76352 0.29087,-0.58173 0.58173,-0.3454 1.10892,0.0545 1.45432,0.29086 1.39979,0.47266 0.6908,0.6908 0,0.29087 -0.16361,0.58173 0,0.29086 0.0545,0.3454 0.23634,0.63627 0.0545,0.36358 -0.0545,1.0362 0.21814,0.41812 0.65445,-0.12725 0.63627,-0.16361 0.52719,0 1.16346,0.3454 0.63626,0.10907 1.16346,0 0.63627,0.0545 0.6908,0.29087 0.94531,0.58173 0.79988,0.70898 0.36358,0.63627 -0.12725,0.39993 -0.29087,0.29087 -0.23632,0.29087 0,0.47265 0.18179,0.3454 0.52719,0.47266 0.23633,0.29086 0.16361,0.52719 0.0545,0.69081 -0.0545,0.6908 -0.10908,0.58173 -0.29086,0.52719 -0.99985,1.58158 -0.39994,0.39994 -1.34525,0.39994 -0.39993,0.36358 0.29086,0.58173 0.52719,0.21814 1.27254,0 0.63626,0.12726 0.70898,0.39994 1.03621,0.99984 0.65445,0.29087 0.74534,0.0545 0.70898,-0.12726 1.32707,-0.45447 0.29086,-0.0545 0.3454,0.0545 0.36359,-0.0545 0.21815,-0.29087 0.0727,-0.36358 0.16361,-0.29086 0.18179,-0.29087 0.29086,-0.21814 0.29087,-0.12726 0.6908,-0.16361 0.3454,-0.12725 0.29086,-0.3454 0.58173,-0.76352 0.36359,-0.34541 1.21798,-0.45447 2.38146,0 1.27254,-0.29087 2.32691,-1.16345 1.34526,-0.41812 1.21798,0.12725 4.59931,-0.41812 1.85426,-0.39994 3.0359,-1.45432 0.98167,-0.18179 0.41812,0.3454 0.0545,0.70898 0,0.81806 0.0545,0.63627 -0.0545,0.3454 -0.23633,0.18179 -0.63626,0.29086 -0.41812,0.29087 0.18179,0.21815 0.3454,0.29086 0.18179,0.29087 -0.23633,0.58173 -0.39995,0.29087 -0.23631,0.36357 0,0.74535 0.23631,0.70899 0.74534,1.21798 0.23634,0.5272 -0.0545,0.34539 -0.41812,0.45449 -0.16361,0.36357 0,0.29088 0.10908,0.50901 0.87259,2.61778 0.29087,0.52718 0.23632,0.29088 0.23633,0.12725 0.29087,0.0545 0.39993,0 0.41812,0.0545 0.21815,0.23633 0.12725,0.29086 0.29087,0.23633 1.79972,0.87258 0.58173,0.45449 0.0545,0.18179 0,0.16361 0,0.18179 -0.29086,0.81806 0.23633,0.39994 0.47265,0.23632 0.63627,-0.0545 0.29086,-0.12727 0.16361,-0.21814 0.23633,-0.1818 0.41812,-0.0545 0.3454,-0.12726 0.10908,-0.29085 0.0545,-0.3454 0.29086,-0.16363 1.45432,0.0545 1.10892,0.63628 0.99985,0.92712 1.218,0.70899 0.58173,0.10907 1.79972,0 0.39994,-0.0545 0.58173,-0.29088 0.23633,-0.0545 0.3454,0.0545 0.18179,0.10908 0.10907,0.1818 1.74519,1.32706 0.70899,0.29087 0.45447,0.36357 0.41812,0.98167 0.58173,0.23634 0.39994,0.0545 5.47189,-0.0545 0.76352,0.23633 0.63627,0.39994 0.63626,0.29085 1.16346,-0.0545 0.63627,0.29087 0.3454,0.0545 0.36358,-0.1818 0.63627,-0.39993 0.3454,-0.10909 1.16346,-0.23632 1.21799,0 0.76352,0.23632 0.58173,0.39994 0.45448,0.47266 0.58173,0.45448 1.16346,0.34539 2.56324,0.1818 1.218,0.23632 0.58173,0.34541 0.52719,0.39994 0.58173,0.29086 0.63626,-0.1636 0.47266,-0.47266 0.39994,-0.5272 0.47274,-0.3999 0.81806,0 1.50886,0.10904 1.34525,-0.29087 1.21799,-0.63626 1.10892,-1.10892 0.63627,-1.21799 0.10907,-2.61779 0.29087,-1.21799 0.52719,-0.69082 0.47266,-0.47264 0.3454,-0.47266 0,-0.87259 -0.3454,-1.32707 -0.0727,-0.63627 0.47265,-0.41811 0.23633,-0.0545 0.74534,0.10907 0.29086,-0.0545 1.23618,-0.34541 1.32707,-0.10906 0.92713,-0.36358 0.18179,-0.0545 0.58173,0.81806 0.29086,1.45431 0.1818,1.50887 -0.0727,1.10892 0.76352,2.72686 5.92636,3.61762 1.52704,2.56325 0.10908,1.27245 1.56339,4.36296 0.47267,0.69081 1.92698,1.45432 1.32707,1.52704 0.92712,0.29086 1.39979,0.10908 1.45433,-0.0547 1.05438,-0.29087 0.58173,-0.47259 0.3454,-0.4 0.39994,-0.29083 0.81806,0.1091 0.63627,0.2363 1.8179,1.05438 0.45448,0.58173 0.12725,0.79988 0.21815,0.65444 0.70898,0.21814 0.58173,-0.10906 0.45448,0 2.32691,0.2363 0.29086,0.16364 0.12725,0.23635 0.0545,0.34538 0.18178,0.29086 0.74534,0.58172 0.47267,-0.16364 0.45447,-0.47259 0.81806,-0.23635 0.63627,0.29085 0.47268,0.47278 0.52719,0.34543 0.8726,0 0.63626,-0.0547 0.63627,0 0.58173,0.23631 0.52719,0.29085 2.67232,2.1997 0.41812,0.70896 0.63627,1.56346 0.39993,0.76346 1.05439,1.10895 0.3454,0.58172 0,0.79988 -0.39994,0.52723 -0.52719,0.34537 -0.29086,0.47266 0.23632,0.81801 0.63627,0.87261 0.6908,0.69086 0.5272,0.76345 0.10907,1.61797 0.29086,0.29087 0.5272,0 0.47265,-0.16364 0.29087,-0.41809 0.45447,-0.9271 0.47266,-0.23637 1.45432,0.29087 1.27253,1.29069 2.16331,2.78142 0.58173,0.47266 0.23633,0.34543 0.29086,1.16346 0.10908,0.12722 0.39993,0.16364 0.12726,0.12722 0,0.16364 -0.18179,0.34538 0,0.12722 0.0545,0.16364 -0.0545,0.29087 0.0545,0.18179 0.12725,0.18179 0.16361,0.0547 0.18178,0 0.10908,0.10913 0.29086,1.1089 0.29087,0.18179 0.65444,0 0.29088,0.10907 0.3454,0.52716 0.98167,4.65384 0.52719,1.3271 0.92713,0.94531 0.47265,0.4545 0.5272,0.12723 0.58173,-0.12723 0.58173,-0.16364 0.79987,-0.0727 0.81806,-0.10908 0.76352,0 0.6908,0.34543 0.29087,0.41809 0.23633,0.45451 0.23632,0.34537 0.5272,0.12722 0.3454,-0.18173 0.58173,-0.74537 0.45447,-0.23636 0.70899,-0.29086 1.85426,-1.21797 4.49024,-1.69068 0.63624,-0.41809 1.85426,-1.67247 0.76352,-0.36358 0.74537,0.0727 0.58173,0.34537 0.52716,0.4 0.58173,0.41809 0.41815,0.0547 0.29086,-0.12723 0.21815,0 0.29087,0.36359 0.0727,0.34537 0,0.34543 -0.18179,0.29086 -0.10908,0.2363 -0.23635,0.16364 -0.58173,0.12723 -0.2363,0.23635 -0.0547,0.29087 0.0547,0.63624 -0.0547,0.29086 -0.18174,0.10913 -0.29086,0.0547 -0.29087,0.18179 0,0.39993 0.18174,0.41809 0.10913,0.34543 0.23631,0.29087 0.29085,0.29086 0.47266,0.29087 0.6908,0.2363 1.27259,0.34543 2.03606,0.0547 0.47266,-0.10913 0.5271,-0.99982 0.0547,-40.30294 0,-0.1818 -1.39975,0.12726 -0.69086,0.21815 -1.05434,0.81805 -1.69068,0.76353 -0.50901,0.0545 -0.36358,-0.18179 -0.58173,-0.509 -0.39994,-0.1823 -0.39994,0 -0.29087,0.10908 -0.47265,0.41811 -0.6363,0.39994 -1.39975,0.47266 -0.47266,0.34541 -0.21815,0.39993 -0.36358,1.23617 -0.16364,0.74537 -0.12722,0.29087 0,0.29087 0.12722,0.23629 0.92716,1.16346 0.52716,0.2363 0.45451,0 0.41809,0.16364 0.10913,0.58173 -0.10913,0.58173 -0.29087,0.47265 -0.47259,0.29088 -0.6363,0.0547 -0.2363,-0.0547 -0.10913,-0.10909 -0.12722,-0.18179 -0.16364,-0.0547 -0.2363,-0.0547 -0.39994,0.0547 -0.23636,0 -0.87259,-0.34537 -1.29069,-0.70896 -0.29086,-0.0547 -1.27253,0 -0.34543,-0.0547 -0.29087,-0.12723 -0.41809,-0.34537 -0.58173,-0.63629 -0.29086,-0.10908 -2.61778,0 -0.74534,0.21815 -0.70899,0.29086 -0.50901,0.29087 -0.36358,-0.58173 -0.50901,0.0727 -0.5272,0.29086 -0.47265,-0.0727 -0.3454,-0.16364 -0.23633,0 -0.10907,-0.0547 -0.0545,-0.41809 -0.12726,-0.34543 -2.56324,-4.65383 -0.8726,-0.98167 -1.85429,-1.05386 -0.29086,-0.39994 -0.10907,-0.58173 -0.36358,-0.65445 -0.45447,-0.50901 -0.41812,-0.36358 -1.09074,-0.58173 -0.47266,-0.3454 -0.18179,-0.45448 -0.0545,-0.87259 -0.29086,-0.29087 -1.10893,0.16362 -0.6908,-0.16362 -1.5634,-0.81805 -0.41812,-0.3454 -0.58172,-1.16346 -0.39994,-0.36358 -0.76352,0.47265 -0.10908,-0.29086 -0.3454,-0.63627 -0.18179,-0.18179 -0.29086,-0.23633 -0.29087,-0.16361 -0.29086,0 -0.47266,0.16361 -0.29086,-0.45447 -0.29087,-1.58158 -0.39994,-0.29087 -0.47265,-0.16361 -0.29087,-0.41811 -0.29086,-2.19967 -0.10908,-0.29086 -0.47265,-0.47266 -0.16361,-0.29086 0.10907,-0.10908 0,-0.3454 -0.58173,-1.87244 -0.16361,-0.29086 -0.47268,-0.45448 -0.23633,-0.36358 -0.3454,-0.92713 -0.18179,-0.23633 -0.16361,-0.50901 -0.0545,-1.69065 0.10907,-0.58173 1.63611,-2.38146 0.10908,-0.12725 0.6908,-0.52719 0.18176,-0.10908 -0.23632,-1.16345 0.12725,-0.6908 0.29086,-0.47266 0.3454,-0.34541 0.58173,-1.21799 -0.0545,-1.05439 0.0545,-0.3454 0.0545,-0.23633 0.29087,-0.3454 0.0545,-0.3454 0,-0.36358 -0.3454,-1.74519 0,-0.29085 0.47265,-0.58173 0.39994,-0.79989 0.10908,-0.36357 0.0727,-0.29087 -0.0727,-0.6908 0,-0.29086 0.23632,-0.29087 0.5272,-0.58173 0.10907,-0.3454 0.12725,-0.34541 0.29087,-0.65445 0.0545,-0.3454 0,-1.39979 0.18179,-0.74534 0.29086,-0.76352 0.39994,-0.63626 0.52719,-0.58173 0.23633,-0.29087 0.21815,-0.6908 0.52719,-0.81806 0.12726,-0.12725 0.16361,-0.10907 0.41811,0.0545 0.16362,-0.0545 0.47265,-0.34541 0.52719,-0.52719 0.39994,-0.58173 0.10908,-0.63626 -0.10902,-0.23633 -0.76352,-0.52719 -0.16361,-0.34541 0.0545,-0.3454 0.18179,-0.70898 0,-0.3454 -0.81806,-0.8726 -0.41812,-0.58173 0,-0.39993 0.12726,-0.29087 -0.2363,-0.52719 0.10907,-0.29087 0.18179,-0.29086 0.10908,-0.3454 0.0728,-0.41812 0,-0.39994 -0.23633,-0.58173 -0.29086,-0.52719 -0.29087,-0.58173 -0.0545,-0.74534 0.0545,-0.70898 0.16361,-0.5272 0.12726,-0.45447 -0.18179,-0.63627 -0.0545,0 -0.29087,-0.18179 -0.0545,-0.0545 -0.12725,-0.18179 -0.0546,-0.34543 -0.0545,-0.10907 -1.10892,-0.94531 0.3454,-0.58173 0.76352,-0.92713 0.52719,-0.98167 0.29087,-1.218 0.0545,-2.56324 -0.23633,-2.27238 0.12725,-0.69081 0.98167,-2.03605 0.29086,-1.39978 0.34541,-0.58173 0.58173,-0.23633 0.0545,-0.10908 -0.79988,-0.87259 -0.12726,-0.47265 -0.16361,-0.1818 -0.29086,-0.10907 -0.29087,-0.18179 -0.47259,-0.63627 -0.18179,-0.63626 -0.0545,-1.45433 -0.0545,-0.3454 -0.29087,-0.70898 -0.0545,-0.29087 -0.18179,-0.39993 -0.58173,-0.69081 -0.10907,-0.29086 0.16361,-0.18178 0.70898,-0.23634 0.23633,-0.23633 -1.05439,0 -0.3454,-0.16361 -0.18179,-0.41812 0,-0.509 -0.0546,-0.41812 -0.10907,-0.3454 -0.23633,-0.3454 -0.81806,-0.58173 -0.3454,-0.3454 -0.18179,-0.47266 0.0545,-0.47265 0.0727,-0.58173 -0.0727,-0.63627 -0.63626,-0.74534 -1.16346,-0.58173 -1.50886,-0.36358 -1.39979,-0.50901 -0.52719,-1.16346 0.65444,-1.16346 1.38161,-0.87259 2.90865,-1.39979 2.90864,-2.16331 5.36282,-5.16284 4.01757,-5.36282 1.21799,-2.72686 0.16362,-2.85411 -1.38161,-2.85411 -0.12725,-0.58173 0.87259,-0.3454 58.46386,-8.83501 -0.74537,-2.85411 -2.32692,-5.65368 -6.81711,-10.58021 -0.81809,-2.96318 -0.34537,-2.09059 -1.10895,-4.01757 -2.38143,-5.12649 -1.90883,-2.96318 -4.59938,-5.2901 -2.45408,-2.09059 -4.47205,-2.27238 -4.3084,-3.19951 -0.98173,-1.10893 -0.70895,-1.16345 -1.61797,-4.30844 -2.16327,-2.78139 -0.92716,-1.52704 -0.34538,-1.218 -0.52722,-3.83578 -0.98166,-3.54491 -0.0547,-1.21799 0.63623,-2.03607 2.38149,-3.1995 0.98166,-1.8179 0.29087,-2.49053 -0.58173,-2.67232 -3.07229,-7.27162 -1.34519,-5.12649 -2.43605,-4.54476 -1.10889,-2.61778 0,-0.16361 -0.6363,-2.56324 -0.0547,-2.67232 0.63624,-2.67232 1.90883,-5.30828 0.29087,-2.67233 -0.10908,-1.27253 -0.10907,-0.41812 -0.99982,-7.67156 -1.03624,-3.67217 -1.98154,-3.30858 -1.21794,-1.27254 -0.47265,-0.70898 -0.29087,-0.87259 -0.29086,-3.72671 0.52719,-3.65398 0.0545,-2.50871 -0.58173,-8.08967 0.0545,-0.92714 0.18179,-0.45447 0.87259,-0.81806 -0.52681,-0.41812 -0.23633,-0.63626 -0.10907,-2.09059 0.10907,-0.63627 0.23633,-0.58173 0.39994,-0.23633 0.18179,-0.3454 -0.29086,-2.03605 -0.29087,-0.47266 -0.39994,-0.3454 -0.58173,-0.23633 -0.58173,-0.0545 -0.58173,-0.23633 -0.29086,-0.58173 -0.12725,-0.63627 -0.16373,-0.52719 -0.47266,-0.29086 -0.58173,-0.23633 -0.52719,-0.21815 -0.16361,-0.52719 -0.0727,-0.52719 -0.16361,-0.29087 -0.47266,-0.6908 -0.29086,-0.8726 -0.10908,-0.23632 -0.47265,-0.23633 -0.6908,-0.0545 -0.58173,-0.18179 -0.23633,-0.52725 0.0545,-0.6908 0.23633,-0.5272 0.3454,-0.3454 0.70898,-0.0545 -0.47265,-0.81805 -0.47266,-0.52719 -0.63627,-0.29087 -0.98166,-0.10907 -0.41812,-0.18179 -1.16346,-0.74534 -0.29087,-0.29087 0.23633,-2.45417 -0.23633,-0.6908 -0.29086,-0.34541 -0.3454,-0.18179 -0.29087,-0.18179 -0.10907,-0.39994 0.10907,-0.47265 0.5272,-0.45448 -0.10905,-0.41814 -0.29086,-0.58173 -0.12726,-0.58173 -0.0545,-0.69081 0.23633,-0.87259 0.39994,-0.3454 0.87259,-0.29087 0.70899,-0.23632 0.50901,-0.29087 0.47265,-0.47265 0.34541,-0.58173 0.23632,-0.45448 0.10908,-0.3454 0.0727,-0.29087 0.3454,-0.29086 0.23633,-0.12725 0.92713,0.0545 1.39978,-0.39993 1.09075,-0.8726 0.81805,-1.21799 0.47266,-1.50886 0.23633,-1.34525 -0.12726,-1.10892 -0.81805,-4.99924 -0.0545,-1.16346 0.12725,-1.16346 0.63627,-1.39979 1.16345,-1.90879 0.81806,-1.29072 0.69081,-1.27253 0.3454,-0.58173 1.58154,-1.29071 0.29087,-0.39994 0.87259,-1.79972 0.39994,-0.47266 0.47266,-0.23633 2.43599,-0.0545 0.10907,-0.0545 0.0727,0 0.0547,-0.10908 0.69086,-1.10892 1.1089,-1.16346 1.27253,-0.87259 1.23617,-0.47266 0.34538,-1.85426 -0.0547,-0.63627 -0.12723,-0.36358 -0.34543,-0.63626 0,-0.3454 0.29087,-0.81806 0,-0.23633 -0.18179,-0.6908 -0.29087,-0.47266 -0.29086,-0.50901 0,-0.76352 0.41809,-1.98152 0,-0.58173 -0.12723,-0.63626 -0.4545,-1.218 -0.12723,-0.52719 0.12723,-0.39994 0.16364,-0.29086 0.12722,-0.29087 -0.0547,-0.47264 -0.12722,-0.58173 0,-0.34541 0,-0.29087 0.41809,-0.52719 0.9271,-0.3454 0.34543,-0.41812 0.0547,-0.45448 0.12728,-1.92698 -0.0727,-0.69079 -0.29086,-1.218 0,-0.70898 0.41808,-2.49053 0.10908,-0.1818 0.18179,-0.10907 0.16364,-0.18179 0,-0.23633 -0.0547,-0.16361 -0.23636,-0.36358 -0.0547,-0.16361 0.12723,-0.3454 0.29086,-0.12726 0.34537,0 0.23636,-0.16361 0.10907,-0.47265 -0.10907,-1.92698 -0.18179,-0.50902 -0.39994,-0.87259 -0.0727,-0.58173 2.03606,-12.10724 0.47272,-1.16346 0.18178,-0.58173 0,-0.63625 -0.41809,-1.39979 0.0547,-0.5272 0.29085,-0.87259 1.39982,-1.98152 0.18173,-0.3454 0.34543,0.18179 0.2363,0.16361 0.23636,0.12726 0.34537,-0.23633 0.0547,-0.23633 1.05438,-5.23556 0.21816,-0.69081 0.36357,-0.58172 2.25421,-2.61778 0.58172,-1.21801 -0.0547,-1.29071 -0.63629,-2.56323 0.0547,-0.63627 0.41809,-2.67232 -0.23636,-1.69065 0.0547,-0.29088 0.6363,-1.27252 0.41809,-0.23634 0.6908,-0.52719 0.47265,-0.34539 1.3271,-0.63627 3.38125,-0.76353 0.29086,-0.1636 0.34543,-0.41813 0.58173,-1.10892 0.10908,-0.0545 0.18179,-0.52719 0.6908,-0.74533 0.23636,-0.58173 -0.16364,-1.34526 0,-0.58172 0.34537,-0.39993 0.10913,-0.29088 0.12723,-0.29086 0.0547,-0.70899 0.0547,-0.1636 0.98166,-1.05439 0.29088,-0.10907 0.23636,-0.0545 0.34537,0 0.29085,0.29087 0.58173,0.29085 0.41809,-0.47264 0.34543,-0.63627 0.52716,-0.41812 0.4,0 0.70896,0.0727 0.4545,-0.0727 0.58173,-0.10907 0.47261,-0.23634 0.39999,-0.23632 0.63627,-0.58172 6.47173,-8.30783 10.92563,-8.8532 6.92619,-8.72594 0.92716,-1.61793 0.29086,-1.63612 -0.39999,-0.63626 -1.7997,-0.98167 -0.70895,-0.52718 -0.23665,-0.527285 -0.10908,-0.69081 -0.0547,-1.39978 -1.50883,0.58173 -0.52722,0.10907 -0.4726,0 -1.39981,-0.29086 -0.39994,-0.23633 -0.18179,-0.29087 0.0727,-0.10907 0.21815,-0.10908 0,-0.18179 -0.0547,-0.23632 -0.0547,-0.10908 -1.79976,-2.03605 -0.52716,-0.3454 -1.21802,0 -0.52717,0.87259 -0.39994,1.03621 -0.94531,0.41812 -0.50901,-0.23633 -0.58173,-0.52719 -0.52722,-0.63627 -0.34537,-0.52719 -0.12723,-0.47266 0.0547,-0.45447 -0.10907,-0.41812 -0.29087,-0.16361 -2.21784,0 -0.4545,-0.12726 -0.12723,-0.58173 0.29087,-0.63626 0.41808,-0.63627 0.23636,-0.52719 0.0547,-0.58173 -0.12722,-1.16346 0,-0.58173 0.12722,-0.3454 0.6363,-0.98167 0.0547,-0.23633 0.12722,-0.52719 1.03623,-2.85411 0.0547,-0.16361 0,-0.36358 0.12723,-0.16361 0.10913,-0.0545 0.41809,-0.12725 0.10907,-0.0545 0.18179,-0.29087 0.79988,-2.14513 0.0727,-1.29071 -0.36358,-1.27253 -0.74536,-1.29071 -0.52717,-0.45448 -1.50888,-1.05438 -0.34538,-0.45448 -0.0727,-0.65445 0.12723,-0.63626 1.79975,-5.39918 0.58173,-1.10892 0.10907,-0.12725 0.36359,-0.0545 0.16364,-0.0545 0.12722,-0.18179 0,-0.3454 0.0547,-0.16361 0.63629,-1.05439 0.92716,-1.05438 0.41809,-0.58173 0.16364,-0.63627 -0.0547,-0.39994 -0.29086,-0.63626 -0.0547,-0.41812 0.23636,-0.8726 0,-0.29086 -0.47266,-0.74534 -0.47265,0.16361 -0.63625,0.52719 -0.69084,0.23633 -0.34538,-0.63627 0.29087,-1.63611 -0.47266,-0.58173 -0.98167,-0.39994 -0.41809,-0.29086 -0.23635,-0.47266 -0.0547,-1.10892 -0.10914,-0.3454 -0.58173,-0.39994 -0.52716,0.3454 -0.52716,0.63627 -0.69087,0.39994 -0.8726,0 -0.34537,0 -0.58173,0.23632 -0.99982,0.5272 -0.39999,0.10907 -0.63624,0.12725 -0.29086,-0.0545 -0.29087,-0.0727 -0.36358,-0.29086 0,-0.16361 0.18179,-0.18179 0.18179,-0.39994 0.29087,-1.218 0,-0.65444 -0.76352,-4.65384 -0.47266,-0.79988 -0.29085,-0.12725 -0.34538,0 -0.29086,0.12725 -0.29087,0.0545 -0.63632,-0.0545 -0.29087,0 -1.21802,-0.41811 -2.56322,-1.50901 -2.14513,-0.6908 -2.10877,-0.0727 -0.50901,-0.16362 -0.23636,-0.29086 -0.0547,-0.3454 0,-0.29087 -0.0727,-0.36358 -0.16364,-0.3454 -0.81791,-0.92713 -0.29087,-0.76352 -0.18179,-0.6908 -0.29086,-0.63627 -0.7454,-0.41812 -1.34519,-0.29086 -0.45451,-0.29087 -0.47265,-0.63626 -0.76352,-1.45433 -0.45451,-0.58173 -0.76346,-0.45447 -0.4,-0.0727 -0.34537,0 -0.29086,-0.0545 -0.29087,-0.29087 0,-0.39994 0.16364,-0.3454 0.2363,-0.29086 0.10907,-0.36358 -0.34537,-0.63627 -0.63629,-0.63627 -0.8726,-0.47265 -0.6908,-0.10908 -1.45432,0 -0.8726,-0.6908 -0.36358,-1.16346 0,-1.39979 0.29087,-0.92713 0.0727,-0.36358 -0.0727,-0.29086 -0.21815,-0.50901 0,-0.29087 0.16364,-0.29086 0.29086,-0.41812 0.12723,-0.29087 -0.36358,-0.23632 -0.34538,-0.16361 -0.69086,-0.41812 -0.2363,-0.10908 -0.6908,0.18179 -0.23636,0 -0.47259,-0.29086 -0.92717,-0.81806 -0.34543,-0.29086 -1.34519,-0.58173 -0.39999,-0.12726 -0.92711,0 -0.99981,-0.39993 -0.34544,-0.10908 -0.18179,0.0545 -0.50901,0.23633 -0.18179,-0.12725 -0.29086,-0.29087 -0.10908,-0.10907 -0.70895,-0.12726 -0.45451,0.0727 -0.29085,0.39994 -0.0727,1.10892 -0.10908,0.58173 0,0.34541 -0.0547,0.3454 -0.58172,0.52719 -0.18174,0.3454 -0.23635,0.76352 -0.29087,0.63627 -0.34537,0.58173 -1.61796,1.39978 -0.36359,0.45448 -0.29086,0.76352 -0.50901,0.76352 -0.52722,0.10907 -0.63624,-0.10907 -0.76352,0 -0.3454,0.3454 -0.12714,0.63627 -0.21815,0.52719 -0.81806,0.0545 -0.70898,-0.3454 -2.03605,-2.03606 -0.3454,-0.23632 -1.27254,-0.58173 -0.0545,0.0545 -0.12728,-0.45448 -0.3454,-0.12725 -1.50886,-1.03621 -0.29087,-0.23632 -1.92697,0.45447 -0.69081,0.0727 -1.50886,-0.12725 -0.94531,0.12725 -0.3454,0 -0.81806,-0.29086 -0.16361,-0.65445 0,-0.6908 -0.47265,-0.63627 -0.45448,-0.12725 -0.29086,0.12725 -0.23633,0.29087 -0.47266,0.23632 -0.63626,0 -0.29087,0 -1.34525,2.54507 -0.45447,0.65444 -0.47266,0.34541 -1.32707,0.29086 -0.36358,0.23633 -0.10907,0.3454 -0.10908,0.39994 -0.18179,0.29086 -0.29086,0.0545 -0.3454,-0.0545 -0.29087,-0.0545 -0.29086,0 -0.76352,0.18179 -0.39994,0.34541 -1.29071,1.56339 -0.58173,0.58173 -0.63627,0.41812 -0.74534,0.0545 -0.76352,-0.23633 -0.23633,-0.29086 -0.10907,-0.47266 -0.29087,-0.63626 -1.10892,-0.81806 -1.34525,0.0727 -1.3816,0.29087 -1.23618,-0.18179 -0.63627,-0.39994 -0.58173,-0.65445 -0.87259,-1.09074 -0.10907,-0.65445 -0.23633,-0.21815 -0.52719,-0.0727 -0.29087,0.18179 -0.52719,0.58173 -0.29086,0.0545 -0.98151,-1.39958 -0.18179,-0.3454 -0.0545,-0.23633 -0.0545,-0.21815 -0.0545,-0.36358 0.10907,-0.74534 0.18171,-0.52719 -0.12726,-0.3454 -1.61793,-0.23633 -0.3454,0.0545 -0.23633,-0.0545 -0.3454,-0.3454 -0.12726,-0.0545 -0.29086,0.16361 -0.16361,0.0545 0.0545,0.0727 0,0.0545 0,0.16361 -0.12726,0.12725 -0.16358,0.0545 -0.52719,-0.23633 -0.18179,-0.0545 -0.92713,0.18179 -0.23633,-0.0727 -0.39994,-0.21815 -0.58173,-0.58173 -0.29086,-0.29086 -0.23633,-0.0727 -0.81806,-0.16362 -0.10907,0 -0.23633,-0.52718 -0.16361,-0.76352 -0.0727,-1.32707 0.29087,-1.87244 -0.10908,-0.69081 -0.18179,-0.29086 -0.16361,-0.3454 -0.29086,-0.29087 -0.29087,-0.18179 -0.29086,0 -0.58173,0.18179 -0.23633,0 -0.47265,-0.3454 -0.16362,-0.52719 -0.23632,-1.34525 -0.39994,-0.74534 -0.58173,-0.36358 -2.85411,-0.29087 -0.63627,-0.21814 -0.52719,-0.47266 -0.18179,-0.3454 -0.16361,-0.63627 -0.12726,-0.29086 -0.23632,-0.36358 -1.03621,-0.74534 -0.18179,-0.0545 -0.23633,-0.12726 -0.16361,-0.16361 -0.18179,-0.18179 0.18179,-1.39978 -0.0545,-0.39994 -0.81805,-0.34541 -0.29087,-0.0727 -0.47265,-0.29086 -0.34543,-0.0545 -0.58173,-0.0545 -0.3454,-0.0545 -0.29087,-0.12725 -0.41812,-0.29087 -0.39994,-0.39994 -0.47265,-0.29086 -0.50901,-0.10908 -0.70899,-0.0727 -0.74534,-0.21815 -2.61778,-1.29071 -1.34525,-0.45447 -1.34525,-0.12726 -1.45432,0.41812 -1.16346,0.63627 -0.92713,0.63626 -0.92713,0.76352 -0.92713,1.03621 -0.12726,0.23633 -0.3454,0.76352 -0.16361,0.29086 -0.36358,0.39994 -0.16361,0.10907 -0.58173,-0.0545 0,-0.0545 -0.12725,-0.18179 -0.16362,-0.16361 -0.23632,-0.0545 -0.18179,0.10908 -0.3454,0.29086 -0.23633,0.0545 -0.21815,-0.16361 -1.29071,-1.39979 -0.23633,-0.12725 -0.45448,-0.0545 -1.50886,0 -0.36358,0.18179 -0.39994,0.3454 -0.3454,0.10908 -0.41812,-0.10908 -0.29086,0 -0.16361,0.3454 -0.18179,0 -0.29087,-0.3454 -0.52719,-0.10907 -0.58173,0.21815 -0.39994,0.47265 -0.18179,-0.23633 -0.21814,0.23633 -0.41812,0.18179 -0.45448,0.16361 -0.23633,0.0545 -0.58173,-0.0545 -0.87259,-0.29086 -0.41811,-0.0545 -0.0545,-0.23633 -0.58173,-1.21799 -0.39994,-0.29087 -0.47265,-0.29086 -0.45448,-0.3454 -0.29086,-0.47266 -0.70899,0.29086 -0.16361,0.12726 -0.29086,-0.36358 -0.58173,-0.0545 -0.58173,0.0545 -0.81806,-0.10908 -0.63626,-0.29086 -0.58173,-0.39994 -0.23633,-0.58173 -0.12725,0.0545 -0.39994,0.10907 -0.10908,0.0545 0,-0.50901 0,-0.12725 -0.41812,0.12725 -0.16361,-0.23633 -0.29086,-0.99984 -0.12726,0.12725 -0.3454,0.29086 -0.0545,-0.12725 -0.23638,-0.10907 -0.10908,-0.18179 -0.47265,0.18179 -0.18179,-0.23633 -0.21815,-0.3454 -0.47266,-0.23633 -0.10907,0.29086 -0.18179,0.23633 -0.23633,0.10908 -0.29086,0 -0.16361,-0.0545 -0.18179,-0.0545 -0.10908,-0.0545 0.0545,0.81805 0.10908,0.21815 -0.29087,-0.10907 -0.29086,-0.0545 -0.16362,0.10907 -0.12725,0.41812 -0.16361,0 -0.36358,0 -0.39994,0.0545 -0.3454,0.23633 -0.41812,-0.29087 -0.58173,-0.65444 -0.3454,-0.16361 -0.39994,-0.0545 -0.29086,0.10907 -0.18179,0.29086 0,0.5272 -0.45448,-0.18179 -0.58173,0.0545 -0.41811,0.36358 -0.0545,0.63626 -0.58173,-0.47265 -0.29086,-0.58173 -0.34539,-0.39994 -0.709,-0.0545 -0.10906,0.21815 -0.3454,0.36358 -0.29087,0.16361 -0.23632,-0.63627 -0.1818,-0.23632 -0.0545,-0.29087 0.12726,-0.39994 -0.18183,0.0545 -0.34539,0.0545 -0.12726,0.0545 -0.10907,-0.74534 -0.39994,-0.23632 -0.29086,0.10907 0.3454,0.23633 -0.29087,0.41811 -0.41812,0.0545 -0.45447,-0.23632 -0.3454,-0.23633 -0.8726,-0.98167 -0.47281,-0.3454 -0.69081,-0.18179 -0.0727,-0.0545 -0.10907,-0.0545 -0.23633,-0.29086 -0.16361,-0.0727 -0.41812,0.0727 -0.23632,0.21815 -0.21815,0.0727 -0.47266,-0.36359 0,-0.16361 0.18179,-0.12725 0.10908,-0.10907 0.0545,-0.10908 0.12725,-0.12725 -0.76352,0 -0.23633,-0.29087 -0.10907,-0.39994 -0.23633,-0.41811 -0.23633,0 -0.39993,0.0727 -0.58173,-0.0727 z M -130.53051,357.6 l -0.98167,0.23633 -1.23617,0.63626 -0.98167,0.81806 -0.39994,0.79988 0.16361,0.41812 0.41812,0.23632 0.58173,0 0.45448,-0.23632 1.10892,-1.29072 0.52719,-0.3454 0.98167,-0.23632 2.09059,-0.16362 0.87259,-0.47265 0.18179,0 -0.18179,-0.3454 -0.45447,0 -1.10892,0.18179 -2.03606,-0.23633 z"
         id="path3819" />
    </clipPath>
  </defs>
  <sodipodi:namedview
     pagecolor="#ffffff"
     bordercolor="#666666"
     borderopacity="1"
     objecttolerance="10"
     gridtolerance="10"
     guidetolerance="10"
     inkscape:pageopacity="0"
     inkscape:pageshadow="2"
     inkscape:window-width="1366"
     inkscape:window-height="716"
     id="namedview10"
     showgrid="false"
     fit-margin-top="0"
     fit-margin-left="0"
     fit-margin-right="0"
     fit-margin-bottom="0"
     inkscape:zoom="0.5"
     inkscape:cx="299.23182"
     inkscape:cy="440"
     inkscape:window-x="-8"
     inkscape:window-y="-8"
     inkscape:window-maximized="1"
     inkscape:current-layer="svg2" />
  <g
     id="g3805"
     clip-path="url(#clipPath3817)"
     transform="matrix(1.6666669,0,0,1.6666669,251.6667,-1.0833335e-4)">
    <path
       id="rect4"
       d="m 0,0 0,165.71875 -307.15625,0 0,267.125 L 0,432.84375 0,450 750,0 0,0 z m 146,36 26,84 84,0 -68,52 26,84 -68,-52 -68,52 26,-84 -68,-52 84,0 26,-84 z m 654,114 -750,450 750,0 0,-450 z"
       style="fill:#007fff"
       inkscape:connector-curvature="0" />
    <path
       id="path6"
       style="fill:#f7d618"
       d="m 36,120 84,0 26,-84 26,84 84,0 -68,52 26,84 -68,-52 -68,52 26,-84 -68,-52 z M 750,0 0,450 l 0,150 0,0 50,0 750,-450 0,-150 -50,0"
       inkscape:connector-curvature="0" />
    <path
       id="path8"
       style="fill:#ce1021"
       d="M 800,0 0,480 l 0,120 0,0 0,0 800,-480 0,-120"
       inkscape:connector-curvature="0" />
  </g>
</svg>
