<?xml version="1.0" encoding="UTF-8" standalone="no"?>
<svg
   xmlns:dc="http://purl.org/dc/elements/1.1/"
   xmlns:cc="http://creativecommons.org/ns#"
   xmlns:rdf="http://www.w3.org/1999/02/22-rdf-syntax-ns#"
   xmlns:svg="http://www.w3.org/2000/svg"
   xmlns="http://www.w3.org/2000/svg"
   xmlns:xlink="http://www.w3.org/1999/xlink"
   xmlns:sodipodi="http://sodipodi.sourceforge.net/DTD/sodipodi-0.dtd"
   xmlns:inkscape="http://www.inkscape.org/namespaces/inkscape"
   width="714.54266"
   height="601.24658"
   id="svg2"
   version="1.1"
   inkscape:version="0.91 r13725"
   sodipodi:docname="Flag_of_Nicaragua.svg">
  <metadata
     id="metadata260">
    <rdf:RDF>
      <cc:Work
         rdf:about="">
        <dc:format>image/svg+xml</dc:format>
        <dc:type
           rdf:resource="http://purl.org/dc/dcmitype/StillImage" />
        <dc:title></dc:title>
      </cc:Work>
    </rdf:RDF>
  </metadata>
  <sodipodi:namedview
     pagecolor="#ffffff"
     bordercolor="#666666"
     borderopacity="1"
     objecttolerance="10"
     gridtolerance="10"
     guidetolerance="10"
     inkscape:pageopacity="0"
     inkscape:pageshadow="2"
     inkscape:window-width="1600"
     inkscape:window-height="837"
     id="namedview258"
     showgrid="false"
     fit-margin-top="0"
     fit-margin-left="0"
     fit-margin-right="0"
     fit-margin-bottom="0"
     inkscape:zoom="0.665"
     inkscape:cx="371.73795"
     inkscape:cy="300.64569"
     inkscape:window-x="-8"
     inkscape:window-y="-8"
     inkscape:window-maximized="1"
     inkscape:current-layer="svg2" />
  <defs
     id="defs4">
    <linearGradient
       id="cap1"
       gradientUnits="userSpaceOnUse"
       x1="498.73801"
       y1="289.05499"
       x2="500.62601"
       y2="283.42001">
      <stop
         stop-color="#510000"
         offset="0"
         id="stop7" />
      <stop
         stop-color="#8a0000"
         offset="0.3"
         id="stop9" />
      <stop
         stop-color="#a00"
         offset="1"
         id="stop11" />
    </linearGradient>
    <linearGradient
       id="cap2"
       gradientUnits="userSpaceOnUse"
       x1="501.444"
       y1="291.37299"
       x2="502.927"
       y2="287.44901">
      <stop
         stop-color="#ff2a2a"
         offset="0"
         id="stop14" />
      <stop
         stop-color="#f00"
         offset="1"
         id="stop16" />
    </linearGradient>
    <linearGradient
       id="mountain"
       gradientUnits="userSpaceOnUse"
       x1="484.76401"
       y1="311.70901"
       x2="484.76401"
       y2="317.647">
      <stop
         stop-color="#F5F549"
         offset="0"
         id="stop19" />
      <stop
         stop-color="#97C924"
         offset="1"
         id="stop21" />
    </linearGradient>
    <linearGradient
       id="seafgrad">
      <stop
         stop-color="#025"
         offset="0"
         id="stop24" />
      <stop
         stop-color="#04a"
         offset="0.5"
         id="stop26" />
      <stop
         stop-color="#025"
         offset="1"
         id="stop28" />
    </linearGradient>
    <linearGradient
       id="seabgrad"
       xlink:href="#seafgrad"
       gradientUnits="userSpaceOnUse"
       x1="444.509"
       y1="317.48599"
       x2="634.41101"
       y2="317.48599" />
    <clipPath
       id="shield">
      <path
         d="m 500,226.375 -63.7015,110.332 127.401,0 z"
         id="path32"
         inkscape:connector-curvature="0"
         style="fill:#000000" />
    </clipPath>
    <linearGradient
       inkscape:collect="always"
       xlink:href="#seafgrad"
       id="linearGradient4401"
       gradientUnits="userSpaceOnUse"
       x1="444.509"
       y1="317.48599"
       x2="634.41101"
       y2="317.48599" />
    <linearGradient
       inkscape:collect="always"
       xlink:href="#seafgrad"
       id="linearGradient4403"
       gradientUnits="userSpaceOnUse"
       x1="444.509"
       y1="317.48599"
       x2="634.41101"
       y2="317.48599" />
    <linearGradient
       inkscape:collect="always"
       xlink:href="#seafgrad"
       id="linearGradient4405"
       gradientUnits="userSpaceOnUse"
       x1="444.509"
       y1="317.48599"
       x2="634.41101"
       y2="317.48599" />
    <linearGradient
       inkscape:collect="always"
       xlink:href="#seafgrad"
       id="linearGradient4407"
       gradientUnits="userSpaceOnUse"
       x1="444.509"
       y1="317.48599"
       x2="634.41101"
       y2="317.48599" />
    <linearGradient
       inkscape:collect="always"
       xlink:href="#seafgrad"
       id="linearGradient4409"
       gradientUnits="userSpaceOnUse"
       x1="444.509"
       y1="317.48599"
       x2="634.41101"
       y2="317.48599" />
    <linearGradient
       inkscape:collect="always"
       xlink:href="#seafgrad"
       id="linearGradient4411"
       gradientUnits="userSpaceOnUse"
       x1="444.509"
       y1="317.48599"
       x2="634.41101"
       y2="317.48599" />
    <linearGradient
       inkscape:collect="always"
       xlink:href="#seafgrad"
       id="linearGradient4413"
       gradientUnits="userSpaceOnUse"
       x1="444.509"
       y1="317.48599"
       x2="634.41101"
       y2="317.48599" />
    <linearGradient
       inkscape:collect="always"
       xlink:href="#seafgrad"
       id="linearGradient4415"
       gradientUnits="userSpaceOnUse"
       x1="444.509"
       y1="317.48599"
       x2="634.41101"
       y2="317.48599" />
    <linearGradient
       inkscape:collect="always"
       xlink:href="#mountain"
       id="linearGradient4417"
       gradientUnits="userSpaceOnUse"
       x1="484.76401"
       y1="311.70901"
       x2="484.76401"
       y2="317.647" />
    <linearGradient
       inkscape:collect="always"
       xlink:href="#mountain"
       id="linearGradient4419"
       gradientUnits="userSpaceOnUse"
       x1="484.76401"
       y1="311.70901"
       x2="484.76401"
       y2="317.647" />
    <linearGradient
       inkscape:collect="always"
       xlink:href="#mountain"
       id="linearGradient4421"
       gradientUnits="userSpaceOnUse"
       x1="484.76401"
       y1="311.70901"
       x2="484.76401"
       y2="317.647" />
    <linearGradient
       inkscape:collect="always"
       xlink:href="#seafgrad"
       id="linearGradient4423"
       gradientTransform="scale(4.4571529,0.22435847)"
       x1="98.900705"
       y1="1440.1551"
       x2="124.97068"
       y2="1440.1551"
       gradientUnits="userSpaceOnUse" />
    <linearGradient
       inkscape:collect="always"
       xlink:href="#seafgrad"
       id="linearGradient4425"
       gradientTransform="scale(9.1240531,0.10960041)"
       x1="47.855346"
       y1="3054.2136"
       x2="61.744553"
       y2="3054.2136"
       gradientUnits="userSpaceOnUse" />
  </defs>
  <path
     d="m 130.00584,200.60086 1.95703,0.92773 0.74219,1.65235 0.96094,7.08008 0.21875,3.0332 0.55664,1.23047 1.24609,3.15234 0.32031,1.80469 -0.0332,1.24805 -0.97852,1.55078 -1.48242,1.58398 -0.40429,1.38281 1.61718,2.25782 2.9336,1.02929 0.55664,3.16797 0.52148,3.06836 0,2.34375 -0.55469,1.75195 -2.93359,1.95508 -1.82031,1.45118 -1.4668,0.52148 -1.5,-0.18555 -1.26562,-0.92578 -3.47266,-2.54687 -3.30273,-1.78711 -1.33203,0.11914 -1.60157,0.74219 -2.76367,0.53906 -1.48437,1.07812 -0.87696,1.92188 -3.06836,1.65234 -1.38086,1.23047 0.47071,1.11328 -0.4375,1.31445 -1.11328,2.98243 0,1.7539 -1.76954,2.88281 0.0684,1.61915 0.32032,1.24609 1.26367,2.25976 -1.21289,0.57227 0.0156,1.73633 -1.04492,1.1289 0.80859,1.31641 0.16993,1.28125 1.0957,1.83594 -1.38281,1.45117 -1.24805,0.94336 -2.14062,1.87109 -0.48829,1.07813 -0.60742,2.86523 -1.11328,0.70899 -1.937504,1.46679 -1.70312,-0.20312 -2.51172,1.95508 -1.61719,-0.28516 -1.01172,2.46094 -3.37109,-0.11914 -1.14649,-1.26367 -3.05078,-0.23633 -5.31055,0.0684 -7.90625,0.64062 -18.8457,1.55078 3.69141,1.76954 1.60156,-0.25196 2.03906,1.36524 -1.71875,-0.52344 -1.60156,0.15234 -1.71875,-0.35351 -2.34375,-1.0293 -1.9043,1.63477 -1.66992,0.43945 -4.88867,1.9707 -1.16211,1.61914 -3.01758,3.11914 -1.53515,-0.58984 -1.9375,-0.23633 -3.47266,-1.61914 -1.98828,-0.28711 -1.11328,-1.23047 -0.89258,-1.21289 -0.94531,-1.39844 0.72461,-1.40039 1.51757,0.35547 -1.14648,-1.83789 -0.42188,-1.44922 -4.33203,-4.3164 -3.80859,-2.66407 -1.7207,-1.19531 -2.42578,-0.42187 -2.04102,0.084 0.89453,-1.31445 0.0664,-1.28125 1.01172,-1.38281 -1.24805,0 -0.79102,1.41601 -0.77539,2.37695 -0.40625,1.66993 -1.73633,2.98242 -2.5957003,2.49609 -1.48242,0.74024 -1.92188,0.45507 -1.24804,0.75977 -1.19727,2.30859 -1.04492,1.23047 -1.24609,3.13477 -0.30468995,1.0957 -0.28711,1.45117 0.45702995,2.37696 6.50586,5.24218 2.7304703,1.44922 2.36133,1.9043 7.29883,3.94531 2.88281,1.98828 1.5,0.84375 2.57812,1.8711 2.5293,2.34375 -0.49023,-1.60157 -3.1504,-3.03515 -2.22656,-1.9043 -0.45508,-1.17969 -1.33203,-0.91015 -1.14453,-1.60157 1.76953,1.16211 1.78711,1.23047 1.55078,1.08008 -0.49023,-1.28125 -1.76953,-2.125 0.13476,-1.24609 1.80469,-0.96094 1.28125,0.74023 0.48828,1.41602 -1.04492,2.17578 0.28516,1.0957 0.45703,1.23047 0.875,1.28125 1.28125,0.42188 0.20312,-1.48438 1.5,1.02735 0.10156,1.36718 1.56641,1.98829 1.04688,-1.38282 1.38086,0.38867 -1.55079,0.87696 -0.35351,1.31445 1.36523,0.18555 0.75782,1.34765 1.83789,1.36524 -2.46094,-0.30274 -1.5,-0.85937 -0.82617,-1.36524 -2.05664,0.41993 1.85351,1.16406 3.15235,2.66406 1.0625,1.80274 2.98437,3.13476 1.60156,0.9961 1.17969,1.55078 2.76367,3.6582 0.75977,1.19531 0.97656,2.25977 1.4668,0.67383 1.55078,0.10156 1.44922,-2.1582 -0.23438,-1.11133 1.60156,0.65625 0.26954,-2.00586 1.66796,0.47265 -1.0957,0.50586 -0.16797,1.70118 1.21289,-0.45508 0.25391,1.18164 -1.4668,0.40429 -1.31445,-0.20312 -0.26953,1.07812 1.46484,0.10157 0.3711,1.5 -1.51563,-0.3711 -1.16406,-0.52148 -0.21875,1.29883 2.00586,0.57226 2.08984,2.05664 1.29883,0.26954 -1.55078,-2.47852 1.44922,1.14648 1.58398,0.72461 1.34961,0.47266 -0.0508,1.73633 -1.56836,-0.77539 0.99414,1.24804 2.95117,1.61719 2.84766,0.75977 -0.37109,1.21289 1.60156,1.21289 1.28125,0.96094 2.31054,3.08593 2.22461,2.51172 1.39844,2.10742 1.14649,0.0664 0.40429,-1.26367 -0.52148,-1.95508 -1.53516,-0.81055 -2.94922,-2.74609 -1.5,-0.70898 -2.17578,-2.9336 1.36719,0.49024 1.43164,1.73632 1.9043,1.07813 1.40039,1.85351 2.54492,1.11329 0.84375,-1.60157 0.50586,1.34766 1.00976,1.18164 -1.21289,1.38086 3.33789,-0.82617 0.55665,1.45117 -3.33789,0.4043 1.0625,1.16211 2.35937,0.87695 -1.34961,-0.25195 -0.70703,1.14648 1.98828,0.97656 1.87109,-0.74219 0.25391,1.48438 3.0332,2.54492 0.42188,1.38281 -1.87109,-0.87695 -2.20899,-0.85937 -3.70703,-1.53321 -2.04102,-1.99023 -1.38086,-0.77539 -0.7246,1.11328 2.39257,1.43164 5.58008,2.74805 3.92774,2.83203 5.35937,3.23633 1.14648,0.92773 2.91602,2.34375 1.31641,1.12891 1.98828,1.0625 2.76562,2.14062 1.736334,1.12891 3.87695,2.57812 3.70704,2.22657 4.48437,2.69726 1.95508,1.51563 3.06836,1.58593 2.71484,1.65235 2.76367,2.17383 3,1.55078 2.02344,1.07812 0.18555,2.73242 1.1289,1.51563 0.65821,1.48437 0.21875,1.95508 0.11133,0.14258 428.37109,0 0.35937,-1.67578 0.74219,-3.5918 -0.10156,-3.21875 0.33789,-2.78125 1.66992,-4.77148 1.70117,-3.53906 1.0293,-2.9336 0.8418,-1.60156 2.39453,-2.44531 1.21289,-2.05469 -0.79102,-2.04102 1.2461,-0.4375 1.14648,-1.55078 2.02344,-0.38867 2.14062,-0.77539 2.86524,-0.62305 2.58008,0.13477 1.5664,0.37109 2.73242,0.64063 1.56641,-1.04492 0.74219,-6.11915 0.084,-2.83203 -0.60742,-2.47851 -1.1289,-1.66797 -2.12305,-2.05664 -0.82617,-1.14649 -0.67383,-2.90039 -1.38281,-3.42187 -0.99414,-3.62305 -0.38868,-4.61914 -0.13476,-1.55078 -0.0176,-2.36133 0.43945,-5.35937 0.82617,-6.43946 0.30274,-1.87109 2.88281,-18.32422 1.36524,-3.48828 0.2539,-1.11328 -1.3164,-0.97852 0.0859,-1.71875 -1.13086,-2.88281 -0.4707,-3.60742 -1.65234,-5.78125 -0.89453,-3.75977 -0.64063,-2.6289 -0.55469,-3.60743 -0.30468,-4.08007 -0.50586,-2.64649 -0.30274,-3.11914 -0.30273,-1.36523 -0.22071,-3.72461 -0.30273,-1.58399 -0.28711,-4.04687 -0.32031,-2.03906 -0.50586,-5.68164 0.11914,-3.11719 0.16797,-2.41211 0.53906,-2.91602 0.28711,-3.4375 0.25195,-5.29297 -1.0957,-0.16992 1.60156,-1.01172 0.43946,-4.19726 -0.10157,-2.07227 -0.28711,-2.125 1.4668,0.28711 0.35352,-3.23633 1.90625,-4.14648 1.11132,-2.24219 -0.37109,-1.12891 -1.9375,-1.95703 1.92188,0.57422 0.17968,-2.44531 -452.53906,0 z m 528.66602,179.0332 0.40429,1.09961 1.28907,1.08399 0.27148,-0.54102 -1.96484,-1.64258 z m -9.875,15.95899 -1.37891,0.42578 -1.01953,1.97656 1.08594,2.60547 0.2539,0 0.48633,-0.48438 0.48047,-1.17968 1.41406,-0.52149 1.16602,-1.10351 0.0586,-1.41406 -2.54687,-0.30469 z"
     id="rect36"
     style="fill:#ffffff;stroke:#0067c6;stroke-width:1.20000005;stroke-miterlimit:4;stroke-dasharray:none;stroke-opacity:1"
     inkscape:connector-curvature="0" />
  <g
     id="text"
     style="fill:#c8a400"
     transform="translate(-142.89455,0.60086439)">
    <path
       d="m 410,299.329 c 3.32634,0.22223 6.65268,0.44445 9.97902,0.66668 0.0329,-0.48587 0.064,-0.97205 0.0981,-1.45773 -1.30824,-0.0873 -2.61644,-0.17511 -3.92471,-0.26198 0.0986,-1.60327 0.23297,-3.20473 0.3036,-4.80942 1.38833,-1.00412 2.77759,-2.00697 4.16149,-3.01719 0.0412,-0.61599 0.0823,-1.23197 0.12346,-1.84796 -1.46281,1.06196 -2.92562,2.12393 -4.38843,3.18589 -0.14757,-1.03794 -0.72165,-2.10727 -1.76463,-2.46788 -0.91323,-0.33059 -2.03168,-0.3884 -2.82311,0.26424 -1.00326,0.738 -1.18359,2.05857 -1.31388,3.20783 -0.17463,2.17695 -0.29658,4.35998 -0.45091,6.53752 z m 1.51943,-1.36222 c 0.12006,-1.63759 0.19451,-3.27916 0.35147,-4.91355 0.12284,-0.80837 0.27116,-1.7421 0.97877,-2.25692 0.63951,-0.42451 1.58455,-0.10865 1.84624,0.61403 0.52201,1.24667 0.29033,2.62159 0.22338,3.93021 -0.0632,0.94689 -0.12655,1.89378 -0.18977,2.84068 -1.06985,-0.0707 -2.14151,-0.14232 -3.21009,-0.21445 z"
       id="path39"
       inkscape:connector-curvature="0" />
    <path
       d="m 411.299,284.006 c 3.24602,0.75791 6.49205,1.51582 9.73807,2.27373 0.73769,-3.1594 1.47537,-6.31879 2.21306,-9.47819 -0.4612,-0.10769 -0.92241,-0.21537 -1.38361,-0.32306 -0.62753,2.68761 -1.25507,5.37521 -1.8826,8.06282 -0.98811,-0.2308 -1.97626,-0.4614 -2.96437,-0.69221 0.56551,-2.42194 1.13101,-4.84387 1.69651,-7.26581 -0.45886,-0.10714 -0.91773,-0.21428 -1.37659,-0.32142 -0.5655,2.42194 -1.13099,4.84388 -1.69649,7.26582 -0.87427,-0.20424 -1.7486,-0.40821 -2.62286,-0.61249 0.60401,-2.58683 1.208,-5.17367 1.812,-7.7605 -0.46355,-0.10824 -0.92711,-0.21647 -1.39066,-0.32471 -0.71415,3.05867 -1.42831,6.11735 -2.14246,9.17602 z"
       id="path41"
       inkscape:connector-curvature="0" />
    <path
       d="m 414.807,270.929 c 3.14837,1.09493 6.29675,2.18986 9.44512,3.28479 0.15992,-0.45982 0.31983,-0.91964 0.47975,-1.37946 -1.2384,-0.4307 -2.47682,-0.86135 -3.71521,-1.29209 0.48491,-1.42877 1.01619,-2.8425 1.46212,-4.28396 0.31982,-1.1769 0.56684,-2.55272 -0.12567,-3.64707 -0.56233,-0.80874 -1.56218,-1.32766 -2.54938,-1.29642 -1.08858,0.0466 -1.97544,0.84759 -2.45833,1.77548 -0.71429,1.34208 -1.11369,2.81798 -1.63458,4.23987 -0.30127,0.86629 -0.60255,1.73257 -0.90382,2.59886 z m 1.82516,-0.91156 c 0.50573,-1.41719 0.96234,-2.85276 1.50949,-4.25451 0.34032,-0.74874 0.75526,-1.63711 1.61685,-1.87541 0.70884,-0.16219 1.45167,0.38249 1.5132,1.10855 0.17309,1.3358 -0.4107,2.59669 -0.82087,3.83664 -0.25986,0.74722 -0.51973,1.49444 -0.77958,2.24166 -1.01301,-0.35237 -2.02604,-0.70467 -3.03909,-1.05693 z"
       id="path43"
       inkscape:connector-curvature="0" />
    <path
       d="m 420.024,258.833 c 1.78079,1.03286 3.54652,2.09256 5.33751,3.10726 1.01015,0.54316 2.29139,0.85386 3.34732,0.24536 1.44062,-0.79757 2.34305,-2.27069 3.05103,-3.70714 0.55788,-1.21033 0.96223,-2.71397 0.25161,-3.95061 -0.76525,-1.23498 -2.15613,-1.80264 -3.34366,-2.54015 -1.15241,-0.67405 -2.30482,-1.34811 -3.45723,-2.02216 -0.2446,0.4182 -0.4892,0.83639 -0.7338,1.25459 1.69411,0.99759 3.40038,1.97522 5.08648,2.98594 0.80638,0.49107 1.47446,1.38051 1.33556,2.36857 -0.15909,1.178 -0.83235,2.21182 -1.50327,3.1639 -0.5532,0.77126 -1.48261,1.39382 -2.46901,1.18523 -1.02907,-0.19727 -1.86511,-0.87054 -2.7694,-1.35707 -1.13311,-0.66277 -2.26623,-1.32553 -3.39934,-1.9883 -0.24459,0.41819 -0.48923,0.83643 -0.7338,1.25458 z"
       id="path45"
       inkscape:connector-curvature="0" />
    <path
       d="m 427.227,247.062 c 2.64728,2.02559 5.29456,4.05117 7.94184,6.07676 1.2324,-1.60897 2.45998,-3.22252 3.70139,-4.82374 0.71204,-1.0218 1.36783,-2.35063 0.88541,-3.60415 -0.43852,-0.99742 -1.46605,-1.76954 -2.56718,-1.82076 -0.49731,-0.0682 -1.14581,0.30822 -1.41493,0.47419 0.28305,-1.06581 -0.58942,-2.0679 -1.57186,-2.35041 -1.18182,-0.42013 -2.38052,0.33763 -3.16221,1.17835 -0.9204,1.00107 -1.68892,2.12852 -2.53072,3.19463 -0.42725,0.55838 -0.85449,1.11675 -1.28174,1.67513 z m 2.01433,-0.29772 c 0.92943,-1.19063 1.80918,-2.42176 2.78303,-3.57628 0.45282,-0.50395 1.17935,-1.07479 1.88161,-0.70532 0.64009,0.27772 0.79787,1.08511 0.49233,1.66627 -0.48521,1.03983 -1.28618,1.88276 -1.95401,2.80542 -0.36367,0.47529 -0.72737,0.95057 -1.09102,1.42588 -0.70398,-0.53866 -1.40796,-1.07732 -2.11194,-1.61597 z m 3.23588,2.47597 c 0.96434,-1.2336 1.87255,-2.51286 2.89009,-3.70336 0.51954,-0.54354 1.17239,-1.22856 1.99705,-1.07233 0.70444,0.16212 1.21664,0.92689 0.97341,1.63628 -0.39626,1.30911 -1.37599,2.31142 -2.16426,3.39599 -0.4137,0.54068 -0.82742,1.08134 -1.2411,1.62203 -0.81839,-0.62621 -1.6368,-1.2524 -2.45519,-1.87861 z"
       id="path47"
       inkscape:connector-curvature="0" />
    <path
       d="m 436.231,236.455 6.8675,7.26894 5.88255,-5.55767 -0.97575,-1.03279 -4.70554,4.44565 -0.12052,0.11387 -0.0869,-0.092 -5.80486,-6.14418 z"
       id="path49"
       inkscape:connector-curvature="0" />
    <path
       d="m 445.035,228.752 6.09535,7.92761 1.18915,-0.91429 -6.09535,-7.92762 z"
       id="path51"
       inkscape:connector-curvature="0" />
    <path
       d="m 453.991,222.67 c -0.98774,0.61544 -1.78425,1.33504 -2.39782,2.17554 -0.6112,0.83726 -0.94122,1.71049 -0.98884,2.62241 -0.0476,0.91165 0.19536,1.79452 0.73286,2.6572 0.49251,0.79046 1.15266,1.40385 1.97619,1.84418 0.82023,0.43856 1.70565,0.60098 2.67598,0.49235 0.96511,-0.10804 2.05508,-0.53501 3.26884,-1.29126 1.16547,-0.72616 1.99135,-1.56229 2.50028,-2.52478 0.48822,-0.92337 0.62578,-1.90365 0.41645,-2.94732 l -1.38296,0.5422 c 0.36225,1.99857 -0.92658,2.9588 -2.36991,3.87479 -2.2587,1.37399 -4.45973,1.27451 -5.80828,-0.78982 -1.39827,-2.32778 0.12974,-4.25089 2.05166,-5.49964 1.36386,-0.85119 2.70794,-1.43321 3.98724,-0.61857 l 1.08262,-0.9642 c -0.74564,-0.51452 -1.59209,-0.75257 -2.55559,-0.6994 -1.01162,0.0558 -2.06822,0.42819 -3.18872,1.12632 z"
       id="path53"
       inkscape:connector-curvature="0" />
    <path
       d="m 465.808,216.773 -1.047,11.2056 1.55741,-0.62791 0.31478,-3.47417 0.006,-0.003 5.05831,-2.03938 2.63645,2.28431 1.5574,-0.62791 -8.52648,-7.34584 -1.5574,0.62791 z m 1.36835,1.14857 3.32461,2.87791 -3.72338,1.50118 0.39877,-4.37909 z"
       id="path55"
       inkscape:connector-curvature="0" />
    <path
       d="m 487.726,210.591 c 0.20805,3.32683 0.41609,6.65367 0.62414,9.9805 1.80444,-0.12174 3.6118,-0.20647 5.41405,-0.35597 1.4176,-0.16233 2.93884,-0.53067 3.9077,-1.65878 1.2513,-1.3881 1.42875,-3.46194 0.88129,-5.18861 -0.4596,-1.52076 -1.82744,-2.6711 -3.37555,-2.9629 -1.52435,-0.29289 -3.07841,-0.0617 -4.61381,0.008 -0.94594,0.0591 -1.89188,0.11841 -2.83782,0.1774 z m 1.5393,1.32733 c 1.43646,-0.0757 2.87074,-0.21585 4.30969,-0.22392 0.81646,-0.0241 1.62864,0.21461 2.28786,0.70072 1.00072,0.68405 1.58799,1.91553 1.45667,3.12503 -0.0712,1.38985 -1.09329,2.66855 -2.44413,3.02043 -0.77283,0.19999 -1.57593,0.25601 -2.36712,0.34365 -0.93214,0.0583 -1.86428,0.11665 -2.79643,0.17483 -0.14939,-2.38021 -0.29825,-4.76046 -0.44654,-7.14074 z"
       id="path57"
       inkscape:connector-curvature="0" />
    <path
       d="m 501.664,210 c -0.19023,3.3279 -0.38046,6.6558 -0.57069,9.9837 3.23909,0.18516 6.47818,0.37031 9.71727,0.55547 0.027,-0.47284 0.0541,-0.94567 0.0811,-1.41851 -2.75541,-0.1572 -5.51074,-0.31562 -8.26619,-0.47205 0.0573,-1.01308 0.11603,-2.02606 0.17328,-3.03914 2.48308,0.14086 4.96605,0.28372 7.44909,0.42535 0.0269,-0.47043 0.0538,-0.94086 0.0807,-1.41129 -2.48304,-0.14163 -4.966,-0.28449 -7.44908,-0.42535 0.0507,-0.89637 0.10241,-1.79268 0.15347,-2.68903 2.65213,0.15053 5.30416,0.30305 7.95625,0.45434 0.0272,-0.47524 0.0543,-0.95049 0.0815,-1.42573 -3.13557,-0.17925 -6.27113,-0.35851 -9.4067,-0.53776 z"
       id="path59"
       inkscape:connector-curvature="0" />
    <path
       d="m 527.774,214.166 -3.61612,9.3233 1.28604,0.4988 2.86698,-7.3919 0.14904,-0.38427 0.15998,0.42657 3.44815,9.91881 1.68397,0.65315 3.61613,-9.3233 -1.28934,-0.50007 -2.86569,7.38853 -0.1464,0.37752 -0.158,-0.42191 -3.45405,-9.91335 z"
       id="path61"
       inkscape:connector-curvature="0" />
    <path
       d="m 541.208,219.937 -4.54582,8.90705 -1.33607,-0.68187 4.54582,-8.90705 z"
       id="path63"
       inkscape:connector-curvature="0" />
    <path
       d="m 548.751,224.356 c -0.97142,-0.64089 -1.95772,-1.06453 -2.97756,-1.27147 -1.01591,-0.20614 -1.9472,-0.14174 -2.79583,0.19546 -0.84836,0.3371 -1.54936,0.92626 -2.1091,1.77467 -0.51289,0.77738 -0.79492,1.63325 -0.85151,2.56539 -0.0563,0.92841 0.16547,1.80086 0.66904,2.63737 0.50084,0.83202 1.34364,1.64445 2.53733,2.432 1.14619,0.75621 2.25064,1.15792 3.33769,1.21888 1.04287,0.0584 1.99114,-0.22553 2.85229,-0.85122 l -1.06975,-1.03062 c -1.66517,1.16306 -3.07555,0.39239 -4.5102,-0.53714 -2.19107,-1.47947 -3.01898,-3.52128 -1.70555,-5.60813 1.53212,-2.24195 3.91737,-1.65565 5.8541,-0.43 1.3426,0.88435 2.43232,1.86302 2.22572,3.36554 l 1.32796,0.58161 c 0.15651,-0.89231 0.0197,-1.76089 -0.43062,-2.61434 -0.47283,-0.89607 -1.25205,-1.70096 -2.35401,-2.428 z"
       id="path65"
       inkscape:connector-curvature="0" />
    <path
       d="m 558.272,231.538 -10.4535,4.16977 1.26814,1.10073 3.2365,-1.30154 0.005,0.005 4.1188,3.57507 -0.83343,3.38738 1.26814,1.10073 2.65816,-10.936 -1.26815,-1.10073 z m -0.39961,1.74123 -1.0486,4.27035 -3.03182,-2.63158 4.08042,-1.63877 z"
       id="path67"
       inkscape:connector-curvature="0" />
    <path
       d="m 565.825,238.486 c -2.572,2.12101 -5.14401,4.24201 -7.71601,6.36302 0.30955,0.37576 0.6199,0.75094 0.92896,1.12706 1.01157,-0.83421 2.02316,-1.66839 3.03473,-2.50261 1.02878,1.23361 2.02924,2.49136 3.07954,3.70663 -0.32075,1.6831 -0.6431,3.36591 -0.95647,5.05041 0.39278,0.4763 0.78555,0.95259 1.17833,1.42889 0.33526,-1.77628 0.67051,-3.55257 1.00577,-5.32885 0.86447,0.70788 2.1276,1.06331 3.16016,0.50203 0.88803,-0.42012 1.67042,-1.22768 1.7162,-2.25661 0.10773,-1.37866 -0.87542,-2.49623 -1.66235,-3.51871 -1.25571,-1.5241 -2.5136,-3.04745 -3.76886,-4.57126 z m -0.17038,2.03353 c 1.08022,1.33434 2.21438,2.62669 3.24602,3.99893 0.47574,0.70741 1.06859,1.70139 0.52294,2.52797 -0.44979,0.70689 -1.43474,0.64494 -2.03913,0.18646 -1.2247,-0.82376 -2.0334,-2.08693 -2.9893,-3.18371 -0.40756,-0.49424 -0.81514,-0.98846 -1.2227,-1.4827 0.82739,-0.68229 1.6549,-1.36466 2.48217,-2.04695 z"
       id="path69"
       inkscape:connector-curvature="0" />
    <path
       d="m 577.523,254.401 -11.2426,0.51528 0.83758,1.45542 3.48429,-0.16949 0.003,0.006 2.72039,4.72706 -1.89709,2.92745 0.83758,1.45542 6.09396,-9.46182 -0.83758,-1.45542 z m -0.94796,1.51425 -2.38965,3.69121 -2.00246,-3.47954 4.39211,-0.21167 z"
       id="path71"
       inkscape:connector-curvature="0" />
    <path
       d="m 583.939,267.638 c -0.62517,-1.69658 -1.61122,-3.43366 -3.27989,-4.28241 -1.85658,-0.93284 -4.32804,-0.47908 -5.6446,1.15572 -1.14698,1.35925 -1.20561,3.28116 -0.89925,4.9518 0.36199,1.91793 1.24128,3.74411 2.56297,5.18542 -0.24899,0.0895 -0.49798,0.17897 -0.74697,0.26846 0.15949,0.44375 0.31898,0.88751 0.47847,1.33126 1.56145,-0.56118 3.12289,-1.12237 4.68434,-1.68356 -0.60724,-1.6861 -1.21448,-3.37219 -1.82172,-5.05829 -0.36076,0.12966 -0.72152,0.25931 -1.08228,0.38897 0.44666,1.24274 0.89326,2.4855 1.33997,3.72822 -0.52894,0.19019 -1.05794,0.38024 -1.5869,0.57038 -1.39993,-1.20263 -2.18095,-2.98027 -2.58642,-4.74823 -0.30073,-1.32658 -0.3127,-2.91664 0.69375,-3.96056 1.15449,-1.20086 3.20117,-1.57383 4.58696,-0.54964 1.36679,1.00022 2.13826,2.6215 2.52811,4.233 0.26694,1.05995 0.22329,2.32 -0.58098,3.14709 -0.22477,0.16883 0.13155,0.40385 0.19251,0.60544 0.12747,0.21048 0.25493,0.42097 0.3824,0.63145 0.84766,-0.66844 1.36007,-1.71422 1.34362,-2.79667 0.0283,-1.06426 -0.20642,-2.12058 -0.56409,-3.11785 z"
       id="path73"
       inkscape:connector-curvature="0" />
    <path
       d="m 586.811,275.447 -5.59255,1.08792 c -1.03793,0.20191 -1.81583,0.53072 -2.3346,0.96809 -0.51784,0.43655 -0.84913,1.05225 -1.00889,1.87102 -0.15808,0.81019 -0.13548,1.80286 0.0969,3.01081 0.002,0.009 0.004,0.0182 0.005,0.0277 0.23733,1.207 0.58855,2.13574 1.03883,2.82758 0.45504,0.69917 0.99299,1.14578 1.63672,1.35637 0.64489,0.21099 1.48934,0.2242 2.52725,0.0223 l 5.59255,-1.08792 -0.27754,-1.42669 -5.45747,1.06164 c -2.44995,0.47659 -3.27516,-0.81293 -3.69596,-3.01869 -0.002,-0.009 -0.003,-0.0183 -0.005,-0.0277 -0.43677,-2.20264 -0.15514,-3.70748 2.2948,-4.18408 l 5.45748,-1.06164 -0.27752,-1.4267 z"
       id="path75"
       inkscape:connector-curvature="0" />
    <path
       d="m 589.879,292.467 -10.3479,-4.42525 0.12129,1.67483 3.21126,1.36264 5.1e-4,0.007 0.39395,5.43971 -2.98142,1.8111 0.1213,1.67484 9.60233,-5.87006 -0.1213,-1.67483 z m -1.51216,0.95131 -3.75709,2.28466 -0.28998,-4.00412 4.04707,1.71946 z"
       id="path77"
       inkscape:connector-curvature="0" />
    <rect
       width="1.5"
       height="6.3000002"
       x="-322.944"
       y="414.19901"
       transform="matrix(-0.96705072,0.25458379,0.25458379,0.96705072,0,0)"
       id="rect79" />
    <rect
       width="1.5"
       height="6.3000002"
       x="644.14001"
       y="159.606"
       transform="matrix(0.96705072,0.25458379,-0.25458379,0.96705072,0,0)"
       id="rect81" />
    <path
       d="m 433.217,343.989 -11.1807,1.28621 0.93557,1.39445 3.46441,-0.40839 0.004,0.006 3.03863,4.52906 -1.69156,3.05083 0.93557,1.39445 5.42972,-9.85801 -0.93556,-1.39445 z m -0.84172,1.57578 -2.13049,3.84662 -2.23671,-3.33381 4.3672,-0.51281 z"
       id="path83"
       inkscape:connector-curvature="0" />
    <path
       d="m 437.497,350.098 -7.12714,6.66478 0.95177,1.0178 6.00626,-5.61661 -3.15096,8.66999 1.09151,1.16724 8.61117,-2.61405 -5.89802,5.51541 0.95176,1.0178 7.12714,-6.66478 -1.44571,-1.54602 -8.75099,2.61438 3.27652,-8.46862 z"
       id="path85"
       inkscape:connector-curvature="0" />
    <path
       d="m 447.878,360.689 c -2.00517,2.66278 -4.01035,5.32555 -6.01552,7.98833 2.59171,1.95166 5.18343,3.90333 7.77514,5.85499 0.2849,-0.37833 0.5698,-0.75667 0.8547,-1.135 -2.2047,-1.6602 -4.40935,-3.32047 -6.61409,-4.98063 0.61036,-0.8106 1.2208,-1.62113 1.83116,-2.43173 1.98679,1.49606 3.97352,2.9922 5.96029,4.48829 0.28345,-0.37641 0.5669,-0.75281 0.85035,-1.12922 -1.98677,-1.49609 -3.9735,-2.99224 -5.96029,-4.4883 0.54002,-0.71722 1.08018,-1.43435 1.62017,-2.1516 2.12207,1.59791 4.24406,3.19593 6.3661,4.79388 0.28635,-0.38026 0.5727,-0.76052 0.85905,-1.14078 -2.50902,-1.88941 -5.01804,-3.77882 -7.52706,-5.66823 z"
       id="path87"
       inkscape:connector-curvature="0" />
    <path
       d="m 457.662,367.85 c -1.56999,2.94092 -3.13997,5.88185 -4.70996,8.82277 0.42937,0.22948 0.85923,0.45816 1.2883,0.68814 0.61751,-1.15665 1.23489,-2.31336 1.85248,-3.46997 1.42112,0.74871 2.82545,1.53016 4.25943,2.25383 0.34467,1.67837 0.68772,3.35708 1.03974,5.03393 0.54461,0.29074 1.08923,0.58147 1.63384,0.87221 -0.36674,-1.77005 -0.73349,-3.5401 -1.10023,-5.31015 1.06896,0.32516 2.37225,0.17258 3.11309,-0.73977 0.62944,-0.70484 1.05797,-1.69332 0.75635,-2.63927 -0.35132,-1.30341 -1.63425,-1.98592 -2.71701,-2.61729 -1.80294,-0.96908 -3.61175,-1.92868 -5.41603,-2.89443 z m 0.61719,1.94509 c 1.50709,0.8222 3.04815,1.58484 4.52472,2.46067 0.68458,0.46205 1.55319,1.0947 1.46717,2.02654 -0.0761,0.81768 -0.95762,1.2541 -1.70343,1.08062 -1.45923,-0.24188 -2.68995,-1.11223 -3.9896,-1.76124 -0.60467,-0.32278 -1.20931,-0.64561 -1.814,-0.96836 0.50503,-0.94608 1.01013,-1.89215 1.51514,-2.83823 z"
       id="path89"
       inkscape:connector-curvature="0" />
    <path
       d="m 468.957,373.756 -3.77856,9.25864 1.38879,0.5668 3.77856,-9.25864 z"
       id="path91"
       inkscape:connector-curvature="0" />
    <path
       d="m 477.975,376.871 c -1.1045,-0.36671 -2.16696,-0.51975 -3.20557,-0.45482 -1.03459,0.0647 -1.91722,0.36866 -2.6492,0.91462 -0.73176,0.5458 -1.25576,1.29675 -1.57605,2.26139 -0.29347,0.88389 -0.34361,1.78363 -0.15626,2.6985 0.18663,0.9112 0.62734,1.69614 1.33082,2.37323 0.69968,0.67346 1.72451,1.23922 3.08173,1.68985 1.30322,0.43271 2.4741,0.5339 3.5397,0.31054 1.02228,-0.21431 1.8643,-0.73475 2.53348,-1.56255 l -1.30064,-0.71755 c -1.30612,1.5555 -2.86822,1.17743 -4.495,0.65224 -2.50004,-0.85988 -3.82967,-2.61674 -3.10307,-4.97303 0.89751,-2.56285 3.35319,-2.61592 5.54172,-1.93512 1.52616,0.50545 2.8326,1.16765 3.02317,2.67228 l 1.43343,0.2169 c -0.0805,-0.90234 -0.43816,-1.70562 -1.09461,-2.41289 -0.68925,-0.74259 -1.65072,-1.31757 -2.90365,-1.73359 z"
       id="path93"
       inkscape:connector-curvature="0" />
    <path
       d="m 488.029,379.122 -6.54019,9.15906 1.66192,0.24047 2.01921,-2.8446 0.007,10e-4 5.39774,0.78104 1.13004,3.30029 1.66192,0.24048 -3.6757,-10.6373 -1.66191,-0.24047 z m 0.60512,1.6809 1.42636,4.15944 -3.97323,-0.57492 2.54687,-3.58452 z"
       id="path95"
       inkscape:connector-curvature="0" />
    <path
       d="m 511.47,379.193 c -1.14266,0.22076 -2.14408,0.60727 -3.01802,1.1722 -0.87056,0.56274 -1.4915,1.25979 -1.86263,2.09414 -0.37102,0.83409 -0.46045,1.74541 -0.26766,2.74338 0.17666,0.91443 0.57327,1.7236 1.1844,2.42972 0.6087,0.70328 1.37718,1.1721 2.32202,1.41827 0.93976,0.24486 2.11036,0.23669 3.51447,-0.0346 1.34825,-0.26047 2.41884,-0.74526 3.23879,-1.46156 0.7866,-0.6872 1.26619,-1.55314 1.44461,-2.60254 l -1.4854,0.0108 c -0.37773,1.99571 -1.925,2.43052 -3.60068,2.76868 -2.601,0.47368 -4.62033,-0.40766 -5.13988,-2.81808 -0.47161,-2.67419 1.64391,-3.9223 3.88562,-4.3997 1.57827,-0.30613 3.04163,-0.36804 3.94421,0.85082 l 1.35617,-0.51239 c -0.51183,-0.74748 -1.21684,-1.27295 -2.13544,-1.56846 -0.96449,-0.31025 -2.08436,-0.34112 -3.38058,-0.0907 z"
       id="path97"
       inkscape:connector-curvature="0" />
    <path
       d="m 518.148,378.01 c 0.94813,3.19565 1.89626,6.39129 2.84439,9.58694 3.11037,-0.92283 6.22073,-1.84565 9.3311,-2.76848 -0.13471,-0.45405 -0.26943,-0.90809 -0.40414,-1.36214 -2.64589,0.78505 -5.29182,1.57 -7.93769,2.35511 -0.28864,-0.97278 -0.57724,-1.94559 -0.86588,-2.91837 2.38433,-0.70751 4.7687,-1.41486 7.15305,-2.12231 -0.13403,-0.45173 -0.26805,-0.90347 -0.40208,-1.3552 -2.38435,0.70745 -4.76872,1.4148 -7.15305,2.12231 -0.25541,-0.86072 -0.51069,-1.72147 -0.76615,-2.58217 2.54667,-0.75567 5.09338,-1.51119 7.64007,-2.2668 -0.1354,-0.45636 -0.27079,-0.91271 -0.40619,-1.36907 -3.01114,0.89339 -6.02229,1.78679 -9.03343,2.68018 z"
       id="path99"
       inkscape:connector-curvature="0" />
    <path
       d="m 528.966,374.61 c 1.39945,3.02534 2.79891,6.05067 4.19836,9.07601 0.41731,-0.19304 0.83461,-0.38607 1.25192,-0.57911 -1.16723,-2.5233 -2.33445,-5.04661 -3.50169,-7.5699 3.2371,1.46816 6.45494,2.97935 9.68455,4.46424 0.21532,0.18677 0.43059,0.0619 0.64586,-0.0532 0.41968,-0.19414 0.83935,-0.38827 1.25903,-0.5824 -1.39945,-3.02534 -2.79891,-6.05067 -4.19836,-9.07601 -0.41837,0.19353 -0.83673,0.38706 -1.2551,0.58059 1.16571,2.52002 2.33141,5.04004 3.49712,7.56005 -3.32359,-1.50694 -6.62903,-3.05445 -9.94557,-4.57714 -0.54537,0.25228 -1.09075,0.50455 -1.63612,0.75683 z"
       id="path101"
       inkscape:connector-curvature="0" />
    <path
       d="m 539.947,369.452 0.7834,1.1903 3.57155,-2.3506 0.13556,-0.0892 0.0676,0.10271 4.64663,7.0602 1.2141,-0.79904 -4.64663,-7.06021 -0.0676,-0.10271 0.13849,-0.0912 3.58924,-2.36224 -0.7834,-1.1903 z"
       id="path103"
       inkscape:connector-curvature="0" />
    <path
       d="m 550.009,362.562 c 2.25912,2.45158 4.51825,4.90315 6.77737,7.35473 0.35826,-0.32963 0.71559,-0.66044 1.07443,-0.98933 -0.88853,-0.9642 -1.77701,-1.92843 -2.66556,-2.89261 1.17531,-1.0949 2.3759,-2.16325 3.53179,-3.27856 1.69818,0.22782 3.39617,0.45717 5.09534,0.67753 0.45399,-0.41836 0.90799,-0.83671 1.36198,-1.25507 -1.79202,-0.23715 -3.58403,-0.4743 -5.37605,-0.71145 0.65931,-0.90206 0.94479,-2.18281 0.32762,-3.18296 -0.46831,-0.86361 -1.31769,-1.60043 -2.34759,-1.58963 -1.38249,-0.0318 -2.44436,1.01126 -3.42205,1.85319 -1.45278,1.3374 -2.90492,2.6777 -4.35728,4.01416 z m 2.0398,0.0584 c 1.27303,-1.15184 2.50096,-2.35547 3.81453,-3.46086 0.6802,-0.51389 1.64011,-1.16046 2.49542,-0.66105 0.73053,0.41027 0.7228,1.39714 0.29822,2.02581 -0.75622,1.26942 -1.97455,2.14713 -3.01826,3.16305 -0.46989,0.433 -0.93977,0.866 -1.40966,1.299 -0.72675,-0.78859 -1.45368,-1.57749 -2.18025,-2.36595 z"
       id="path105"
       inkscape:connector-curvature="0" />
    <path
       d="m 561.643,350.918 4.47337,10.3272 1.06321,-1.29975 -1.39553,-3.1971 0.004,-0.005 3.45322,-4.22148 3.41028,0.73412 1.06321,-1.29976 -11.009,-2.33754 -1.06322,1.29975 z m 1.75217,0.34857 4.29916,0.9234 -2.54189,3.1074 -1.75727,-4.0308 z"
       id="path107"
       inkscape:connector-curvature="0" />
    <path
       d="m 565.998,345.253 8.39039,5.44074 4.40302,-6.79009 -1.19211,-0.77303 -3.52205,5.43147 -0.0902,0.13913 -0.10617,-0.0688 -7.09208,-4.59886 z"
       id="path109"
       inkscape:connector-curvature="0" />
  </g>
  <g
     clip-path="url(#shield)"
     id="g111"
     transform="translate(-142.89455,0.60086439)">
    <g
       id="rays">
      <path
         d="m 500.001,226.408 -31.4786,54.5355 -15.42,26.7015 93.7971,0 -14.7145,-25.4844 -32.1841,-55.7526 z"
         id="path114"
         inkscape:connector-curvature="0"
         style="fill:#ffffff" />
      <g
         id="rays5">
        <g
           id="ray">
          <path
             d="m 500.001,226.408 -2.35655,4.08164 2.35655,54.9769 2.35656,-54.9769 z"
             id="path118"
             inkscape:connector-curvature="0"
             style="opacity:0.62040818;fill:#17c0eb;stroke:#17c0eb;stroke-width:0.12869333" />
          <path
             d="m 500.001,277.475 c -0.044,0 -0.0891,0.002 -0.1335,0.003 l 0.1335,3.11123 0.13351,-3.11123 c -0.0443,-9.7e-4 -0.0892,-0.003 -0.13351,-0.003 z"
             id="path120"
             inkscape:connector-curvature="0"
             style="fill:#ffffff" />
        </g>
        <use
           xlink:href="#ray"
           transform="matrix(0.30901699,0.95105652,-0.95105652,0.30901699,616.98701,-278.27668)"
           id="use122"
           x="0"
           y="0"
           width="100%"
           height="100%" />
        <use
           xlink:href="#ray"
           transform="matrix(-0.80901699,0.58778525,-0.58778525,-0.80901699,1072.3033,222.52061)"
           id="use124"
           x="0"
           y="0"
           width="100%"
           height="100%" />
        <use
           xlink:href="#ray"
           transform="matrix(-0.80901699,-0.58778525,0.58778525,-0.80901699,736.71728,810.30704)"
           id="use126"
           x="0"
           y="0"
           width="100%"
           height="100%" />
        <use
           xlink:href="#ray"
           transform="matrix(0.30901699,-0.95105652,0.95105652,0.30901699,73.997381,672.78174)"
           id="use128"
           x="0"
           y="0"
           width="100%"
           height="100%" />
      </g>
      <use
         xlink:href="#rays5"
         transform="matrix(0.99026807,0.1391731,-0.1391731,0.99026807,44.595239,-66.808549)"
         id="use130"
         x="0"
         y="0"
         width="100%"
         height="100%" />
      <use
         xlink:href="#rays5"
         transform="matrix(0.9612617,0.27563736,-0.27563736,0.9612617,98.054433,-126.76046)"
         id="use132"
         x="0"
         y="0"
         width="100%"
         height="100%" />
      <use
         xlink:href="#rays5"
         transform="matrix(0.91354546,0.40673664,-0.40673664,0.91354546,159.33706,-178.68885)"
         id="use134"
         x="0"
         y="0"
         width="100%"
         height="100%" />
      <use
         xlink:href="#rays5"
         transform="matrix(0.8480481,0.52991926,-0.52991926,0.8480481,227.25032,-221.58298)"
         id="use136"
         x="0"
         y="0"
         width="100%"
         height="100%" />
      <use
         xlink:href="#rays5"
         transform="matrix(0.76604444,0.64278761,-0.64278761,0.76604444,300.47237,-254.60796)"
         id="use138"
         x="0"
         y="0"
         width="100%"
         height="100%" />
      <use
         xlink:href="#rays5"
         transform="matrix(0.66913061,0.74314483,-0.74314483,0.66913061,377.57801,-277.12101)"
         id="use140"
         x="0"
         y="0"
         width="100%"
         height="100%" />
      <use
         xlink:href="#rays5"
         transform="matrix(0.5591929,0.82903757,-0.82903757,0.5591929,457.06648,-288.68394)"
         id="use142"
         x="0"
         y="0"
         width="100%"
         height="100%" />
      <use
         xlink:href="#rays5"
         transform="matrix(0.43837115,0.89879405,-0.89879405,0.43837115,537.39061,-289.07168)"
         id="use144"
         x="0"
         y="0"
         width="100%"
         height="100%" />
    </g>
    <g
       id="rainbow">
      <path
         d="m 500,265.844 c -11.0666,0 -21.1953,4.05143 -28.9688,10.75 L 456.3752,302 c -0.50136,2.67038 -0.75,5.43402 -0.75,8.25 l 5.03125,0 c 0,-21.7264 17.6173,-39.3438 39.3438,-39.3438 21.7264,0 39.3438,17.6173 39.3438,39.3438 l 5.03125,0 c 0,-2.81337 -0.24954,-5.58193 -0.75,-8.25 l -14.6562,-25.4062 c -7.77293,-6.69663 -17.904,-10.75 -28.9688,-10.75 z"
         id="path147"
         inkscape:connector-curvature="0"
         style="fill:#ff0000" />
      <path
         d="m 500,266.656 c -11.764,0 -22.4393,4.67488 -30.2812,12.25 l -12.031,20.844 c -0.83351,3.36611 -1.28125,6.87625 -1.28125,10.5 l 4.25,0 c 0,-21.7264 17.6173,-39.3438 39.3438,-39.3438 21.7264,0 39.3438,17.6173 39.3438,39.3438 l 4.25,0 c 0,-3.62494 -0.44735,-7.16414 -1.28125,-10.5312 l -12.0312,-20.8125 c -7.841,-7.57455 -18.5177,-12.25 -30.2812,-12.25 z"
         id="path149"
         inkscape:connector-curvature="0"
         style="fill:#ff6600" />
      <path
         d="m 500,267.469 c -12.7024,0 -24.1008,5.52218 -31.9375,14.3125 l -8.71875,15.0938 c -1.38396,4.20847 -2.125,8.70346 -2.125,13.375 l 3.4375,0 c 0,-21.7264 17.6173,-39.3438 39.3438,-39.3438 21.7264,0 39.3438,17.6173 39.3438,39.3438 l 3.4375,0 c 0,-4.67311 -0.74037,-9.16532 -2.125,-13.375 l -8.719,-15.095 c -7.836,-8.788 -19.237,-14.312 -31.938,-14.312 z"
         id="path151"
         inkscape:connector-curvature="0"
         style="fill:#ffff00" />
      <path
         d="m 500,268.25 c -14.5495,0 -27.3723,7.41414 -34.9062,18.6562 l -2.8125,4.875 c -2.735,5.574 -4.282,11.842 -4.282,18.469 l 2.65625,0 c 0,-21.7264 17.6173,-39.3438 39.3438,-39.3438 21.7264,0 39.3438,17.6173 39.3438,39.3438 l 2.6562,0 c 0,-6.61555 -1.55577,-12.8712 -4.28125,-18.4375 l -2.844,-4.937 c -7.536,-11.227 -20.337,-18.625 -34.875,-18.625 z"
         id="path153"
         inkscape:connector-curvature="0"
         style="fill:#00ff00" />
      <path
         d="m 500,269.062 c -22.7472,0 -41.1875,18.4403 -41.1875,41.1875 l 1.84375,0 c 0,-21.7264 17.6173,-39.3438 39.3438,-39.3438 21.7264,0 39.3438,17.6173 39.3438,39.3438 l 1.84375,0 c 0,-22.7472 -18.4403,-41.1875 -41.1875,-41.1875 z"
         id="path155"
         inkscape:connector-curvature="0"
         style="fill:#00ccff" />
      <path
         d="m 500,269.844 c -22.3058,0 -40.375,18.1004 -40.375,40.4062 l 1.34375,0 c 0,-21.5594 17.4718,-39.0312 39.0312,-39.0312 21.5594,0 39.0312,17.4718 39.0312,39.0312 l 1.375,0 c 0,-22.3058 -18.1004,-40.4062 -40.4062,-40.4062 z"
         id="path157"
         inkscape:connector-curvature="0"
         style="fill:#0000ff" />
      <path
         d="m 500.001,270.657 c -21.8638,0 -39.5887,17.7249 -39.5887,39.5887 0,0.24501 0.003,0.48981 0.007,0.73377 l 0.8008,0 c -0.005,-0.24405 -0.007,-0.48864 -0.007,-0.73377 0,-21.4222 17.3658,-38.7879 38.7879,-38.7879 21.4222,0 38.7879,17.3658 38.7879,38.7879 0,0.24513 -0.002,0.48972 -0.007,0.73377 l 0.79727,0 c 0.004,-0.24396 0.007,-0.48876 0.007,-0.73377 0,-21.8638 -17.7214,-39.5887 -39.5852,-39.5887 z"
         id="path159"
         inkscape:connector-curvature="0"
         style="fill:#800080" />
    </g>
    <g
       id="cap">
      <path
         d="m 500.395,288.134 c -0.64444,-0.12422 -1.22556,-0.48362 -1.77526,-0.60947 -0.75553,0.72433 -0.83505,1.45617 -0.73118,2.07933 0.26291,0.13958 0.31133,0.353 0.87825,0.86011 0.56692,0.50711 0.49599,0.7732 0.46178,1.96543 -0.0144,0.50237 0.0702,1.58063 0.57906,1.682 0.54856,0.1093 0.93237,-0.34645 1.08988,-1.16049 0.15297,-0.79058 0.4179,-1.2158 0.69822,-1.70182 0.30651,-1.85224 -0.19317,-2.50796 -1.20075,-3.11509 z"
         id="path162"
         inkscape:connector-curvature="0"
         style="fill:#510000" />
      <path
         d="m 497.168,283.524 c -0.5954,0.015 -1.52849,1.01222 -1.94312,0.4754 -0.2385,-0.30879 -0.2787,-0.90191 -0.037,-1.40011 0.55866,-1.15143 1.12448,-1.71603 2.16738,-2.33046 2.37772,-1.40083 3.8889,-0.95056 5.07395,1.06271 1.0982,1.77292 2.15196,3.72986 2.24612,5.37194 0.0291,0.50093 0.28239,1.40776 -0.15623,1.85983 -1.34779,1.38922 -4.59607,-1.43513 -6.49718,-0.9882 -0.63913,0.15025 -1.37729,0.6166 -1.98048,0.21781 -0.46922,-0.31025 -0.0771,-0.99697 0.27265,-1.29413 0.61215,-0.52003 1.50103,-2.36524 1.38013,-3.16441 -0.0677,-0.44682 -0.08,0.17838 -0.52586,0.18962 z"
         id="path164"
         inkscape:connector-curvature="0"
         style="fill:#ff0000" />
      <path
         d="m 496.927,282.548 c -1.08326,0.4452 -0.96582,1.07615 -1.50945,1.59022 0.15386,0.0578 0.7653,0.31056 1.36345,-0.30126 0.25817,-0.21386 0.54788,-0.29339 0.67713,-0.36245 -0.30513,0.22158 -0.52326,0.55469 -0.68366,0.68484 -0.40495,0.32861 -1.03464,1.08239 -1.34095,1.84608 -0.30631,0.76368 -0.43013,1.67294 -0.37506,1.78203 0.0551,0.1091 0.42587,0.77878 1.5653,1.23156 2.03098,0.80708 2.41713,2.43864 4.47768,2.43864 1.61336,0 1.35441,-1.05575 2.64581,-0.83159 1.1192,0.19425 1.71404,-0.69654 0.63574,-1.23178 -1.371,-0.46864 -4.09192,-0.19196 -5.37247,0.0332 -0.41337,-4.08361 -0.0551,-2.64985 -0.15181,-4.40521 -0.0968,-1.75536 -0.62285,-1.86055 0.0724,-3.28125 -0.57778,0.87239 -1.27677,0.73447 -2.004,0.807 z"
         id="path166"
         inkscape:connector-curvature="0"
         style="fill:url(#cap1)" />
      <path
         d="m 500.938,279.795 c -0.0401,0.22319 -0.0767,0.51644 -0.0555,0.6 0.087,0.33854 0.17464,0.69288 0.27745,0.99375 0.11493,0.33621 0.16173,0.57942 0.24047,0.92812 0.0812,0.35981 0.40101,0.50003 0.69364,0.72188 0.36987,0.28044 0.0839,1.03755 0.31445,1.06875 0.18399,0.025 0.48828,-1.07134 0.49017,-1.24688 0,-0.23637 -0.001,-0.42692 -0.037,-0.64687 -0.1351,-0.29493 -0.27167,-0.58548 -0.42543,-0.87188 -0.002,-0.004 -0.007,-0.006 -0.009,-0.009 -0.0604,-0.11211 -0.12197,-0.22206 -0.19422,-0.32812 -0.21674,-0.3182 -0.48469,-0.61247 -0.78613,-0.8625 -0.0186,-0.0154 -0.0367,-0.0318 -0.0555,-0.0469 -0.0843,-0.0645 -0.17013,-0.13028 -0.25896,-0.1875 -0.0629,-0.0405 -0.12933,-0.0758 -0.19422,-0.1125 z"
         id="path168"
         inkscape:connector-curvature="0"
         style="fill:#ff2a2a" />
      <path
         d="m 501.249,287.398 c -0.71834,-0.18768 -1.42584,-0.54264 -2.03712,-0.72519 -1.20046,-0.3585 -2.47993,-1.13407 -3.3655,-0.81346 -0.31696,0.14032 -0.28927,0.45588 -0.39018,0.90946 -0.0419,0.53363 -0.59621,1.31951 -0.13634,1.06243 0.68545,-0.38318 2.49069,0.73271 3.09544,1.10617 0.28651,0.17693 0.89218,0.52377 1.08153,1.02169 0.18934,0.49792 0.092,1.75593 0.0412,2.29553 -0.0533,0.56606 0.11902,1.83505 0.68594,1.98695 0.61122,0.16378 1.07804,-0.32245 1.31579,-1.2298 0.23091,-0.8812 0.40519,-1.38725 0.75742,-1.91526 0.35223,-0.52801 0.75591,-0.75584 1.31984,-0.86236 0.56393,-0.10651 1.38228,0.46186 1.38228,-0.20334 0,-0.43694 -0.38382,-0.85479 -0.22071,-1.45374 0.12846,-0.47174 -0.40137,-0.37766 -0.84179,-0.57224 -1.03591,-0.31872 -1.96945,-0.41916 -2.6878,-0.60684 z"
         id="path170"
         inkscape:connector-curvature="0"
         style="fill:url(#cap2)" />
      <path
         d="m 498.363,288.902 c -0.32675,-0.17761 -2.3152,-1.4778 -3.04281,-1.07105 -0.22993,0.12854 -0.31747,-0.0162 -0.32062,-0.25731 -0.004,-0.24106 0.10913,-0.59399 0.18399,-0.86612 0.0749,-0.27214 0.19591,-0.79179 0.5164,-1.06192 0.68731,-0.5793 2.2686,0.57503 3.1082,0.88679 -0.0717,0.4352 -0.47012,2.35517 -0.44516,2.36961 z"
         id="path172"
         inkscape:connector-curvature="0"
         style="fill:#910000" />
      <path
         d="m 501.763,291.361 c 0.91566,-1.60289 1.50762,-1.39687 2.61336,-1.37357 0.36843,0.008 0.47628,-0.32925 0.39238,-0.66749 -0.278,0.62397 -1.66206,-0.069 -2.41497,0.26261 -1.57249,0.69255 -1.28027,3.76979 -2.02634,4.07028 0.77552,0.65117 1.1236,-1.74573 1.43557,-2.29183 z"
         id="path174"
         inkscape:connector-curvature="0"
         style="fill:#ff3a3a" />
    </g>
    <g
       id="seab"
       style="fill:url(#seabgrad)">
      <path
         d="m 453.103,307.645 -9.95545,17.2366 113.708,0 -9.95545,-17.2366 -93.7972,0 z"
         id="path177"
         inkscape:connector-curvature="0"
         style="fill:#ffffff" />
      <g
         id="wavesb3"
         style="fill:url(#linearGradient4407)">
        <path
           id="waveb1"
           d="m 449.705,321.364 c -1.65776,0 -3.19731,0.16736 -4.70961,0.35278 l -0.48684,0.84666 c 2.43344,-0.21658 4.69724,-0.64924 7.14027,-0.70908 3.29349,0.0801 6.2835,0.82902 9.78611,0.82902 1.51792,0.0147 3.02697,-0.0297 4.5262,0 3.49923,0 6.48854,-0.74896 9.78259,-0.82902 3.29576,0.0801 6.30397,0.82902 9.80375,0.82902 1.51769,0.005 3.17747,-0.0238 4.52973,0 3.49922,0 6.47429,-0.74896 9.76495,-0.82902 3.29293,0.0801 6.26925,0.82902 9.76848,0.82902 1.53042,0.0148 3.03299,-0.0299 4.54381,0 3.49923,0 6.49037,-0.74896 9.78612,-0.82902 3.29632,0.0795 6.28114,0.82902 9.78258,0.82902 1.51624,0.0145 3.03114,-0.0297 4.52976,0 3.49867,0 6.47485,-0.74896 9.76495,-0.82902 2.55081,0.062 4.92094,0.51761 7.48601,0.72319 l -0.51507,-0.89252 c -1.40293,-0.16829 -2.8346,-0.32103 -4.36741,-0.32103 -1.52925,-0.0208 -3.03636,0.0308 -4.54734,0 -3.4992,0 -6.47369,0.74842 -9.76495,0.82902 -3.29632,-0.0801 -6.28347,-0.82902 -9.78612,-0.82902 -1.51274,-0.0209 -3.0301,0.0312 -4.52617,0 -3.49921,0 -6.49263,0.74897 -9.7861,0.82902 -3.29407,-0.0801 -6.28337,-0.82902 -9.7826,-0.82902 -1.52189,-0.0207 -3.04194,0.0308 -4.54734,0 -3.49922,0 -6.4754,0.74897 -9.76495,0.82902 -3.29404,-0.0801 -6.26924,-0.82902 -9.76847,-0.82902 -1.52279,-0.0213 -3.02634,0.0313 -4.52618,0 -3.5026,0 -6.48979,0.74897 -9.78611,0.82902 -3.29405,-0.0806 -6.28335,-0.82902 -9.78259,-0.82902 -1.52022,-0.0209 -3.04332,0.0313 -4.54733,0 z"
           inkscape:connector-curvature="0"
           style="fill:url(#linearGradient4401)" />
        <use
           xlink:href="#waveb1"
           y="-1.1132812"
           id="use181"
           x="0"
           width="100%"
           height="100%"
           style="fill:url(#linearGradient4403)" />
        <use
           xlink:href="#waveb1"
           y="-2.2304688"
           id="use183"
           x="0"
           width="100%"
           height="100%"
           style="fill:url(#linearGradient4405)" />
      </g>
      <use
         xlink:href="#wavesb3"
         y="-3.34375"
         id="use185"
         x="0"
         width="100%"
         height="100%"
         style="fill:url(#linearGradient4409)" />
      <use
         xlink:href="#wavesb3"
         y="-6.6914062"
         id="use187"
         x="0"
         width="100%"
         height="100%"
         style="fill:url(#linearGradient4411)" />
      <path
         d="m 453.23,307.458 -0.12347,0.21519 93.7901,0 -0.12348,-0.21519 -93.5432,0 z m -0.21872,0.37746 -0.127,0.21873 94.2346,0 -0.127,-0.21873 -93.9806,0 z m -0.20109,0.34572 -0.20461,0.35631 94.792,0 -0.2046,-0.35631 -94.3828,0 z m -0.3175,0.55033 -0.25047,0.43392 95.5187,0 -0.25048,-0.43392 -95.0178,0 z m -0.39864,0.69144 -0.25047,0.43392 96.316,0 -0.25047,-0.43392 -95.815,0 z m -0.39864,0.69144 -0.24695,0.43039 97.1062,0 -0.24693,-0.43039 -96.6123,0 z m -0.39864,0.69144 -0.25048,0.43039 97.9106,0 -0.25048,-0.43039 -97.4096,0 z m -0.43039,0.74436 -0.30339,0.52916 98.8772,0 -0.30339,-0.52916 -98.2704,0 z"
         id="path189"
         inkscape:connector-curvature="0"
         style="fill:url(#linearGradient4413)" />
      <path
         d="m 457.357,312.287 c 3.45019,0.6621 3.7818,0 3.7818,0 z m 81.5028,0 c 0,0 0.3316,0.6621 3.7818,0 z"
         id="path191"
         inkscape:connector-curvature="0"
         style="fill:url(#linearGradient4415)" />
    </g>
    <g
       id="mountains"
       style="fill:#ccd11e">
      <g
         id="mountain1">
        <path
           d="m 530.631,297.043 c -1.70879,0 -2.23164,0.86208 -2.23164,0.86208 -2.73683,10.5758 -11.8078,21.3327 -22.6008,21.3327 l -8.08019,0 0,10.7684 c 0,0.003 0.0112,0 0.017,0 l 61.4976,0 -6.18652,-10.9539 c -9.70777,-1.44879 -17.6397,-11.3728 -20.1666,-21.1472 -3e-4,0 -0.54017,-0.86208 -2.24897,-0.86208 z"
           id="path195"
           inkscape:connector-curvature="0"
           style="fill:url(#linearGradient4417)" />
        <path
           d="m 530.631,297.465 c -0.78411,0 -1.26009,0.18069 -1.53836,0.35499 -0.26383,0.16497 -0.31454,0.2757 -0.32096,0.28758 0,0.007 -0.0151,0.01 -0.0176,0.0168 -1.39971,5.32242 -4.35191,10.6683 -8.33374,14.7065 -4.01201,4.06971 -9.06971,6.82929 -14.605,6.82929 l -7.67481,0 0,9.92268 60.8557,0 -5.68004,-10.0578 c -4.68763,-0.61173 -8.97309,-3.16302 -12.4584,-6.69417 -3.98569,-4.03827 -6.93211,-9.38349 -8.33374,-14.7065 0,0 -0.0164,-0.0165 -0.017,-0.0168 -0.007,-0.012 -0.0696,-0.10431 -0.33797,-0.27057 -0.28308,-0.17556 -0.75393,-0.372 -1.53804,-0.372 z"
           id="path197"
           inkscape:connector-curvature="0"
           style="fill:#97c924" />
        <path
           d="m 530.63,297.465 c 0.14713,0 0.27966,0.0211 0.4057,0.0341 0.0238,3.01731 0,8.10909 0,10.8013 -0.0287,2.34006 -0.83034,4.2225 -2.01175,6.44085 -0.54742,1.5541 -0.98612,0.96232 -2.34929,2.85666 -1.83161,0.65398 -3.18666,0.90876 -5.13836,1.21655 -2.51753,0.39758 -8.12164,0.75027 -10.8869,0.13523 3.64106,-1.06725 6.96079,-3.26938 9.77096,-6.11954 0.74649,-0.7573 1.45945,-1.5595 2.12967,-2.40011 1.11812,-1.40047 2.12751,-2.91291 3.00924,-4.47944 0.35269,-0.6264 0.68645,-1.24901 0.99749,-1.89326 0.46683,-0.9661 0.88335,-1.95059 1.25119,-2.94104 0.12279,-0.3305 0.24396,-0.66588 0.35485,-0.99747 0.22233,-0.66372 0.41706,-1.32961 0.59179,-1.99495 0.002,-0.006 0.0151,-0.0103 0.0168,-0.0168 0.006,-0.0119 0.0579,-0.12225 0.32077,-0.28724 0.13578,-0.0849 0.3316,-0.17039 0.57502,-0.23692 0.005,-10e-4 0.0124,10e-4 0.0168,0 0.25153,-0.0665 0.55446,-0.11793 0.9461,-0.11793 z"
           id="path199"
           inkscape:connector-curvature="0"
           style="fill:#ede71f" />
        <path
           d="m 529.938,298.902 c -0.41166,6.03407 -2.27735,13.1917 -6.64434,17.8107 -1.60658,1.33664 -3.65998,2.54995 -5.64577,2.2546 6.77038,-5.51045 10.8853,-13.9468 12.2901,-20.0653 z"
           id="path201"
           inkscape:connector-curvature="0"
           style="fill:#c6cb24" />
        <path
           d="m 524.494,309.281 c -1.00181,2.72142 -4.78784,6.74649 -8.84,10.0451 -1.15058,0.0352 -1.75967,0.10115 -2.80422,0.0379 2.46776,-0.22502 8.22171,-5.08258 11.6442,-10.0829 z"
           id="path203"
           inkscape:connector-curvature="0"
           style="fill:#9ecb34" />
      </g>
      <use
         xlink:href="#mountain1"
         x="-15.340665"
         id="use205"
         y="0"
         width="100%"
         height="100%" />
      <g
         id="mountain3"
         style="fill:#c6cb24">
        <path
           d="m 502.218,297.911 c 2.73458,10.5755 11.7902,21.3327 22.5831,21.3327 l 8.08853,0 0,10.7681 c 0,0.003 -0.0144,0 -0.017,0 l -65.7947,0 c -0.006,0 -0.0167,0.003 -0.0167,0 l 0,-10.7681 8.07151,0 c 10.7926,0 19.863,-10.7575 22.6001,-21.3327 0,0 0.53408,-0.86562 2.24287,-0.86562 1.70879,0 2.24287,0.86562 2.24287,0.86562 z"
           id="path208"
           inkscape:connector-curvature="0"
           style="fill:url(#linearGradient4419)" />
        <path
           d="m 499.975,297.465 c 0.78378,0 1.25463,0.19644 1.53836,0.372 0.26865,0.16626 0.33123,0.25869 0.33829,0.27057 0,0 0.017,0.0168 0.017,0.0168 1.40164,5.32275 4.34806,10.6683 8.33375,14.7065 4.0165,4.06971 9.08671,6.82929 14.6226,6.82929 l 7.64046,0 0,9.92238 -64.9804,0 0,-9.92238 7.67448,0 c 5.53561,0 10.593,-2.75991 14.6053,-6.82929 3.98184,-4.03827 6.93371,-9.38379 8.33374,-14.7065 0.003,-0.007 0.0151,-0.01 0.017,-0.0168 0.006,-0.012 0.0575,-0.12228 0.32096,-0.28758 0.2786,-0.1743 0.75458,-0.35499 1.53837,-0.35499 z"
           id="path210"
           inkscape:connector-curvature="0"
           style="fill:#97c924" />
        <path
           d="m 499.263,297.53 c -0.0864,0.0162 -0.16714,0.0347 -0.24243,0.0546 -0.004,10e-4 -0.0128,-0.001 -0.0176,0 -0.24288,0.0665 -0.43572,0.15144 -0.5715,0.23636 -0.26398,0.16499 -0.31454,0.27385 -0.32103,0.28575 -0.002,0.006 -0.016,0.0111 -0.0176,0.0176 -0.17526,0.66535 -0.37034,1.333 -0.59266,1.99672 -0.11089,0.33159 -0.23352,0.66433 -0.35631,0.99484 -0.36838,0.99044 -0.782,1.97606 -1.24883,2.94216 -0.31158,0.64425 -0.64567,1.26802 -0.99836,1.89442 -0.88173,1.56653 -1.89108,3.07628 -3.0092,4.47675 -0.67076,0.84061 -1.38428,1.64511 -2.13077,2.40242 -2.80963,2.85016 -6.12791,5.04991 -9.76842,6.11716 2.76473,0.61504 4.03154,-0.056 6.54853,-0.45356 1.95224,-0.30779 4.21092,-0.5631 6.04308,-1.21708 1.3637,-1.89434 0.89896,-1.29988 1.44639,-2.85397 1.18086,-2.21836 2.90542,-4.22182 3.33375,-6.68161 1.61858,-3.02147 1.90301,-8.6137 1.90304,-10.2126 z"
           id="path212"
           inkscape:connector-curvature="0"
           style="fill:#ede71f" />
        <path
           d="m 499.275,298.902 c -0.41166,6.03407 -2.27681,13.1917 -6.6438,17.8107 -1.60658,1.33664 -3.65998,2.54995 -5.64577,2.2546 6.77038,-5.51045 10.8848,-13.9468 12.2896,-20.0653 z"
           id="path214"
           inkscape:connector-curvature="0" />
        <path
           d="m 493.832,309.281 c -1.00204,2.72139 -4.78809,6.74682 -8.84021,10.0453 -1.15033,0.035 -1.75951,0.10077 -2.80424,0.0375 2.46787,-0.2253 8.22237,-5.08266 11.6444,-10.0828 z"
           id="path216"
           inkscape:connector-curvature="0"
           style="fill:#9ecb34" />
        <path
           d="m 500.951,297.584 c 0.004,10e-4 0.0128,-10e-4 0.0176,0 0.24288,0.0665 0.43572,0.15144 0.5715,0.23636 0.26398,0.16499 0.31454,0.27385 0.32103,0.28575 0.002,0.006 0.016,0.0111 0.0176,0.0176 0.17526,0.66535 0.37034,1.333 0.59266,1.99672 0.11089,0.33159 0.23352,0.66433 0.35631,0.99484 0.36838,0.99044 0.782,1.97606 1.24883,2.94216 0.31158,0.64425 0.64567,1.26802 0.99836,1.89442 0.88173,1.56653 1.89108,3.07628 3.0092,4.47675 0.67076,0.84061 1.38428,1.64511 2.13077,2.40242 2.80963,2.85016 6.12791,5.44502 9.76842,6.51227 -7.24491,0.0274 -10.3888,-0.63 -13.022,-4.01661 -2.63318,-3.38661 -3.60599,-4.86816 -4.1405,-6.93644 -0.53451,-2.06829 -2.02539,-6.57045 -1.86986,-10.8063 z"
           id="path218"
           inkscape:connector-curvature="0"
           style="fill:#ede71f" />
        <path
           d="m 501.476,298.902 c 0.41166,6.03407 2.2209,12.0063 6.58735,16.6253 1.60659,1.33664 3.65999,2.54994 5.64577,2.2546 -7.33482,-5.00192 -10.8288,-12.7615 -12.2331,-18.8799 z"
           id="path220"
           inkscape:connector-curvature="0" />
      </g>
      <g
         id="mountain4">
        <path
           d="m 484.749,297.043 c -1.70911,0 -2.24833,0.86208 -2.24833,0.86208 -2.52242,9.74649 -11.825,22.3182 -21.4962,23.8113 l -4.78983,8.28981 49.0144,0 0,-11.3486 c -8.82472,-2.37071 -15.8893,-11.6292 -18.2484,-20.7525 -3.4e-4,0 -0.52284,-0.86208 -2.23164,-0.86208 z"
           id="path223"
           inkscape:connector-curvature="0"
           style="fill:url(#linearGradient4421)" />
        <path
           d="m 484.749,297.465 c -0.7841,0 -1.25495,0.19644 -1.53836,0.372 -0.26864,0.16626 -0.33123,0.25869 -0.33797,0.27057 -3.3e-4,0 -0.017,0.0168 -0.017,0.0168 -1.40164,5.32275 -4.67746,10.7045 -8.07974,14.9888 -3.40228,4.28421 -9.71968,8.61825 -14.0417,9.07638 l -4.28272,7.39371 48.0605,0 0,-10.6937 c -3.55405,-1.09062 -6.79917,-3.26637 -9.5523,-6.05864 -3.98183,-4.03827 -6.93371,-9.38379 -8.33374,-14.7065 -0.002,-0.007 -0.0154,-0.01 -0.017,-0.0168 -0.006,-0.012 -0.0578,-0.12228 -0.32128,-0.28758 -0.27891,-0.1743 -0.7549,-0.35499 -1.53868,-0.35499 z"
           id="path225"
           inkscape:connector-curvature="0"
           style="fill:#97c924" />
        <path
           d="m 483.445,298.903 c -0.61721,9.04327 -5.65334,20.4536 -11.3402,22.4194 -1.85433,0.64154 -5.09834,0.86441 -6.22727,1.00883 9.94892,-4.73151 15.8284,-15.8536 17.5675,-23.4282 z"
           id="path227"
           inkscape:connector-curvature="0"
           style="fill:#93bc30" />
        <path
           d="m 484.746,297.465 c -0.14713,0 -0.27966,0.0211 -0.4057,0.0341 -0.0233,3.01731 0,8.10909 0,10.8013 0.0292,2.34006 0.83088,4.2225 2.01175,6.44085 0.0687,0.1942 0.13577,0.35377 0.20285,0.49009 0.41003,1.08564 0.7135,1.46267 2.28222,2.6538 4.9869,3.78651 11.1698,4.35287 14.8082,4.04021 -1.13975,-0.89849 -2.35794,-1.71529 -3.4317,-2.46772 1.71152,-0.0552 3.3511,-0.24883 4.51358,-0.5074 -3.64051,-1.06725 -6.96079,-3.26938 -9.77042,-6.11954 -0.48955,-0.49658 -0.94501,-1.02182 -1.40319,-1.55518 -0.20826,-0.29156 -0.50091,-0.69725 -0.59178,-0.81139 -1.11812,-1.40047 -2.26275,-2.94699 -3.14448,-4.51352 -0.35269,-0.6264 -0.6859,-1.24901 -0.99748,-1.89326 -0.46683,-0.9661 -0.88282,-1.95059 -1.25119,-2.94104 -0.1228,-0.3305 -0.24397,-0.66588 -0.35486,-0.99747 -0.22232,-0.66372 -0.41652,-1.32961 -0.59178,-1.99495 -0.002,-0.006 -0.0152,-0.0103 -0.0168,-0.0168 -0.006,-0.0119 -0.0573,-0.12225 -0.32132,-0.28724 -0.13578,-0.0849 -0.3316,-0.17039 -0.57502,-0.23692 -0.005,-10e-4 -0.0124,10e-4 -0.0168,0 -0.25153,-0.0665 -0.55446,-0.11793 -0.9461,-0.11793 z"
           id="path229"
           inkscape:connector-curvature="0"
           style="fill:#ede71f" />
        <path
           d="m 485.446,298.902 c 0.41166,6.03407 2.27735,13.1917 6.6438,17.8107 1.60658,1.33664 3.65998,2.54995 5.64577,2.2546 -6.77038,-5.50991 -10.8853,-13.9468 -12.2896,-20.0653 z"
           id="path231"
           inkscape:connector-curvature="0" />
        <path
           d="m 489.613,307.247 c 2.36901,5.83689 8.37001,11.2893 14.5434,14.9536 1.15032,0.035 1.49118,0.003 2.53623,-0.06 -4.41834,-2.3709 -11.5382,-5.75379 -17.0796,-14.8936 z"
           id="path233"
           inkscape:connector-curvature="0"
           style="fill:#9ecb34" />
      </g>
      <use
         xlink:href="#mountain4"
         x="-15.429624"
         id="use235"
         style="fill:#c6cb24"
         y="0"
         width="100%"
         height="100%" />
    </g>
    <g
       id="seaf">
      <path
         d="m 556.5,324.692 c -0.57438,0.20274 -4.4212,-0.18918 -6.43291,-0.0441 l -1.27942,0.33561 c -1.12352,-0.008 -2.2382,0.0249 -3.33025,0 -3.60215,0 -6.64947,0.94833 -10.0754,0.94896 -3.43268,0 -6.47005,-0.94896 -10.0754,-0.94896 -1.11911,-0.008 -2.23365,0.025 -3.33025,0 -3.6015,0 -6.64626,0.94896 -10.0754,0.94896 -3.42915,0 -6.47326,-0.94896 -10.0754,-0.94896 -1.13086,-0.007 -2.24155,0.0238 -3.34789,0 -3.60182,0 -6.63215,0.94896 -10.0578,0.94896 -3.42883,0 -6.45594,-0.94896 -10.0578,-0.94896 -0.26736,0 -0.51646,0.009 -0.77612,0.0177 -0.17781,-0.004 -0.37669,-0.0177 -0.55739,-0.0177 -0.11972,0 -0.22152,-0.003 -0.33867,0 -0.11714,-0.003 -0.23659,0 -0.35631,0 -0.18069,0 -0.3443,0.0138 -0.52212,0.0177 -0.25964,-0.008 -0.51195,-0.0177 -0.77963,-0.0177 -3.60535,0 -6.64241,0.94929 -10.0754,0.94896 -3.42914,0 -6.47358,-0.94896 -10.0754,-0.94896 -0.2619,0 -0.52159,0.01 -0.77611,0.0177 -0.1807,-0.004 -0.33885,-0.0177 -0.52212,-0.0177 -0.12421,0 -0.25198,-0.003 -0.37394,0 -0.11715,-0.003 -0.23659,0 -0.35631,0 -0.1807,0 -0.36162,0.0138 -0.53975,0.0177 -0.25902,-0.008 -0.50844,-0.0177 -0.77612,-0.0177 -2.87883,0 -6.21806,0.60744 -8.93592,0.8502 l -6.27243,10.8584 62.9712,-0.007 64.3753,0.007 z"
         id="path238"
         inkscape:connector-curvature="0"
         style="fill:#ffffff" />
      <path
         d="m 547.993,323.111 c -0.19914,0 -0.3979,0 -0.5962,0.007 -3.24025,0.0945 -5.56407,1.1148 -11.2007,1.1148 -5.63662,0 -6.21814,-1.01862 -12.5836,-0.87843 -5.9467,0.13098 -8.44224,1.2612 -11.6699,1.21707 -3.22765,-0.0441 -8.47272,-0.69756 -12.5095,-0.27513 -4.03677,0.4224 -8.8283,1.28394 -11.9733,1.29114 -3.90833,-0.0174 -7.81956,-0.73101 -11.9062,-0.32454 -4.08669,0.40647 -5.99703,1.49994 -11.0631,1.48518 -4.35525,-0.0126 -9.08294,-0.69768 -12.7459,-0.69498 -3.43476,0.003 -7.26655,0.95724 -10.0859,1.44288 l -0.84314,1.46403 c 2.24704,-0.26058 8.55148,-1.21821 10.802,-1.27707 2.34423,-0.0613 10.717,0.48306 15.3352,0.32457 4.61831,-0.15849 5.15872,-1.17123 10.6186,-1.17123 3.80095,0 6.66602,0.39864 10.5657,0.39864 2.43414,0 4.64322,-1.24179 8.34319,-1.24179 0.93595,-0.0267 1.86447,-0.0608 2.794,-0.0914 3.11857,-0.51522 8.38344,0.0449 12.0474,0.23274 3.31532,0.17289 5.45733,-0.61554 8.9147,-0.73023 1.49575,-0.0682 2.99739,-0.0659 4.47322,-0.1483 3.46061,-0.11481 6.42225,0.64053 9.68022,0.62442 3.24998,-0.20046 6.40346,-0.9225 9.86013,-1.03716 1.51123,-0.0717 2.99793,-0.0723 4.49087,-0.1482 2.28616,-0.0758 5.83581,0.0784 8.27264,0.50094 l -0.83962,-1.4499 c -2.37954,-0.0756 -5.31192,-0.63528 -8.18091,-0.63501 z"
         id="path240"
         inkscape:connector-curvature="0"
         style="fill:url(#linearGradient4423)" />
      <g
         id="wavesf3">
        <path
           id="wavef1"
           d="m 450.312,334.748 c -3.4571,0 -6.40225,0.85314 -9.65206,0.94542 -1.21068,-0.0338 -2.36647,-0.18372 -3.53485,-0.34572 l -0.49037,0.8502 c 0.48641,0.0323 0.97518,0.0635 1.48873,0.0635 1.50121,0.0181 2.99033,-0.0362 4.47333,0 3.4571,0 6.38201,-0.85251 9.63442,-0.94545 3.25403,0.0923 6.20548,0.94545 9.66617,0.94545 1.5011,0.0185 2.99216,-0.0362 4.47329,0 3.45743,0 6.41213,-0.85317 9.66616,-0.94545 3.25601,0.0923 6.23024,0.94545 9.68735,0.94545 1.49515,0.018 2.99325,-0.0361 4.46979,0 3.45745,0 6.40128,-0.85317 9.65206,-0.94545 3.25339,0.0923 6.19143,0.94545 9.64853,0.94545 1.51281,0.0184 2.99932,-0.0362 4.49089,0 3.45713,0 6.41051,-0.85317 9.66617,-0.94545 3.25762,0.0917 6.21,0.94545 9.66971,0.94545 1.49537,0.018 2.99209,-0.0361 4.46978,0 3.45709,0 6.40095,-0.85317 9.65206,-0.94545 3.25303,0.0923 6.20903,0.94545 9.66616,0.94545 1.49931,0.0181 2.99554,-0.0361 4.47325,0 0.60565,0 1.19636,-0.0342 1.77801,-0.0776 l -0.46213,-0.79728 c -1.06409,0.14412 -2.13376,0.27615 -3.235,0.3069 -3.25439,-0.0923 -6.19497,-0.94542 -9.65207,-0.94542 -1.51059,-0.0196 -2.99775,0.0292 -4.49089,0 -3.4571,0 -6.39678,0.85314 -9.64853,0.94542 -3.25694,-0.0916 -6.2058,-0.94542 -9.66617,-0.94542 -1.49604,-0.0198 -2.99286,0.0297 -4.47325,0 -3.45713,0 -6.41243,0.85314 -9.66617,0.94542 -3.25435,-0.0923 -6.20904,-0.94542 -9.66617,-0.94542 -1.50326,-0.0196 -3.00351,0.0292 -4.4909,0 -3.45712,0 -6.39874,0.85314 -9.64852,0.94542 -3.25406,-0.0923 -6.19497,-0.94542 -9.65206,-0.94542 -1.5058,-0.02 -2.98967,0.0296 -4.47325,0 -3.46037,0 -6.40921,0.8538 -9.66618,0.94542 -3.25436,-0.0923 -6.20873,-0.94542 -9.66617,-0.94542 -1.50222,-0.0201 -3.00578,0.0298 -4.49089,0 z"
           inkscape:connector-curvature="0"
           style="fill:url(#linearGradient4425)" />
        <use
           xlink:href="#wavef1"
           y="-1.2894435"
           id="use244"
           x="0"
           width="100%"
           height="100%" />
        <use
           xlink:href="#wavef1"
           y="-2.5745997"
           id="use246"
           x="0"
           width="100%"
           height="100%" />
      </g>
      <use
         xlink:href="#wavesf3"
         y="-3.8671875"
         id="use248"
         x="0"
         width="100%"
         height="100%" />
      <use
         xlink:href="#wavesf3"
         y="-7.7286534"
         id="use250"
         x="0"
         width="100%"
         height="100%" />
    </g>
    <path
       d="m 443.846,324.705 -2.42711,4.191 c 2.83897,-0.47073 7.10222,-1.70307 10.6345,-1.70568 3.66291,-0.003 8.08192,0.90279 12.4372,0.91545 5.06609,0.0147 6.97643,-1.07871 11.0631,-1.48521 4.08668,-0.40644 7.99791,0.52761 11.9062,0.54507 3.14498,-0.007 7.93651,-1.08924 11.9733,-1.51167 4.03678,-0.42243 7.73721,0.29346 12.603,0.3687 4.86583,0.0753 5.62964,-1.17963 11.5763,-1.31061 6.36544,-0.14022 6.94696,0.8784 12.5836,0.8784 4.24149,0.22824 7.88284,-0.8541 11.6664,-1.12182 3.78351,-0.26772 5.53834,0.043 8.3044,0.10938 l -1.83798,-3.25263 c -0.0306,0 -0.0608,0.003 -0.0917,0.004 l -101.246,2.2256 z"
       id="path252"
       inkscape:connector-curvature="0"
       style="fill:#97c924" />
    <path
       d="m 550.067,324.648 c 0,0 2.71009,0.1485 3.84748,0.27558 1.13739,0.12711 2.95452,0.25356 2.95452,0.25356 l -0.36909,-0.48504 c -0.57438,0.20274 -4.4212,-0.18918 -6.43291,-0.0441 z"
       id="path254"
       inkscape:connector-curvature="0"
       style="fill:#ffffff" />
  </g>
  <path
     d="m 357.10545,225.47486 -32.1418,55.6856 -32.8579,56.8991 64.2977,-0.007 65.7018,0.007 -32.153,-55.683 -32.847,-56.902 z m 0,3.00212 31.5491,54.652 30.8506,53.4278 -63.1018,-0.004 -61.7012,0.004 31.5597,-54.6448 z"
     id="path256"
     inkscape:connector-curvature="0"
     style="fill:#c8a400" />
  <path
     style="fill:#0067c6;fill-opacity:1;stroke:#0067c6;stroke-width:1.20000005;stroke-miterlimit:4;stroke-dasharray:none;stroke-opacity:1"
     d="m 581.80467,0.60086439 c -0.10735,0.004 -0.21163,0.0276656 -0.3125,0.0722656 -3.35969,4.23145999 -1.11173,3.09999879 -4.62695,6.69921879 -1.5387,1.37718 -0.88754,3.1690122 -2.47852,3.0449222 -1.0734,0.650469 -4.37757,3.570765 -5.79297,3.228515 -3.04526,4.37796 -4.9898,1.699225 -6.38086,2.634766 -1.55608,0.043 -4.46324,2.432292 -6.08594,1.914062 -1.37235,4.02924 -1.21232,4.596749 -8.6875,6.730469 -2.24805,1.36892 -6.73932,2.166445 -7.88086,2.572265 -0.86647,0.44742 -2.2841,2.175788 -3.02343,2.804688 -3.87701,4.54051 2.73561,0.750254 -3.91797,5.927734 -1.10604,0.5635 -8.56195,2.400061 -9.45508,1.550782 -0.82936,0.200029 -1.55923,0.717219 -2.36523,1.005859 -1.38185,0.15906 -2.92388,0.188724 -4.16407,-0.541016 -0.69062,-0.61717 -1.40541,0.170422 -2.05859,0.451172 -1.07535,0.85818 -2.43207,0.590763 -3.66406,0.314453 -1.45155,-0.0188 -2.0676,-1.406815 -2.54688,-2.546875 -1.08728,0.41197 -2.68454,0.621103 -3.88086,0.0332 -0.45179,0.32117 1.1099,3.153822 0.29688,4.013672 -0.95466,1.57894 -2.8828,0.911656 -4.35938,0.785156 -1.03864,-0.384799 -2.15648,0.0392 -3.01757,0.650391 -1.19211,1.01587 -2.74302,1.198309 -4.23243,1.443359 -1.83388,0.42816 -3.73159,0.06113 -5.39648,-0.771484 -1.28722,-0.28211 -1.21818,-10.015469 -2.41602,-10.449219 -1.57714,-0.12472 -5.12849,2.453177 -5.36914,2.154297 -0.60038,0.50495 -3.54319,3.872718 -3.06445,4.867188 0.69811,2.37421 1.37052,3.056366 1.08398,5.347656 0.11458,3.16361 -1.15204,1.549585 -5.15429,-1.703125 -1.21512,1.10285 -1.34109,2.101337 -2.78321,1.935547 l -2.55664,-6.347656 -4.35937,2.564453 c -0.43131,0.94343 -3.00005,4.692217 -4.35352,4.966797 -3.60736,4.98778 -1.57733,5.988232 -6.07031,3.757812 -0.49856,1.3774 -2.04348,2.689538 -3.33008,2.267578 -1.63591,-0.40187 -1.66277,-1.173872 -3.07812,-2.169922 -0.7131,-0.81358 -2.0675,-3.108665 -3.03907,-2.978515 -4.90036,1.53372 -4.661,-0.625371 -9.39453,-0.806641 -2.38945,1.18933 -4.12597,-0.567911 -7.02148,-2.269531 -1.61091,1.49925 -2.60558,4.283405 -5.04688,3.828125 -0.80628,1.55433 -3.23627,2.654217 -4.63086,2.273437 -1.50051,-0.56339 -1.03058,-2.249941 -1.57812,-3.394531 -0.91361,-0.75697 -1.97715,-1.451364 -2.85156,-2.308594 -1.37153,-0.91473 -1.97734,-2.458676 -2.7461,-3.847656 -0.12604,-1.80148 -2.79939,-1.35145 -2.73437,-3.46289 -0.70473,-1.156551 0.30743,-2.677444 0.19531,-3.339844 -1.15061,-0.62481 -2.13179,-1.468915 -2.78711,-2.615235 -0.78452,-0.68089 -0.36844,-1.976355 -1.04687,-2.634765 -0.72171,-0.48055 -1.65424,-0.870276 -2.50586,-0.503906 -1.7821,-0.002 -2.86466,1.885049 -4.66211,1.880859 -1.34474,0.41 -2.49819,-0.310656 -3.83399,-0.128906 -2.98188,0.72602 -2.1294,0.447312 -6.81836,-0.173829 l -2.21875,3.720704 c -0.77995,0.55756 -4.40041,1.118675 -5.83984,2.578125 l -4.24219,3.546875 c -1.42252,1.44289 -1.05883,2.597047 -2.82617,4.773437 -0.66101,0.70142 -1.75306,1.059688 -2.49414,2.142578 -0.77807,1.13692 -1.16862,2.989117 -0.27148,3.310547 l 2.35351,2.703125 0.2168,3.304688 -1.4336,3.746093 -4.27343,2.150391 -5.16602,0.330078 -1.61523,0.542969 0.91406,6.21289 -1.8457,4.81836 -3.37696,3.404297 c -1.45031,3.00724 0.22709,3.692957 -2.14062,6.023437 -0.50836,2.11061 -1.64913,4.426019 -2.65625,5.480469 l 1.66797,2.923828 3.14843,4.003906 -1.92773,5.97266 -3.05859,1.6289 -4.20508,0.41211 -5.80274,-0.59961 -3.9375,0.9961 -4.49023,-0.19922 -2.43945,1.83008 -1.64063,2.63281 0.16406,5.91406 -0.3789,2.35156 -2.29883,2.68555 -0.36523,2.87891 -4.48243,5.18945 -4.14843,0.52344 -2.86914,1.53906 -4.37891,2.82226 -1.69141,3.05274 -3.28515,1.19336 -4.95703,-1.36914 -1.91797,1.66406 -1.87305,1.72852 -3.24609,1.93554 -3.21485,0.9668 -1.24219,-0.1543 c -0.85871,1.28222 -2.07188,3.90666 -3.48632,4.60352 -1.59349,1.01959 -3.00898,-0.66553 -4.52735,-0.91016 -1.05748,0.56524 -1.83448,1.788 -2.96094,2.35156 -0.76859,0.65361 -2.24465,0.2463 -2.25195,1.50586 -0.0511,1.99886 0.45873,4.04113 -0.0293,6.02735 -0.0341,0.87987 -0.78876,1.92278 0.47851,2.1914 0.82562,0.92722 2.00974,1.70023 2.27734,2.97657 0.39235,1.49411 -0.22946,2.92737 -0.75195,4.30468 -0.76604,1.0221 -1.94594,1.75317 -3.08398,2.29883 -1.60593,0.78336 -2.13218,-1.60028 -3.25,-1.50195 -1.33162,0.45013 -2.71252,0.60356 -4.10938,0.4375 -1.19777,0.0906 -2.35705,-0.33081 -3.07617,-1.32227 -1.40979,-1.1957 -2.11578,-2.99209 -3.5957,-4.11133 -1.31076,-0.83908 -1.07472,-2.44233 -1.02735,-3.77343 0.12221,-0.75043 0.0628,-1.61905 -0.83789,-1.79883 -1.5586,-0.55152 -2.94265,0.82731 -4.38672,1.22266 l -1.82421,-1.30079 -1.41602,-0.57421 -1.16211,-1.8379 -2.67969,-2.49414 -2.90039,-2.17382 -6.58984,-4.95704 -0.87695,-1.38085 -0.22071,-1.09571 0.30469,-2.1582 1.61719,-2.98438 0.64062,-2.08984 -0.50586,-2.22461 -1.29687,-0.18555 -2.31055,1.07813 -1.85351,0.10156 -2.2754,-0.16797 -1.1289,0.53907 -2.86719,0.21875 -2.22461,1.26367 -1.88672,1.48437 -2.39453,0.79102 -1.60156,0.84375 0.50586,2.42773 1.51758,0.92578 -0.625,1.4668 -1.17969,0.45508 -1.36524,1.19726 -1.80273,0.43946 -2.04102,0.13476 -0.53906,1.26368 0.57422,2.51171 -1.33203,0.67383 -0.94531,1.76953 -2.79688,1.41602 -1.0625,2.31055 -1.95508,1.65234 -1.16406,2.08984 -3.32031,2.12305 -0.99414,2.20898 -2.78125,1.61719 0.60547,2.05664 -0.4043,1.80469 -1.63477,1.83789 -1.16211,2.74609 -1.04687,1.09571 -3.25195,1.92187 -2.24219,-0.4707 -1.12891,-0.96094 -2.49609,1.51758 -1.9043,-0.20313 -1.65234,-0.16796 -2.67969,-0.084 -1.7539,-2.88281 -1.76954,1.04492 -1.41601,0.57227 -2.35938,0.42187 -1.14648,-0.13476 -3.30469,-1.65235 -2.35937,-2.64648 -1.65235,-0.084 -1.93945,0.23633 -1.66797,1.43164 -4.75391,1.0625 -2.84765,-0.33789 -1.41602,0.69141 -1.6875,0.10156 -1.85351,-0.70703 -6.77539,-0.58984 -1.26563,0.33593 -2.39258,1.4668 -1.55078,0.0176 -1.43359,0.13476 -0.15235,1.09571 -0.60546,2.15625 0.89257,4.0625 -0.38672,1.50195 -0.81054,2.25781 -2.05664,4.28125 0.81054,1.75391 1.88672,0.47265 2.02344,1.60157 -2.22461,7.23047 0.0332,1.95507 0.28516,0.13477 452.53906,0 0.0899,-1.21289 1.28125,-8.36133 0.6914,-3.45508 0.28516,-1.34961 -0.0664,-2.34179 1.09571,-6.28907 1.65234,-7.40039 0.97656,-4.38281 2.10742,-4.80273 1.73633,-3.11914 -0.60742,-1.56836 1.11328,-3.05078 0.4043,-2.83204 1.85547,-2.69726 0.18554,-2.42774 1.19532,-0.97656 0.49023,-1.53515 1.41602,-2.15625 1.36523,-1.4336 1.4668,-1.02734 1.36523,-0.0859 1.31446,-1.83594 1.46679,-1.16406 1.11133,-1.33203 0.81055,-1.5332 0.48828,-1.56836 2.20898,-2.52735 1.38086,-1.63672 2.91602,-3.01757 0.625,-1.29688 1.5,-1.48437 0.65625,-1.75196 3.2207,-5.24218 0.6582,-1.92188 2.47657,-4.97266 1.77148,-3.54101 2.07227,-5.832031 0.74218,-2.748047 -0.0176,-1.248047 -0.55469,-3.421875 -0.86133,-5.308594 -1.00977,-4.585937 -0.11914,-2.529297 -1.41601,0.185547 -0.37109,-1.482422 1.08007,0.320312 -0.99609,-1.652344 -1.43164,-3.404296 -3.25391,-9.845704 -1.28125,-4.164062 -0.62304,-4.095703 -1.48438,-5.646485 -1.04492,-4.146484 -2.10742,-11.277344 0.0684,-1.265625 1.07812,-0.572265 0.38867,-1.164063 1.23047,-2.376953 0.92578,-2.646484 0.9961,-1.970704 0.4707,-4.197265 1.31641,-3.035156 1.80273,-1.802735 2.07422,-2.917968 -1.29883,0.910156 -1.11328,-0.824219 1.23047,-2.0917965 1.74219,-2.0039062 1.39453,1.4140625 -0.69141,1.8886718 1.23047,-1.7539062 1.85352,-1.3105469 -0.70899,-1.296875 0.95899,-0.4492187 1.28515,0.1113281 1.20508,-0.5273437 c -0.11899,-0.4666701 -0.28018,-1.5525869 0.0527,-1.5605469 l 1.49024,0.3808593 -0.2207,-1.1972656 1.23046,0.1191406 1.92188,-0.5390624 -1.98828,0.3203124 -3.91016,-0.4902343 -0.73437,1.0820312 c 0,0 0.53629,0.090421 -0.57422,0.5253907 -1.11052,0.43495 -1.38899,1.7824456 -2.5918,2.0410156 -1.41189,0.76334 -2.51579,-0.7918744 -3.95508,-0.7089844 -1.48412,-0.39581 -2.09359,2.3781562 -3.71289,1.8789062 -1.44263,-0.3873899 -3.67674,-0.8210312 -3.57031,-2.7382812 0.0921,-0.8989 -1.30899,-0.6494131 -1.91406,-1.1582031 -0.851,-0.23767 -2.3491,-1.65562505 -2.8711,-0.421875 -1.05382,0.71104 -2.07653,0.7582737 -3.25976,0.5585937 -1.08828,-0.21047 -1.05335,-1.69420874 -2.05274,-1.91796874 -1.12211,-0.14084999 -1.93001,-0.024085 -2.67382,0.85937504 -0.92258,0.39638 -1.37216,1.2592819 -1.91407,2.0449219 -0.92435,1.14111 -2.49382,0.5064099 -3.67187,1.125 -0.85822,0.8044099 -1.93195,1.2542524 -3.09571,1.3828124 -1.63163,0.619453 -2.79817,-0.8196782 -3.9219,-1.7383182 -0.84193,-0.53749 -0.78563,-2.6996562 -1.60156,-1.0039062 -0.78929,1.35653 -3.05557,-2.80794382 -4.66602,-2.74609381 l -0.002,0 z M 630.0117,4.5032082 c 0.0627,0.2458099 0.11675,0.3665368 0.0762,-0.033203 l -0.0762,0.033203 z m 5.01367,-2.1230469 -2.03906,0.2519531 -0.64063,1.1308594 0.11719,1.5507812 1.48438,-1.5859375 -0.10157,1.4003907 1.17969,-2.7480469 z m -2.07226,3.6074219 -1.76954,0.2363281 -2.17578,0.3710937 1.14649,0.2851563 2.79883,-0.8925781 z m 72.94922,57.7148428 -1.48829,0.228516 0.93164,1.302734 0.55665,-1.53125 z m -32.67774,18.494141 1.36133,1.244141 0.91015,-1.107422 -2.27148,-0.136719 z m 19.00586,0.867188 -1.42578,0.486328 -2.36524,-0.429688 -1.54492,1.416016 -0.19726,1.634765 -1.51953,1.898438 -0.38477,1.212891 -1.76367,0.867187 -0.35352,1.181641 2.6543,-0.84961 1.2168,0.119141 1.36132,1.214844 3.20118,-0.166016 1.86523,-2.757812 0,-1.574219 -0.22461,-1.931641 -0.51562,-2.322265 -0.004,0 z m 19.6875,11.425781 -0.54883,1.113281 1.11719,0.08594 -0.56836,-1.199219 z m 1.68164,1.605469 -1.29297,0.425781 -0.32617,1.40625 1.19727,-0.554688 0.42187,-1.277343 z m -582.23437,304.505855 1.01757,1.30664 0.65821,1.31445 -0.0508,1.16407 1.17968,1.55078 -0.0156,1.60156 3.70703,5.29297 0.77539,1.83789 1.92187,2.9668 1.48438,3.25195 1.61719,0.94531 1.0625,1.63477 3.10156,3.08398 2.24219,3.82813 0.21875,1.98828 0.81054,1.93945 4.31446,3.72461 1.33203,0.91016 2.71289,3.20312 2.58008,3.05078 1.38281,2.08985 0.62305,1.58593 0.4375,2.54493 1.83789,1.51757 1.31445,1.11133 1.63672,1.63477 5.03906,3.2207 1.55078,1.19727 1.92188,1.23047 1.16406,0.7246 1.36523,1.19727 2.20704,2.29102 1.66992,1.29882 2.32617,3.28711 1.23047,0.94336 0.45508,1.13086 1.65234,1.16211 7.63672,4.31641 3.96094,1.51562 1.60156,1.73633 3.4043,2.02344 1.66992,0.87695 0.85937,1.16211 3.25196,2.58008 0.96093,1.4668 -0.20117,1.87109 1.51758,2.29297 1.5,0.60547 1.33203,0.47265 1.16211,0.10157 3.92773,3.08398 2.05665,1.36524 1.38281,1.95507 1.16211,1.93946 1.13086,0.20312 1.5,0.72461 2.17383,2.49414 0.30273,1.60156 1.75391,0.55664 1.31445,0.92579 0.85937,1.18164 0.9961,1.87109 1.24609,-0.33789 1.40039,0.38672 1.78711,1.11328 1.65039,0.79297 2.54688,3.28711 1.43164,0.16797 1.11328,0.75781 0.99414,1.0957 0.42187,1.48438 1.17969,1.73633 1.39844,0.30273 -0.13477,1.19727 1.29883,0.0332 -0.0684,1.31445 1.0625,1.33203 1.16406,0.97852 1.48243,1.80273 1.23047,0.87696 0.94336,1.11328 2.83203,3.16797 1.66992,3.03515 0.53906,1.8711 0.64063,1.23046 -0.16797,1.34766 1.19726,1.90625 1.9043,0.74024 1.63477,0.2871 0.79296,1.17969 1.11133,-0.11719 1.0293,1.23047 3.77539,0.48828 1.68555,1.36524 1.31445,-0.0508 2.32617,-4.14649 2.34375,-3.58984 0.57422,-1.26563 4.87109,-7.65234 0.60743,-1.12891 0.4375,-1.7539 1.24804,-0.45508 6.06836,0.92773 2.12305,1.31446 2.67969,3.42187 1.58593,1.92188 14.81641,5.37695 7.97461,-0.0332 8.37695,4.26562 7.16406,3.25196 2.84961,1.50195 2.69727,1.41601 3.08398,1.07813 3.22071,1.14648 13.61914,4.85547 9.00195,3.20117 1.56836,0.55664 6.13477,2.5293 4.3164,1.78711 11.41211,-6.60937 5.31055,-3.06641 10.01172,-6.06836 6.30469,-3.49023 9.81054,5.66406 4.97266,-1.61914 1.40039,2.5625 2.76367,1.17969 5.5293,2.02343 2.05664,1.12891 4.7207,5.07422 2.00586,1.11328 1.9375,0.21875 1.99024,-1.02734 1.76953,-1.51758 2.88281,-0.69141 2.08984,-2.05664 1.33203,0.57227 1.28125,2.83203 -0.53906,1.53515 -0.37109,1.43164 1.38086,0.94532 0.91211,1.76953 1.19531,2.05664 1.38281,-0.0684 1.5,0.20312 1.56836,0.94336 1.01172,1.95508 1.48242,0.3711 1.76953,0.42187 1.13086,0.18555 1.75195,1.33203 1.19727,0.38672 1.16406,0.40625 0.94336,1.73633 0.084,1.85351 -0.4375,1.92188 -0.45508,1.21289 -2.07422,0.58984 0.92773,1.14648 1.38086,1.12891 1.58594,0.47266 0.80859,1.5 1.5,0.20312 1.60157,-0.33789 1.36523,0.52344 2.37696,-0.28711 1.19726,0.0176 2.34375,-0.25391 0.85938,2.46094 1.26367,0.26953 1.44922,-0.89258 1.51757,0.16797 2.24219,1.23047 2.24219,-0.13477 1.0625,-1.95507 1.23047,-0.0508 1.29687,0.57422 0.91016,-2.00781 1.83789,0.89453 0.74219,1.16211 0.77539,1.53516 2.71289,1.73633 1.99023,1.21289 0.85938,1.92187 1.23047,0.3711 2.27539,0.60742 0.38867,1.07812 1.68555,0.96094 1.19726,-0.33789 2.5957,-1.5 1.19532,0.10156 2.27734,0.35352 2.19141,-1.01172 1.1289,-0.67383 1.26368,-1.82031 1.65234,-0.55664 3.01758,-0.3711 1.5,-1.51562 0.96093,-1.16406 1.09571,0.13476 3.6914,-0.47265 1.31446,-1.02735 1.48437,-0.64062 2.73047,-0.92774 1.21485,0.10157 1.88671,0.16796 1.4668,-0.28515 1.29883,-0.85938 1.41601,-2.00781 0.084,-2.12305 -1.08008,-3.08398 -0.0156,-1.60156 0.25195,-3.64258 -1.24609,-1.58399 0.15039,-2.81445 -1.8711,-2.98437 -2.34179,-0.42188 -1.08008,0.4043 -2.17383,-0.53906 -2.10742,-2.35938 -3.72461,-5.00586 -3.22071,-4.80469 -0.64062,-1.34961 -2.14063,-4.5332 -2.76367,-8.63086 -0.6914,-1.68555 -0.55664,-1.36523 -0.60743,-1.41602 0.11914,-1.45117 -0.77539,-4.44922 -1.0625,-2.51171 -0.75976,-2.10743 -0.85938,-5.73047 -0.13476,-1.99023 -0.10157,-1.71875 -0.13476,-2.02344 0.54102,-7.23242 1.24609,-2.89844 0.28711,-1.78711 1.21289,-1.04492 0.58984,-1.56836 1.90625,-1.38086 0.8418,-1.0957 1.19726,0.0332 1.29883,0.23633 1.21289,-0.37109 0.82618,-2.58008 1.34765,-1.26367 0.54102,-1.12891 0.41992,-1.85547 -0.23438,-1.28125 0.74024,-1.24609 0.99609,-1.82031 0.79102,-2.74805 1.38281,-2.10742 1.73633,-0.35352 2.12305,-0.38867 1.16406,0.37109 2.69726,-3.06836 1.33203,-1.88671 1.73633,-0.50586 1.97071,0.79101 1.43359,0.75977 0.37109,-1.11328 0.084,-1.38282 -0.50586,-1.16211 -0.4375,-1.0957 -0.6582,-3.38867 -0.50586,-1.39844 0.26953,-2.34375 -0.64063,-1.16406 -0.89258,-2.93164 -0.23632,-1.19727 -0.10157,-2.69726 -0.45507,-1.4668 0.11914,-1.21289 -0.96094,-1.93945 -0.35547,-1.9043 -1.91992,-5.02344 -0.25391,-1.5332 -0.48828,-2.9668 -1.04492,-1.28125 -0.2207,-1.70312 -1.14454,-1.39844 -0.6582,-1.61914 -0.55664,-4.63477 0.47266,-5.00781 0.48828,-1.34766 2.94922,-3.45507 1.55273,-0.67578 1.04492,-1.63477 -0.33789,-1.28125 -0.0508,-1.33203 0.37109,-2.39258 -0.0332,-2.125 -0.99414,-5.25781 0.0996,-4.60352 0.23047,-1.07031 -428.37109,0 z m 516.11914,0 0.0742,0.17969 0.17969,-0.17969 -0.2539,0 z"
     id="rect34"
     inkscape:connector-curvature="0" />
</svg>
