<?xml version="1.0" encoding="UTF-8" standalone="no"?>
<svg
   xmlns:dc="http://purl.org/dc/elements/1.1/"
   xmlns:cc="http://creativecommons.org/ns#"
   xmlns:rdf="http://www.w3.org/1999/02/22-rdf-syntax-ns#"
   xmlns:svg="http://www.w3.org/2000/svg"
   xmlns="http://www.w3.org/2000/svg"
   xmlns:sodipodi="http://sodipodi.sourceforge.net/DTD/sodipodi-0.dtd"
   xmlns:inkscape="http://www.inkscape.org/namespaces/inkscape"
   height="716.25"
   width="1230.0803"
   id="svg2"
   version="1.1"
   inkscape:version="0.48.1 "
   sodipodi:docname="Aa.svg">
  <metadata
     id="metadata16">
    <rdf:RDF>
      <cc:Work
         rdf:about="">
        <dc:format>image/svg+xml</dc:format>
        <dc:type
           rdf:resource="http://purl.org/dc/dcmitype/StillImage" />
      </cc:Work>
    </rdf:RDF>
  </metadata>
  <defs
     id="defs14" />
  <sodipodi:namedview
     pagecolor="#ffffff"
     bordercolor="#666666"
     borderopacity="1"
     objecttolerance="10"
     gridtolerance="10"
     guidetolerance="10"
     inkscape:pageopacity="0"
     inkscape:pageshadow="2"
     inkscape:window-width="1280"
     inkscape:window-height="1004"
     id="namedview12"
     showgrid="false"
     fit-margin-top="0"
     fit-margin-left="0"
     fit-margin-right="0"
     fit-margin-bottom="0"
     inkscape:zoom="0.70710678"
     inkscape:cx="599.45307"
     inkscape:cy="332.6471"
     inkscape:window-x="-8"
     inkscape:window-y="-8"
     inkscape:window-maximized="1"
     inkscape:current-layer="svg2" />
  <desc
     id="desc4">flag of Yemen</desc>
  <path
     style="fill:#ffffff;stroke:#000000;stroke-width:3;stroke-miterlimit:4;stroke-opacity:1;stroke-dasharray:none"
     d="m 103.30598,235.61888 c 0.0879,0.7866 -6.413642,3.41259 -6.125982,4.1374 L 96.924638,242 l 0.875,0.90625 c 0.104,0.50737 0.28075,1.64598 0.0937,2.15625 -0.8676,0.456 -1.41515,0.60165 -2.40625,0.4375 l -0.875,-0.6875 c -0.6371,-0.16208 -1.6188,-0.2551 -2.1875,-0.59375 -0.5086,-0.3026 -1.9651,-1.25595 -2.5,-1.28125 l -0.5,-0.65625 -0.40625,-0.0937 -1.5,0.59375 0.0312,0.625 1.21875,1.5625 0,0.4375 c -0.5201,0.54302 -1.3225,1.60002 -1.3125,2.40625 0.0153,1.64895 -0.26335,1.7303 -0.96875,3.3125 -0.0722,0.92395 -0.33345,1.45552 -0.71875,2.28125 l 0.59375,2.34375 -0.4375,0.75 c -0.7867,0.5099 -1.6689,0.31379 -2.5,0.5625 -0.1252,0.0373 -1.07,0.71575 -1.125,0.71875 -2.4213,0.14964 -3.15945,0.53964 -5.53125,1.59375 -0.5282,0.14176 -1.12045,0.348 -1.65625,0.4375 -0.7333,0.1227 -2.52325,-0.12618 -3.09375,0.53125 -0.3982,0.45845 -0.8563,1.11617 -1.3125,1.5 -0.6775,0.57039 -1.7166,1.02994 -2.5,1.5 l -0.0937,0.5 c 0.4889,1.12624 1.57725,3.46637 1.65625,4.53125 l -0.25,1.90625 -0.0937,0.96875 -3.46875,0.125 c -1.8195,1.63194 -3.93425,2.42523 -6.28125,3.03125 -0.0885,0.0228 -0.2245,0.0897 -0.3125,0.0937 -1.3896,0.0709 -2.05985,-0.15354 -3.21875,0.53125 -0.2426,-0.034 -0.5195,-0.18375 -0.6875,-0.34375 -0.8408,-0.80127 -1.7669,-1.14931 -2.8125,-1.65625 l -0.9375,1.5625 0.0937,0.5 0.40625,0.1875 0.125,0.4375 -0.5,0.25 c 0.5495,0.83774 1.11545,1.84585 1.40625,2.8125 -0.1392,0.61472 -0.42975,1.44529 -0.46875,2.0625 -0.0396,0.63462 0.46795,1.69305 0.0937,2.28125 0.5277,0.37804 0.99245,1.31572 1.09375,1.9375 l 0.5,0.25 -0.375,0.40625 c -0.0118,0.52851 0.017,1.54751 0.28125,2.03125 l -0.53125,0.78125 c 0.3815,0.38301 0.89205,1.60119 1.21875,1.75 l -0.0312,0.96875 c 0.3292,0.71628 0.88675,0.96397 1.21875,1.96875 l -0.1875,0.46875 0.1875,0.4375 c -0.1924,0.32664 -0.55825,0.71084 -0.90625,0.875 l 0.46875,1.1875 -0.125,0.53125 c 0.5668,0.77348 0.0347,2.17225 0.21875,2.6875 0.1904,0.53431 0.875,2.19199 0.875,2.65625 -0.009,0.64996 -0.6605,1.28639 -0.4375,1.875 0.2647,0.12353 0.436,0.45537 0.5625,0.6875 0.758,1.39277 0.58525,1.96323 0.15625,3.46875 -0.0692,0.24539 -0.14425,0.37049 -0.15625,0.625 0,0.0514 0.31175,1.56911 0.34375,1.71875 -0.9575,2.58159 -1.3986,2.41455 -0.9375,5.21875 0.152,0.9239 -0.601,1.8472 -0.25,3 -0.4993,0.6686 -0.85975,1.5993 -0.84375,2.4375 0.009,0.3312 0.18525,0.742 0.15625,1.0625 -0.0518,0.5645 -0.33225,1.15255 -0.40625,1.71875 -0.1254,0.9559 -0.1195,1.9733 -0.1875,2.9375 -0.7524,1.004 -1.9117,1.90075 -2.8125,2.78125 -0.4395,1.6104 -0.2974,2.77175 -2.125,3.34375 l -0.28125,1.3125 -0.0937,0.46875 -1.28125,0.90625 -0.25,-0.53125 -0.28125,0.0625 c -0.1327,0.4547 0.2395,0.86675 0.3125,1.28125 0.2695,1.5267 -0.94815,3.0396 -2.46875,3.125 l -0.625,0.78125 -0.1875,0.0625 -0.4375,-0.34375 0.1875,0.65625 -0.21875,0.125 c -0.1735,-0.1903 -0.5545,-0.379 -0.8125,-0.375 l 0.625,0.625 0.0312,0.3125 -0.25,0.375 -0.4375,-0.0625 -0.625,-0.5625 -0.25,-0.0312 c -0.3787,1.047 0.45915,2.1496 -0.21875,3.125 l 0.34375,0.5625 c 0.4444,-0.1613 0.9696,-0.4527 1.4375,-0.3125 0.3846,0.3809 0.0115,2.05575 -0.0625,2.59375 l -0.71875,0.53125 c -0.0433,1.183 -0.59605,3.7518 0.65625,4.5 0.0645,0.3892 0.1375,0.76495 0.1875,1.15625 l 1.3125,1.3125 c 0.1582,1.0479 -0.0392,1.1221 -0.40625,2.25 l -0.5,0.28125 c -0.1253,0.3237 -0.37625,1.17355 -0.28125,1.53125 l -0.1875,0.0937 -0.90625,-0.15625 c 0.6845,2.9223 3.17735,1.7213 4.71875,3.75 0.8528,1.1225 0.624,1.55615 1.125,2.65625 0.2259,0.4966 0.6813,0.96545 0.875,1.46875 0.3057,0.7933 -0.0679,1.27955 0.875,2.15625 -0.1202,0.9281 0.13775,2.21025 0.21875,3.15625 l -0.875,1.40625 0,0.5 0.375,0.0625 0.34375,-0.625 0.1875,-0.0937 c 0.5361,0.5455 0.4348,1.62305 0.0625,2.21875 0.3596,0.4858 1.2157,1.75095 0.75,2.40625 0.0246,0.6292 0.75465,1.6306 1.15625,2.0625 l -0.0312,4.9375 c 0,1.0798 0.8649,1.90145 1.5625,2.59375 0.5494,1.5954 -1.4758,2.5083 -2.125,3.5625 l -0.46875,1.375 -0.21875,0.71875 -0.53125,-0.0312 -0.21875,0.3125 c 0.188,0.8087 1.04795,1.27155 1.21875,2.21875 l -0.1875,0.28125 -0.46875,-0.6875 -0.21875,0 -0.28125,0.625 -0.28125,-0.21875 c -0.0424,-0.6724 -0.77195,-6.7751 -1.78125,-6.875 l -0.125,1.21875 -0.3125,-0.25 -0.3125,0.4375 -0.25,-0.3125 0,-0.78125 -0.28125,-0.21875 -0.21875,0.4375 -0.3125,0.0625 -0.40625,-0.40625 -0.34375,0 c -0.26,-0.5712 -0.6509,-1.1991 -0.25,-1.8125 -0.09,-0.478 -1.35465,-1.55775 -1.71875,-1.84375 l -0.71875,-0.125 c -0.5987,0.3067 -0.9122,0.92275 -1.25,1.46875 l -0.28125,-0.0312 c 0.128,-2.6053 0.7387,-4.3716 1.6875,-6.75 l -0.28125,-0.53125 -1.03125,0.84375 c -0.2288,0.7561 -0.31925,1.7182 -0.21875,2.5 l -1,1.625 -0.96875,0.15625 -0.125,0.21875 c 0.0493,1.821 1.7491,3.2546 2.375,4.9375 l -0.125,0.4375 -0.25,-0.375 -0.21875,0.0312 -0.25,0.5625 -0.375,0.21875 c 0.143,1.0823 -0.18015,1.63155 -0.84375,2.40625 -0.1282,0.1492 -0.35415,0.4043 -0.59375,0.4375 -0.2359,-0.028 -2.409,-0.25145 -2.5,-0.28125 -0.2092,-0.069 -0.28885,-0.1857 -0.46875,-0.3125 l -0.90625,-0.65625 c -0.4239,-0.2504 -0.82245,-0.2734 -1.21875,-0.6875 -0.2629,-0.072 -0.72645,0.024 -0.96875,0.125 -0.132,0.3034 -0.56135,1.4929 -0.40625,1.8125 0.5388,0.7067 1.18955,1.438 1.65625,2.1875 0.1781,0.286 0.2262,0.78035 0.375,1.09375 0.2554,0.5372 0.61175,1.07435 0.90625,1.59375 0.0101,0.018 0.337,0.2255 0.375,0.25 0.5952,0.012 2.57025,0.017 3.03125,-0.53125 l 0.34375,-0.875 -0.28125,-1.125 0.28125,-0.4375 c 2.1194,-0.6989 5.80715,0.0949 7.78125,0.90625 0.8128,0.3336 1.5671,0.8364 2.375,1.1875 0.4864,0.2109 1.08575,0.36665 1.59375,0.53125 0.6793,0.4174 1.30795,0.90615 1.90625,1.21875 0.0852,0.044 0.59055,0.0518 0.71875,0.0937 1.3284,0.4327 3.95485,2.247 4.65625,3.4375 0.2348,0.3987 0.26145,1.013 0.46875,1.4375 0.1384,0.2835 0.4569,0.5372 0.625,0.8125 0.5058,0.829 0.2735,1.61065 0.1875,2.53125 -0.2045,0.216 -0.82525,0.9821 -0.78125,1.3125 0.0603,0.1422 0.5475,1.20415 0.5625,1.28125 0.118,0.5964 0.0317,1.324 0.0937,1.9375 0.1196,1.1759 0.354,2.23705 0.75,3.34375 0.0832,0.2313 0.0806,0.39055 0.21875,0.59375 0.0433,0.063 1.44615,1.3619 1.59375,1.5 0.182,0.1703 0.74225,0.35445 0.78125,0.40625 0.6667,0.8937 1.6714,1.9709 2.1875,2.9375 0.1722,0.3225 0.17525,0.55595 0.28125,0.90625 l 0.53125,1.78125 c 0.5684,1.5308 1.14585,0.99615 1.59375,3.46875 0.057,0.3179 3.5e-4,0.70545 0.0312,1.03125 0.1022,0.9629 0.31155,1.94745 0.46875,2.90625 l -0.59375,1.1875 c 0.3868,1.1084 -0.527,2.1219 -0.75,3.125 l -0.5,0.28125 -0.0625,0.28125 0.53125,1.15625 -0.625,0.78125 c -0.5394,-0.6048 -0.46745,-1.4437 -1.09375,-2 -0.28,-0.2491 -2.94525,-2.5727 -3.03125,-2.6875 -0.034,-0.045 -1.151,-2.8262 -1.25,-3.0625 -0.1744,-0.417 -0.1181,-1.46445 0,-1.90625 l 0.65625,-0.65625 -0.4375,-0.5625 0.1875,-0.25 0.65625,-0.0937 -0.0937,-0.34375 c -0.3921,0.012 -1.38865,0.089 -1.71875,0.34375 l -0.40625,1.6875 c 0.8141,1.2523 1.0287,3.04695 1.375,4.46875 0.2879,1.1813 0.9172,1.0806 1.6875,1.6875 0.6433,0.5069 1.10785,1.1692 1.96875,1.75 l 0.4375,1.375 c 1.07,0.4045 2.04395,1.65465 2.34375,2.71875 0.2812,0.9965 0.908,2.59265 1,3.59375 -0.1559,0.1741 -0.298,0.34385 -0.4375,0.53125 0.2633,0.279 0.4275,0.91025 0.4375,1.28125 l 0.1875,0.1875 0.5,0.5625 -0.0937,0.40625 -0.34375,-0.0625 -0.0312,0.34375 1.25,1.5 -0.40625,0.1875 -0.6875,-0.6875 c -0.2472,0.3585 0.77775,2.76085 0.96875,2.84375 l 0.28125,-0.0312 0.5625,0.6875 -0.25,0.25 0,0.25 c 0.3697,0.2732 0.8665,0.9058 0.9375,1.375 l 0.40625,-0.1875 c 0.026,0.045 0.0838,0.1374 0.0937,0.1875 0.4742,2.4257 -0.6545,1.97485 -0.5625,2.84375 0.2804,0.7958 0.4929,1.56175 1.375,1.90625 l 0.0312,0.875 0.6875,0.0937 c 0.026,0.054 0.0455,0.1295 0.0625,0.1875 0.5767,2.0776 1.46875,4.40795 1.46875,6.59375 0,0.8008 -0.2275,1.51595 -0.1875,2.34375 0.06,1.2278 0.30995,2.6592 0.0937,3.875 l -0.46875,0.15625 -0.0625,0.40625 c 0.7687,0.6765 -0.46875,1.0625 -0.46875,1.0625 l -0.4375,-0.4375 -0.59375,0.0312 -0.40625,0.75 -0.25,-0.40625 0.125,-0.71875 c -0.2825,-0.6553 -0.74095,-1.1139 -1.21875,-1.625 l -0.40625,-0.125 c -0.5049,-0.5807 -0.19545,-1.38285 -0.96875,-2.15625 l -0.1874,-0.0625 -0.1875,0.28125 c 0.5273,1.2382 1.13475,2.4882 1.59375,3.75 0.3584,0.9857 5.23048,7.80914 5.55958,8.80774 0.1086,0.3291 594.529062,-1.67217 594.529062,-1.67217 0.099,-0.31944 6.32046,-3.54778 6.4738,-3.82307 0.5635,-1.0131 1.3977,-2.0396 2.0625,-3 0.141,-0.2043 0.3379,-0.40355 0.5,-0.59375 1.0263,-1.2055 2.0319,-2.5485 3.125,-3.6875 0.4232,-0.4411 1.20845,-0.8222 1.71875,-1.3125 0.1198,-0.1157 0.1691,-0.19675 0.3125,-0.28125 l 1.3438,-0.46875 c 1.3957,-0.1961 2.08765,1.29205 3.40625,0.71875 l 0.1875,0.59375 c 0.4862,0.038 1.1847,0.72565 1.4375,1.09375 l 0.4375,0.0312 0.3125,-0.21875 c 0.1086,-1.2415 -0.3979,-2.03965 0.25,-3.34375 0.5306,-1.0674 2.7871,-1.7153 3.6875,-2.25 1.142,-0.6782 4.1385,-3.3553 5.375,-3.25 0.3685,-0.7921 1.1828,-0.8245 1.875,-1.125 1.0392,-0.4506 1.61465,-1.392 2.53125,-1.9375 0.1098,-0.065 1.1674,-0.2921 1.375,-0.375 1.9528,-0.7793 3.7844,-1.98805 5.75,-2.71875 0.883,-0.3284 2.0135,-0.49245 2.9375,-0.71875 0.2097,-0.051 0.4193,-0.14875 0.625,-0.21875 l 0.0625,-0.4375 0.40625,0.0937 c 0.4038,-0.4983 1.613,-0.59375 2.1875,-0.84375 0.31,-0.1347 0.59585,-0.4936 0.90625,-0.625 0.4867,-0.2064 1.0646,-0.21895 1.5625,-0.40625 0.4128,-0.1559 0.80595,-0.4708 1.21875,-0.625 0.5654,-0.211 1.289,-0.19135 1.8125,-0.53125 0.5107,-0.3308 0.92145,-0.91955 1.46875,-1.21875 0.2499,-0.1368 0.632,-0.13745 0.875,-0.28125 0.4903,-0.2893 0.91595,-0.74275 1.40625,-1.03125 0.5493,-0.3234 1.22005,-0.5054 1.78125,-0.8125 0.37409,-0.2048 0.74623,-0.51375 1.125,-0.78125 0.26762,-0.189 0.53979,-0.35085 0.8125,-0.46875 2.0095,-0.8689 4.1931,-1.549 6.25,-2.3125 0.1786,-0.066 0.7778,-0.066 1,-0.125 l 5.59375,-1.46875 c 0.3391,-0.09 0.7168,-0.24645 1.0625,-0.28125 2.4962,-0.2521 4.8649,-0.48525 7.25,-1.34375 0.5579,-0.201 1.10875,-0.65755 1.65625,-0.90625 1.1785,-0.5348 2.32825,-0.7039 3.59375,-0.875 l 0.1875,-0.0312 c 0.2292,-0.3843 1.2271,-0.49295 1.625,-0.65625 1.4737,-0.6044 3.0004,-1.28275 4.4375,-1.96875 0.3681,-0.1758 0.6924,-0.48875 1.0625,-0.65625 0.4746,-0.2147 1.0238,-0.2882 1.5,-0.5 0.4004,-0.1782 0.7871,-0.5076 1.1875,-0.6875 0.5795,-0.2607 2.1618,0.5006 3.3125,0.375 0.4692,-0.051 0.9674,-0.28365 1.4375,-0.34375 1.4383,-0.1845 3.3012,-0.26745 3.9375,1.34375 0.2187,0.5604 0.37215,1.16935 0.21875,1.78125 l 0.25,0.15625 c 0.4204,-0.5795 2.50275,-0.79075 3.28125,-1.09375 1.5677,-0.6102 3.29905,-1.45025 4.90625,-1.90625 0.7084,-0.201 1.8706,-0.15245 2.625,-0.21875 0.7784,-0.069 1.5219,0.70355 2.4375,0.65625 0.5998,-0.031 1.14755,-0.4549 1.78125,-0.1875 0.6973,-0.9041 0.48815,-0.52115 0.78125,-1.78125 0.0585,-0.058 0.35925,-0.4106 0.40625,-0.4375 1.5971,-0.9199 3.20855,-1.82085 4.78125,-2.78125 1.6676,-1.0185 6.76455,-4.9468 8.84375,-2.8125 l 0.46875,-0.0625 c 0.119,-0.5729 0.8102,-1.27475 1.3125,-1.53125 l 0.1875,-0.59375 c 0.4132,-0.1782 1.1412,-1.1402 1.375,-1.5 0.3265,0.062 1.1005,-0.2928 1.375,-0.4375 0.0696,-0.096 0.7805,-1.13765 0.8125,-1.15625 1.9794,-1.1292 3.2411,-1.97255 5.0625,-3.34375 0.6889,-0.5186 1.58295,-0.1185 2.21875,-0.625 0.4157,-0.3308 0.7759,-0.7884 1.1875,-1.125 0.6906,-0.5646 7.1158,-2.37655 8.3125,-2.59375 0.6392,-0.1161 1.3679,-0.022 2,-0.15625 0.7403,-0.1571 1.4488,-0.53765 2.1875,-0.71875 0.4572,-0.1119 0.9761,-0.085 1.4375,-0.1875 0.4829,-0.1074 1.05075,-0.41325 1.53125,-0.46875 0.5787,-0.067 1.2831,0.11095 1.875,0.0937 0.3527,-0.01 2.70745,-0.3438 3.03125,-0.4375 1.7086,-0.4933 3.5669,-1.4829 5.3125,-0.6875 0.4522,-0.1836 0.94315,-0.4394 1.40625,-0.5625 0.8787,-0.2338 5.8421,-1.714 6.5,-1.75 0.191,-0.011 1.422,0.24695 1.5,0.21875 l 7.96875,-2.8749 c 0.7378,-0.2666 1.8786,0.029 2.625,-0.21875 l 6.78125,-2.25 c 0.124,-0.041 1.41495,-0.0225 1.65625,-0.0625 0.4108,-0.069 0.8406,-0.3347 1.25,-0.4375 1.377,-0.3445 2.83345,-0.50515 4.21875,-0.84375 1.7518,-0.4282 3.4879,-1.0061 5.25,-1.375 0.6997,-0.1467 1.4918,0.037 2.1875,-0.1875 l 0.15625,-0.34375 0.375,0.15625 c 1.07652,-0.2997 2.19546,-0.54565 3.25,-0.90625 1.43918,-0.492 2.76107,-1.23015 4.25,-1.65625 0.2388,0.2015 0.90515,0.2256 1.1875,0.1875 1.20166,-0.9953 1.75927,-0.8396 2.90625,-1.3125 1.05615,-0.4357 2.12446,-1.003 3.15625,-1.5 0.11647,-0.056 0.25318,-0.11315 0.375,-0.15625 0.79426,-0.2814 1.60164,-0.59965 2.40625,-0.84375 0.63296,-0.1916 1.3104,-0.26435 1.9375,-0.46875 0.38592,-0.1256 0.68228,-0.45255 1.125,-0.46875 l 0.75,0.4375 c 0.37514,-0.1936 1.20749,-0.11815 1.59375,-0.0312 l 0.3125,-0.15625 c -0.0603,-0.2964 0.0467,-0.78385 0.21875,-1.03125 l 3.09375,-1.25 c 0.73534,-0.2964 1.17961,-0.064 1.90625,0.3125 l 0.0937,-0.1875 -0.28125,-0.625 0.1875,-0.40625 c 0.5986,-0.3623 1.47145,-0.58825 2.15625,-0.65625 l 0.6875,-0.65625 0.46875,0.5625 0.1875,-0.0625 0.3125,-0.71875 1,-0.4375 c 0.1153,-0.5082 0.62095,-1.16535 1.03125,-1.46875 1.8102,0.041 3.3333,-1.21885 5,-1.71875 0.5625,-0.1687 1.2509,-0.081 1.8125,-0.25 0.6761,-0.2036 1.3235,-0.681 2,-0.875 0.3089,-0.089 0.84505,0.0548 1.15625,-0.0312 1.3149,-0.3644 1.72445,-1.3039 3.21875,-0.125 0.8087,-0.1782 1.2889,-0.16275 2.125,-0.0937 0.7652,-0.6732 2.45185,-0.38755 3.46875,-1.03125 l -0.78125,-0.875 c -0.7154,-0.034 -1.58575,-0.40865 -1.90625,-1.09375 -1.3732,-2.9356 3.9426,-5.1267 5.8125,-6 l 1.03125,-0.4689 c 3.7186,-1.7368 7.59995,-2.822 11.53125,-3.9375 0.5209,-0.1476 1.82515,1.33585 2.09375,1.59375 0.4157,0.2615 1.362,0.01 1.75,-0.1875 l -0.1875,-0.25 -0.59375,-0.125 -0.21875,-0.34375 0.0625,-0.5 0.5625,-0.6875 -0.84375,-0.25 -0.0625,-0.28125 c 0.086,-0.4112 0.7499,-1.05165 1.0625,-1.28125 l 0.5,0.0937 0.375,-0.84375 c 0.6362,-0.2782 1.28565,-0.53455 1.90625,-0.84375 0.1745,-0.087 0.3256,-0.25625 0.5,-0.34375 1.1184,-0.5588 2.2856,-1.24415 3.4375,-1.71875 0.3134,-0.1293 1.0207,-0.1153 1.3125,-0.25 0.4808,-0.2222 0.94075,-0.75565 1.40625,-1.03125 0.9401,-0.5567 1.85795,-0.6072 2.84375,-0.9375 0.4149,-0.1393 0.80385,-0.4224 1.21875,-0.5625 0.4228,-0.1435 0.96525,-0.2188 1.40625,-0.3125 0.059,-0.013 0.2485,-0.12515 0.3125,-0.15625 0.6052,-0.2947 1.27855,-0.67545 1.90625,-0.90625 0.9931,-0.3652 2.00705,-0.52075 3.03125,-0.90625 2.3104,-0.8701 4.5392,-1.8924 6.875,-2.6875 0.3014,-0.1024 0.67435,-0.075 0.96875,-0.1875 l 3.9375,-1.53125 c 0.5305,-0.2032 1.1457,-0.0155 1.6875,0.0625 1.1932,-0.536 1.65355,-2.3814 3.03125,-2.8125 l 0.21875,-0.78125 c -0.6815,-0.4609 -0.65935,-1.40735 -0.90625,-2.09375 -0.047,-0.1315 -0.31075,-0.41355 -0.34375,-0.53125 -0.9771,-3.501 -1.77685,-6.84355 -2.53125,-10.40625 -0.1641,-0.7756 0.6353,-1.7428 1.375,-1.875 l -0.0312,-0.1875 -0.53125,-0.375 -0.125,-0.46875 0.3125,-0.90625 0,-0.0312 -0.59375,-1.40625 0.125,-0.40625 0.65625,0.1875 0.0937,-0.1875 -1.375,-2.15625 c -0.2852,-0.4348 -1.9342,-0.1709 -2.5,-1.3125 -0.079,-0.1588 -0.375,-2.1274 -0.375,-2.1875 0.033,-0.7059 0.33625,-1.44665 0.40625,-2.15625 0.039,-0.3893 -0.2534,-0.80175 -0.0625,-1.21875 0.4588,-1.006 0.97615,-1.00445 0.46875,-2.09375 l -0.5625,0.0312 -0.1875,-0.21875 -0.15625,-0.75 -0.65625,-0.1875 c -0.032,-0.053 -0.1775,-0.2644 -0.1875,-0.3125 -0.5745,-2.7192 -0.26345,-2.82325 0.53125,-5.53125 0.1198,-0.4083 0.41175,-0.8629 0.59375,-1.25 l -0.40625,-0.65625 c 0.7151,-1.2883 1.238,-2.60417 1.8125,-3.96875 0.032,-0.0779 5.5e-4,-0.3 0.0312,-0.375 0.5438,-1.20914 1.53495,-2.26293 2.09375,-3.46875 0.7518,-1.62367 0.1119,-3.70673 0.625,-5.40625 0.3899,-1.29123 1.0785,-1.9943 1.5625,-3.0625 0.5438,-1.2021 0.98705,-2.5189 1.46875,-3.75 0.1409,-0.36022 0.51292,-0.78534 0.75002,-1.09375 0.6131,-0.79711 1.2906,-1.58883 1.875,-2.40625 0.625,-0.87297 1.1202,-1.87729 1.7813,-2.71875 0.373,-0.47503 0.9701,-0.94598 1.4062,-1.375 0.33,-0.32455 0.889,-0.66632 1.1563,-1 0.5335,-0.66571 0.8623,-1.50588 1.375,-2.15625 0.5879,-0.7453 1.2827,-1.43831 1.9062,-2.15625 l 0.1563,-0.1875 c 1.163,-1.23442 2.355,-2.71942 3.625,-3.8125 2.5496,-2.19527 5.239,-4.30565 7.8437,-6.4375 0.045,-0.0369 0.4815,-0.0537 0.5625,-0.0937 1.9497,-0.95836 3.9233,-1.99375 5.9063,-2.875 2.3223,-1.03214 4.7365,-1.95078 7.0937,-2.90625 3.7944,-1.53785 7.8082,-2.47385 11.625,-3.9375 1.5266,-0.58528 2.9909,-1.48208 4.5,-2.125 0.6492,-0.27689 1.3972,-0.40961 2.0625,-0.65625 0.9516,-0.35275 1.8825,-0.86998 2.8438,-1.1875 0.7956,-0.26239 1.6264,-0.22093 2.4375,-0.5625 0.8729,-0.36768 1.0786,-0.73702 1.7187,-1.125 0.6316,-0.38259 1.4778,-0.83443 2.1563,-1.125 1.018,-0.4369 2.1641,-0.84387 3.2187,-1.1875 0.2777,-0.0908 0.6323,-0.0589 0.9063,-0.15625 0.3804,-0.13596 0.713,-0.42819 1.0937,-0.5625 1.9829,-0.69887 1.3241,0.27412 3.2188,-1.5 0.6602,-0.61804 6.839,-1.68134 8.0312,-1.9375 1.6053,-0.34488 3.2308,-0.71396 4.8125,-1.15625 0.468,-0.13099 0.9363,-0.3972 1.4063,-0.5 0.7858,-0.17124 1.5818,-0.15908 2.3125,-0.625 l -6.0313,-8.28125 z M 33.549638,321 c -0.1818,0.165 -1.1,0.9244 -1.125,1.125 l 0.1875,0.21875 1.125,-1.0625 z m 2.6875,16.125 -0.9375,0.375 c -0.3405,0.9335 -1.0937,1.4929 -1.4375,2.375 l 0.1875,0.21875 0.46875,0.1875 c 0.6827,-0.5306 0.8487,-1.62535 1.25,-2.34375 0.1281,-0.2296 0.45825,-0.2901 0.53125,-0.625 z m -24.59375,2.53125 -0.21875,0.3125 0.6875,2.125 -0.0937,0.28125 -0.5,0.0312 c 0.0449,0.5886 0.2934,1.35245 0.625,1.84375 0.3508,-0.063 0.74665,-0.25565 1.03125,-0.46875 l 2.5625,0.0312 c 0.0739,8e-4 0.2335,0.0435 0.3125,0.0625 1.433,0.3569 4.5222,1.20025 5.875,0.21875 l 0.125,-0.3125 -0.1875,-0.53125 0.0937,-0.28125 -0.1875,-0.3125 -2.3125,0.125 -0.53125,-0.5625 c -0.4048,0.131 -2.23095,0.532 -2.59375,0.125 l 0.3125,-0.21875 0.4375,0 -0.15625,-0.375 c -1.7304,0.07 -3.66425,-2.17215 -5.28125,-2.09375 z M 23.518388,341 c -0.2548,0.1256 -0.50825,0.5414 -0.53125,0.8125 l 0.125,0.25 1,-0.21875 0.0312,-0.28125 -0.21875,-0.4375 z m -20.6249998,1.8125 -0.40625,0.125 c -0.4251,0.2603 -1.1774,2.21105 -0.875,2.65625 l 0.6875,0.125 c 0.3915,0.1326 0.63575,1.8111 0.71875,2.1875 l 0.6875,0.65625 0.3125,0.0312 0.1875,-0.1875 c -0.4782,-1.6278 -0.847,-3.483 -0.875,-5.1875 z M 42.080888,343 l -0.28125,0.125 c -0.0509,0.6437 -0.2457,1.66945 -0.625,2.21875 l 0.15625,0.375 0.25,-0.0625 c 0.2404,-0.3097 0.59835,-1.84935 0.71875,-2.28125 z m -11.9375,0.53125 -2.1875,0.0937 -0.0312,0.46875 2.03125,-0.0937 0.375,-0.3125 z m 3.3125,5.90625 c -0.4096,0.01 -1.07215,0.14625 -1.40625,0.40625 l -0.0625,0.3125 c 0.1546,0.3552 0.69085,0.75665 1.03125,0.90625 l 0.125,0.90625 c 0.4411,0.4024 0.2924,0.36915 0.875,0.53125 0.8149,-0.2972 2.45405,-0.77165 3.34375,-0.59375 l 0.0312,-0.15625 c -0.7358,-0.058 -1.57955,-0.1633 -1.96875,-0.875 l -1,-0.125 z m -4.1875,8.0625 c -0.2251,0.04 -0.5189,0.26515 -0.625,0.46875 l -1.21875,0.0937 -0.28125,0.28125 0.1875,0.21875 c 0.5317,0.1633 1.48955,-0.23235 1.90625,-0.53125 l 0.125,-0.28125 z m -19.25,4.3125 c -0.1865998,-0.01 -0.3382498,2.5e-4 -0.4062498,0.0312 l -0.0625,0.375 c 1.0316998,0.47 1.4403998,3.15195 1.9999998,4.09375 0.308,0.5181 2.26425,1.83915 2.90625,2.09375 l 0.1875,-0.4375 c 0.0254,-0.4245 -2.67255,-2.18385 -3.15625,-2.53125 l -0.5,-2.3125 0.6875,-0.90625 c -0.1893,-0.2077 -1.09625,-0.38255 -1.65625,-0.40625 z m 13.84375,2.8125 c -0.5813,0.1199 -1.915,0.96835 -2.25,1.15625 l 0.46875,0.5625 0.96875,0.15625 0.28125,-0.125 -0.0312,-0.25 -0.4375,-0.34375 0.1875,-0.28125 c 0.4319,-0.1297 1.20715,-0.0951 1.59375,0.15625 l 0.1875,0.65625 0.25,0.0625 0.28125,-0.5 c 0.3683,0.056 1.0215,-0.056 1.3125,-0.3125 l -0.125,-0.28125 c -1.1747,0.4149 -1.5987,-0.048 -2.5,-0.65625 -0.0475,-0.017 -0.1045,-0.017 -0.1875,0 z m 13.0625,5.125 c -1.1201,-0.043 -2.2179,1.3641 -3.5,1.5625 l 0.15625,1.03125 c -0.0339,0.2698 -0.3269,0.6343 -0.5625,0.75 l -0.3125,0 0.375,-0.5 -0.0312,-0.15625 -0.3125,0 c -1.0183,0.8605 -1.6546,2.02685 -2.5,3.03125 -0.2638,0.3133 -0.7021,0.5475 -0.9375,0.875 -0.0289,0.04 -0.19275,0.63495 -0.21875,0.71875 l 0.1875,0.6875 -0.4375,0.5625 c 0.009,0.058 0.0425,0.30315 0.0625,0.34375 1.3216,2.6558 1.1443,1.9746 0.6875,4.875 -0.1926,1.2223 -2.1271,0.68455 -2.5,1.71875 0.01,0.056 0.0797,0.57675 0.0937,0.59375 1.0754,1.2899 2.99015,4.19925 4.96875,3.96875 l 0.25,-0.15625 0.46875,-1.25 0.5,-0.25 0.0625,-0.3125 -0.5,-0.1875 0.0312,-0.1875 0.40625,-0.1875 c 0.2572,-0.6633 1.52685,-1.61805 2.09375,-1.96875 l 0.15625,-0.59375 -0.125,-0.25 -0.84375,1.09375 -0.21875,-0.25 -0.5,0 -0.125,-0.34375 0.5,-0.71875 0.5625,0.0625 0.1875,-0.40625 0.5,-0.0625 -0.25,-1.03125 c -0.2363,-0.2255 -0.5075,-0.43745 -0.75,-0.65625 l 0.0625,-0.125 0.53125,-0.0625 0.125,-0.21875 -0.375,-1.03125 0.1875,-0.78125 1.0625,-0.9375 0.0625,-0.3125 -0.28125,-0.71875 0.15625,-0.4375 0.46875,0.0312 0.125,-0.21875 -0.0937,-0.46875 c 0.1102,-0.3884 0.39925,-0.9264 0.71875,-1.1875 l -0.0937,-0.25 c -0.7318,-0.01 -1.1669,0.2931 -1.8125,0.5 -0.114,0.037 -0.44225,0.0215 -0.53125,0.0625 -0.5857,0.2723 -1.23505,0.8185 -1.78125,1.1875 l -0.1875,0.5 -0.1875,0.0937 -0.65625,-0.84375 -1,-0.3125 -0.25,-0.375 0.125,-0.21875 c 0.8184,-0.2715 2.40405,-0.75725 3.28125,-0.71875 l 0.375,0.21875 0.125,-0.25 -0.4375,-0.6875 c 0.3476,-0.1426 0.93525,-0.6029 1.03125,-1 l -0.125,-0.28125 -0.65625,0.0312 -0.84375,0.875 -0.21875,-0.28125 c 0.4998,-0.3553 1.139,-1.39225 1.4375,-1.90625 l 0.3125,-0.0625 0.375,0.25 c 0.3433,-0.1082 2.00875,-0.5193 2.09375,-0.875 l -0.5625,-0.59375 0.375,-0.6875 -0.0937,-0.1875 c -0.1616,-0.073 -0.30875,-0.119 -0.46875,-0.125 z m -0.84375,4.0625 c -0.2238,0.1376 -0.6385,0.5306 -0.6875,0.8125 l 0.125,0.125 0.78125,-0.21875 0.0625,-0.25 z m 29.6875,49.09375 -0.4375,0.3125 -0.0312,0.8125 0.28125,0.15625 0.5625,-0.71875 -0.125,-0.40625 z m -0.0312,33.53125 c -0.4875,0.4042 -1.45855,0.72795 -2.09375,0.65625 l -0.15625,0.59375 c 0.1689,0.5057 2.6135,2.537 3.125,3 l 0.4375,0.0625 0,-0.25 -0.78125,-0.6875 -0.0625,-0.40625 0.15625,-0.3125 c 0.3851,-0.1116 1.8495,-0.3457 1.9375,-0.875 L 68.174688,458 c -0.3221,0.036 -0.98265,0.183 -1.21875,0.4375 l -1.3125,0.0312 -0.28125,-0.3125 -0.0625,-0.28125 c 0.1121,-0.3387 0.81145,-0.83 1.09375,-1 l -0.25,-0.375 z m 2.8125,6.78125 -0.40625,0.21875 -0.625,1.84375 c 0.1941,0.6018 1.29635,1.8569 1.71875,2.3125 l 0.25,0.0312 0.15625,-0.21875 -0.25,-0.5625 0.0937,-0.28125 -0.75,-0.625 c -0.2445,-0.4879 -0.4466,-1.3924 -0.3125,-1.9375 l 0.4375,-0.4062 0.0625,-0.1875 z"
     id="rect6"
     inkscape:connector-curvature="0"
     sodipodi:nodetypes="ccccccccccccccccccccccccccccccccccccccccccccccccccccccccccccccccccccccccccccccccccccccccccccccccccccccccccccccccccccccccccccccccccccccccccccccccccccccccccccccccccccccccccccccccccccccccccccccccccccccccccccccccccccccccccccccccccccccccccccccccccccsccccccccccccccccccccccccccccccccccccccccccccccccccscccccccccccccccccccccccccccccccccccccccccccccccccccccscccccccccccccccccccccccccccccccccccccccccccccccccccccccccccccccccccccccccccccccccccccccccccccccccccccccccccccccccccccccccccccccccccccccccccccccccccccccccccccccccccccccccccccccccccccccccccccccccccccccccccccccccccccccccccccccccccccccccccccccccccccccccccccccccccccccccccccccccccccccccccccccccccccccccccccccccccccccccccccccccccccccccccccccccccccccccccccccccccccccccccccccc" />
  <path
     style="fill:#ce1126;fill-opacity:1"
     d="m 976.61213,0 c -0.082,0.0307 -48.23484,9.98212 -99,17.65625 -51.0139,7.71184 -104.65625,13.15625 -104.65625,13.15625 l -83.59375,9.125 c 0,0 -85.9766,42.644563 -87.25,43.28125 -1.2734,0.63669 -7.22005,3.61465 -8.28125,5.3125 -0.3888,0.62212 -8.51677,10.93458 -17.9375,22.875 -16.28977,20.64667 -37.72729,47.75193 -38.9375,49.5 -1.91,2.75901 -11.4505,30.35161 -11.875,31.625 -0.4244,1.27339 -2.75,4.875 -2.75,4.875 0,0 -23.36985,12.95706 -24.21875,13.59375 -0.8489,0.63669 -3.39595,2.125 -5.09375,2.125 l -16.3125,0 -25.0625,-33.75 c 0,0 -12.72545,1.68232 -18.03125,2.53125 -5.3058,0.84893 -26.3062,2.54294 -31.1875,1.90625 -4.8813,-0.63669 -67.08465,-7.85028 -69.84375,-8.0625 -2.7589,-0.21223 -16.3399,-1.67581 -18.25,-2.3125 -1.91,-0.63669 -9.77085,-6.80732 -11.46875,-7.65625 -1.6979,-0.84893 -5.50785,-2.34375 -6.78125,-2.34375 l -56.03125,0 c 0,0 -5.7396,2.14456 -7.4375,2.78125 -1.6979,0.63669 -4.22275,-0.20841 -7.40625,-1.90625 -3.1834,-1.69785 -12.0925,-1.07419 -16.125,-0.4375 -4.0324,0.63669 -17,4.125 -17,4.125 l -2.625,-1.75 c -1.7757,3.61208 -1.489,3.30664 -4.0625,6.59375 l -3.625,-3.65625 c -0.9823,-0.9869 -0.8523,-1.0053 -2.375,-1.0625 l -3.0625,-0.125 -0.6875,-0.5625 -0.3125,0.25 0.0312,0.625 c -0.7057,0.99276 -3.3395,5.01483 -4,5.625 l -3.625,3.34375 -6.5625,-0.90625 c -0.7892,-0.78302 -0.6082,-2.73345 -0.5,-3.71875 l -0.125,-0.21875 -0.5625,-0.125 -0.875,0.78125 c -0.6639,-0.53305 -2.0633,-0.76412 -2.875,-0.59375 l -1.09375,-0.75 -0.875,-0.0312 -0.875,0.53125 -0.34375,-0.71875 0.125,-1.0625 c -0.3088,-0.10073 -0.7179,-0.16867 -1,-0.3125 -0.1432,-0.0729 -0.68325,-0.50055 -0.78125,-0.53125 -0.1329,-0.0414 -2.83835,-0.1726 -3.09375,-0.1875 l -2.1875,1.28125 c -0.5049,0.16829 -2.3745,-0.80864 -2.875,-1.03125 l -0.15625,-0.0625 c -0.3995,-0.13223 -0.8723,-0.23051 -1.25,-0.40625 -1.0673,-0.49784 -2.1223,-3.27619 -4.4375,-4.46875 -0.3543,-0.1828 -0.9744,-0.26516 -1.375,-0.375 l -2.125,-3 c -0.7364,-1.04126 -1.74105,-2.3687 -2.90625,-3 -1.8131,-0.98219 -3.6727,-2.02548 -5.3125,-3.28125 -1.3934,-1.06717 -2.7207,-2.30111 -4.0625,-3.4375 -0.3291,-0.27855 -0.7658,-0.50938 -1.125,-0.75 l -0.8125,0.34375 c -1.3154,-0.92023 -2.60905,-2.00545 -4.09375,-2.65625 -3.2995,-1.44624 -5.9892,-1.44558 -9.3125,-0.3125 l -1.46875,0.5 c -0.1274,0.0622 -1.63555,1.31591 -1.90625,1.53125 -0.045,0.0361 -0.12225,0.0788 -0.15625,0.125 -2.914892,3.9006 -5.099692,7.90605 -5.312492,12.84375 -0.089,2.05972 1.14935,2.12895 0.59375,4.65625 -0.009,0.024 -0.25525,0.2822 -0.28125,0.3125 -0.0306,0.30094 0.61145,1.16063 0.90625,1.28125 l 2.031242,0.21875 c 0.5977,0.48996 1.2867,1.19996 1.9375,1.59375 1.0809,0.65411 1.9722,0.31389 2.875,1.625 l 0.0312,0.46875 -0.625,0.78125 0.46875,0.34375 1.09375,0.0625 c 0.8034,0.60146 2.01185,1.73731 1.46875,2.90625 -0.7999,-0.22964 -1.96635,-0.28802 -2.78125,-0.0625 l -0.25,0.5625 -0.90625,0.0937 -1.40625,1.125 c -0.9268,-0.29347 -2.21945,-0.26398 -3.156242,-0.0625 l -0.9375,0.96875 c -1.2362,0.32994 -2.3945,0.61572 -3.5625,1.15625 l -0.46875,1.5625 c 0.1686,1.15069 1.0794,2.09636 1.75,3 l -0.0312,0.84375 c -0.6908,0.68642 -1.37705,1.57116 -2.34375,1.875 l -0.21875,0.5 0.1875,0.6875 c -0.2284,0.48497 -1.6034,0.8633 -2.0625,0.9375 l 0,0.53125 0.46875,0.5625 -0.34375,3.125 -1.8125,0.90625 -0.28125,0.59375 c -0.0128,0.86716 0.0247,2.17304 0.34375,3 0.4952,-0.32083 2.2507,-1.28973 2.875,-1.15625 L 99.549588,204 c -0.275,2.07547 -7.89575,0.6567 -7.84375,2.75 l 0.25,5.53125 c 0.0646,0.5998 0.1299,1.71677 0.6875,2.21875 l -1.7812,1.28125 c -1.2002,0.11359 -1.38175,0.12823 -2.53125,0.75 -0.1233,0.0667 0.0738,1.0672 0.0937,1.25 l -0.25,0.53125 c 0.6741,0.64664 0.9895,1.50832 0.8125,2.46875 l 0.875,-0.28125 c 0.4689,0.37431 0.5397,0.68801 0.875,1.1875 0.2649,0.39451 0.56524,0.77443 0.875,1.15625 0.26241,0.32345 0.53277,0.65013 0.78125,0.96875 0.6036,0.0295 1.1063,-0.0608 1.625,0.34375 l 1.28125,-0.125 0.375,0.21875 0.375,0.65625 0.84375,-0.0937 c 0.5295,0.83898 0.67985,1.441 0.96875,2.4375 l 1.5625,1.375 1.093742,-0.15625 0.28125,0.15625 c 0.1662,1.4425 0.1592,2.5281 -0.625,3.6875 l 0.8125,0.4375 0.5625,2.0625 -1.375,0.90625 c -0.462392,0.13141 -2.102342,-0.53035 -2.781242,-0.59375 0.3254,0.7967 0.24455,0.88716 0.0937,1.625 l -1.03125,0.75 c -0.0297,0.1947 -0.0217,0.39921 0,0.59375 l 988.062512,0 -6.8437,-15.25 -19.6874,-43.81255 -6.6563,-0.9375 -0.2812,-0.8125 0.8437,-0.1875 -0.094,-0.1875 3.1562,-4.5625 -27.75,-60.9375 L 976.54963,0.25 976.61213,0 z"
     id="rect8"
     inkscape:connector-curvature="0" />
  <path
     style="fill:#000000"
     d="m 72.830888,477.15625 c 0.2497,1.07628 0.27946,2.34661 0.5,3.4375 l 0.625,0.1875 c 1.3369,1.7517 2.66675,3.94375 3.40625,6.03125 0.3793,1.0703 0.10825,2.75025 0.40625,3.84375 0.4698,1.7248 1.79935,2.9803 2.15625,4.5625 -0.114,0.2126 -0.093,0.63315 0,0.84375 1.2898,0.691 1.625,2.9845 1.75,4.25 0.0808,0.8203 -0.19045,1.86615 -0.0312,2.65625 0.1749,0.8684 1.1022,1.8397 1.25,3 0.034,0.2661 -0.1025,0.6113 -0.0625,0.875 0.0204,0.1318 0.27125,0.54185 0.28125,0.65625 0.0404,0.4643 -0.16385,1.0474 -0.0937,1.5 0.2271,1.4699 1.4596,2.5444 1.8125,3.875 0.093,0.3499 0.2655,0.78935 0.125,1.15625 l -0.65625,0.59375 -0.0625,0.3125 c 2.2289,1.8036 1.45025,4.35025 4.15625,5.53125 l 0.59375,1.21875 c -0.2775,2.063 -0.54995,2.0294 1.15625,3.4375 l 0.1875,1.5625 0.71875,0.59375 0.25,0.75 c 0.3598,0.4352 1.4587,0.2736 2.125,1.0625 0.6029,0.7133 0.6029,2.02955 1.25,2.90625 0.7992,0.2835 1.94575,0.855 2.53125,1.5 0.3458,1.6021 -0.13035,2.6133 -0.0312,3.8125 0.0696,0.8348 0.539,1.7256 0.625,2.5625 0.062,0.6118 -0.4496,1.4175 -0.1875,2.0625 0.2906,0.7146 0.79785,1.3491 1.09375,2.0625 0.4473,1.0786 0.71355,2.26265 1.15625,3.34375 0.238392,0.5824 0.699742,1.13055 0.906242,1.71875 0.2926,0.8336 0.44915,1.85275 0.65625,2.71875 0.017,0.071 0.331,0.3442 0.375,0.4375 0.3688,0.7834 1.21875,2.242 1.21875,3.125 0,0.5136 -0.26573,1.2025 -0.375,1.75 -0.008,0.039 -0.0254,0.087 -0.0312,0.125 -0.1803,1.1411 -0.9089,4.30785 0.1875,5.34375 l 0.65625,0.59375 -0.25,0.875 c -0.2551,0.2333 -1.4625,1.19425 -1.4375,1.53125 l 0.34375,0.8125 c 0.0747,0.4551 -0.57455,0.90605 -0.71875,1.28125 -0.089,0.2313 -0.069,0.3837 -0.125,0.625 -0.1079,0.4642 -0.68975,2.15765 -0.71875,2.34375 -0.0557,0.3565 0.1075,0.79515 0.0625,1.15625 -0.1061,0.8435 -0.50275,1.68815 -0.59375,2.53125 -0.139492,1.2941 -0.141842,2.7822 -0.656242,4 l 0.625,1.625 c -0.0873,0.2574 -0.95575,2.7114 -0.96875,2.8125 -0.0484,0.3871 0.2164,3.23445 0.4375,3.78125 -0.5282,0.4414 -0.26655,4.77825 -0.96875,5.15625 l -0.78125,0.3125 -0.125,0.3125 0.4375,0.375 c -0.2697,1.6941 0.27345,3.4368 0.65625,5.0625 0.1134,0.4821 -0.42895,0.9569 -0.71875,1.25 l -0.0625,0.4375 c 1.267,1.9785 0.82455,3.2956 1.71875,5.1875 0.530192,1.1217 1.340342,2.1792 1.906242,3.3125 0.3662,0.7333 1.2925,2.9771 1.8125,3.625 0.3963,0.4933 1.11905,0.89385 1.46875,1.40625 0.3672,0.5384 0.4755,1.3675 0.8125,1.9375 0.2626,0.4447 2.28605,2.07215 2.96875,3.28125 0.5555,0.9836 1.1901,2.17955 1.625,3.21875 0.4022,0.9608 0.54305,2.0536 0.96875,3 0.3795,0.8431 2.2771,2.44425 2.875,3.90625 0.2408,0.5894 0.60225,1.5057 0.71875,2.125 0.106,0.5642 -0.25825,0.93855 0.0937,1.71875 0.2614,0.5786 1.16605,0.7042 1.59375,1.4375 0.7851,1.3463 1.1478,2.9798 1.9375,4.3125 0.6147,1.0375 1.47795,2.20035 2.21875,3.15625 0.8999,1.1611 2.03415,1.94875 2.46875,3.40625 0.1473,0.4945 -0.57815,3.4109 -0.78125,4 -0.1554,0.4501 -0.4858,0.89155 -0.625,1.34375 -0.2121,0.6893 -0.31985,1.50905 -0.46875,2.21875 -0.228,1.0876 -0.46875,1.38805 -0.46875,2.78125 l 0.375,0.59375 0.5,0.0937 0.5625,0.65625 0.78125,0.15625 0.28125,0.625 -0.3125,0.375 -0.46875,0.15625 -0.375,-0.65625 -0.875,0.1875 -0.125,-0.90625 -0.4375,0.0312 -1.25,2 0.75,1.75 0.40625,0.28125 0.78125,0 0.25,-0.78125 0.34375,0.0312 0.46875,0.375 0.8125,0.0312 0.15625,0.5 0.6875,-0.40625 c 0.4709,0.2972 2.13525,-0.297 2.65625,-0.4375 l 0.1875,-0.125 c 0.8414,-1.2693 1.6637,-2.61765 2.5625,-3.84375 0.8799,-1.2004 3.4325,-3.2649 5.0625,-3 0.778,0.7917 1.13635,0.871 2.15625,0.875 l 0.375,0.5 c 0.2269,0.112 0.69595,0.0103 0.90625,-0.0937 0.3654,0.1608 0.984,0.5731 1.1875,0.9375 0.2737,0 0.6878,0.058 0.9375,0.1875 l 0.625,-0.34375 0.75,0.46875 c 1.797,-0.4211 1.958,0.58035 2.3125,0.65625 2.5595,0.5479 4.4006,0.6273 6.3125,2.4375 0.2473,-0.041 0.53545,-0.054 0.78125,0 l 0.46875,0.40625 c 0.4817,-0.1007 1.06725,-0.37265 1.53125,-0.40625 1.0842,-0.079 2.71095,1.03095 3.65625,1.53125 0.4176,0.2209 0.97695,0.4181 1.34375,0.6875 0.2278,0.1675 1.2347,1.1129 1.375,1.1875 0.4835,0.2578 2.30015,0.4877 2.90625,0.4375 1.6745,1.6004 2.9649,0.1611 3.75,2.9375 -0.008,0.5372 -0.12735,1.25405 -0.0312,1.71875 0.3173,1.5403 2.55795,1.1458 3.40625,1.875 l 0.65625,-0.25 1.03125,0.28125 c 2.2952,-1.6775 3.65055,-0.41565 4.84375,-1.34375 l 1.0625,0.25 c 0.3064,-0.2757 1.0472,-0.4131 1.4375,-0.375 0.2908,0.2868 0.9925,0.4144 1.375,0.3125 0.4037,-0.5182 0.67445,-0.3904 1.09375,-0.625 0.3256,-0.1824 0.614,-0.4998 0.9375,-0.6875 0.5406,-0.3142 1.15625,-0.5977 1.71875,-0.875 0.9076,0.2002 3.38965,-1.8736 4.15625,-2.3125 0.611,-0.3499 1.1622,-0.13305 1.6875,-0.96875 0.556,-0.1753 0.99355,0.22635 1.46875,0.40625 1.3677,0.5177 2.5262,0.5335 2.875,2.1875 -0.0314,0.2516 -0.21155,0.7568 -0.46875,0.875 l -1.5,0.25 c -1.6909,-1.0998 -2.59985,0.1038 -3.78125,-1.5625 l -0.46875,0.21875 c 0.4303,0.3714 0.993,0.9828 1.5625,1.125 0.3381,0.084 0.75655,0.039 1.09375,0.125 0.1996,0.051 1.1375,0.46075 1.25,0.46875 1.7575,0.1173 3.7873,-1.1708 5.3125,-1.875 1.7114,-0.7897 2.03745,2.12555 4.59375,0.21875 0.5204,0.1032 1.13245,0.30185 1.65625,0.34375 0.5743,0.046 1.0093,-0.73335 1.4375,-0.96875 0.4945,-0.2715 1.14885,-0.3692 1.65625,-0.625 0.3519,-0.177 0.6597,-0.50905 1,-0.71875 1.1423,-0.7035 7.0797,-3.3751 8.125,-3.3125 l 0.375,0.1875 0.625,1.25 0.34375,-0.125 3.40625,-4.78125 c 0.4934,-0.696 1.14645,-1.28235 1.65625,-1.96875 0.8465,-1.14 1.56835,-2.2642 2.53125,-3.3125 1.5757,-1.7149 3.88315,-2.8735 5.90625,-3.9375 0.1053,-0.055 0.675,-0.38805 0.75,-0.40625 1.8951,-0.4659 4.2669,-0.8451 6.1875,-0.625 1.6065,0.1841 3.3441,0.6796 4.9375,1 0.3959,0.08 3.5559,2.1487 3.8125,2.375 0.2987,0.2636 0.6184,0.7466 0.875,1.0625 l 0.59375,-0.5625 0.1875,-0.0625 0.40625,0.21875 0.15625,0.3125 -0.0625,0.4375 -0.625,0.125 -0.15625,1.40625 -0.53125,0.53125 0.4375,0.9375 1.3125,-1.15625 0.0937,-0.65625 c 1.9951,-0.9567 4.7047,-2.02035 6.9375,-1.28125 0.0509,0.017 1.41515,0.925 1.53125,1 l 0.125,0.46875 -0.46875,1.3125 0.1875,0.46875 c 0.2979,0.2964 1.05185,0.3989 1.46875,0.5 l 0.625,1.09375 0.75,-0.65625 c 0.5125,-0.1608 2.1671,0.16555 2.6875,0.28125 l 0.0937,-0.28125 -0.28125,-0.53125 0.0937,-0.25 1.8125,0.5625 -0.8125,-0.9375 0.34375,-0.53125 c 0.9346,-0.3847 1.8001,-0.1985 2.75,-0.0625 0.3238,-0.468 0.0385,-0.7775 0.0625,-1.1875 0.0196,-0.3333 0.32415,-0.59735 0.15625,-0.96875 -0.0272,-0.019 -0.1635,-0.15325 -0.1875,-0.15625 -0.3668,-0.054 -0.821,-0.14925 -1.1875,-0.15625 -0.6609,-0.013 -1.4123,0.22445 -2.0625,0.0937 -2.1418,-0.4316 -1.4147,-1.51445 -3.9375,-0.53125 l -0.25,-0.53125 c 0.2735,-0.4987 0.73275,-1.5793 1.28125,-1.75 l 1.09375,0.0312 c 0.6939,0.812 1.43665,1.5849 2.15625,2.375 l 0.71875,-0.125 c -0.0297,-1.8492 0.9159,-3.61795 2.5,-4.59375 0.5942,-0.366 2.29845,-0.5461 3.03125,-0.6875 1.182,-0.2276 2.52255,-0.4271 3.65625,0.125 l 0.46875,-0.21875 c 0.1784,-0.2587 0.09,-0.8519 0,-1.125 l 0.28125,-0.65625 0.40625,0.0312 c 0.3683,0.3316 0.7862,0.64525 1,1.09375 0.215,0.4505 0.4632,1.1707 0.75,1.5625 0.4268,0.5828 1.19225,0.67265 1.34375,1.65625 l -0.0625,0.40625 -0.53125,0.5625 -0.46875,0.125 -1.375,-0.5625 -2.8125,0.625 -0.15625,0.84375 c 0.1229,0.3474 1.80535,1.34155 2.28125,1.65625 0.1467,0.2976 0.44665,1.09115 0.78125,1.15625 0.7427,0.1438 2.85235,0.82325 3.46875,0.0312 0.0119,-0.2106 0.1172,-0.77115 0.3125,-0.90625 0.3252,-0.099 0.9589,0.241 1.1875,0.4375 l 0.28125,-0.0625 0.1875,-0.34375 -0.375,-0.6875 0.0625,-0.78125 -0.1875,-0.25 -0.8125,-0.0937 -0.3125,-0.28125 c -0.139,-0.2993 -0.0963,-0.9445 -0.0312,-1.25 0.1894,-1.1076 0.26305,-2.2083 0.59375,-3.25 0.3134,-0.987 0.55895,-2.15115 0.96875,-3.09375 1.3857,-3.1868 3.33975,-6.13365 4.53125,-9.40625 l 2.8125,-2.875 c 0.0551,-0.056 0.10225,-0.329 0.15625,-0.375 0.4296,-0.366 0.99365,-0.9698 1.46875,-1.25 0.7728,-0.4551 2.59675,-1.269 3.53125,-1.5625 1.8436,-0.5787 3.7354,-1.1245 5.5625,-1.75 0.4614,-0.1575 0.88435,-0.42755 1.34375,-0.59375 1.1728,-0.4245 2.40725,-0.8012 3.59375,-1.1875 0.2713,-0.088 0.5333,-0.1911 0.8125,-0.25 0.8624,-0.1828 1.7556,-0.4299 2.625,-0.5625 1.5062,-0.2293 4.53005,-0.097 5.84375,-0.9375 1.211,-0.7756 2.1553,-1.92835 3.125,-2.96875 0.4164,-0.4464 0.69335,-1.013 1.09375,-1.4375 1.1793,-1.2498 2.5156,-2.4258 3.75,-3.625 1.2767,-1.2406 1.3881,-2.6333 2.1875,-3.75 1.6719,-2.335 3.3894,-4.7945 5.375,-6.875 0.8735,-0.9152 1.7778,-1.8115 2.625,-2.75 0.2278,-0.252 0.3876,-0.60465 0.625,-0.84375 0.7034,-0.7084 1.89475,-1.51215 2.46875,-2.09375 0.2475,-0.2508 0.4245,-0.68535 0.6875,-0.90625 0.4041,-0.3399 1.0083,-0.5575 1.4375,-0.875 0.6918,-0.5111 1.2355,-1.38135 1.875,-1.96875 1.0025,-0.921 2.40025,-1.916 3.65625,-2.4375 1.8166,-0.7544 4.0891,-0.1201 4.625,-0.375 l 2.375,-1.125 c 0.6315,-0.3001 1.198,-0.014 1.8125,-0.125 0.4469,-0.081 0.6859,-0.16605 1.125,-0.28125 l 2.25,-0.59375 c 0.8317,-0.2669 1.55905,-0.8484 2.46875,-0.9375 0.1309,-0.013 0.4772,0.129 0.625,0.125 0.5546,-0.015 1.2245,-0.20995 1.75,-0.34375 1.1036,-0.2819 2.35915,-0.7763 3.46875,-0.9375 0.0773,-0.011 0.6796,0.14725 0.8125,0.15625 0.7957,0.054 1.9256,-0.0551 2.6875,-0.21875 0.8359,-0.1804 1.58655,-0.81445 2.46875,-1.03125 1.2284,-0.045 2.49125,0.0103 3.65625,-0.0937 1.2236,-0.1086 2.30625,-0.7252 3.46875,-1 0.1276,-0.03 0.5882,0.0522 0.75,0.0312 0.9913,-0.126 1.9377,-0.37295 2.9375,-0.46875 0.15,-0.014 0.25825,-0.0612 0.40625,-0.0312 1.0268,0.2051 1.5296,0.875 3.375,0.875 1.2096,0 3.0893,-0.33555 4.3125,-0.53125 0.6496,-0.104 1.38495,-0.42485 2.03125,-0.46875 0.727,-0.05 1.5158,0.17115 2.25,0.15625 0.1235,0 0.56835,-0.20135 0.71875,-0.21875 4.1692,-0.4912 8.3934,-1.422 12.5,-0.1875 0.062,0.019 0.2395,0 0.3125,0 0.4813,0.019 1.12825,-0.0245 1.59375,0.0625 0.3557,0.067 0.7064,0.343 1.0625,0.4375 0.5082,0.1355 1.08175,0.15445 1.59375,0.28125 0.4236,0.1053 0.9539,0.42195 1.375,0.46875 0.1522,0.016 0.9761,-0.1905 1.1875,-0.1875 0.1152,0 0.6135,0.23445 0.6875,0.21875 2.4829,-0.5186 2.66795,-0.6993 5.15625,-0.5625 l 0.1875,0 c 0.4908,0.4381 0.7905,0.78455 1.375,1.03125 0.7573,-0.1874 1.5465,-0.4324 2.3125,-0.5625 0.4589,-0.078 0.9744,-0.0298 1.4375,-0.0937 0.8315,-0.114 1.52585,-0.31755 2.40625,-0.40625 l 2.3125,-0.21875 c 0.7772,-0.1629 1.5357,-0.6918 2.3125,-0.875 0.989,-0.2334 2.08605,-0.23135 3.09375,-0.40625 1.1067,-0.1919 2.42785,-0.6916 3.53125,-0.75 1.6986,-0.09 4.3923,0.34055 6.125,0.78125 0.4133,0.1052 0.94205,0.3385 1.34375,0.375 0.9019,0.082 1.80125,-0.7061 2.53125,-1.0625 0.6222,-0.3039 1.37765,-0.61945 2.03125,-0.84375 0.6852,-0.2346 1.4528,-0.33385 2.125,-0.59375 0.8767,-0.3387 1.71295,-0.9292 2.59375,-1.25 0.8174,-0.2977 1.80495,-0.44445 2.65625,-0.65625 0.0459,-0.012 0.4175,-0.0788 0.4375,-0.0937 0.6578,-0.4779 1.38995,-1.14285 2.09375,-1.53125 0.3768,-0.2081 1.1956,-0.0679 1.875,-0.65625 0.64,-0.5546 1.16895,-1.2831 1.78125,-1.875 0.6379,-0.6164 1.60425,-0.83195 2.34375,-1.28125 0.596,-0.3619 1.1846,-0.86635 1.75,-1.28125 0.8212,-0.6027 3.004,-1.2672 3.9375,-1.375 0.8663,-0.1003 1.9019,0.11935 2.75,-0.0312 2.1036,-0.3751 4.2954,-1.07235 6.375,-1.59375 1.3223,-0.3312 2.5336,-0.21115 3.875,-0.34375 0.919,-0.091 1.637,-0.6903 2.4375,-1.0625 0.9094,-0.4224 1.88085,-0.75775 2.84375,-1.03125 0.8104,-0.2301 1.59295,-0.13575 2.40625,-0.28125 0.689,-0.1235 1.40825,-0.7672 2.09375,-0.875 0.8917,-0.1396 1.9349,0.0812 2.8125,-0.0937 1.7264,-0.3432 3.5488,-1.0196 5.25,-1.5 l 0.21875,-0.0625 c 1.5216,-0.5223 3.33615,-0.96365 4.78125,-1.65625 0.8501,-0.4075 1.39065,-1.05915 2.40625,-1.21875 1.6502,-0.2599 3.6053,-0.11525 5.1875,-0.71875 1.03921,-0.3961 1.77203,-1.01225 2.46875,-1.65625 0.58965,-0.545 1.15113,-1.1042 1.875,-1.625 0.6277,-0.4514 1.4258,-0.71445 2.0625,-1.15625 0.3406,-0.2367 0.6035,-0.65465 0.9375,-0.90625 0.4196,-0.3163 1.0429,-0.5376 1.4375,-0.875 1.2592,-1.0761 2.4229,-2.32435 3.625,-3.46875 l 0.1875,-0.1875 c 0.8261,-0.8738 1.6663,-1.8962 2.5625,-2.6875 0.4103,-0.3627 1.13085,-0.53735 1.53125,-0.90625 1.7765,-1.6365 2.31905,-3.3262 4.71875,-4.125 0.472,-0.9252 0.85625,-1.89535 1.65625,-2.59375 0.2279,-0.199 0.6127,-0.3466 0.8125,-0.5625 0.5658,-0.6111 1.08015,-1.4014 1.59375,-2.0625 0.2492,-0.3209 1.5901,-0.47795 2.1875,-0.96875 0.5074,-0.4166 0.94235,-1.0582 1.46875,-1.4375 1.513,-1.0906 4.76955,-2.72745 6.59375,-3.03125 2.0635,-0.3441 4.3074,0.10915 6.3125,-0.78125 0.6259,-0.2781 1.38545,-0.9245 1.96875,-1.3125 1.1284,-0.7507 2.49665,-1.48535 3.53125,-2.34375 1.4093,-1.1694 2.7444,-2.68545 4.0625,-3.96875 0.308,-0.3001 0.52825,-0.74195 0.84375,-1.03125 0.8643,-0.7926 2.3222,-1.8216 3.3125,-2.4375 0.3584,-0.223 0.84695,-0.32355 1.21875,-0.53125 0.4991,-0.2781 1.07555,-0.83935 1.59375,-1.03125 2.0825,-0.7715 4.5663,-0.73385 6.75,-0.84375 1.8923,-0.095 5.4384,1.26855 7.125,1.96875 0.5294,0.2196 1.0286,0.57985 1.5625,0.78125 0.6525,0.2458 1.4325,0.31265 2.0625,0.59375 0.6347,0.2831 1.37055,0.816 1.96875,1.1875 0.8252,0.5123 1.4829,1.35515 2.1875,2.03125 l 0.21875,0.8125 0.65625,0.625 c 0.5468,0.1844 2.2947,0.52835 2.8125,0.0937 0.0953,-0.422 0.44785,-1.34215 0.84375,-1.59375 l 0.25,0.0625 0.5625,0.5 1.1875,0.21875 0.5625,0.875 0.5625,0 0.1875,-0.1875 -0.28125,-0.625 0.21875,-0.5 0.1875,-0.125 1.1875,0.25 0.5,-0.78125 c 0.6246,-0.2691 1.26475,0.5535 1.53125,1 l 0.21875,-0.125 0.4375,-1.03125 c 0.8514,-0.5061 2.09795,-1.035 3.09375,-0.625 l 0.0937,-0.53125 -0.46875,-0.75 0.1875,-0.34375 c 0.1949,-0.054 0.51935,-0.1867 0.71875,-0.1875 1.4885,0 1.52445,0.3798 2.53125,0.5 0.2102,0.025 0.9644,-0.209 1.1875,-0.1875 l 0.8125,0.28125 c 1.0028,0.3283 2.1145,-0.1986 3.0625,-0.5625 0.3921,0.4165 1.43025,0.69095 1.96875,0.71875 l 0.21875,-0.1875 0.0625,-0.71875 0.375,-0.0937 c 0.5952,0.032 1.0645,0.63405 1.375,1.09375 0.0288,0.7743 -0.0247,1.59645 0.40625,2.28125 l 0.5,-0.0625 c 0.2234,-0.449 0.80425,-1.3271 1.28125,-1.5625 0.4478,-0.1733 1.5755,0.082 2,0.21875 1.4907,-2.0373 2.3903,-2.70415 4.6875,-3.40625 0.4305,-0.1315 0.83195,-0.37685 1.28125,-0.40625 1.2771,-0.084 2.6021,-0.1281 3.875,-0.25 1.6075,-0.1538 3.1702,-0.4625 4.8125,-0.375 1.1864,0.063 2.442,0.31575 3.625,0.46875 0.9182,0.1185 1.81115,-0.2409 2.53125,-0.8125 1.0781,-0.8556 4.06355,-3.0024 4.65625,-3.9375 0.0714,-0.1128 0.175,-0.5971 0.25,-0.75 0.141,-0.2865 1.43165,-1.94905 1.59375,-2.09375 0.3631,-0.3241 0.8796,-0.24095 1.125,-0.90625 1.7869,-0.6301 3.003,-1.1795 3.75,-3 l 0.65625,-0.34375 1.28125,-0.71875 c 1.4119,-1.3057 2.577,-3.97475 4.1875,-5.59375 -0.1559,-0.5368 -0.5379,-2.40865 0.1875,-2.78125 l 0.34375,0.0312 c 0.3006,-0.5998 2.0272,-0.6241 2.6875,-1.5 l 0.3125,-0.0312 0.40625,0.5625 c 0.1381,-0.6914 1.1565,-1.51515 1.75,-1.78125 l -0.15625,-0.15625 0.40625,-1.65625 0.53125,-0.40625 -0.21875,-0.46875 0.0937,-0.3125 0.5625,-0.125 c 0.1061,-0.1219 0.8789,-0.9999 1,-1.0625 0.8899,-0.463 1.60235,-0.064 2.46875,-0.1875 1.4052,-0.2011 2.22555,-1.63785 2.40625,-2.90625 -0.034,-0.8332 -1.33375,-1.2569 -1.34375,-1.9375 l 0.5625,-1.25 c -0.1207,-0.3212 -0.1182,-0.89255 0,-1.21875 l 0.65625,-0.625 c -0.2483,-2.2409 0.7439,-2.14575 1.25,-3.09375 0.21553,-0.40345 0.32544,-0.88157 0.46875,-1.34375 l -604.812492,0 z m -23.4375,37.53125 c -0.6857,0.5289 -1.57095,0.5884 -2.28125,1 -0.1053,0.061 -0.6599,0.6931 -0.8125,0.8125 -0.4304,0.3378 -0.94905,0.6324 -1.40625,0.9375 -0.2421,0.1617 -0.56275,1.29495 -0.59375,1.53125 -0.5024,0.2963 -2.8325,1.4719 -2.9375,2 l 0.5,0.5625 -0.1875,0.8125 0.15625,0.4375 c 0.8121,0.4746 2.0188,0.61545 2.625,1.34375 0.157,0.3685 0.1935,0.9953 0.0625,1.375 l 0.1875,0.25 1.03125,-0.125 0.28125,1.0625 c 0.2698,0.3105 1.49165,0.2368 1.84375,0.1875 l 0.9375,0.59375 0.125,0.3125 c -0.9262,0.5591 -1.23985,2.5627 -0.90625,3.5 l 0.65625,-0.125 -0.0937,-0.3125 0.0937,-0.21875 0.625,-0.0312 0.34375,-0.6875 0.3125,0.0625 0.125,0.34375 -0.21875,0.625 0.1875,0.625 1.21875,-0.0625 0.40625,-0.4375 c -0.8021,-1.0973 -0.048,-2.54485 -0.0937,-3.71875 -0.008,-0.1687 -0.44175,-1.2124 -0.46875,-1.4375 -0.1656,-1.3816 0.74895,-2.74295 1.03125,-4.03125 0.11,-0.5033 0.0435,-1.2845 0.0625,-1.8125 l 0,-0.4375 0.625,-0.65625 -0.15625,-0.28125 -0.53125,-0.0625 -0.1875,-0.5 0.125,-0.625 -0.28125,-0.71875 c -0.4288,-0.2719 -1.03305,-0.57635 -1.40625,-0.90625 -0.3001,-0.2649 -0.5814,-1.0827 -1,-1.1875 z m 558.906242,7.4375 -0.4375,0.0312 -0.3125,0.28125 -0.0312,0.3125 0.28125,0.3125 0.40625,-0.0625 0.21875,-0.46875 -0.125,-0.40625 z m 13.34375,1.5625 -0.28125,0.34375 0.0625,0.5 0.46875,-0.125 c 0.1144,-0.1028 0.24025,-0.25745 0.28125,-0.40625 l -0.125,-0.28125 -0.40625,-0.0312 z m -576.624992,2.71875 c -0.3159,0.1948 -0.5245,0.9154 -0.5625,1.25 l 0.1875,0.40625 0.21875,0 0.15625,-1.0625 0.25,-0.3125 -0.25,-0.28125 z m 10.53125,7.5 c -0.287,0.4456 -0.4819,1.178 -0.25,1.6875 l 0.34375,-0.1875 c 0.131,-0.3486 0.19585,-0.9482 0.0937,-1.3125 l -0.18745,-0.1875 z m -2.125,0.5625 c -0.3151,0.01 -0.62785,0.0405 -0.78125,0.0625 -0.8007,0.5927 -1.6692,1.6774 -2,2.625 0.2424,0.2333 0.385,0.8016 0.375,1.125 l 0.1875,0.15625 c 0.2527,-0.2143 0.8946,-0.57155 1.25,-0.46875 0.7229,-0.9356 1.3395,-2.07765 1.8125,-3.15625 l -0.0937,-0.25 c -0.1432,-0.081 -0.4349,-0.10255 -0.75,-0.0937 z m -1.5,9.25 -0.21875,0.1875 0.15625,0.9375 0.1875,0.0625 0.53125,-0.59375 -0.28125,-0.40625 -0.375,-0.1875 z m -0.71875,0.8125 -0.46875,0.75 -0.46875,0.15625 -0.25,0.375 c -0.4708,0.332 -1.38035,0.68495 -1.96875,0.59375 -0.2771,0.3005 -0.86245,0.6911 -1.28125,0.75 l -0.375,0.875 c -0.2883,0.31 -1.0407,0.4607 -1.4375,0.4375 l -0.96875,0.875 c -0.4771,1.2207 -0.5935,2.46 -0.6875,3.75 -0.6713,0.5405 -1.37095,1.125 -1.90625,1.9375 l 0.1875,0.625 -0.15625,0.15625 -0.40625,-0.34375 -0.375,0.59375 -0.46875,0.1875 -0.1875,0.375 c -0.0103,0.1484 -0.005,0.30715 0.0312,0.46875 0.14625,0.6481 0.6571,1.312 1.34375,1.25 l 1.125,-0.4375 0.25,0.28125 0.3125,-1.09375 0.0937,-0.28125 c 0.9405,-0.7573 0.6499,-0.42215 1.1875,-1.46875 0.5158,-0.1923 1.44155,-0.22935 1.96875,-0.0312 0.7066,-0.342 0.8096,-0.81195 1.25,-1.34375 0.0645,-0.078 0.36025,-0.21035 0.40625,-0.28125 0.3135,-0.4809 1.17545,-2.19185 0.84375,-2.78125 l 0.21875,-0.3125 0.625,-0.0625 0.375,-0.6875 c 0.1888,-0.155 0.5698,-0.26435 0.8125,-0.21875 l 0.28125,-0.5625 c -0.2852,-0.9414 -0.20795,-2.16605 0.59375,-2.84375 0.1315,-0.3299 -0.098,-1.1357 -0.21875,-1.4375 l -0.28125,-0.25 z m 2.59375,6.78125 -0.1875,0.0937 c -0.0798,0.2819 0.14065,0.8312 0.28125,1.0625 l 0.28125,-0.0312 0.15625,-0.28125 c -0.0517,-0.2388 -0.28145,-0.73515 -0.53125,-0.84375 z m -5.75,6.71875 -0.1875,0.21875 -0.0937,0.59375 0.21875,0.28125 0.5625,-0.625 -0.15625,-0.375 -0.34375,-0.0937 z m -0.90625,2.1875 -0.1875,1.28125 -1.34375,1 0,0.46875 0.1875,0.25 0.84375,-0.34375 0.53125,0.125 0.15625,-0.15625 c -0.4076,-0.8539 -0.1077,-1.2787 0.25,-2.0625 l 0.25,-0.15625 0,-0.21875 -0.40625,-0.0312 -0.28125,-0.15625 z m 49.90625,35.46875 -0.21875,0.21875 c -0.2429,0.6454 -0.0272,1.35665 0.34375,1.90625 l 0.21875,0.0625 0.15625,-0.125 c -0.2941,-0.4841 -0.446,-1.5174 -0.5,-2.0625 z m 148.749992,57.28125 c -0.2176,0.1857 -0.72915,0.4144 -1.03125,0.375 l 0.3125,0.34375 0.90625,0.0937 0.28125,-0.34375 -0.25,-0.4375 -0.21875,-0.0312 z M 1130.8622,655.75 c -2.5538,0.1579 -2.2359,-0.2745 -4,1.1875 l -1.5625,0.0937 c -0.319,0.1094 -0.6745,0.74765 -0.7813,1.03125 l 0.125,0.25 -0.5312,0.125 -0.5938,1.09375 c -0.6263,1.1403 -2.6458,0.37705 -3.5937,0.53125 -1.1381,0.1844 -2.6544,1.0623 -3.5625,1.75 -0.057,0.2205 -0.1435,0.43285 -0.1875,0.65625 l 0.625,0.8125 c -0.3712,0.6649 -0.1908,1.38095 0.25,1.96875 -1.3171,2.1069 -0.1136,3.88305 -0.7188,5.34375 l -0.4687,0.7813 c -0.7883,1.3069 -1.8121,1.5612 -3.2188,1.875 -0.6757,0.1504 -2.548,0.8275 -3.0312,0.75 l -1,-0.8125 c -0.3415,-0.069 -0.886,0.096 -1.1563,0.3125 l -0.4687,0.6875 0.2812,0.625 c 1.915,1.2157 3.9336,2.34595 5.7813,3.65625 0.7299,0.5181 1.4676,1.10955 2.2187,1.59375 0.2097,0.1351 0.5157,0.1711 0.7188,0.3125 0.8252,0.5736 1.7737,1.39275 2.6562,1.84375 1.4072,0.7188 3.1194,1.25015 4.5938,1.84375 0.078,0.032 0.4632,0.46855 0.5312,0.59375 0.09,0.165 0.955,1.8278 1,1.875 0.8326,0.8846 2.0801,1.49855 2.9688,2.34375 0.5093,0.4845 0.9075,1.24325 1.375,1.78125 0.5735,0.6611 1.2406,1.3016 1.8437,1.9375 0.026,0.028 0.1323,0.35195 0.1563,0.40625 -0.124,0.3129 -0.2866,1.07385 -0.125,1.40625 l 0.3125,0.25 c 2.8858,-0.054 6.6365,2.23935 9.4062,3.09375 0.8991,0.2773 1.9241,0.457 2.9375,0.6875 1.4325,0.055 2.8826,0.063 4.3125,0.15625 1.3538,0.089 2.6506,0.32475 4.0313,0.28125 1.5149,-0.048 2.9118,-0.30725 4.375,-0.65625 0.5818,-0.1389 1.3528,-0.42605 1.9375,-0.46875 0.2081,-0.015 1.3348,0.24485 1.4687,0.21875 1.6911,-0.3304 3.4213,-1.0461 5.0938,-1.5 1.8403,-0.4986 2.4054,-0.33855 4.0625,-0.53125 0.4388,-0.051 0.874,-0.2541 1.3125,-0.3125 0.4003,-0.053 0.8533,0.0308 1.25,-0.0312 0.3078,-0.048 0.4898,-0.246 0.8437,-0.25 1.5287,-0.016 2.968,0.24535 4.4375,0.71875 l 1.4063,-0.5 0.5,-1.09375 c 1.207,-1.2332 5.7968,-1.23935 7.625,-1.28125 0.081,0 0.168,-0.01 0.25,0 0.562,0.047 1.2675,0.0399 1.8125,0.15625 0.288,0.062 0.5873,0.3766 0.875,0.4375 1.8651,0.3966 3.9623,-2.1642 5.75,-2.8125 0.4969,-1.2299 1.293,-1.63705 2.5312,-2.03125 0.191,0.1741 1.1665,-0.1361 1.4063,-0.1875 0.4862,-0.3088 0.2424,-1.78375 0.6875,-2.34375 0.5209,-0.655 1.8152,-1.283 2.5,-1.6875 1.2786,-0.754 2.8716,-1.12745 4.375,-1.03125 l 0.5,-0.59375 0.625,0.53125 c 1.4299,0.1227 3.1512,-0.21065 4.5,-0.65625 0.5403,-0.1787 0.9036,-0.61845 1.5312,-0.71875 0.3178,-0.051 0.721,0.01 1.0313,-0.0625 0.453,-0.102 0.8906,-0.36395 1.3437,-0.46875 0.4074,-0.095 0.9235,-0.11105 1.3438,-0.15625 0.028,0 0.214,-0.1055 0.25,-0.125 0.2042,-0.793 1.0139,-1.05075 1.75,-1.03125 0.3335,-0.5024 0.994,-1.0461 1.5625,-1.25 l 0.031,-0.34375 -0.4063,-0.40625 -0.094,-0.375 c 1.874,-4.4341 4.4789,-2.05595 8.0313,-4.40625 l 0.1875,-0.125 c 0.2507,0.073 0.991,0.16495 1.2187,-0.0312 l 0.1875,-0.28125 -0.125,-0.53125 -0.25,-0.15625 c -0.5591,0.1127 -1.5042,-0.1489 -1.9062,-0.5625 l -0.2813,0 c -1.4114,1.4056 -1.6608,1.58395 -3.875,1.46875 -1.6675,-1.1735 -3.68,-2.30085 -4.9687,-3.90625 l -0.4063,-0.0625 -0.5,0.28125 c -0.9629,0.2263 -4.2003,-2.1329 -4.875,-2.6875 -0.4269,-0.099 -1.1269,-0.064 -1.5312,0.125 l -1.4375,-0.53125 -0.7813,0.21875 -0.8125,-0.4375 -1.0625,0.0937 c -0.4963,-0.6956 -1.1755,-0.3721 -1.75,-0.625 -0.6997,-0.3076 -1.542,-1.1579 -2.5312,-1.5625 l -0.5313,-0.9375 c -0.8111,-0.3718 -2.6846,-0.71965 -3.5,-0.15625 -0.4559,-0.4237 -0.7036,-0.8004 -1.2187,-1.1875 -0.1061,-0.08 -0.162,-0.11965 -0.25,-0.21875 -0.034,-0.037 -0.2473,-0.51835 -0.2813,-0.59375 l -0.5312,-0.28125 -0.4688,-1.28125 -0.7187,0.625 -2.5313,0.3125 -0.5,-0.125 c -1.5423,-0.9684 -2.5898,-1.7466 -3.9687,-2.9375 -0.6271,-0.5413 -2.2333,-0.6359 -3,-0.5625 l -0.375,0.3125 -0.1875,1.5 c -0.5549,1.1958 -3.9919,1.8537 -5.0625,2.25 -0.6798,0.2516 -1.403,0.65955 -2.0625,0.96875 -1.1746,0.5505 -2.5793,0.451 -3.8438,0.3125 l -0.4375,0.46875 c -0.485,0.041 -1.1495,0.4122 -1.5312,0.6875 -0.4169,-0.2811 -1.4192,-0.25075 -1.875,-0.15625 -4.0958,-2.2976 -1.7166,-1.02355 -5.7813,-0.40625 l -0.3125,0.90625 -0.375,0.28125 c -0.03,1.3857 -1.7437,2.019 -2.2187,3.125 -3.3346,1.4926 -6.0766,-1.2073 -6.875,-1 l -0.6875,0.53125 -0.2188,0.0312 -0.062,-0.28125 0.2188,-0.59375 c -0.1524,-0.096 -0.327,-0.17145 -0.4688,-0.28125 -2.8982,-2.2372 -5.9071,-4.257 -8.9375,-6.3125 -0.5546,-0.3764 -2.9575,-2.67625 -3.4062,-2.59375 -0.5318,0.3702 -1.1017,0.058 -1.6563,0.125 -0.7999,0.097 -1.729,0.6231 -2.5625,0.5 -1.1096,-0.1641 -1.7553,-0.73315 -3,-0.28125 -1.0541,-0.5223 -1.686,-1.3884 -2.9062,-1.3125 z m -146.12507,48.4375 c -0.1451,0 -0.30775,0.0122 -0.46875,0.0312 -0.4293,0.05 -0.9117,0.19735 -1.5,0.53125 l -0.0937,0.1875 0.375,0.3125 -0.40625,0.5 c 0.036,0.04 0.348,0.39465 0.375,0.40625 0.7129,0.2943 1.5031,0.55805 2.1875,0.90625 0.2002,0.1019 0.991,0.73275 1.125,0.78125 0.6806,0.246 2.6691,0.6529 3.375,0.25 l 1.125,0.5 0.65625,1.09375 c 0.5298,0.4344 1.9486,0.35375 2.5625,0.28125 l 0.4375,0.21875 c 1.3472,-0.3553 2.17195,0.72655 4.09375,0.21875 0.8286,0.347 0.82035,2.4022 1.96887,2.5 1.0212,0.087 2.2227,0.0829 3.2187,0.28125 0.2229,0.045 0.9967,0.5806 1.2188,0.625 0.8899,0.1761 1.9154,-0.2889 2.4062,-0.3125 0.5379,-0.026 1.1138,0.129 1.6563,0.125 0.9027,-0.01 1.8577,-0.4491 2.6875,-0.75 0.3365,-0.1223 1.4977,0.3052 1.8125,0.4375 l 0.3125,-0.4062 -0.094,-0.3125 -0.7187,-0.71875 c -0.6459,-1.2739 1.7968,-2.31915 2.5,-2.71875 l 0.094,-0.21875 -0.062,-0.25 c -0.73,-0.066 -1.592,1.0502 -2.625,1 -1.1405,-0.056 -2.2972,-0.36275 -3.4375,-0.40625 -0.1245,-0.01 -0.7438,0.24 -0.9063,0.25 -1.0968,0.066 -2.0933,-0.62455 -3.0312,-1.09375 -0.042,-0.021 -0.1113,-0.0193 -0.1563,-0.0312 -0.1515,-0.04 -1.3623,-0.371 -1.4375,-0.375 -0.157,-0.01 -0.9737,0.241 -1.1875,0.25 -0.5077,0.021 -1.0507,-0.15325 -1.5625,-0.15625 -2.76102,-0.016 -4.80392,0.6876 -7.00002,-1.375 l -1.03125,0 -0.15625,-0.125 c -1.1175,-0.9252 -2.3298,-1.80095 -3.75,-2.21875 -0.5637,-0.1658 -1.36035,0.1884 -1.90625,-0.1875 -0.9788,0.5218 -1.64055,-2.5e-4 -2.65625,-0.0312 z m 96.03127,7.21875 c -0.4187,0 -0.9782,0.2478 -1.4062,0.3125 -0.1011,0.015 -0.9339,-0.017 -0.9688,0 -0.9865,0.4808 -2.4485,1.27235 -3.5937,1.15625 l -0.1563,0.34375 0.2188,0.3125 c 0.8326,0.3921 1.9472,0.30275 2.5937,0.59375 0.7055,0.3179 1.3229,1.0757 2.0313,1.375 0.6303,0.2661 1.7172,0.38485 2.4062,0.53125 0.1752,0.037 0.3528,0.12355 0.5313,0.21875 l 2.375,0 c 0.4487,-0.17134 0.8441,-0.33517 0.9062,-0.4375 0.3796,-0.6848 -0.2925,-1.5515 0,-2.25 -0.157,-0.7407 -1.7377,-1.69965 -2.3125,-2.03125 -1.4484,0.4112 -1.8044,-0.13 -2.625,-0.125 z"
     id="rect10"
     inkscape:connector-curvature="0" />
</svg>
