<?xml version="1.0" encoding="UTF-8" standalone="no"?>
<svg
   xmlns:dc="http://purl.org/dc/elements/1.1/"
   xmlns:cc="http://creativecommons.org/ns#"
   xmlns:rdf="http://www.w3.org/1999/02/22-rdf-syntax-ns#"
   xmlns:svg="http://www.w3.org/2000/svg"
   xmlns="http://www.w3.org/2000/svg"
   xmlns:xlink="http://www.w3.org/1999/xlink"
   xmlns:sodipodi="http://sodipodi.sourceforge.net/DTD/sodipodi-0.dtd"
   xmlns:inkscape="http://www.inkscape.org/namespaces/inkscape"
   width="1010.0256"
   height="858.25989"
   viewBox="0 0 202.00513 171.65198"
   id="svg2"
   version="1.1"
   inkscape:version="0.91 r13725"
   sodipodi:docname="Flag_of_Syria (1).svg">
  <metadata
     id="metadata28">
    <rdf:RDF>
      <cc:Work
         rdf:about="">
        <dc:format>image/svg+xml</dc:format>
        <dc:type
           rdf:resource="http://purl.org/dc/dcmitype/StillImage" />
        <dc:title></dc:title>
      </cc:Work>
    </rdf:RDF>
  </metadata>
  <defs
     id="defs26" />
  <sodipodi:namedview
     pagecolor="#ffffff"
     bordercolor="#666666"
     borderopacity="1"
     objecttolerance="10"
     gridtolerance="10"
     guidetolerance="10"
     inkscape:pageopacity="0"
     inkscape:pageshadow="2"
     inkscape:window-width="1600"
     inkscape:window-height="837"
     id="namedview24"
     showgrid="false"
     fit-margin-top="0"
     fit-margin-left="0"
     fit-margin-right="0"
     fit-margin-bottom="0"
     inkscape:zoom="0.42"
     inkscape:cx="463.35301"
     inkscape:cy="425.45298"
     inkscape:window-x="-8"
     inkscape:window-y="-8"
     inkscape:window-maximized="1"
     inkscape:current-layer="svg2" />
  <path
     style="fill:#ffffff;stroke:#ce1126;stroke-width:0.40000001;stroke-miterlimit:4;stroke-dasharray:none;stroke-opacity:1"
     d="m 6.097946,57.301053 c 2e-4,0.09302 -0.01172,0.190266 0.00624,0.279688 0.0215,0.10674 0.116974,0.205098 0.096874,0.31211 -0.0101,0.05691 -0.082402,0.08391 -0.107812,0.135938 -0.0237,0.04853 -0.00898,0.11217 -0.03828,0.157422 -0.033902,0.05198 -0.130018,0.0538 -0.147658,0.11328 -0.0269,0.0908 0.156512,0.196338 0.094532,0.26797 -0.0813,0.09389 -0.257614,-0.135214 -0.364844,-0.07266 -0.17216,0.100434 -0.05585,0.418378 -0.1875,0.56797 -0.0715,0.08124 -0.185148,0.130472 -0.292968,0.139844 -0.0866,0.0075 -0.165592,-0.08546 -0.251172,-0.07031 -0.12109,0.02146 -0.1842,0.174076 -0.3,0.215626 -0.0927,0.03324 -0.235832,-0.05948 -0.294532,0.01954 -0.0555,0.07477 -0.0186,0.22682 0.06289,0.271874 0.159262,0.08803 0.343426,-0.237772 0.515626,-0.178906 0.075,0.02564 0.109968,0.12295 0.130078,0.19961 0.0139,0.05296 0.00898,0.112648 -0.01132,0.163672 -0.048,0.12351 -0.262948,0.178398 -0.248828,0.310156 0.0136,0.127028 0.195796,0.164824 0.298046,0.241406 0.10929,0.08185 0.27496,0.111216 0.33711,0.232812 0.0183,0.0358 -0.027524,0.08915 -0.00312,0.120704 0.055,0.06963 0.181776,0.01426 0.260156,0.05586 0.10904,0.05784 0.234078,0.137122 0.267578,0.25586 0.0707,0.250378 -0.095098,0.516512 -0.198828,0.755078 -0.0426,0.09783 -0.197344,0.167002 -0.170704,0.270312 0.022,0.08525 0.15696,0.08012 0.23125,0.127344 0.0996,0.06331 0.168628,0.221118 0.285938,0.208204 0.11331,-0.01244 0.121312,-0.211654 0.226172,-0.25625 0.11746,-0.05 0.260702,-0.02061 0.382812,0.0168 0.18247,0.0559 0.32787,0.195208 0.48789,0.29922 0.1479,0.09614 0.290868,0.200022 0.435938,0.30039 0.21326,0.147544 0.435132,0.283444 0.638672,0.44414 0.16689,0.131764 0.317562,0.282938 0.475782,0.425 0.29361,0.263622 0.512806,0.645168 0.878516,0.79336 0.100498,0.0407 0.23282,-0.04507 0.32539,0.01132 0.1903,0.115898 0.376572,0.365194 0.326952,0.582422 -0.0113,0.05021 -0.09566,0.04745 -0.126562,0.08867 -0.0572,0.07645 -0.08512,0.176168 -0.09062,0.271484 -0.0156,0.271004 0.04265,0.556274 0.168358,0.796874 0.0146,0.02794 0.05394,0.03916 0.06484,0.06875 0.0533,0.145108 -0.02142,0.308746 -0.02422,0.46328 -0.005,0.306304 0.02615,0.613012 0.01446,0.91914 -0.005,0.128946 -0.03855,0.256152 -0.03555,0.385158 0.005,0.19645 0.07267,0.387632 0.08047,0.583984 0.009,0.215496 -0.06778,0.432068 -0.03828,0.645702 0.009,0.06687 0.0574,0.124574 0.0668,0.191406 0.0236,0.166574 -0.04406,0.336958 -0.02656,0.504298 0.0196,0.18822 0.02696,0.401456 0.145702,0.548828 0.0339,0.04205 0.108052,0.03364 0.144532,0.07344 0.036,0.03933 0.03966,0.09876 0.06016,0.148046 0.14613,0.351694 0.340752,0.686522 0.445312,1.052734 0.0304,0.106702 0.03865,0.218736 0.05195,0.328906 0.0308,0.255196 0.179984,0.538358 0.06523,0.76836 -0.0279,0.05588 -0.112924,0.05741 -0.158984,0.09961 -0.0275,0.0252 -0.04059,0.06331 -0.06719,0.08945 -0.17253,0.169608 -0.483508,0.208348 -0.586328,0.427344 -0.0807,0.171764 0.08426,0.384678 0.03516,0.56797 -0.0589,0.220076 -0.282104,0.362742 -0.377734,0.56953 -0.0261,0.05634 -0.02256,0.124038 -0.05156,0.178906 -0.0304,0.05742 -0.09449,0.09246 -0.12461,0.15 -0.0647,0.12346 -0.01148,0.307308 -0.1125,0.402736 -0.059,0.05549 -0.17939,-0.0053 -0.23789,0.05078 -0.056,0.0537 -0.01742,0.159172 -0.057812,0.225392 -0.048,0.0785 -0.177072,0.09572 -0.206642,0.182812 -0.0769,0.226304 0.108528,0.466844 0.135548,0.704296 0.009,0.08036 0.023084,0.162884 0.00898,0.242578 -0.0168,0.09772 -0.082426,0.181076 -0.110548,0.276172 -0.036298,0.122794 -0.083808,0.24923 -0.074608,0.376954 0.0178,0.247812 0.185278,0.462446 0.248438,0.702734 0.0657,0.249796 0.142334,0.505122 0.134374,0.763282 -0.005,0.173074 -0.030044,0.358232 -0.121874,0.505078 -0.10388,0.166186 -0.362956,0.199846 -0.453126,0.373828 -0.11193,0.215994 -0.022178,0.486692 -0.055078,0.727734 -0.0145,0.106224 -0.0757,0.209232 -0.0625,0.315624 0.01,0.07703 0.08271,0.13478 0.09961,0.210548 0.0208,0.09312 -8e-4,0.190522 -8e-4,0.285938 1.3e-4,0.291696 0.123438,0.609074 0.00508,0.87539 -0.0443,0.09927 -0.18319,0.126652 -0.244532,0.216406 -0.062298,0.09115 -0.124512,0.200558 -0.114842,0.310546 0.0126,0.143772 0.1616,0.2413 0.21875,0.373828 0.0334,0.07739 0.045194,0.162386 0.071092,0.24258 0.0539,0.166568 0.15889,0.320964 0.17461,0.495312 0.003,0.03159 -0.026352,0.06394 -0.01446,0.09336 0.0181,0.0449 0.085904,0.04934 0.115624,0.0875 0.23628,0.302808 0.301946,0.706964 0.447266,1.0625 0.0362,0.08863 0.06753,0.179058 0.10586,0.266796 0.0875,0.200472 0.194632,0.391764 0.283202,0.591796 0.15964,0.360492 0.362916,0.710106 0.446876,1.095314 0.0894,0.410406 -0.03027,0.84722 0.05273,1.258984 0.0528,0.261416 0.186476,0.499608 0.279296,0.74961 0.0926,0.249242 0.180384,0.50018 0.276564,0.748046 0.0755,0.194696 0.160826,0.385456 0.235546,0.580468 0.0611,0.159434 0.116728,0.321262 0.174218,0.482032 0.0374,0.104768 0.0758,0.208996 0.111328,0.314454 0.0554,0.164758 0.08212,0.230344 0.133204,0.396484 l 0.0125,0.06523 0.310546,-0.02422 0.05586,-0.200782 0.261718,8e-4 0.04609,0.240234 0.448438,-0.123828 0.02109,0.139842 0.470704,0.221486 0.122264,0.201952 0.196094,0.08008 0.30625,-0.09766 0.241798,0.04453 0.336328,-0.223828 0.240234,0.06445 0.08594,0.192188 0.139062,-0.14375 0.502344,0.05547 0.05391,-0.193358 0.355078,0.108202 0.220704,-0.0832 0.11289,-0.212892 0.16328,-0.03164 0.326954,0.233594 0.339062,0.09609 0.401564,0.0207 0.364842,0.120704 0.09844,-0.158204 0.333594,-0.11875 0.353516,-0.02617 0.276562,0.202736 0.277344,0.05195 0.151172,0.177734 0.113672,-0.149218 0.214452,0.03711 0.19258,-0.273438 0.155078,0.115624 0.40039,0.04375 0.139844,0.128124 0.339062,-0.0043 0.264062,-0.104688 0.326564,-0.142578 0.21367,-0.31875 0.09766,-0.327344 -0.151172,-0.472266 0.25078,-0.502734 0.158984,-0.02617 0.153126,-0.213282 0.228124,0.01328 0.241016,-0.1 0.529298,0.314844 0.01132,0.217578 -0.157422,0.132812 -0.01954,0.334376 0.244142,0.497656 0.26953,0.195702 0.16836,0.02891 0.351562,0.371876 0.289062,-0.01562 0.27422,-0.20078 0.52578,0.503124 0.32422,0 0.43789,-0.15078 0.247266,-0.233204 0.176952,8e-4 -0.05078,1.026172 -0.164454,0.478124 -0.660938,-0.126172 -0.203124,-0.391016 -0.480078,-0.165234 -0.153126,0.161328 0.110938,0.14922 -0.163672,0.30664 -0.05742,0.704688 0.26836,0.215624 0.04258,0.302734 -0.559766,0.428908 -0.426952,0.142968 -0.565626,0.351172 -0.678906,0.182812 -0.05352,0.198828 0.10625,0.126172 -0.04492,0.352734 0.458594,0.04922 0.379688,0.21289 0.158984,-0.132032 0.221094,0.01874 0.194922,-0.114452 0.11914,0.1625 0.461328,-0.08242 0.191016,-0.166016 0.44336,0.195312 0.627344,-0.261328 0.03672,0.515234 0.108984,0.389064 0.266016,-0.03906 0.10039,0.583594 0.740236,0.248438 0.341796,0.283984 0.272266,0.03633 0.147266,0.148048 -0.109376,0.130858 0.08906,0.189844 0.189064,-0.06133 0.151952,0.314844 0.126562,-0.186718 0.116798,0.03008 0.05352,0.20625 0.60625,0.359766 0.121874,0.402734 -0.08672,0.446099 -0.789454,0.69687 0.259376,0.22461 0.178514,0.35625 0.06641,0.5582 0.357812,0.20313 0.161328,0.15195 -0.120704,0.33672 0.496094,0.27227 0.33086,-0.0711 0.364844,0.2586 0.06484,0.3746 -0.210938,0.24961 -0.136328,-0.0519 -0.191016,0.13125 0.248828,0.28203 -0.04023,0.75977 -0.178516,0.15664 -0.0625,0.56758 0.258594,0.2582 0.472656,0.13242 0.417968,0.44766 -0.07851,0.39922 -0.454688,0.0484 -0.09414,0.19922 -0.290626,0.008 -0.151562,0.26406 0.02734,0.35274 -0.148438,0.32812 -0.37461,0.10196 0.05313,0.40312 -0.158204,0.33555 -0.645702,0.14336 -0.16836,0.31328 -0.36875,0.16758 -0.28789,0.48398 -0.2625,0.082 -0.06172,0.35821 0.189844,0.45859 -0.184766,0.48242 -0.238672,0.16992 0.0625,0.26993 -0.377342,-0.0629 -0.23711,0.34571 -0.76914,-0.16328 -0.186328,-0.17813 -0.464844,-0.0129 -0.213282,-0.16328 -0.0125,0.48985 -0.264062,-0.0629 -0.401564,-0.0746 0.09336,0.54921 -0.440624,-0.0469 -0.117578,0.50391 0.258594,0.21835 -0.01484,0.31563 -0.434766,-0.0469 -0.309376,0.1543 -0.141796,0.45352 -0.3625,-0.0785 -0.108984,0.19883 -0.159376,0.0481 -0.04883,0.0816 107.846094,0 19.63711,-11.40274 10.05703,-2.81367 0.11914,-0.511719 0.5836,-0.785546 0.35234,-0.261328 2.98047,-6.715236 c 0.76202,-0.992904 3.09586,-4.334762 3.40664,-4.676952 l -0.54452,-12.779688 c 0.0985,-0.707996 0.19818,-0.900036 0.25196,-1.610546 0.0347,-0.458514 0.0494,-1.419888 0.0406,-1.882422 -0.005,-0.283652 1.43828,-4.408984 1.43828,-4.408984 0.0114,-1.13963 0.0496,-3.512892 0.0496,-3.512892 l 3.34414,-4.726952 c 0.003,-0.21166 -0.003,-0.56958 -0.0124,-0.977736 l -166.251566,0 z"
     id="rect6"
     inkscape:connector-curvature="0" />
  <path
     style="fill:#000000;stroke:#000000;stroke-width:0.40000001;stroke-miterlimit:4;stroke-dasharray:none;stroke-opacity:1"
     d="m 22.799508,114.36746 -0.06914,0.11562 -0.235548,0.0926 -0.411718,0.94688 -0.486718,0.0426 -0.03477,0.41914 -0.687892,0.41875 -0.03476,0.19336 0.04062,0.21835 0.472266,0.0352 0.08281,0.19258 0.585156,0.14297 0.0043,0.27187 0.255078,0.0715 0.308984,0.29297 0.909766,0.0465 0.135156,0.37383 0.270312,0.16094 0.342578,0.17773 -0.02305,0.89453 -0.09922,0.11602 -0.174218,0.0906 -0.601172,-0.0348 -0.721094,-0.18243 -0.619922,-0.0594 -0.05039,-0.28086 -0.644532,-0.10703 -0.308984,-0.24375 -0.480078,-0.0949 -0.541796,-0.10703 -0.256642,0.24453 -0.0047,0.59687 -0.198438,0.25196 -0.372266,0.001 -0.236328,-0.29844 -0.433594,-0.12031 -0.0078,-0.22032 -0.233594,-0.0523 -0.430078,0.15195 -0.146484,0.13321 -0.702344,0.1246 -0.20039,-0.20234 -0.2,0.0496 -0.451564,0.12461 -0.319922,0.33672 -1.324218,0.28867 -0.434766,0.9332 -0.46328,0.64141 -0.410938,0.30273 -0.176562,-0.19101 -0.333986,0.38711 -0.03555,0.29961 -0.3625,0.53672 -0.384766,-0.075 -0.14375,1.02382 0.157422,0.2711 -0.264452,0.59961 -0.440626,-0.0281 -0.126952,0.15508 -0.119922,0.40117 -0.226954,0.23008 0.0027,0.36836 0.191406,0.18906 -0.0027,0.4043 0.267578,0.18359 0.51211,-0.17265 0.588672,0.36601 0.470702,0.0469 0.122656,0.23672 0.259766,0.0184 0.109376,0.13164 0.611718,0.33203 0.146876,0.68437 0.185546,0.18672 -0.153906,0.0359 -0.310938,0.41836 -0.137108,0.40937 -0.363282,0.3586 -0.04922,0.15781 -0.14961,0.15781 -0.153126,-0.20312 -0.115234,0.005 -0.07266,-0.19883 -0.114844,-0.11797 -0.273046,0.12734 -0.03633,0.14219 -0.28047,0.0262 0.009,-0.14961 -0.125,-0.006 -0.09101,-0.15234 -0.316798,0.61445 -0.07852,-0.0773 -0.145312,0.0906 -0.132422,-0.0727 -0.283202,0.0785 -0.19336,0.30508 0.09531,0.20469 0.183204,-0.009 0.296874,1.02149 -0.03242,0.1789 -0.183202,0.0656 -0.01836,0.17773 -0.19375,0.0394 -0.03594,0.31524 -0.198828,-0.1125 -0.163672,0.0285 -0.05351,0.14024 -0.254298,0.10195 -0.040624,0.10274 -0.330078,0.0398 -0.103516,0.10234 -0.028516,0.29102 -0.279296,0.20273 -1.034376,0.45899 -0.217578,0.0699 -0.041798,0.13203 -0.68203,0.54688 -0.179298,0.78632 0.134376,0.2336 -0.058984,0.32422 -0.210156,0.0488 -0.569532,0.52305 -0.335156,0.0168 -0.158984,0.0672 -0.075,0.0254 -0.025782,-0.0133 -0.408202,0.16133 -0.238282,-0.007 -0.23164,0.12226 -0.11875,0.24727 -0.269922,-0.24258 -0.031642,-0.12969 -0.23203,-0.004 -0.219532,0.15899 -0.06875,0.29765 0.107032,0.14688 -0.09297,0.225 -0.40625,0.16211 -0.044922,0.1164 -0.221484,-0.0348 -0.215624,0.20664 -0.14297,-0.0766 -0.222656,0.23633 -0.04375,0.20117 -0.291016,0.21836 -0.474218,-0.19141 -0.640624,0.27383 c 0,0 0.00406,0.14196 0.022656,0.20976 0.0177,0.0653 0.103942,0.12037 0.083202,0.18477 -0.0129,0.0402 -0.083646,0.031 -0.109766,0.0641 -9e-5,1e-4 -6e-4,-1e-4 -8e-4,0 -0.0187,0.0242 -0.035894,0.0538 -0.046094,0.0848 -0.0101,0.0309 -0.01284,0.0632 -0.00274,0.0918 0.0219,0.0594 0.12891,0.0498 0.15703,0.10665 0.0406,0.0819 -0.027734,0.27343 -0.027734,0.27343 l 0.01288,-8e-4 0,8e-4 0.394532,-0.0258 0.45586,-0.20039 0.452734,0.0773 -0.200782,0.36524 c -0.0275,0.22215 -0.039128,0.44459 -0.048828,0.66797 l 0.2,0.24258 -0.089452,0.7375 0.211328,1.20586 -0.254298,0.57578 -0.229296,0.37422 -0.113672,1.24921 -0.066796,0.16094 -0.139454,-0.006 -0.103906,0.11836 -0.042578,0.42344 0.059766,0.4543 -0.310938,0.58242 -0.217578,-0.38399 -1.06718803,1.14063 1.22421803,1.37851 -0.067968,0.37539 0.025,0.40274 -0.023046,0.37656 -0.158164,0.88315 -0.34492203,0.2207 -0.055468,0.14922 0.13398403,0.30859 0.372656,0.26406 0.210156,0.25469 0.094922,0.13399 0.28711,0.38671 -0.0012,0.2543 0.21289,0.34922 -0.01446,0.28359 -0.223828,0.17891 0.09453,0.53008 -0.024218,0.31797 -0.090234,0.38593 -0.00312,0.22227 -0.189844,0.21133 0.13672,0.38711 -0.165236,1.03906 -0.116014,0.11719 -0.214844,0.38086 -0.203516,0.30468 -0.29687603,0.29258 -0.28828,0.18633 0.81484403,0.7082 0.21953,0.13204 c 0.0101,-0.021 0.065002,-0.10856 0.119922,-0.11446 0.0804,-0.009 0.147442,0.0712 0.207032,0.12578 0.0414,0.0379 0.04401,0.12798 0.09961,0.13594 0.037598,0.005 0.059834,-0.0463 0.090234,-0.0691 0.0372,-0.0279 0.0712,-0.0626 0.10703,-0.0934 0.0358,-0.0309 0.073378,-0.0584 0.117578,-0.0723 0.0357,-0.0113 0.079976,-0.0209 0.116406,-0.0125 0.0126,0.003 0.023304,0.008 0.033204,0.0156 0.0339,0.0265 -0.00532,0.10676 0.033984,0.12422 0.0568,0.0254 0.108336,-0.0611 0.166406,-0.0832 0.0642,-0.0245 0.15411,-0.001 0.19922,-0.0535 0.008,-0.009 0.01016,-0.0192 0.01016,-0.0309 6e-4,-0.0113 -10e-4,-0.0243 -0.00312,-0.0352 -0.003,-0.0215 -0.00886,-0.042 -0.01796,-0.0625 -0.0181,-0.041 -0.044732,-0.0806 -0.057032,-0.12148 -0.006,-0.0204 -0.00868,-0.0405 -0.00468,-0.0617 0.0113,-0.0654 0.099182,-0.0958 0.120702,-0.1586 0.0249,-0.0727 -0.046418,-0.17027 8e-4,-0.23046 0.0313,-0.0395 0.100186,-0.0172 0.147266,-0.0352 0.0519,-0.0199 0.091944,-0.0699 0.146874,-0.0785 0.0443,-0.008 0.087832,0.0293 0.132422,0.0234 0.102,-0.0134 0.203298,-0.0626 0.279688,-0.13164 0.0361,-0.0325 0.0283,-0.11104 0.075,-0.12461 0.0407,-0.0113 0.07157,0.0643 0.11328,0.057 0.0183,-0.004 0.032432,-0.0149 0.044532,-0.0305 0.0126,-0.0156 0.022422,-0.0354 0.032422,-0.0547 0.0201,-0.0386 0.040434,-0.076 0.077734,-0.0774 0.0511,-0.001 0.063462,0.0942 0.113672,0.10352 0.0308,0.006 0.0708,-0.008 0.0875,-0.034 0.0383,-0.0603 -0.068444,-0.16644 -0.01484,-0.21367 0.0464,-0.0408 0.127352,0.0656 0.181642,0.0363 0.052,-0.0281 0.0193,-0.12933 0.066796,-0.16445 0.0251,-0.0185 0.068568,-0.0276 0.092968,-0.009 0.0289,0.0229 -0.01268,0.0858 0.01562,0.10937 0.0221,0.0186 0.06111,0.01 0.08711,-0.003 0.0539,-0.0256 0.090956,-0.0819 0.117186,-0.13555 0.0264,-0.054 -0.022734,-0.15927 0.034766,-0.17656 0.0411,-0.0126 0.049334,0.0792 0.090234,0.0918 0.0442,0.0137 0.097118,-0.001 0.135938,-0.027 0.11444,-0.0741 0.167008,-0.21713 0.236718,-0.33437 0.0241,-0.0407 0.02821,-0.094 0.06211,-0.12695 l 0.076954,-0.0399 c 0.0162,-0.005 0.033984,-0.0113 0.033984,-0.0113 0.0637,-0.0132 0.12945,0.005 0.194532,0.004 0.142,-0.003 0.28439,-0.0131 0.42617,-0.0211 0.0495,-0.003 0.101858,0.009 0.148048,-0.009 0.0844,-0.033 0.140528,-0.11442 0.210938,-0.17149 0.0441,-0.0358 0.077312,-0.11973 0.132812,-0.10742 0.0789,0.0173 0.12347,0.13862 0.10664,0.21758 -0.016,0.0752 -0.190492,0.0719 -0.176952,0.14766 0.008,0.0389 0.082988,0.0124 0.111718,0.0395 0.0597,0.0568 0.02394,0.18595 0.09414,0.2289 0.0229,0.0139 0.056378,0.006 0.080078,-0.006 0.068,-0.0359 0.069752,-0.19473 0.144922,-0.1789 0.0775,0.0163 6e-4,0.17939 0.06211,0.2293 0.0193,0.0157 0.04961,0.003 0.07461,0.005 0.12222,0.009 0.254084,-0.0152 0.366014,0.0348 0.114062,0.051 0.156882,0.2151 0.275392,0.25469 0.0492,0.0165 0.107168,0.004 0.155078,-0.016 0.0636,-0.0265 0.090604,-0.1301 0.159374,-0.13086 0.11608,-10e-4 0.18994,0.29472 0.27461,0.21524 0.023,-0.0216 -0.052796,-0.0466 -0.054296,-0.0781 -0.003,-0.0525 0.034742,-0.10636 0.077342,-0.13711 0.0342,-0.0246 0.08212,-0.0183 0.12383,-0.0242 0.14426,-0.0206 0.295566,-0.0794 0.435936,-0.0402 0.052,0.0146 0.096138,0.0549 0.130078,0.0969 0.0432,0.0535 0.039366,0.13623 0.084766,0.18789 0.0298,0.0338 0.100414,0.0281 0.115234,0.0707 0.0198,0.0567 -0.095328,0.11968 -0.061328,0.16914 0.0201,0.0292 0.071222,0.003 0.106642,0.003 0.126,-0.003 0.268244,0.0436 0.377342,-0.0195 0.08,-0.0462 0.062232,-0.25922 0.150782,-0.23281 0.0459,0.0137 -0.040872,0.11665 -0.0012,0.14336 0.0599,0.0403 0.128782,-0.0917 0.20039,-0.0824 0.076502,0.01 0.108536,0.1538 0.184376,0.13946 0.0373,-0.008 0.02488,-0.0815 0.05938,-0.0973 0.078,-0.0359 0.169676,0.0282 0.254686,0.0406 0.0637,0.009 0.137956,-0.01 0.191406,0.0262 0.0299,0.0201 0.03881,0.0607 0.05391,0.0934 0.0435,0.0946 0.101146,0.19043 0.103906,0.29453 0.003,0.0961 -0.12035,0.18916 -0.08125,0.27695 0.01,0.0235 0.05223,0.0138 0.06953,0.0328 0.0227,0.0249 0.009,0.0738 0.03477,0.0949 0.0322,0.0258 0.08396,0.003 0.122656,0.0172 0.0603,0.022 0.102102,0.0818 0.162892,0.10234 0.128648,0.0433 0.291228,-0.0368 0.405858,0.0359 0.0791,0.0503 0.08889,0.16533 0.141406,0.24297 0.042,0.0619 0.08431,0.1248 0.137892,0.17695 l -0.635938,0.0496 0.264452,0.24765 0.08867,0.27344 0.52422,0.11719 0.712108,-0.0523 0.648048,0.21015 0.0418,0.58906 -0.155078,0.85977 0.09609,0.28242 0.185548,0.006 0.234374,0.45469 0.204688,0.11016 0.06914,0.11484 0.308984,0.19883 0.285938,0.66562 0.20625,0.67774 0.04688,0.91132 1.296484,-0.48203 0.578516,0.14063 0.410156,-0.0359 0.303906,0.36289 0.41953,-0.2625 0.391408,-0.31992 0.25078,-0.0281 1.050392,1.05938 2.239062,1.48711 2.467968,2.63555 2.696094,0.29296 0.400782,0.33516 3.882422,0.51602 2.123828,0.41484 0.273828,0.36406 0.46328,-0.26836 3.296876,0.6375 0.901952,-1.02539 18.71172,-11.7082 8.6375,-5.45234 29.844922,-18.11563 27.308594,-16.24766 7.77929,-4.51718 -107.846088,0 z"
     id="rect4"
     inkscape:connector-curvature="0" />
  <path
     style="fill:#ce1126;stroke:#ce1126;stroke-width:0.40000001;stroke-miterlimit:4;stroke-dasharray:none;stroke-opacity:1"
     d="m 197.21122,0.23542875 c -0.10338,-0.0085 -0.22924,0.0440488 -0.32772,0.005469 l -0.1672,0.21640626 -0.12266,0.0148438 -0.22734,0.36640626 0.034,0.27187493 -0.15936,0.2179688 -2.59414,2.160547 -0.26212,0.5628905 -0.33398,0.015626 -0.64492,0.3183591 -0.2832,0.3484377 -0.34572,0.2066406 -0.93788,-0.010156 -0.18242,0.2125001 -0.55156,0.1785156 -0.3332,0.2964843 -0.45078,0.1617189 -0.72188,-0.016016 -2.09532,0.5535156 -0.99024,0.1015624 -0.20272,0.1347655 -0.34454,0.033594 -0.29726,0.1714844 -2.92462,0.5015624 -0.93554,-0.1378906 -0.8621,0.109375 -0.175,0.1929688 -0.32658,-0.024609 -0.52694,0.109375 -0.21134,0.1597656 -0.19492,0.042188 -1.03242,0.4945313 -0.93202,0.1089844 -0.0852,0.1804688 -4.18634,-0.061329 -0.25312,0.159375 -0.70898,-0.1328126 -2.37696,-0.020312 -1.18124,0.2683594 -0.1375,0.3015624 -0.67148,-0.025 -0.002,-0.5609374 -1.04414,-0.5261721 -0.61602,-0.061719 -0.24296,0.065625 -0.21954,-0.085938 -0.22188,0.11875 -3.08593,-0.7183594 -1.05976,-0.032422 -2.04766,-0.5675782 -0.58242,0.1796877 -0.58672,-0.029688 -0.68672,0.234375 -0.15937,0.3632814 -0.22461,0.1328124 -0.40742,-0.1800782 -0.24961,-0.46875 -0.38477,0.1953127 -0.77656,-0.074609 -0.13594,-0.1570312 -0.18906,0.040625 -0.27344,0.5601562 -0.90976,0.023828 -0.25665,0.1753906 -0.59179,0.014454 -0.47149,0.3718748 -1.42422,0.6960938 -0.34687,0.2660156 -0.91602,0.1152344 -0.39765,0.3332032 -1.31797,0.8187494 -3.32852,0.39375 0.005,0.158984 -0.12422,-0.134375 -0.47656,0.251172 -0.40898,0.46836 -0.24102,0.557031 -0.64336,0.573828 -0.50937,0.121094 -0.91172,0.641015 -1.23242,0.633203 -0.79649,0.167188 -0.47109,0.445703 -0.75078,0.499609 -0.40313,0.361719 -1.15781,0.279688 -0.8793,0.06484 -1.6875,0.446485 -0.15,0.396875 -0.74062,0.597265 -0.93633,0.14336 -1.8918,0.829297 -2.41484,0.755468 -0.36758,0.394141 -0.60547,0.289453 -3.2832,0.208594 -0.67578,0.339844 -1.31211,0.50703 -1.35156,0.06367 -1.51055,0.317968 -1.57578,0.441408 -3.88281,0.297264 -2.99141,0.579298 -1.45664,0.196094 -2.44102,-0.594532 -1.96523,-0.673046 -1.41602,-0.14961 -3.710934,0.326954 -4.411328,-0.21836 -0.378906,-0.148828 -1.223438,-0.891797 -1.459376,-1.351953 c -0.42769,-0.309097 -0.85849,-0.614346 -1.27578,-0.9375 l -0.148048,-0.23789 -0.03125,-0.367188 -0.06836,-0.140625 -0.49297,0.05352 -0.224608,-0.209766 -0.21211,-0.473437 -4.95664,-2.016797 -1.34336,0.07773 -2.213282,-0.463672 -0.854686,-0.3625 -0.754688,0.548828 -0.953906,-0.02813 -0.261328,-0.09453 -0.289064,0.08125 -0.02422,0.353906 -0.632812,0.194141 -0.24922,-0.03203 -0.173046,0.09375 -0.161328,0.03164 -0.3875,0.371485 -0.174218,-0.01758 -0.198828,0.170312 -0.276172,-0.06445 -0.300782,0.09961 -0.351562,0.40039 -0.313672,-0.07656 -0.401172,0.08633 -0.187892,0.112109 -0.20039,0.23711 0.101172,0.576562 -0.347266,0.351563 -0.271874,-0.0125 -0.102734,-0.114454 -0.434376,-0.110937 -0.873828,0.416016 -0.710938,0.06484 -0.446484,0.278125 -0.653906,0.635547 -0.705468,0.13125 -1.59297,0.700391 -0.770312,0.179687 -0.46914,0.442578 -1.70625,-0.07969 -0.614064,-0.207813 -0.123436,0.01914 -0.512892,0.433985 -0.336328,0.01836 -0.223828,-0.182031 -0.235936,0.009 -1.052736,0.850389 -2.971874,1.308986 -0.644142,0.357812 -0.309764,0.253124 -0.04531,0.604688 -0.445312,0.653126 -0.314062,-0.07227 -0.551562,0.03711 -0.508594,-0.380468 -0.496094,0.02148 -0.458594,-0.216796 -3.372656,-0.744532 -0.01874,0.259766 -0.27461,-0.02305 -0.04531,-0.07656 -0.409766,-0.126562 -0.686328,-0.02617 -0.498046,-0.126952 -0.847656,0.347264 -0.169532,0.171876 -0.584376,0.121094 -0.04297,-0.138672 -0.157032,-0.01328 -0.370312,-0.553124 -0.495312,0.389062 -0.340234,-0.291016 -0.251172,-0.05 -0.167188,0.89336 -0.41875,0.507422 -0.83086,-0.364454 -0.02187,-0.345702 -0.354298,-0.153126 -0.257812,-0.192578 -0.458202,0.0086 -0.0059,-0.58164 -0.207812,-0.129688 0.169922,-0.230078 0.01914,-0.154298 0.169532,-0.0793 0.280858,-0.0074 0.14336,-0.207812 0.06719,-0.195704 0.168358,-0.158202 0.07656,-0.358204 -0.125782,-0.0543 -0.151172,-0.267969 -0.214062,-0.05469 -0.477344,0.04687 -0.6375,-0.154296 -0.09453,-0.120313 0.182032,-0.132422 -0.0082,-0.140234 -0.108202,-0.06445 -0.02031,-0.190235 0.105078,-0.164843 -0.510156,0.06992 -0.309766,-0.05469 -0.409766,-0.20625 -0.309766,-0.243359 -0.122656,0.08672 -0.223046,-0.03867 -0.01954,-0.152343 -0.120312,-0.02656 -0.145314,-0.178125 -0.241796,0.0055 -0.192188,0.19375 -0.303906,0.08047 -0.49375,-0.03047 -1.473046,-0.457422 -0.706642,-0.09336 -0.757422,-0.14375 -1.03828,-0.694141 -0.48086,-0.01641 -0.480468,-0.305078 -0.320704,0.105078 -0.233202,-0.0832 -0.421486,0.05508 -0.540234,-0.144531 -0.02852,0.08477 0.160158,0.135547 0.04648,0.122656 -0.154298,0.235937 0.11797,0.08399 c -0.003,0.05163 -0.02342,0.173954 -0.03672,0.21914 -0.0133,0.04519 0.13197,0.08847 0.11211,0.131641 -0.0199,0.04316 -0.129662,-0.02648 -0.151172,0.01914 -0.0215,0.04561 -0.105098,0.13109 -0.123438,0.183594 l -0.269922,0.185547 -0.320312,0.110156 0.0059,0.260937 -0.135156,0.123047 -0.01954,0.187891 -0.157422,-0.03828 0.01874,0.124609 -0.170312,0.02461 -0.429298,0.732422 0.148048,0.572657 0.198046,0.271094 0.173438,-0.0055 -0.02812,0.371874 -0.276172,0.486718 -0.229688,0.132422 -0.190234,0.535938 -0.495704,0.199218 -0.09609,0.319922 -0.38203,0.14297 0.303906,1.604296 0.290624,0.658204 -0.189062,0.858594 -0.314454,1.148436 -0.141796,0.09414 -0.06328,0.204688 -0.633594,0.597656 0.03555,0.0707 0.04844,0.246094 -0.195314,0.141016 0.05586,0.166016 0.177344,0.04414 0.127344,0.195312 -0.03867,0.210548 0.225,0.123046 -0.07695,0.184766 -0.05156,0.323438 -0.06328,0.172266 0.200782,0.172656 0.132422,-0.002 -0.08047,0.42539 0.11328,0.28047 0.164062,-0.02109 0.431252,0.94336 0.61953,-0.04844 -0.07969,0.153906 -0.02109,0.471874 -0.210156,0.102344 0.0918,0.153126 0.55039,0.365624 -0.177734,0.190236 -0.395704,0.07539 0.169142,0.828516 0.06836,-0.242188 0.13086,-0.166798 0.222656,0.126954 0.172266,-0.136328 0.08086,0.05352 -0.05195,-0.307814 0.301954,0.05899 0.151562,0.235156 0.465234,-0.0793 0.07188,0.20625 0.211328,0.19375 -0.154298,0.231642 -0.141406,0.09336 0.01484,0.185938 0.04062,0.44414 0.832422,0.129298 0.270704,-0.02734 0.01914,0.224218 -0.369922,0.30625 -0.10625,0.29375 0.291016,0.2375 0.216016,0.376172 -0.04102,0.361328 -0.129688,0.11797 -0.35625,0.117578 -0.48125,0.06797 0.146094,0.19336 -0.370312,0.03828 -0.532032,-0.316408 -0.39453,-0.0031 0.133984,0.210546 -0.105468,0.07266 0.05547,0.246876 -0.120312,0.221874 -0.47422,-0.08555 -0.498436,-0.311718 -0.256642,0.01796 -0.151562,-0.196484 -0.390234,-0.133594 -0.113672,0.04219 -0.01328,0.193358 -0.179686,0.11875 -0.21875,-0.16953 -0.35625,-0.498048 -0.294142,0.117578 -0.403516,0.03984 -0.228906,-0.01016 -0.09219,0.41875 0.02266,0.163672 -0.228126,-0.02578 -0.05742,-0.201952 -0.233202,-0.05156 0.08008,0.295702 0.0418,0.145312 -0.359766,0.220704 -0.09609,0.170312 0.04258,0.229298 -0.266016,0.151952 -0.266016,-0.136328 0.01016,-0.224608 -0.78125,0.01484 -1.019922,-0.628124 -0.221484,0.239452 c 0.024,0.0617 -0.172024,0.08414 -0.139454,0.141798 0.0304,0.05379 0.13482,-0.08455 0.18086,-0.04336 0.0662,0.05928 -0.0973,0.203678 -0.0332,0.265234 0.0296,0.0284 0.08436,-0.03681 0.121876,-0.02031 0.0524,0.02301 0.10319,0.08695 0.09375,0.14336 -0.0101,0.06256 -0.13012,0.05655 -0.15,0.116796 -0.0153,0.04654 0.0059,0.106022 0.03906,0.141798 0.0482,0.05158 0.16943,0.0063 0.2,0.06992 0.0255,0.05322 -0.02509,0.118994 -0.05859,0.167578 -0.0259,0.03746 -0.05998,0.07933 -0.104686,0.08789 -0.0658,0.01264 -0.125636,-0.07805 -0.191016,-0.06328 -0.0524,0.0118 -0.07679,0.07455 -0.116016,0.111328 -0.0891,0.08373 -0.156192,0.203914 -0.269922,0.248828 -0.0476,0.0188 -0.129066,-0.04385 -0.154296,8e-4 -0.0447,0.07902 0.14936,0.14467 0.13828,0.234766 -0.0113,0.08898 -0.19375,0.102322 -0.18828,0.191796 0.003,0.04601 0.101684,0.04038 0.108594,0.08594 0.008,0.04982 -0.09796,0.07627 -0.08516,0.125 0.0372,0.140752 0.387648,0.04744 0.391798,0.19297 0.001,0.04564 -0.104942,0.0242 -0.11914,0.06758 -0.02,0.06076 0.01744,0.154008 0.07773,0.17539 0.0377,0.01338 0.0673,-0.05984 0.10703,-0.05469 0.0796,0.0103 0.176508,0.08027 0.180078,0.160548 0.004,0.07331 -0.11946,0.09402 -0.15039,0.160546 -0.0368,0.07905 0.01764,0.187044 -0.03047,0.259766 -0.0416,0.06294 -0.143606,0.05908 -0.196876,0.1125 -0.053,0.05318 -0.137828,0.125596 -0.110938,0.195702 0.025,0.06491 0.152168,0.014 0.198438,0.06602 0.031,0.03482 0.05913,0.102356 0.02773,0.13672 -0.056,0.06122 -0.210234,-0.103206 -0.247264,-0.02891 -0.054,0.108436 0.218662,0.146002 0.251952,0.2625 0.0178,0.06258 -0.06883,0.132574 -0.04023,0.191016 0.0363,0.07404 0.186696,0.0338 0.222266,0.108204 0.0263,0.05488 0.01268,0.148434 -0.04063,0.177734 -0.0632,0.0347 -0.158466,-0.127854 -0.204296,-0.07227 -0.14555,0.176548 0.345506,0.363774 0.347266,0.592578 4e-4,0.05628 -0.04061,0.109318 -0.08281,0.146484 -0.0627,0.05517 -0.18851,0.0236 -0.23203,0.09492 -0.0485,0.07953 0.0191,0.185528 0.02461,0.278516 0.008,0.1189 -0.05237,0.25606 0.01132,0.357032 0.0353,0.0563 0.169482,0.02652 0.176562,0.09258 0.009,0.08413 -0.168292,0.08259 -0.194922,0.16289 -0.0113,0.03403 0.001,0.07808 0.025,0.104688 0.0575,0.06373 0.232238,-4e-4 0.242968,0.08477 0.0113,0.08703 -0.17468,0.06985 -0.21875,0.145702 -0.0289,0.04977 0.02497,0.127938 -0.01132,0.172266 -0.0273,0.0329 -0.100728,-0.0033 -0.124218,0.03242 -0.0284,0.04309 0.03955,0.104216 0.02305,0.153126 -0.026,0.07704 -0.172598,0.08904 -0.17461,0.170312 -10e-4,0.06105 0.106032,0.07596 0.125,0.133984 0.0401,0.122242 0.01278,0.268176 -0.04492,0.383204 l -0.107814,0.101952 c -0.28022,0.213696 -0.904686,0.546484 -0.904686,0.546484 l -0.21211,-0.03672 -0.31211,-0.326172 -0.31289,-0.183594 -0.2875,-0.183594 -0.463672,0.01758 -0.02422,0.959376 0.38125,0.685546 -0.169142,0.21211 -0.369922,0.224218 -0.371874,-0.155468 -0.146094,-0.23086 -0.26875,-0.08594 -1.471484,0.339454 -0.491406,0.414062 -0.39922,0.714454 -0.009,0.808984 -0.124218,0.37461 0.16328,0.551562 -0.125,0.891016 -0.28164,0.92539 -0.301954,0.223438 -0.322264,-0.338282 -0.0457,-0.472266 -0.390624,-0.642186 -0.283204,-0.151564 -0.04453,-0.138672 -0.22539,-0.209764 -0.2375,-0.08359 -0.361328,0.02187 -0.173438,-0.153906 -0.446874,0.08945 -0.273828,-0.20586 -0.286328,-0.10586 -0.385938,0 -0.25625,-0.12539 -0.507422,0.07578 -0.313672,-0.07383 0.551562,-1.309766 -0.320702,-0.647656 -0.512892,0.025 -0.434764,0.02695 -0.321876,0.303516 -0.501954,0.03633 -0.414062,0.28711 -0.237108,-0.04531 -0.279688,-0.269532 -0.0082,-0.02148 c -0.0269,0.03354 -0.08751,0.01304 -0.123828,0.03594 -0.0544,0.03419 -0.076956,0.105534 -0.128516,0.143752 -0.0794,0.05878 -0.19758,0.05615 -0.26875,0.124608 -0.1288,0.123888 -0.12887,0.340724 -0.24453,0.476954 -0.0298,0.035 -0.087618,0.04252 -0.110938,0.08203 -0.0396,0.06687 -0.01126,0.155812 -0.03086,0.23086 -0.0962,0.359694 -0.118428,0.820568 -0.423828,1.033594 -0.0507,0.03543 -0.128816,-0.01868 -0.185156,0.007 -0.0861,0.03924 -0.12316,0.144964 -0.19414,0.207422 -0.13891,0.122178 -0.270792,0.279504 -0.450392,0.323828 -0.232908,0.05747 -0.48703,-0.01914 -0.71289,-0.1 -0.0681,-0.02434 -0.112956,-0.113896 -0.185156,-0.112892 -0.0558,8e-4 -0.086194,0.07656 -0.140234,0.09063 -0.0657,0.01712 -0.140406,-0.03798 -0.203516,-0.0129 -0.0401,0.0159 -0.09309,0.05172 -0.08789,0.09453 0.0175,0.144804 0.332226,0.09756 0.366016,0.239454 0.0126,0.05159 -0.054298,0.09114 -0.079298,0.13789 -0.03,0.05606 -0.097656,0.108752 -0.085156,0.171094 0.0127,0.06314 0.119814,0.0676 0.145704,0.126562 0.0187,0.04277 -0.031608,0.103004 -0.0039,0.140234 0.0515,0.06791 0.187458,0.0022 0.247658,0.0625 0.0942,0.09432 0.123024,0.257208 0.096874,0.387892 -0.006,0.03197 -0.058504,0.04591 -0.058204,0.07851 8e-4,0.108888 0.14252,0.16588 0.19961,0.258594 0.0371,0.06025 0.077498,0.122146 0.091798,0.191406 0.0163,0.07861 -0.041176,0.166964 -0.00938,0.240626 0.0167,0.03848 0.070822,0.04813 0.094922,0.08242 0.10213,0.145038 0.16041,0.3214 0.19336,0.495702 0.0201,0.1062 -0.00612,0.216708 4e-4,0.32461 0.016,0.278812 0.236522,0.59132 0.094922,0.832032 -0.0416,0.0706 -0.173734,0.03298 -0.227344,0.09492 -0.18521,0.214004 -0.027636,0.606308 -0.210546,0.822264 -0.0912,0.107594 -0.29602,0.06274 -0.38672,0.170704 -0.0268,0.03179 -0.00578,0.08687 -0.029686,0.121094 -0.0631,0.09174 -0.2148,0.09712 -0.27461,0.191016 -0.0343,0.05377 -0.001,0.1329 -0.032422,0.18828 -0.0289,0.05059 -0.103712,0.06324 -0.132812,0.113672 -0.0378,0.0655 0.01148,0.168534 -0.041016,0.223048 -0.12947,0.134672 -0.383186,0.03307 -0.546876,0.123046 -0.15271,0.08394 -0.310032,0.205642 -0.370312,0.36914 -0.0568,0.154088 -0.041346,0.348434 0.039454,0.491408 0.0545,0.09644 0.214682,0.09733 0.269922,0.193358 0.033008,0.05737 0.038868,0.122742 0.039062,0.190234 l 166.251564,0 c -0.0484,-2.158162 -0.2312,-6.429228 -0.23436,-6.43789 -0.2216,-0.632122 -3.16956,-6.850326 -3.48712,-7.483202 0.22662,-2.182782 0.87032,-8.164844 0.87032,-8.164844 0.0148,-0.527354 -0.0856,-1.187962 -0.0856,-1.717578 l 3.47188,-6.066406 c 2.30716,-0.420328 11.75216,-2.09561 12.49532,-2.228516 l 2.0453,-1.722266 c 0,0 9.47176,-9.617091 10.55586,-10.823048 l 3.7957,-3.8792961 c -0.019,-0.1786 0.0683,-0.1275826 0.005,-0.2660156 -0.10552,-0.232855 -0.54734,-0.1734318 -0.65038,-0.407422 -0.0622,-0.1412638 0.1819,-0.4386442 0.20078,-0.6039062 l -0.16446,-0.2328124 -0.023,-0.15 c -0.0379,-0.07744 0.12652,-0.1465632 0.11524,-0.2320314 -0.0372,-0.281513 -0.42742,-0.3897548 -0.56406,-0.6386718 -0.12562,-0.228786 -0.14376,-0.5015042 -0.2172,-0.751953 -0.0677,-0.231158 -0.2236,-0.4523172 -0.20624,-0.6925782 0.0158,-0.219021 0.13924,-0.4266112 0.27694,-0.5976562 0.12774,-0.158647 0.44788,-0.1695954 0.48672,-0.3695314 0.0188,-0.09666 -0.1273,-0.1578866 -0.15078,-0.2535156 -0.0299,-0.121565 0.0637,-0.25729 0.0211,-0.375 -0.029,-0.08016 -0.10458,-0.1391354 -0.175,-0.1871094 -0.16488,-0.112248 -0.40444,-0.089766 -0.55626,-0.2191406 -0.13532,-0.115322 -0.13694,-0.3432104 -0.27186,-0.4589844 -0.1221,-0.104768 -0.33098,-0.069719 -0.44806,-0.1800781 -0.16176,-0.152507 -0.0738,-0.530853 -0.28398,-0.603125 -0.19008,-0.06534 -0.33982,0.239959 -0.53828,0.271875 -0.12034,0.01935 -0.24938,-0.00663 -0.36172,-0.053906 -0.16714,-0.07029 -0.25666,-0.290244 -0.43398,-0.328125 -0.26692,-0.05702 -0.52912,0.2279167 -0.79844,0.1835937 -0.0608,-0.01001 -0.13548,-0.039115 -0.15704,-0.096875 -0.0224,-0.06003 0.0541,-0.1196007 0.0574,-0.1835937 0.002,-0.059 -0.0464,-0.1154236 -0.0352,-0.1734375 0.0531,-0.27573797 0.4218,-0.42639085 0.4621,-0.70429685 0.01,-0.0693 -0.005,-0.15750587 -0.0602,-0.20117187 -0.0275,-0.02199 -0.0597,-0.031545 -0.0941,-0.034375 l 0,-0.002734 z m 4.12462,7.24257815 c -2e-5,0.006 -0.003,0.013452 -0.004,0.019922 l 0,0.00156 0.003,-0.021484 z"
     id="rect8"
     inkscape:connector-curvature="0" />
  <g
     id="g3356"
     transform="matrix(1.4266667,0,0,1.4266667,-35.729398,0.23425688)">
    <g
       id="s"
       style="fill:#007a3d">
      <g
         id="f">
        <g
           id="t">
          <path
             id="o"
             transform="matrix(0.95105652,0.30901699,-0.30901699,0.95105652,17.166747,-14.386574)"
             d="m 54,47 0,13 8,0"
             inkscape:connector-curvature="0" />
          <use
             id="use14"
             transform="scale(-1,1)"
             x="-108"
             xlink:href="#o"
             y="0"
             width="100%"
             height="100%" />
        </g>
        <use
           id="use16"
           transform="matrix(0.30901699,0.95105652,-0.95105652,0.30901699,94.376473,-9.8980715)"
           xlink:href="#t"
           x="0"
           y="0"
           width="100%"
           height="100%" />
      </g>
      <use
         id="use18"
         transform="matrix(0.30901699,-0.95105652,0.95105652,0.30901699,-19.750309,92.816032)"
         xlink:href="#t"
         x="0"
         y="0"
         width="100%"
         height="100%" />
      <use
         id="use20"
         transform="matrix(-0.80901699,0.58778525,-0.58778525,-0.80901699,132.95403,76.800616)"
         xlink:href="#f"
         x="0"
         y="0"
         width="100%"
         height="100%" />
    </g>
    <use
       id="use22"
       x="72"
       xlink:href="#s"
       y="0"
       width="100%"
       height="100%" />
  </g>
</svg>
