<?xml version="1.0" encoding="UTF-8" standalone="no"?>
<svg
   xmlns:dc="http://purl.org/dc/elements/1.1/"
   xmlns:cc="http://creativecommons.org/ns#"
   xmlns:rdf="http://www.w3.org/1999/02/22-rdf-syntax-ns#"
   xmlns:svg="http://www.w3.org/2000/svg"
   xmlns="http://www.w3.org/2000/svg"
   xmlns:sodipodi="http://sodipodi.sourceforge.net/DTD/sodipodi-0.dtd"
   xmlns:inkscape="http://www.inkscape.org/namespaces/inkscape"
   width="792.8775"
   height="974.14923"
   id="svg2"
   version="1.1"
   inkscape:version="0.91 r13725"
   sodipodi:docname="Flag_of_Lebanon.svg">
  <metadata
     id="metadata14">
    <rdf:RDF>
      <cc:Work
         rdf:about="">
        <dc:format>image/svg+xml</dc:format>
        <dc:type
           rdf:resource="http://purl.org/dc/dcmitype/StillImage" />
        <dc:title></dc:title>
      </cc:Work>
    </rdf:RDF>
  </metadata>
  <defs
     id="defs12" />
  <sodipodi:namedview
     pagecolor="#ffffff"
     bordercolor="#666666"
     borderopacity="1"
     objecttolerance="10"
     gridtolerance="10"
     guidetolerance="10"
     inkscape:pageopacity="0"
     inkscape:pageshadow="2"
     inkscape:window-width="1600"
     inkscape:window-height="837"
     id="namedview10"
     showgrid="false"
     fit-margin-top="0"
     fit-margin-left="0"
     fit-margin-right="0"
     fit-margin-bottom="0"
     inkscape:zoom="1.0108546"
     inkscape:cx="450.71018"
     inkscape:cy="676.21527"
     inkscape:window-x="-8"
     inkscape:window-y="-8"
     inkscape:window-maximized="1"
     inkscape:current-layer="svg2" />
  <path
     style="fill:#ffffff;stroke:#00a651;stroke-width:2.20000005;stroke-miterlimit:4;stroke-dasharray:none;stroke-opacity:1"
     d="m 285.56964,243.80248 c 0.27517,0.72311 0.78409,1.38822 1.59961,1.98438 0.26224,0.19202 0.6751,0.31166 0.91211,0.52343 0.6397,0.57276 1.0745,2.16264 0.91211,2.97461 -0.59142,1.25746 -2.11869,1.69153 -2.4336,3.14649 0.26115,2.90224 2.12307,4.66662 2.4336,6.99609 0.58045,4.33855 -1.6717,5.58246 -1.82422,7.86914 -0.13167,1.963 1.28176,4.87555 -0.15235,7.16992 -1.82693,0.81635 -2.1423,3.67019 -2.89062,5.24805 -0.64629,1.36389 -2.67702,3.22048 -3.95313,4.02148 -0.81636,0.51132 -1.87711,0.92244 -2.58593,1.57422 -0.48609,0.44877 -0.92914,1.06838 -1.36914,1.57422 -0.0779,0.09 -0.57561,0.63424 -0.60743,0.70117 -0.6002,1.26513 -0.79481,4.72782 -0.60937,6.11914 0.0472,0.34564 0.24105,0.70514 0.30469,1.05078 0.0856,0.45865 0.0602,0.94089 0.15234,1.39844 0.0571,0.28419 0.26629,0.58996 0.30469,0.87305 0.19531,1.46045 -0.23705,3.24968 -0.91406,4.54883 -0.2787,0.53327 -0.94266,1.14564 -1.06446,1.74804 -0.34234,1.70952 0.91211,6.67692 0.91211,8.74414 0,3.06246 -2.31699,6.10199 -1.52148,9.26758 0.65177,0.5991 1.38825,1.45969 2.1289,1.92383 1.55591,0.97656 3.32589,1.0263 4.5625,2.625 2.87591,3.72189 0.0641,6.80617 0.75977,8.56836 0.4806,1.21576 1.87619,2.1482 2.43359,3.32227 0.14594,0.30723 0.18729,0.72404 0.30469,1.04882 0.22713,0.62873 0.62614,1.26329 0.75781,1.92383 0.17556,0.87561 0.0951,1.74635 0.1543,2.62305 0.0779,1.16858 0.2347,2.3196 0.30273,3.49805 0.0669,1.15322 0.52531,2.55242 0.45508,3.67382 -0.0987,1.5965 -1.67176,2.33917 -1.97461,3.84571 -0.24907,1.23441 0.16166,2.38235 -0.30469,3.67383 -0.21725,0.60129 -0.69571,1.14675 -0.91406,1.74804 -0.26225,0.72529 -0.31994,1.54925 -0.60742,2.27344 -0.24688,0.62434 -0.76837,1.26438 -0.91211,1.92383 -0.0647,0.29516 0.0198,0.7372 0,1.04883 -0.12948,2.09685 -0.23914,4.03255 -1.2168,5.94726 -1.03032,0.53436 -2.51919,2.39487 -3.80078,3.14649 0.10753,0.56179 0.2544,2.10819 0.15235,2.625 -0.12179,0.60898 -1.1967,2.03601 -1.52149,2.62304 -0.92279,1.66893 -2.42938,5.4705 -2.28125,7.34571 0.0154,0.18215 0.27506,0.66895 0.30469,0.87304 0.10095,0.70114 -0.0485,1.38115 0.15234,2.09766 l -0.60937,0.69922 -1.21484,0.34961 -0.45899,1.05078 c 0.38404,1.32109 1.12006,2.95432 1.36914,4.19531 0.1591,0.78893 0.20594,1.64712 0.30469,2.44922 l 0.75976,0.17578 0.75977,-0.35156 c 0.71871,1.52518 2.09899,1.61375 3.34766,2.27539 0.31492,0.16679 3.0178,2.19599 3.19336,2.44726 0.33686,0.48389 0.47033,1.21588 0.75781,1.74805 0.97546,1.79401 1.11429,3.45669 0.45703,5.42188 -0.31162,0.93486 -1.97569,3.67058 -2.73828,4.19726 -0.45646,0.31601 -1.16518,0.60618 -1.66992,0.875 -3.1974,1.69636 -3.52997,-1.2757 -6.69336,-0.34961 -1.51751,1.5592 -1.08738,6.3465 -4.86524,6.29492 -0.62104,0.89646 -2.62116,1.25582 -3.65039,2.09961 -0.81745,1.18942 0.49228,2.96395 -0.60937,4.19727 0.34893,0.80428 1.12144,2.09376 0.91406,2.97266 -0.22494,0.46743 -1.04747,1.37804 -1.52149,1.57226 -0.11959,0.0494 -3.32889,0.48809 -3.65039,0.52539 -0.57606,1.94873 1.03397,3.69041 -0.30468,5.42188 -0.43671,0.56619 -0.98171,1.14827 -1.67188,1.39843 l -0.45508,0.87305 c 0.1602,0.72968 0.61079,1.41492 0.75782,2.09961 0.29626,1.3606 -0.98095,2.62422 -1.36719,3.84766 -0.18873,0.59581 -0.37827,1.65239 -0.45508,2.27344 -0.20409,1.64148 0.28015,3.27827 -0.30469,4.89453 -0.53985,1.49007 -1.54481,3.23345 -2.43359,4.54687 -0.5629,0.83391 -1.29095,1.57361 -1.82422,2.44922 -0.1602,0.26444 -0.27269,0.63166 -0.45703,0.87305 -0.41805,0.54863 -1.49596,1.5455 -1.97656,2.09961 -0.49706,0.57167 -0.60545,1.03194 -1.36914,1.39843 -0.82295,0.39391 -3.44036,1.46426 -4.25782,1.57618 -0.43561,0.0592 -0.93266,-0.0625 -1.36718,0 -0.75052,0.10753 -1.32017,0.58227 -1.97852,0.87304 -0.63092,0.27981 -3.11694,0.77713 -3.80273,0.69922 -0.20957,0 -0.71224,0.0571 -1.06446,0 -0.79332,-0.13057 -6.02728,-2.33712 -7.14648,-2.79687 -1.03801,-0.42683 -2.1595,-0.44488 -3.19531,-0.875 l -0.91211,0.34961 c -0.22603,1.02484 -0.67811,2.17165 -1.36719,2.97265 l -1.06641,0.17383 c -0.92609,-1.2004 -2.72933,-2.75212 -4.25781,-2.97266 0.0691,0.65067 -0.21881,1.84088 -0.75977,2.27539 l -1.06445,-0.35156 c -0.27431,-0.8405 -0.90708,-1.96008 -1.67187,-2.44726 l -0.76172,0 -0.75781,0.52343 c -1.49118,0.11411 -3.24452,-0.25241 -4.71485,-0.52343 l -1.82617,1.04882 c -1.04788,-0.54972 -1.61366,-1.2246 -2.88867,-1.2246 -2.25376,0 -2.13214,1.70129 -3.3457,2.0996 -0.39832,0.13057 -0.94804,0.0839 -1.36719,0.17383 -1.8017,0.38843 -2.4102,1.03553 -2.73828,2.79883 -0.13715,0.73406 -0.22073,1.58546 0.15234,2.27344 0.59142,0.25895 1.25029,0.73633 1.67383,1.22461 0.0494,0.73736 -0.0215,1.54816 -0.1543,2.27343 l 0.45703,0.87305 c 0.98424,0.67042 2.23968,0.66674 3.34571,1.05078 1.21247,0.74394 1.2761,7.44984 1.36718,8.91797 0.0746,1.20479 0.22112,2.6714 0.45703,3.84766 0.0362,0.18324 0.29701,0.73565 0.30469,0.875 0.0966,1.43521 -0.80359,2.09598 -0.60937,3.67383 0.0922,0.73736 0.57103,1.26986 0.75976,1.92382 0.48169,1.66564 -0.15234,3.26951 -0.15234,4.89454 0,1.2827 0.38259,2.5101 0.30469,3.84765 -0.0461,0.78783 -0.35407,1.66493 -0.30469,2.44727 0.0494,0.79332 0.41551,1.38247 0.30469,2.27343 -0.14155,1.14335 -0.85354,2.03253 -1.06641,3.14844 0.32698,1.09726 0.60937,2.52744 0.60937,3.67188 0,1.38803 -1.21679,3.31294 -1.21679,5.42187 0,0.78344 0.30723,1.67236 0,2.44922 -0.361,0.91292 -1.46432,1.70819 -1.82422,2.62109 -0.66274,1.67443 0.40651,4.2926 -0.45703,5.94727 -0.29297,0.56179 -1.0257,0.90577 -1.36914,1.39844 -0.78015,1.12139 -0.82514,2.94749 -1.36719,4.19726 -0.49486,1.13896 -1.80047,1.93356 -2.43359,2.97266 -0.56619,0.92828 -0.82497,1.89822 -1.51954,2.79687 -0.99192,1.28379 -2.37699,2.50681 -3.19335,3.84766 -0.5168,0.84818 -0.89404,1.7639 -1.36915,2.62305 -0.57605,1.04349 -1.63952,2.46443 -2.1289,3.49805 -0.14813,0.31161 -0.17546,0.72403 -0.30274,1.04882 -0.25786,0.65177 -0.66937,1.25341 -0.91406,1.92383 -0.2381,0.65726 -0.31116,1.47552 -0.60742,2.09766 -0.14154,0.29736 -0.43492,0.58971 -0.60938,0.875 -0.0922,0.15142 -0.37497,0.78283 -0.45507,0.875 -0.45865,0.52778 -1.01473,0.65231 -1.36914,1.39843 -0.63641,1.34305 -0.80579,6.98721 -0.60938,8.56836 0.0428,0.34344 0.24105,0.70626 0.30469,1.05079 0.0856,0.45866 0.0602,0.93977 0.15234,1.39843 0.057,0.28419 0.26628,0.59301 0.30469,0.875 0.17556,1.31561 -0.53823,2.45721 -0.45703,3.67188 0.0527,0.79002 0.41794,1.42087 0.30273,2.27344 -1.29366,1.63711 -1.78465,3.79488 -3.04101,5.41992 -1.57456,2.03651 -2.67171,1.846 -3.80078,3.14844 -1.17407,0.0845 -2.50064,-0.0179 -3.49805,-0.69922 l -1.36719,0.17578 c -0.81416,1.47142 -2.19624,2.52834 -2.73828,4.19726 0.64518,1.23771 1.54232,2.58274 1.52148,4.02344 -0.40598,0.9206 -1.30002,1.76436 -1.36914,2.79688 -0.0549,0.81526 0.35852,1.66138 0.45508,2.44921 0.1997,1.60638 -0.6665,3.11213 -0.75976,4.72071 -0.0911,1.58004 0.26512,3.16918 0.15429,4.7207 -0.0219,0.29516 -0.072,0.76988 -0.15429,1.05078 -0.1997,0.68688 -0.62049,1.43272 -0.91016,2.09766 -0.68359,0.2008 -1.19634,0.5963 -1.82617,0.875 -1.54603,0.68469 -2.44607,0.32642 -4.41016,1.39844 -0.30284,0.94145 -1.27021,1.33418 -1.52148,2.27343 -0.65616,2.45127 0.72476,4.09754 0.45703,5.94532 -0.56399,0.81087 -1.14824,1.61115 -1.67383,2.44726 0,2.72448 0.033,5.33885 -0.30273,8.04688 -0.0461,0.36648 -0.0523,0.87482 -0.1543,1.22265 -0.22164,0.76698 -0.63839,1.18584 -0.60547,2.09766 -0.64738,0.53107 -0.65384,1.15639 -1.06641,1.75 -0.78014,1.1203 -2.03645,1.54732 -2.58398,2.97266 0.0395,0.80976 0.36072,1.51083 0.45508,2.27343 0.0966,0.76588 0.0966,2.031 0,2.79688 -0.26992,2.18025 -1.52785,4.22635 -2.12695,6.29687 -0.29406,1.01386 -0.39414,2.13457 -0.76172,3.14844 -0.54972,1.5197 -1.7283,2.89089 -2.43164,4.37109 -0.14593,0.30503 -0.2705,0.77891 -0.45703,1.04883 -0.35661,0.51242 -2.48471,2.32984 -3.04102,2.625 -0.9601,0.50913 -1.94647,0.50354 -2.58398,1.57227 l -0.15235,1.22461 c 0.41147,0.69127 0.4549,1.34164 0.60742,2.09765 0.43122,2.14843 0.36486,3.53679 -0.91015,5.42188 -0.10095,0.14703 -0.55646,0.58705 -0.61133,0.70117 -0.77027,1.62284 -0.36931,4.3383 -0.60742,6.11914 -0.1569,1.16749 -0.68237,2.08764 -1.06641,3.14648 -0.63861,1.76111 -0.78992,3.7343 -1.66992,5.42188 -0.20958,0.4005 -2.8912,3.25358 -3.34766,3.67383 -0.46852,0.43013 -1.11465,0.70013 -1.51953,1.22461 -1.33866,1.73038 -1.25329,3.45469 -2.12891,4.89648 -1.14992,1.89057 -3.65616,2.18181 -4.5625,3.67188 -0.56398,0.92609 -1.45224,2.82061 -1.82421,3.84765 -0.11412,0.31052 -0.15546,0.76244 -0.30469,1.04883 l -0.60938,0.69922 c -0.10753,0.0735 -0.74447,0.27146 -0.91015,0.35156 -0.90414,0.43342 -2.52488,1.85058 -3.19531,2.62305 -0.62872,0.72419 -1.03548,1.71649 -1.67188,2.44727 -0.42464,0.48828 -0.99522,0.8498 -1.36719,1.39843 -0.42464,0.62763 -0.55844,1.09143 -1.21679,1.57422 -0.79771,0.58264 -3.09865,1.55735 -3.49805,1.92383 -0.97107,0.89097 -0.52015,2.03494 -2.28125,3.32422 -2.02334,1.4802 -3.98096,-0.17264 -5.929687,0.87304 -0.73516,0.70555 -1.05873,3.1413 -2.43359,4.54688 -0.2008,0.20519 -0.54446,0.33228 -0.76172,0.52539 -0.0347,0.0311 -0.0639,0.0676 -0.0977,0.0996 l 338.751957,0 c 2.08549,-1.90052 5.68114,-5.49833 6.30273,-6.63477 0.17556,-0.32259 0.31301,-1.28094 0.32617,-1.62109 0.0263,-0.74394 0.0647,-8.70215 0.13281,-11.91602 0.023,-0.9985 0.17394,-4.2284 -0.0488,-5.11718 -0.98314,-1.30573 -1.99007,-1.46829 -3.50977,-1.49024 -0.4817,-0.44988 -2.49247,-1.9234 -2.62305,-2.5664 0.35222,-0.58044 -0.30064,-1.72775 0,-2.57813 0.22275,-0.62982 0.97111,-1.11041 1.38477,-1.64258 1.25197,-1.61077 3.55729,-4.10777 5.53125,-4.77929 0.87891,-0.29955 1.81973,-0.50596 2.71289,-0.77149 0.97766,-0.29078 5.15454,-1.25648 6.22656,-1.45508 0.54644,-0.25676 0.30028,-3.47291 4.85938,-4.07421 1.13237,-0.14922 1.59863,0.238 2.66406,0.69336 0.64299,0.27431 3.59002,1.78631 4.21875,1.74023 0.42683,-0.0307 2.23061,-0.4515 2.62891,-0.61719 0.65177,-0.26883 3.28228,-1.59539 3.91211,-1.93554 2.12209,-1.14225 4.09966,-2.97521 6.57617,-3.25391 2.57197,-0.28968 4.22259,1.47459 5.63476,1.26172 0.50803,-0.29626 1.51971,-0.96206 1.85547,-1.4668 0.33466,-0.50254 1.85464,-3.15239 2.26172,-3.87109 0.62214,-1.10055 1.23207,-2.32892 2.12305,-3.25391 0.80648,-0.8394 8.82648,-8.26395 8.97461,-8.58984 0.69676,-0.17337 1.87342,-1.48548 2.26953,-2.07032 1.6393,-2.41287 0.98086,-3.78541 -0.16797,-6.12695 -0.28529,-0.57935 -0.4576,-1.16991 -0.71875,-1.73828 -0.47731,-1.03582 -3.08596,-3.98553 -3.98242,-4.7207 -0.42245,-0.34563 -8.35843,-6.59789 -9.84961,-7.65235 -0.65615,-0.46524 -1.43264,-0.74403 -2.125,-1.14453 -0.39611,-0.22933 -0.66581,-0.7321 -0.97852,-1.05469 -1.25965,-1.30903 -3.31523,-3.31801 -5.29687,-3.42773 -2.15611,-0.1196 -4.71885,1.12534 -6.74219,0.82031 0,0 -4.72165,-3.49659 -4.79297,-3.60742 -0.47731,-0.73735 -0.85908,-1.52619 -1.31445,-2.25586 -0.33137,-0.52998 -1.8287,-2.07939 -2.08985,-2.60937 -0.6408,-0.3204 -2.43787,-1.53508 -2.83398,-1.75782 -0.16349,-0.0922 -1.84072,-1.6135 -1.95703,-1.78906 -0.0878,-0.3577 0.003,-0.93717 0.16992,-1.25976 -0.77137,-0.3182 -1.4999,-0.6466 -2.19336,-0.73438 -3.10414,2.02553 -5.709,4.44989 -9.61523,3.13867 -1.2004,-0.40269 -2.31751,-1.10733 -3.58594,-1.23242 -1.13895,-0.11192 -2.27342,-0.0497 -3.33008,-0.55664 -2.04858,-0.98205 -7.20889,-5.14061 -5.86914,-7.85742 0.57715,-1.16967 3.91014,-2.73533 5.16211,-4.36914 0.84708,-1.10604 1.58725,-2.67368 1.95703,-4.01563 0.11082,-0.40489 0.0844,-0.87659 0.30274,-1.26172 0.29736,-0.52778 1.57336,-1.90559 2.1582,-2.25781 3.77018,-2.26803 6.61277,-1.70591 9.51172,-5.77344 1.02484,-1.43741 4.14365,-9.61212 4.32031,-11.02539 0.056,-0.44219 -0.002,-0.96414 -0.16992,-1.3789 -0.68907,-1.70075 -2.37282,-2.93725 -2.76563,-4.77735 0.0757,-0.80977 2.9607,-4.0471 3.74414,-4.80859 1.25526,-1.21796 6.65161,-3.02624 7.42188,-4.57227 0.20629,-0.41367 2.23181,-8.10124 2.32617,-8.61914 0.22494,-1.21137 0.32159,-2.67385 0.94922,-3.76562 0.0274,-0.0461 0.38972,-0.33906 0.45117,-0.39063 l 0.40625,-2.97656 c 1.4385,-1.95421 2.12602,-2.45588 3.8125,-3.9668 1.19821,-1.07421 1.77783,-3.58025 2.45703,-4.99023 0.31053,-0.64519 1.11008,-3.08616 1.76953,-3.26172 2.73217,0.14044 5.98087,3.12491 7.17579,3.05469 0.47951,-0.22055 0.73799,-0.76568 0.99804,-1.19141 0.81526,-1.33317 1.19042,-2.40476 2.25586,-3.75 0.34673,-0.43671 0.96013,-0.72687 1.38477,-1.07031 1.60528,-1.29915 3.28672,-2.95756 4.33789,-4.74609 1.18723,-2.02225 3.15241,-6.39898 3.88867,-8.57813 0.40269,-1.19601 0.41419,-2.53234 1.00781,-3.70312 0.70553,-1.39022 1.85396,-2.71674 2.69336,-4.03125 l 2.01953,-3.16211 c 0.46304,-0.72529 1.16615,-2.09275 1.75977,-2.84766 0.70444,-0.89536 3.19547,-1.59098 3.51367,-1.625 2.91761,-0.3182 3.47165,3.39647 5.49609,4.45312 0.45426,0.23591 1.1202,0.034 1.57227,-0.0977 1.64698,-0.48279 9.27688,-3.46311 9.98242,-4.12695 1.2421,-1.17187 0.20956,-4.55209 2.13086,-6.07618 0,0 3.63688,-0.80648 4.15039,-0.8789 0.55851,-0.079 1.10754,-2.8e-4 1.6836,-0.13086 0.66053,-0.14922 1.68756,-0.96116 2.13085,-0.94141 1.88508,0.0845 3.68304,0.99473 5.57032,0.0664 3.81736,-1.87851 5.24059,-11.83641 10.58203,-10.5625 3.53427,0.8427 2.96511,4.99892 3.66406,7.63672 0.22274,0.8416 1.64214,2.83466 2.16992,3.3789 0.33796,0.34893 1.93787,1.3422 2.43164,1.56055 0.69346,0.30613 1.50044,0.35718 2.24219,0.45703 1.46813,0.19641 2.94288,0.28196 4.41211,0.45313 1.9213,0.22385 6.88972,1.83758 7.92773,1.78711 1.22783,-0.0603 1.69563,-1.15181 2.91797,-1.39649 3.90734,2.0387 2.6474,3.92358 5.41797,-2.69726 0.0604,-0.14374 0.23451,-0.20791 0.33985,-0.32422 0.81197,0.0176 1.25754,0.6117 2.3164,0.42187 0.64079,-0.11411 1.14684,-0.66628 1.7207,-0.87695 0.78454,-0.28858 2.22271,0.29771 3.03907,0.37891 0.54534,0.0538 1.04362,0.16229 1.57031,0 l 0.625,-0.63868 c 0.0658,-3.76249 1.84746,-6.38223 3.25195,-9.71679 0.55521,-0.70444 2.0439,-0.21536 2.87891,-0.32618 0,0 2.61385,2.31156 3.85156,2.92383 1.30902,0.64848 5.52594,0.9864 6.84375,1.03906 1.20039,0.0483 2.25376,-0.17198 3.40039,0.32618 0.97217,0.42354 3.12159,2.80889 3.70313,3.34765 1.35292,1.25635 2.04723,2.83195 3.89062,3.54297 2.06064,0.79661 2.91284,-0.15743 4.85938,-0.42187 0.6397,-0.0878 2.93749,-0.0472 3.32812,0.0977 2.87261,1.06982 7.13269,5.53656 8.78516,5.78125 2.10015,0.31053 4.31503,-0.0455 6.43164,0.16407 1.83022,0.18215 7.48455,1.78958 8.11328,1.91796 1.51312,0.30833 3.00893,0.83221 4.49023,1.26563 3.4026,0.99741 5.0745,1.96851 7.8242,-0.94141 0.4663,-0.49267 1.3443,-1.22641 1.7207,-1.78711 0.6408,-0.95462 1.0545,-2.07569 1.8829,-2.86132 0.8131,-0.77028 2.7679,-0.83851 3.3769,-1.62305 0.01,-3.93586 1.6308,-8.55656 -1.0586,-12.00195 -0.3884,-0.49705 -2.612,-1.90286 -3.1035,-2.11133 -1.3036,-0.55192 -4.6426,-2.08917 -5.6719,-3.20508 -1.3397,-1.45387 -1.5193,-4.64836 -2.3554,-6.53125 -2.2471,-1.75781 -6.16003,-1.1094 -8.73639,-1.0293 -1.94873,0.0603 -3.89807,0.13805 -5.8457,0.21485 -1.54055,0.0603 -5.02228,-0.55917 -6.53321,-1.21094 -0.90962,-0.39391 -1.94621,-0.68447 -2.66601,-1.38672 -2.14404,-2.09795 -0.25795,-7.21754 -4.93555,-9.55469 -1.5614,-0.77905 -3.24021,-1.29964 -4.78515,-2.14453 -0.87671,-0.4795 -1.75236,-1.15018 -2.6543,-1.56055 -1.39461,-0.63641 -4.7276,-0.38424 -6.43164,-1.42773 -0.0636,-0.0384 -0.53112,-0.6855 -0.52344,-0.74805 0.29187,-2.14733 0.86361,-2.1996 1.41992,-3.86523 0.31491,-0.93816 0.12489,-2.07407 0.52539,-3.02539 0.65616,-1.56249 1.80527,-2.58722 2.65235,-3.9961 0.7626,-1.26843 6.14192,-11.14116 8.15429,-14.78515 1.86424,-3.37735 5.337,-0.98356 6.76563,-5.19922 0.80429,-2.37227 1.63418,-4.87931 2.91797,-7.05078 2.28998,-3.87002 7.02081,-5.55137 9.79687,-8.83985 0.72748,-0.86135 1.3675,-1.8362 1.90625,-2.82812 0.35332,-0.65067 1.77296,-3.99167 2.16797,-4.25391 2.45125,-1.63162 5.43395,1.07207 7.36725,-1.23437 0.6057,-0.72309 1.7578,-4.97461 1.7578,-4.97461 0.049,-0.034 0.1304,-0.11354 0.1875,-0.12891 0.9436,-0.24249 2.3447,-0.39444 3.2148,-0.8125 1.2992,-0.62433 2.5379,-1.52181 3.8535,-2.17578 0.8921,-7.14314 0.2307,-4.62574 3.3633,-11.4375 2.5665,0.25127 5.1454,0.4715 7.7031,0.81055 -0.6979,-2.68498 -1.4697,-5.35334 -2.207,-8.02735 l 4.5254,-2.43554 3.0664,2.17578 c 1.8763,-2.29876 3.6889,-5.14457 4.8223,-7.89649 1.3541,0.61885 2.8624,1.48288 4.2636,1.94922 1.4001,0.46743 3.2698,0.43505 4.5996,1.00782 1.7139,0.73955 4.5348,2.66789 6.2422,3.67187 0.327,-0.011 3.8729,-0.14756 3.9629,-0.12891 2.4622,0.50583 6.7562,2.07289 9.3106,2.85743 l 4.2988,-5.91407 5.7227,0.87696 c 0.9371,-0.92499 8.023,-15.70068 8.4882,-18.51953 0.2173,-1.31451 -1.8539,-4.78447 -2.0195,-6.66407 -0.057,-0.65067 0.6041,-4.0626 1.4961,-5.20703 0.4137,-0.53108 0.9084,-1.21774 1.4922,-1.58203 2.3964,-1.49556 4.8406,-2.72246 7.1426,-4.41992 0.6814,-0.50254 0.9526,-2.21564 1.1347,-2.94531 0.8635,-3.44978 3.1541,-3.23067 3.8399,-4.46289 0.9831,-1.76987 0.1631,-3.09606 2.3554,-4.64649 0.8877,-0.62763 2.1895,-0.89179 3.2012,-1.13867 5.2339,-1.27831 6.442,-0.47092 9.5352,-5.41406 0.6759,-1.08079 1.0723,-1.94801 0.4238,-3.13086 -0.2513,-0.45865 -2.0163,-3.42909 -2.0547,-3.73633 -0.081,-0.65396 0.4693,-1.56822 0.9707,-1.95117 1.1466,-0.87451 2.3065,-1.57367 3.5508,-2.30664 0.8724,-0.51352 1.7637,-0.92906 2.5801,-1.5918 2.0979,-1.70184 3.5431,-5.17175 4.4121,-7.70312 0.1394,-0.40599 0.1609,-0.80316 0.3398,-1.23438 l 1.9043,-4.61328 c 0.756,-1.82912 2.7384,-2.16372 4.1133,-3.25 0.9282,-0.73297 1.2718,-2.05867 2.2813,-2.59961 3.3159,-1.77646 6.5923,-1.513 9.7578,-4.58203 0.2371,-0.65177 -0.1482,-1.38662 -0.5586,-1.88477 -1.4275,-1.73367 -8.1123,-8.42122 -9.4981,-9.35937 -1.6327,-1.10384 -3.4536,-1.79578 -5.3222,-2.38282 -0.8218,-0.25785 -1.7835,-0.34351 -2.5703,-0.63867 -1.8565,-0.69785 -2.4986,-2.86591 -2.4668,-4.67968 0.037,-2.2011 0.4223,-4.36775 0.373,-6.56446 -0.022,-0.9974 -0.3135,-2.00733 -0.4473,-2.98828 -0.067,-0.48389 -0.01,-0.96827 -0.1484,-1.46094 -0.9371,-3.3203 -2.2524,-6.59043 -3.5527,-9.78125 -0.7022,-1.72599 -1.7397,-3.33746 -1.8692,-5.23242 0.058,-0.19661 0.1826,-0.40142 0.3399,-0.60742 l -480.40044,0 z"
     id="rect6"
     inkscape:connector-curvature="0" />
  <path
     style="fill:#00a651"
     d="m 375.66534,243.80248 c -10.44272,21.98922 -30.10976,37.35855 -48.90625,51.90234 -3.09233,2.70067 -10.78061,7.93167 -5.20312,11.91211 4.77858,-5.3405 17.89363,1.73222 10.27148,7.47461 -6.82786,6.39094 -16.22772,8.73056 -23.80859,14.00391 -6.71409,3.6477 -13.5234,7.45732 -18.84766,13.04101 -0.36267,8.72285 10.82221,3.89337 15.36133,7.52735 5.91099,6.31954 -2.50625,16.97362 -10.26367,14.53711 -9.91897,0.30395 -16.7706,9.03089 -20.52149,17.35742 -0.50665,0.78347 -1.04431,1.52747 -1.60742,2.24219 -0.33122,1.11598 -0.54604,2.18743 -0.48633,2.94336 0.0154,0.18215 0.27506,0.66895 0.30469,0.87304 0.10095,0.70114 -0.0485,1.38115 0.15234,2.09766 l -0.60937,0.69922 -1.21484,0.34961 -0.45899,1.05078 c 0.38404,1.32109 1.12006,2.95432 1.36914,4.19531 0.1591,0.78893 0.20594,1.64712 0.30469,2.44922 l 0.75976,0.17578 0.75977,-0.35156 c 0.71871,1.52518 2.09899,1.61375 3.34766,2.27539 0.31492,0.16679 3.0178,2.19599 3.19336,2.44726 0.33686,0.48389 0.47033,1.21588 0.75781,1.74805 0.97546,1.79401 1.11429,3.45669 0.45703,5.42188 -0.0866,0.25987 -0.288,0.66699 -0.53516,1.11914 7.06995,1.92692 11.7877,8.69014 14.55664,15.16992 0.73592,8.59764 -11.95019,13.31601 -17.48437,7.06055 -4.89693,-3.07211 -9.29304,-8.70056 -9.36328,-14.58985 -0.55594,1.25336 -1.3884,2.28173 -3.14063,2.25781 -0.62104,0.89646 -2.62116,1.25582 -3.65039,2.09961 -0.81745,1.18942 0.49228,2.96395 -0.60937,4.19727 0.28145,0.64874 0.82997,1.60998 0.92578,2.41992 2.96552,4.83198 3.37238,11.50836 1.42773,16.71485 -2.18738,6.33304 -7.48979,10.79315 -11.73828,15.74023 -6.89674,6.98696 -15.91532,11.52261 -25.42578,13.68555 -9.19165,3.08606 -17.45337,8.71674 -23.48242,16.31836 -0.92365,0.92982 -1.85214,1.85848 -2.77735,2.78906 0.14802,0.29033 0.30305,0.57452 0.39258,0.88476 0.48169,1.66564 -0.15234,3.26951 -0.15234,4.89454 0,1.2827 0.38259,2.5101 0.30469,3.84765 -0.0461,0.78783 -0.35407,1.66493 -0.30469,2.44727 0.0494,0.79332 0.41551,1.38247 0.30469,2.27343 -0.14155,1.14335 -0.85354,2.03253 -1.06641,3.14844 0.32698,1.09726 0.60937,2.52744 0.60937,3.67188 0,1.38803 -1.21679,3.31294 -1.21679,5.42187 0,0.27382 0.0366,0.56147 0.0723,0.85157 8.82655,-3.29532 16.03969,-10.54948 24.48243,-14.71876 8.90165,-4.00076 19.37874,5.59345 17.20117,14.86719 -0.68884,9.02212 -9.13592,13.60095 -16.64649,16.37696 -16.71523,8.40297 -31.76195,19.67169 -45.47265,32.35546 0.0546,0.15346 0.111,0.30724 0.13867,0.45704 0.0856,0.45866 0.0602,0.93977 0.15234,1.39843 0.057,0.28419 0.26628,0.59301 0.30469,0.875 0.17556,1.31561 -0.53823,2.45721 -0.45703,3.67188 0.0527,0.79002 0.41794,1.42087 0.30273,2.27344 -1.29366,1.63711 -1.78465,3.79488 -3.04101,5.41992 -1.57456,2.03651 -2.67171,1.846 -3.80078,3.14844 -1.17407,0.0845 -2.50064,-0.0179 -3.49805,-0.69922 l -1.36719,0.17578 c -0.81416,1.47142 -2.19624,2.52834 -2.73828,4.19726 0.64518,1.23771 1.54232,2.58274 1.52148,4.02344 -0.40598,0.9206 -1.30002,1.76436 -1.36914,2.79688 -0.0549,0.81526 0.35852,1.66138 0.45508,2.44921 0.0131,0.105 0.0112,0.2083 0.0156,0.3125 18.98591,-3.61744 36.8697,-11.85656 53.91601,-20.82421 7.18088,-3.43329 13.92502,-7.95133 21.39063,-10.6875 7.01255,-1.7324 16.79025,1.31577 18.04492,9.29687 -0.01,8.42512 -8.35649,13.0914 -14.9668,16.38281 -20.38472,10.70985 -42.75716,16.63058 -64.54492,23.71094 -8.15657,-2.28038 -14.30133,12.23056 -5.35351,14.83984 9.46167,3.24451 19.52078,0.64401 29.19921,0.21875 29.92681,-4.58495 56.09991,-20.77811 84.07422,-31.24609 11.6299,-3.79095 25.35815,1.49897 31.09766,12.39648 5.76631,9.71357 5.23904,22.48653 -0.84375,31.92383 -9.61295,20.56636 -24.22646,39.46779 -43.8457,51.29297 -12.31503,6.0969 -26.68964,8.43115 -37.24414,17.76563 -9.76135,3.21767 4.89334,16.40636 7.01171,5.9375 5.86566,-8.0001 16.21155,-10.3902 25.59571,-10.72071 14.10309,-1.53526 29.07885,-4.13713 40.03711,-13.90039 9.82421,-7.62882 19.50556,-18.15216 32.8457,-18.3164 7.37248,0.87428 14.66438,6.79834 22.15234,3.18359 6.55025,-2.99819 16.82809,-1.24248 18.53907,6.8125 3.12795,9.42277 12.84089,13.70944 20.54296,18.75195 2.78788,3.91489 12.05123,14.01315 14.1875,5.11133 -1.7238,-6.34908 0.73968,-16.06499 9.06836,-13.94336 3.54152,0.15813 7.00038,0.87622 10.45704,1.6211 -0.22394,-0.24343 -0.38636,-0.46559 -0.41993,-0.63086 0.35222,-0.58044 -0.30064,-1.72775 0,-2.57813 0.22275,-0.62982 0.97111,-1.11041 1.38477,-1.64258 1.25197,-1.61077 3.55729,-4.10777 5.53125,-4.77929 0.87891,-0.29955 1.81973,-0.50596 2.71289,-0.77149 0.97766,-0.29078 5.15454,-1.25648 6.22656,-1.45508 0.16129,-0.0758 0.2646,-0.42287 0.43164,-0.87109 -9.56115,-9.81268 -17.37405,-21.81848 -18.94922,-35.66406 -1.64688,-10.64707 -1.547,-21.43932 -0.67968,-32.16406 -0.35181,-0.81089 -0.44222,-1.60597 -0.0977,-2.30469 0.0684,-0.13864 0.18059,-0.28242 0.31836,-0.43164 0.36836,-3.96785 0.831,-7.92224 1.3457,-11.85547 2.18505,-8.54154 11.86887,-13.74732 20.19532,-11.70703 0.79111,-2.09733 1.47476,-4.08524 1.55273,-4.70899 0.056,-0.44219 -0.002,-0.96414 -0.16992,-1.3789 -0.68907,-1.70075 -2.37282,-2.93725 -2.76563,-4.77735 0.0757,-0.80977 2.9607,-4.0471 3.74414,-4.80859 1.25526,-1.21796 6.65161,-3.02624 7.42188,-4.57227 0.20629,-0.41367 2.23181,-8.10124 2.32617,-8.61914 0.22494,-1.21137 0.32159,-2.67385 0.94922,-3.76562 0.0274,-0.0461 0.38972,-0.33906 0.45117,-0.39063 l 0.40625,-2.97656 c 1.4385,-1.95421 2.12602,-2.45588 3.8125,-3.9668 1.19821,-1.07421 1.77783,-3.58025 2.45703,-4.99023 0.31053,-0.64519 1.11008,-3.08616 1.76953,-3.26172 2.73217,0.14044 5.98087,3.12491 7.17579,3.05469 0.47951,-0.22055 0.73799,-0.76568 0.99804,-1.19141 0.81526,-1.33317 1.19042,-2.40476 2.25586,-3.75 0.34673,-0.43671 0.96013,-0.72687 1.38477,-1.07031 1.60528,-1.29915 3.28672,-2.95756 4.33789,-4.74609 1.18723,-2.02225 3.15241,-6.39898 3.88867,-8.57813 0.40269,-1.19601 0.41419,-2.53234 1.00781,-3.70312 0.70553,-1.39022 1.85396,-2.71674 2.69336,-4.03125 l 2.01953,-3.16211 c 0.46304,-0.72529 1.16615,-2.09275 1.75977,-2.84766 0.70444,-0.89536 3.19547,-1.59098 3.51367,-1.625 2.91761,-0.3182 3.47165,3.39647 5.49609,4.45312 0.45426,0.23591 1.1202,0.034 1.57227,-0.0977 1.64698,-0.48279 9.27688,-3.46311 9.98242,-4.12695 1.2421,-1.17187 0.20956,-4.55209 2.13086,-6.07618 0,0 3.63688,-0.80648 4.15039,-0.8789 0.55851,-0.079 1.10754,-2.8e-4 1.6836,-0.13086 0.66053,-0.14922 1.68756,-0.96116 2.13085,-0.94141 1.88508,0.0845 3.68304,0.99473 5.57032,0.0664 0.0128,-0.006 0.0244,-0.017 0.0371,-0.0234 -2.54736,-1.07232 -5.21626,-1.85358 -8.04297,-2.19922 -5.27597,-0.96076 -10.67387,-1.17129 -16.01953,-0.8125 -5.01356,-5.44845 1.66791,-13.79152 8.15039,-13.10937 6.65219,0.44808 13.26662,0.94332 19.91015,0.0176 7.42432,-0.54392 14.84223,-1.31229 22.29297,-1.36328 6.01423,4.09577 18.03349,-2.97942 12.60547,-10.04101 -5.92946,-5.19578 -14.50401,-4.7457 -21.58984,-7.41211 -12.44787,-4.08392 -25.11692,-7.38397 -37.94336,-9.97266 -8.97357,-0.53507 -7.8656,-12.34393 0.0215,-13.64648 5.16161,-1.92547 9.64679,2.03951 14.60156,2.6543 8.46204,1.81839 17.19841,1.79511 25.65625,3.63867 7.17113,-3.54005 1.62772,-14.01648 -4.85937,-14.62696 -15.30622,-5.47322 -28.53335,-15.35339 -41.46484,-24.96289 -14.27725,-10.73737 -27.23128,-23.15331 -41.6836,-33.64258 -5.24386,-3.24959 -13.83732,-4.18511 -15.2168,-11.38671 -0.48649,-6.6251 7.31003,-9.64265 12.8379,-8.09375 7.8432,2.31621 15.15275,6.34984 23.14648,8.33007 6.27156,1.06583 12.73827,2.92117 18.7832,2.13086 7.67341,-4.82131 -3.29116,-7.90337 -7.25976,-9.57617 -10.23094,-5.51779 -19.32209,-12.86838 -28.5293,-19.8789 -7.78067,-6.64144 6.60028,-9.57674 11.54688,-7.01954 8.2703,3.45989 9.21134,-8.59049 3.02929,-11.62304 -7.28411,-3.09725 -13.54746,-8.23875 -20.15234,-12.72266 -11.9338,-8.49523 -25.45058,-15.21993 -40.12109,-17.08789 -16.44785,-1.65274 -31.79965,-11.11185 -40.5254,-25.17773 -5.41101,-8.01577 -9.38188,-16.88035 -13.2207,-25.72266 z m -55.56445,92.16211 c 0.48401,-0.0245 1.00001,0.0107 1.54883,0.11328 8.47741,0.2515 7.1743,15.52908 -1.17188,14.50977 -7.59856,-0.48901 -7.63716,-14.25637 -0.37695,-14.62305 z m 82.26367,8.25 c 7.59419,-0.45792 8.98395,13.69039 1,14.375 -8.58689,1.53707 -11.76907,-15.23771 -1.75391,-14.28516 0.25778,-0.0461 0.50894,-0.0751 0.75391,-0.0898 z m -24.17383,2.05273 c 8.36264,1.64515 6.87522,16.21254 -1.56445,16.33985 -6.17477,1.37492 -12.83114,5.59011 -19.07813,2.43164 -5.08015,-5.37291 2.26286,-13.31787 7.9336,-15.06445 4.34961,-0.87676 8.3519,-2.85158 12.70898,-3.70704 z m 52.92774,0.0586 c 0.32318,-0.0106 0.64752,-0.0103 0.97265,0.004 8.05887,2.93986 5.2173,17.16768 -3.2832,16.98633 -8.03865,1.07715 -11.78316,-12.33313 -4.28711,-15.51367 2.12333,-0.75286 4.33538,-1.4022 6.59766,-1.47656 z m -89.95313,16.14258 c 5.92594,5.63943 2.42594,16.52308 -4.88086,19.125 -5.26679,2.92973 -12.44698,9.86021 -18.18359,4.1582 -3.11261,-6.96501 4.70141,-12.21019 9.29687,-16.07617 4.10133,-3.18899 8.62584,-6.08428 13.76758,-7.20703 z m 67.67774,31.45507 c 8.48433,4.00613 4.17707,19.29614 -5.13477,18.34571 -7.6478,-1.93788 -6.64867,-15.05528 1.05469,-16.10157 1.45615,-0.55731 2.79154,-1.37709 4.08008,-2.24414 z m -26.92188,1.51758 c 7.93503,3.71505 1.87711,16.95891 -6.11523,15.05078 -8.28675,-0.97317 -8.13489,-15.54375 1.0039,-14.22851 1.72202,-0.0854 3.50053,-0.12959 5.11133,-0.82227 z m 61.34961,7.10742 c 7.79194,0.0313 15.4991,7.88551 13.0293,15.83594 -3.87388,7.04405 -13.45824,7.93533 -20.32422,5.30274 -7.88398,-0.3892 -13.18768,-12.24094 -6.16406,-17.25977 2.90639,-2.19515 6.57059,-3.0974 10.14453,-3.39062 1.08714,-0.33735 2.20132,-0.49275 3.31445,-0.48829 z m -129.0918,1.99024 c 6.19527,-0.29935 11.37267,9.27039 6.02149,13.80859 -4.05091,5.95555 -14.4544,8.38857 -19.04102,1.76563 -3.8105,-6.46862 2.35155,-17.33649 10.33008,-14.79883 0.89888,-0.48904 1.80442,-0.73263 2.68945,-0.77539 z m 164.25782,37.16992 c 7.97293,-0.34923 13.17741,12.38523 6.05078,17.18359 -6.95055,6.31321 -20.46657,-2.05083 -16.8418,-11.05859 1.80149,-3.33947 5.40574,-5.55879 9.16211,-5.875 0.55331,-0.14581 1.09738,-0.22672 1.62891,-0.25 z M 363.43878,458.0681 c 0.22368,-0.003 0.45232,0.007 0.6875,0.0293 7.42323,0.94536 5.01819,13.81075 -1.8457,13.37891 -7.1365,-1.32282 -5.77581,-13.31938 1.1582,-13.40821 z m -34.05664,5.85938 c 5.27041,-0.14673 10.16543,7.93969 5.91601,12.05078 -6.03647,4.25131 -13.8655,-6.03933 -8.82617,-11.04492 0.94604,-0.66937 1.93416,-0.97869 2.91016,-1.00586 z m 56.95898,2.27148 c 7.01799,4.26425 11.18429,12.21505 12.05664,20.23829 -3.36331,7.49578 -16.35202,5.68939 -17.8164,-2.29297 -2.56826,-6.31296 -0.20141,-14.43526 5.75976,-17.94532 z m 22.44922,12.21485 c 7.06772,0.18088 3.77269,16.41072 -3.30664,10.26367 -2.50942,-2.97993 -1.16635,-7.88267 1.75195,-10.07422 0.56525,-0.14199 1.08351,-0.20151 1.55469,-0.18945 z m -127.92383,12.73437 c 5.05906,0.10071 10.27976,2.42726 11.51953,7.58203 0.69826,6.45932 -6.4046,9.81915 -11.60937,11.41993 -8.34217,2.57407 -16.50175,6.80013 -25.47266,6.23242 -6.72405,-3.84319 -9.13777,-11.70711 -11.53515,-18.56641 6.48939,-6.08432 16.04556,-4.29938 24.08984,-5.82226 2.71652,-0.13925 5.43639,-0.20608 8.15625,-0.22657 1.49715,-0.43851 3.16521,-0.65271 4.85156,-0.61914 z m 201.5586,29.53516 c 6.60264,-0.11071 12.19274,9.79231 6.59765,14.74805 -7.99968,9.20746 -23.40153,10.91676 -32.96679,3.18164 -1.14991,-8.14839 6.99068,-14.06493 14.2207,-15.23438 3.04136,-0.85916 6.06389,-2.14366 9.28711,-1.99219 0.95489,-0.46815 1.91809,-0.6873 2.86133,-0.70312 z m -175.06446,23.12109 c 7.73879,-0.24588 14.61766,7.47916 13.59571,15.15625 5.81889,5.72624 -4.484,16.3945 -10.28125,10.46485 -5.10872,-6.19017 -5.0817,-14.58779 -7.06055,-21.9961 -0.0885,-1.64557 1.12962,-3.7782 2.99609,-3.57617 0.2512,-0.0248 0.50037,-0.0409 0.75,-0.0488 z m 64.96289,3.91993 c 7.29032,0.22698 14.34858,8.41422 10.53125,15.51562 -3.23088,6.85492 -15.83278,4.55732 -15.41406,-3.38281 -0.0215,-3.79824 -0.32722,-7.69414 0.87695,-11.38281 1.29845,-0.56138 2.65581,-0.79204 4.00586,-0.75 z m -31.71093,5.91406 c 7.34233,0.29887 13.22767,9.78262 9.03125,16.31445 -8.30742,0.73856 -12.62079,-9.12151 -11.34766,-16.09961 0.78119,-0.1791 1.55686,-0.24576 2.31641,-0.21484 z"
     id="path8"
     inkscape:connector-curvature="0" />
  <path
     style="fill:#ed1c24;stroke:#ed1c24;stroke-width:2.20000005;stroke-miterlimit:4;stroke-dasharray:none;stroke-opacity:1"
     d="m 632.55792,1.1110721 c -1.32686,0.059663 -2.59478,0.385165 -3.37109,1.3359375 -0.34124,0.418055 -0.50664,1.0686687 -0.82813,1.5097657 -0.30614,0.421347 -1.39502,1.2672731 -1.58594,1.7050781 -0.35332,0.806484 -0.48215,1.7012191 -0.85742,2.5175781 -0.77356,1.680997 -1.83918,2.4089575 -1.41016,4.2753905 0.21616,0.941446 0.5545,1.988395 0.98243,2.857422 0.59032,1.197107 1.76103,2.38679 1.50976,3.80664 -0.068,0.06913 -1.14604,1.170954 -1.2832,1.3125 -0.33466,0.746134 -0.15068,1.639048 -0.37891,2.328125 -0.13496,0.408179 -0.53282,2.080473 -0.52734,2.201172 -0.37197,0.538753 -1.41451,2.065071 -1.47266,2.654297 -2.13417,0.820748 -1.06045,2.604288 -2.45508,3.511719 -2.48198,0.132768 -1.82677,1.315732 -3.47265,2.626953 l -0.71875,0.164062 c -0.84269,-0.307232 -0.93112,-1.076349 -1.58399,-1.509765 -0.63202,0.07571 -2.98719,2.100226 -3.47656,2.591797 -0.66494,0.20409 -1.69492,-0.730865 -2.45312,-0.949219 -2.47431,0.331371 -3.08218,1.701215 -4.94532,1.541015 0,0 -0.41892,-1.009371 -0.60546,-1.18164 -0.519,-0.460848 -1.66918,-0.509788 -2.3418,-0.722656 -0.91401,-1.176259 -2.82159,-2.136256 -4.23047,-1.376954 -1.41546,-0.01975 -1.91001,-1.44922 -2.86133,-1.9375 -0.24469,0.149227 -1.14047,1.982053 -1.79883,2.5625 l -2.01367,-0.28125 c 0.34673,1.268429 0.71627,1.47218 0.39258,2.941407 l -0.39258,0.125 c -0.85476,-0.557407 -1.87173,-0.454268 -2.77148,-0.78125 -0.65616,-0.239202 -1.26624,-0.910156 -2.05078,-0.8125 0,0 -0.31992,1.682675 -0.39453,2.3125 -0.26774,0.04718 -0.5604,0.03621 -0.82813,0 -0.24798,-0.24798 -0.60318,-0.466381 -0.82813,-0.71875 -1.3935,-1.571272 -1.21184,-2.324899 -3.88476,-2.283203 -0.69895,0.01097 -1.37711,0.282565 -2.08594,-0.03125 -1.2805,-0.566185 -1.81143,-1.339321 -2.80664,-2.1875 -0.69895,-0.59581 -1.64412,-0.801069 -2.48242,-1.126954 l -0.43359,-0.564453 c -0.82733,-0.0088 -2.6572,1.963147 -3.70508,0.220703 -0.46744,-0.145935 -1.95181,-0.223534 -2.26563,-0.4375 -0.36758,0.388429 -2.42563,1.117716 -2.98633,1.34375 -0.36649,0.14813 -3.05128,1.302494 -3.45507,1.5 -0.15471,0.218355 -0.41632,0.636084 -0.4668,0.908204 0,0 -0.1419,1.275348 -0.57422,1.533203 -0.34674,0.105337 -1.01692,0.274139 -1.36914,0.25 -0.98314,-0.06583 -4.73635,-1.498712 -4.46094,-3.001953 -1.40887,-0.339052 -6.70859,0.443403 -7.66211,0.185546 -0.63641,-0.421345 -0.5051,-1.394751 -2.625,-1.375 -0.37307,0.367582 -1.21389,0.695027 -1.72851,0.564454 -0.44987,-0.336858 -1.68946,-1.189453 -1.68946,-1.189454 -0.0944,-0.09327 -2.51075,-1.748661 -2.51953,-1.751953 -0.20958,-0.01536 -0.55192,0.112273 -0.68359,0.28125 -2.03103,-0.176658 -1.44169,-1.253339 -2.1582,-1.96875 0,0 -1.56769,0.340062 -2.19532,0.125 -0.66823,0.405985 -2.86984,2.223733 -3.23632,2.595703 -0.47841,0.48389 -1.08912,1.915909 -1.58399,2.21875 -0.66274,-0.07791 -1.29074,0.261588 -1.94141,0.15625 -0.45096,-0.07242 -0.78895,-0.390471 -1.18945,-0.560546 -0.69236,-0.292968 -1.76596,-0.455255 -2.51758,-0.595704 -0.29736,0.166783 -1.64491,-0.551242 -1.94336,-0.626953 l -0.71875,0.0957 c -0.18763,0.166783 -0.34381,0.544242 -0.39648,0.78125 0.0625,0.34015 -1.11523,2.376954 -1.11523,2.376954 -0.0263,0.246883 -0.68334,0.869953 -0.86329,1.03125 l -0.43359,0.0332 c -0.12179,-0.198604 -1.1241,-0.175034 -1.18555,0.03125 -0.69127,0.280897 -1.3897,-1.187919 -2.41015,-1.814453 -0.26773,0.06913 -1.16412,0.726058 -1.29688,0.810546 -0.4005,0 -0.76854,0.15353 -1.15039,0.125 -0.0208,-0.27541 -0.17969,-1.597503 -0.17969,-2.060546 -0.32808,-0.113017 -0.57474,-0.181047 -0.89843,0 -0.44878,0.859152 -1.22556,3.115893 -1.29688,3.251953 -0.34893,0.03182 -0.79947,0.343793 -1.11328,0.28125 l -0.28906,-0.3125 c 0.0329,-0.504738 -0.71594,-2.62963 -1.00781,-2.720703 -0.66274,-0.208478 -1.3711,-0.166016 -1.3711,-0.166016 0,0 -1.34895,0.66705 -1.50586,1.101562 l -0.50586,-2.28125 c -0.44988,-0.368677 -1.41158,-0.263055 -1.86914,0.0332 -0.15581,0.138254 -0.42433,1.032854 -0.82812,1.435546 -0.4806,0.11631 -0.91188,-0.156821 -1.40235,-0.125 -0.36868,0.386235 -0.66167,0.532677 -1.18945,0.501954 -0.0417,0.01207 -0.86685,1.039941 -0.89648,1.15625 -0.023,0.09766 -0.0723,1.3125 -0.0723,1.3125 -0.74174,0.335761 -2.53665,-0.985209 -3.63281,-0.96875 -0.24688,0.22384 -1.51172,-0.0625 -1.51172,-0.0625 -0.40599,0.01426 -2.26527,0.470639 -2.375,0.90625 0,0 -1.48622,0.281119 -1.69141,0.46875 -0.2809,0.128379 -0.17968,-1.96875 -0.17968,-1.96875 0,0 -1.19461,-0.0097 -1.51172,0.158203 -0.60897,0.320399 -1.3451,1.003641 -2.12305,0.5 -0.4005,-0.618853 -0.36873,-1.292068 -1.40234,-1.158203 -0.0307,-0.152519 -0.39498,-1.908599 -0.64844,-2.126954 -0.38843,-0.09436 -0.86511,-0.341907 -1.15039,-0.625 -0.12838,0.143741 -0.25728,0.319809 -0.32422,0.501954 -0.86573,-0.332469 -4.42146,-2.01115 -4.9668,-2.53125 -0.46853,-0.447681 -0.58978,-0.856459 -1.2207,-1.158204 -0.47731,-0.228229 -1.10118,-1.170186 -0.90039,-1.283203 0.0176,-0.206285 0.43359,-0.810547 0.43359,-0.810547 -0.0384,-0.127282 -0.16312,-0.263979 -0.28711,-0.314453 l -0.43359,0.0625 c 0,0 -1.26011,0.295185 -1.83398,0.408203 -0.53657,0.105337 -1.1014,0.721296 -1.64454,0.902344 -0.58155,0.194214 -3.24379,0.255529 -3.93945,0.1875 l -0.30273,-0.228515 c -0.69237,-1.181745 1.05086,-2.874258 0.33984,-3.742188 -0.95132,-0.319302 -1.75367,-0.24559 -2.3418,-0.427734 -1.70075,-0.525586 -0.46424,-1.724362 -3.09765,-0.261719 -0.2809,0.342344 -0.45662,1.040095 -0.41602,1.474609 0.91072,0.963391 0.90222,3.309427 -0.082,3 l -3.00586,0.453125 c 1.03252,2.292169 1.49322,4.837155 2.41602,7.169922 0.39501,1.001796 0.99826,1.948675 1.36914,2.97461 0.12399,0.341247 0.17191,0.71197 0.30468,1.048828 0.11411,0.285287 0.37169,0.584469 0.45508,0.873047 0.10973,0.377457 0.0426,0.847152 0.15235,1.224609 0.0834,0.288578 0.34292,0.589713 0.45703,0.875 0.49816,1.261845 1.84057,6.263392 2.12695,7.695312 0.41586,2.069426 0.33743,4.045085 0.45703,6.121094 0.0735,1.28379 0.0766,2.566302 0.15235,3.845703 0.0735,1.280499 0.38242,2.562769 0.45703,3.847657 0.0505,0.869027 -0.0505,1.754019 0,2.623046 0.0494,0.867931 0.0645,3.068143 0.15234,3.673829 0.0494,0.346733 0.23556,0.703192 0.30469,1.048828 0.37087,1.851072 0.26096,4.729577 0.15234,6.646484 -0.0922,1.585536 -0.29775,3.518792 -0.60937,5.070313 -0.14374,0.711022 -0.58531,1.395412 -0.75977,2.097656 -0.0966,0.388429 -0.0667,0.831792 -0.15234,1.224609 -0.15252,0.698953 -0.46454,1.37981 -0.60938,2.09961 -0.33466,1.670025 -1.93424,8.465923 -2.73633,9.61914 -0.48389,0.696758 -1.07362,0.671372 -1.67382,1.048828 -0.27103,0.168978 -0.4857,0.542311 -0.75782,0.699219 -3.21716,1.848877 -6.86486,-0.841791 -9.88672,0.525391 -0.53545,0.97985 -1.30071,1.432477 -2.12695,2.099613 -0.78234,0.62983 -1.34961,1.46979 -2.13086,2.09961 -1.03033,0.83062 -2.27587,1.48914 -3.3457,2.27148 -0.53765,0.39392 -0.88769,0.96832 -1.36719,1.39844 -0.21725,0.19422 -0.56115,0.32215 -0.75976,0.52734 -1.22344,1.25087 -1.59027,2.67274 -3.19336,3.84571 -0.89098,0.65177 -2.59409,1.60191 -3.34571,2.27343 -1.41217,1.26295 -0.83772,2.64397 -1.67382,3.84766 -0.17557,0.25237 -0.55239,0.46001 -0.75977,0.69922 -0.23152,0.26663 -0.3759,0.60947 -0.60742,0.875 -0.62434,0.71761 -1.55267,1.31399 -2.28125,1.92187 -0.51022,0.42684 -0.88744,0.96941 -1.36914,1.39844 -0.93705,0.8383 -2.21479,1.49595 -3.04102,2.44727 -0.22275,0.25676 -0.37346,0.6347 -0.60937,0.875 -0.1997,0.20519 -0.54057,0.33117 -0.75782,0.52539 -0.45317,0.40489 -0.94011,0.95515 -1.36914,1.39843 -0.13716,0.14155 -0.65552,0.79819 -0.75976,0.875 -1.30793,0.9579 -5.16385,1.01111 -6.84375,1.39844 -0.24469,0.056 -2.12983,0.61254 -2.28125,0.69922 -0.27212,0.15691 -0.48569,0.54231 -0.75781,0.69922 -0.27212,0.1569 -0.76027,0.24208 -1.06641,0.34961 -0.26773,0.0944 -0.64108,0.30463 -0.91211,0.34961 -1.73147,0.28419 -3.30806,-0.77033 -5.01758,-0.52344 -0.73077,0.10424 -2.99296,1.50007 -3.80273,1.74805 -1.28709,0.39391 -4.76838,0.64504 -6.08399,1.04883 -0.78454,0.2414 -1.23817,0.64082 -2.12695,0.70117 -0.82404,0.0549 -1.95703,-0.17995 -2.73828,0 -0.10424,0.023 -0.90205,0.45102 -1.06445,0.52344 -0.64189,0.28419 -1.33443,0.43673 -1.97852,0.70117 -1.32878,0.54643 -2.49048,1.69803 -3.95313,1.92187 -0.37746,0.0582 -0.8297,-0.0263 -1.21484,0 -0.44548,0.0296 -0.92695,0.17578 -1.36914,0.17578 -2.56319,0 -4.92274,-3.46293 -7.75586,-3.49804 l -0.75976,0.34961 c -0.47731,0.45866 -0.86164,1.45222 -0.91211,2.09961 0.0571,0.67261 1.02247,2.16353 1.51953,2.62109 0.23042,0.21177 0.6551,0.33556 0.91406,0.52539 0.72418,0.52997 1.47275,1.30388 2.12891,1.92383 l 0.30273,1.22265 c -0.18434,0.61556 -0.64918,1.33351 -0.75781,1.92383 -0.51242,2.74424 2.14571,4.4432 3.1914,6.64649 0.7977,1.68319 -0.11879,9.01705 -0.91211,10.84179 -0.13495,0.30833 -0.98307,1.37891 -1.21679,1.57422 -1.16419,0.97326 -2.87088,1.05719 -4.25781,1.39844 -0.84818,0.20848 -4.25718,1.65632 -5.01758,2.09961 -0.24907,0.64519 -0.65738,1.04644 -1.06446,1.57422 -2.60379,3.36748 -2.65789,3.22248 -6.6914,4.54687 -0.35222,0.49157 -0.67469,1.12435 -1.06641,1.57422 -0.56179,0.64519 -2.43954,2.18086 -3.19336,2.62305 -1.30573,0.2008 -2.44238,-0.53395 -3.80078,-0.34961 -1.70623,0.83281 -1.2664,3.38242 -3.3457,3.84766 -0.5212,-0.18325 -1.79846,-0.66411 -2.28125,-0.69922 -1.62175,-0.11631 -3.43423,1.01651 -5.01758,0.17382 -1.72598,0.71762 -3.54355,0.64286 -5.17188,1.75 -0.78453,2.28998 0.70809,4.86108 -0.30468,6.99415 -0.46084,0.97107 -2.27319,1.56506 -3.03906,2.44726 -0.63861,1.6799 0.0158,3.35396 -0.30469,5.07227 -0.17227,0.92718 -0.85176,2.08497 -0.91211,2.97265 -0.10314,1.55811 0.93086,3.12091 0.60937,4.72071 -0.17118,0.85257 -0.68307,1.14765 -0.45703,2.27343 -0.90634,0.6825 -1.07288,1.94977 -1.36914,2.97461 -2.32838,1.50763 -1.46085,4.34464 -1.97656,6.1211 -0.33027,1.14114 -1.34051,1.56199 -1.67188,2.62304 -0.98534,0.43012 -3.13879,2.26492 -4.10546,2.97266 -0.52559,0.38403 -1.14495,0.64833 -1.67383,1.04883 -5.97017,0.42903 -4.98883,-3.65591 -9.1211,-4.54688 -1.14773,-0.24798 -2.44358,-0.0265 -3.49804,0.52539 -1.09726,0.57386 -1.91718,1.97567 -3.04297,2.62305 -0.91292,0.52558 -1.99308,0.57393 -2.89063,1.22461 -2.24828,3.39162 0.82375,7.62094 -2.27929,11.19141 -1.56359,1.79731 -3.74534,2.78312 -5.47461,4.37304 -0.21616,0.1986 -0.38335,0.51708 -0.60938,0.69922 -0.75491,0.60788 -1.78627,0.96853 -2.58398,1.57422 -0.51169,1.39897 -0.65727,2.66555 -0.23047,3.78711 l 480.40042,0 c 0.9538,-1.2495 3.4708,-2.61139 4.4843,-3.35742 0.7143,-0.52668 1.3936,-1.17103 2.1309,-1.6582 0.8416,-0.55631 1.8123,-1.027 2.6934,-1.52735 0.9952,-0.56399 4.0706,-4.48815 4.4492,-5.45703 0.037,-0.0977 0.08,-0.84708 0.086,-0.97656 0.1404,-3.27311 -2.6155,-7.38105 -6.0312,-7.83203 -1.7995,-0.2381 -3.5902,0.40898 -5.4961,0.25976 -2.6641,-0.20738 -2.6255,-1.45378 -4.041,-1.78515 -2.6652,-0.62214 -3.362,1.87503 -5.3711,-1.41016 -0.4136,-0.677 -1.147,-1.87987 -0.9473,-2.75 0.4093,-1.77207 1.5595,-4.84973 0.1133,-6.40234 -3.4893,-3.74275 -5.1385,-3.70221 -6.6934,-8.51368 -0.098,-0.30285 -0.077,-0.85748 -0.1504,-1.20312 -0.2063,-0.98314 -0.5159,-1.97117 -0.8242,-2.92578 -0.6825,-2.11112 -2.4908,-3.67485 -3.9238,-5.26367 -0.6397,-0.70883 -1.1824,-1.50345 -1.832,-2.20899 -0.5728,-0.62324 -2.2398,-2.4021 -2.2442,-3.2832 0.1931,-0.9996 2.1426,-1.29192 2.6934,-2.01172 0.6771,-0.88329 1.0064,-2.20683 1.9062,-2.92774 0.7362,-0.59031 1.6161,-0.99651 2.3535,-1.62304 0.9809,-0.83062 0.5301,-0.94609 1.0118,-1.6582 0.2787,-0.41257 0.7951,-0.78064 1.121,-1.16797 1.3179,-1.56469 1.8162,-2.75868 2.6172,-4.61524 0.3895,-0.90523 0.667,-1.92341 0.8985,-2.85937 0.6265,-2.55222 1.2755,-4.21962 0.8574,-6.85742 -0.2973,-1.87851 -0.596,-2.42904 -1.2324,-4.14844 -0.9283,-2.50504 -1.1619,-2.8376 -3.8535,-3.48828 -0.8547,-0.20628 -1.6881,-0.42269 -2.5528,-0.58399 -1.3595,-0.25346 -2.4469,-0.37084 -3.6133,-1.13672 -0.2041,-0.55521 0.1016,-1.11973 -0.2265,-1.6914 -0.3302,-0.57167 -1.107,-0.71785 -1.457,-1.46289 -0.3906,-0.14484 -1.0334,-0.59849 -1.4219,-0.58204 -0.9019,0.41696 -1.5441,1.848 -1.3828,2.79493 -0.078,0.13716 -0.2574,0.36835 -0.4121,0.41992 -0.2513,-0.25346 -0.4749,-0.71046 -0.4102,-0.91016 -0.418,-0.79332 -1.2324,-2.72851 -1.2324,-2.72851 -0.4444,-0.43122 -2.2768,-1.41653 -2.4688,-1.82032 -0.2063,0.16239 -0.6581,0.1956 -0.8984,0.13086 -2.0463,-2.40957 -0.5494,-2.06687 -0.5977,-3.90039 -0.022,-0.14154 -2.9862,-3.33202 -3.4394,-3.70507 -0.6945,-0.23373 -3.0883,0.17256 -3.7774,0.52148 -0.091,-0.0713 -2.3701,0.2466 -3.0273,-0.7168 0.125,-0.69236 -3.5854,-3.8918 -4.3008,-4.2539 -1.376,0.15033 -5.7046,-1.39596 -6.5078,-1.46289 -0.1646,-0.0132 -0.5751,0.0598 -0.709,0.0312 -0.3039,-0.0647 -4.4737,-2.16648 -4.748,-2.53516 -0.3566,-0.48169 -1.0773,-2.11214 -1.2364,-2.46875 -0.406,-0.91621 -0.5005,-2.12637 -0.5214,-3.11719 -0.017,-0.85696 0.102,-2.06391 -0.1153,-2.89453 -0.7406,-2.84628 -3.5719,-0.3515 -5.582,-2.83789 l -1.1465,-1.71094 c -0.3665,-1.16089 -0.2451,-6.92236 0.2246,-8.28515 0.4158,-1.20698 1.379,-2.38262 0.9434,-3.78711 -0.8394,-1.23003 -4.4342,-0.3073 -5.6895,-0.44336 -2.7124,-0.29626 -5.1906,-2.27829 -7.8789,-2.44727 -5.0605,-0.3193 -9.0878,2.88206 -13.1465,5.39258 -0.6046,0.37417 -1.3483,0.96873 -1.9902,1.24414 -0.5355,0.22933 -1.4679,0.36563 -2.0527,0.48633 -3.7164,0.76588 -7.2995,-0.82708 -11.0137,0.48633 l -1.3047,-0.70313 c -0.1767,-0.36978 -0.3849,-0.80559 -0.623,-1.13476 -0.3303,-0.45427 -2.168,-1.86451 -2.834,-1.77344 -0.8438,0.72199 -1.42981,1.58097 -2.37894,2.18555 -1.79182,1.55811 -4.86079,1.33954 -6.96094,0.99609 -0.4411,-0.0724 -0.97224,-0.35087 -1.41992,-0.47266 -0.14922,-0.19422 -0.28658,-0.40989 -0.45117,-0.58984 -3.14803,-3.42344 -3.00358,-3.36943 -3.91211,-7.7793 -1.26404,-6.149027 2.15522,-6.022479 7.26953,-7.691406 3.56828,-1.16419 7.35815,-2.287423 10.78715,-3.802734 2.1155,-0.934863 4.062,-2.528776 6.0722,-3.669922 3.8931,-2.210972 7.976,-4.145397 11.8438,-6.392578 0.801,-0.465237 1.5468,-1.053834 2.3379,-1.541016 1.9992,-1.232219 4.7796,-2.605672 6.5254,-4.228515 0.3566,-0.332469 0.2248,-1.224656 0.1875,-1.650391 -0.4674,-5.434712 -4.3092,-5.789783 -6.2481,-10.0625 -0.4499,-0.988629 -0.9165,-2.212303 -0.9922,-3.300781 -0.04,-0.574963 0.1504,-1.231701 0.1504,-1.824219 0,-0.598005 -0.2216,-0.899011 -0.3379,-1.453125 -0.094,-0.450973 0.2243,-2.027762 0.4141,-2.458984 0.3522,-0.797706 2.1439,-2.935748 2.0605,-3.679688 -0.4894,-0.44 -0.9767,-0.803943 -1.5078,-1.183594 -0.3105,-0.634214 0.1012,-1.125616 0.4512,-1.617187 1.7556,-2.458952 5.4011,-2.467735 7.8535,-1.171875 1.5669,0.827331 4.8287,2.6247 5.4004,4.429687 0.2918,0.920598 0.325,2.011087 0.5664,2.966797 0.1437,0.570573 0.2413,1.301398 0.6055,1.792969 0.069,0.0406 0.6424,0.385995 0.6797,0.392578 0.5136,0.09107 1.1692,0.0014 1.6992,0.0332 1.1971,0.07022 7.7115,0.907521 8.9492,0.460938 0.406,-0.587033 0.9975,-1.191321 1.3223,-1.804688 0.5124,-0.966683 1.4781,-4.209032 1.623,-5.318359 0.1975,-1.505436 -0.1133,-9.123047 -0.1133,-9.123047 0.01,-0.580448 -0.2248,-1.683508 0.039,-2.199219 1.4813,-2.889076 2.1582,-3.961456 1.873,-7.197265 -0.031,-0.364289 0.057,-0.857204 -0.3261,-1.072266 -1.2333,0.392817 -2.7254,0.426398 -3.8907,0.917969 -2.5709,1.085187 -5.3212,2.759707 -7.3632,4.660156 -0.6309,0.587032 -1.1717,1.296987 -1.8125,1.873047 -0.4334,0.388429 -3.2014,2.696457 -4.0782,3.511719 -0.5683,0.529975 -0.8808,0.592082 -1.5468,0.917968 -0.1437,-0.0077 -1.8164,-0.95036 -1.8516,-0.984375 -0.4191,-0.418054 -0.7334,-1.000068 -1.1328,-1.443359 -1.4199,-1.577855 -7.2397,-5.932959 -9.5176,-6.498047 -2.188,-0.543142 -3.7066,0.976168 -5.6992,1.148438 -1.3288,-0.534353 -3.3729,-1.067332 -4.457,-1.902344 -0.8888,-0.685785 -1.8204,-1.350755 -2.6817,-2.068359 -0.7823,-0.650674 -1.4199,-1.363635 -2.2637,-1.9375 -5.3338,-3.624239 -7.2689,-6.073517 -10.82612,-11.158204 -0.65068,-0.929376 -1.41826,-1.809497 -1.93946,-2.822265 0.2008,-0.617755 -0.0653,-1.700164 0.79492,-1.966797 0,0 0.0607,-2.297206 -0.0391,-2.658203 -1.48568,-1.7918198 -2.28891,-3.8664939 -3.43555,-5.8437498 -0.26114,-0.129476 -0.52304,-0.2806582 -0.79296,-0.3925782 -4.9596,-2.060648 -3.96851,-2.0160216 -8.83594,-2.5273437 -1.01661,-0.106434 -2.40361,-0.3116165 -3.73047,-0.2519532 z M 96.216123,730.30248 c -0.71425,0.67611 -1.24037,1.53997 -2.02929,2.17383 -1.05227,0.84708 -2.32856,1.38686 -3.34571,2.27344 -0.0241,1.80609 1.23344,2.8778 1.06446,5.5957 -1.17845,1.69307 -1.65611,2.4322 -3.19336,3.84765 -0.57058,1.05228 -0.0438,2.48879 -0.30274,3.67383 -0.52888,0.4773 -0.6648,1.05632 -1.0664,1.57422 -0.51681,0.66713 -1.57294,1.40441 -1.82422,2.27344 -0.65506,2.25815 1.84056,6.21172 -0.60742,9.26758 -1.12689,0.33027 -1.68838,0.91891 -2.58594,1.57617 -0.53985,0.39391 -1.23938,0.71198 -1.82422,1.04883 l -0.45703,0.87304 c 0.44988,3.38833 0.65056,7.57261 -1.06446,10.66797 -0.46194,0.83611 -1.40414,1.52314 -1.67187,2.44922 -0.46523,1.60419 0.62399,3.3575 0.30469,5.07031 -0.0219,0.11192 -0.39448,0.7137 -0.45703,0.875 -0.12837,0.32479 -0.15765,0.73807 -0.30469,1.05079 -0.57606,1.21247 -1.72961,2.40281 -1.82617,3.8457 -0.11192,1.66783 0.63708,3.26728 0.15429,5.07226 -0.30943,1.1598 -1.06445,1.46722 -1.06445,2.97266 0,1.44509 1.17198,2.76666 1.06445,4.37305 -0.14374,2.1583 -2.92966,3.28439 -3.49804,4.7207 -0.27212,0.68798 -0.17816,1.37786 -0.60938,2.09766 -4.42085,2.87481 -1.19213,4.45526 -3.04101,6.64648 -0.89317,0.60898 -1.95398,0.79163 -2.73633,1.57617 l -0.15235,1.04688 c -0.5201,0.22713 -1.12994,0.8948 -1.36914,1.39844 0,1.18833 0.11533,4.01012 -0.30273,5.07226 -0.35551,0.89975 -1.36642,1.74086 -1.82617,2.62305 -0.64739,1.2421 -0.68152,2.87945 -1.06446,4.19726 -0.0636,0.22055 -2.68348,5.29372 -2.88867,5.59766 -0.27651,0.40928 -0.87665,1.25931 -1.21679,1.57422 -0.0384,0.0362 -1.77485,1.03347 -1.82422,1.04883 -1.90265,0.58484 -4.15518,-0.84577 -5.93164,0.17578 -0.11412,0.0669 -0.61274,0.57962 -0.75977,0.69922 -0.51791,0.41696 -1.05186,0.73194 -1.52148,1.22461 l -0.15235,1.22265 c 0.88768,0.91511 3.55487,0.40296 4.86719,0.69922 0.49047,0.40708 0.97876,0.89261 1.36719,1.39844 0.34893,0.5618 0.89177,1.03632 1.21875,1.57617 0.19092,0.31381 0.27512,0.72514 0.45507,1.04883 1.31122,2.37227 3.30586,4.74347 3.6504,7.51953 0.10205,0.82733 0.0516,1.96053 0,2.79883 -0.17227,2.77716 -0.70767,5.66456 -1.2168,8.39453 -0.30064,1.61846 -0.35303,3.26706 -0.45508,4.89648 -0.0505,0.81746 -0.30098,1.49134 -0.45898,2.27149 -0.32369,1.61406 -0.24112,3.29644 -0.45508,4.89844 -0.11083,0.83281 -0.44046,2.76398 -0.75977,3.49804 -0.72638,1.66893 -3.08519,2.35127 -3.95312,4.54688 -0.42464,1.07202 -0.52252,2.04788 -0.76172,3.14844 -0.14593,0.67042 -0.59957,1.27973 -0.75977,1.92382 -0.10862,0.4389 -0.0623,0.95186 -0.15234,1.39844 -0.15033,0.75492 -1.55741,3.91837 -1.97656,4.72266 -0.58484,1.1203 -1.38699,1.37785 -2.28125,2.09765 -0.22713,0.18214 -0.38883,0.50281 -0.60938,0.69922 -0.4795,0.43012 -1.22528,0.63931 -1.67187,1.05078 -0.78673,0.722 -1.0458,2.1403 -1.06446,3.14649 l -0.75976,0.69922 c -1.62724,-0.677 -2.97841,-1.79445 -4.25781,-2.97071 l -2.58594,0 c 0.23152,1.00069 0.84628,2.33828 0.91211,3.32032 0.19971,2.99771 -3.19966,3.88598 -3.64844,6.12109 -0.22933,1.14773 0,2.81121 0,4.02148 -0.50913,0.85147 -1.71605,1.35389 -2.58398,1.75 -0.25127,1.11591 0.008,2.25464 -0.45704,3.32227 -1.22015,2.80898 -4.03985,3.33793 -4.86718,4.72266 0.43451,0.98753 0.32953,2.09704 -0.30469,2.97265 -1.16529,0.44 -2.31521,-0.27938 -3.49805,-0.34961 -2.4425,3.51232 -3.13838,3.10377 -6.99414,4.3711 -0.65397,0.21507 -1.35113,0.72138 -1.97656,0.875 -0.20958,0.0516 -0.8636501,-0.0527 -1.0644501,0 -0.72419,0.19311 -1.86193,1.39909 -2.4336,1.92578 -0.72968,3.52109 -1.29504,2.00691 -3.04297,4.02148 -0.32369,1.09506 0.0702,2.35471 0,3.49805 -0.51132,0.46195 -0.71686,1.00694 -1.0625,1.57422 -1.06982,1.75671 -1.52148,1.73699 -1.52148,4.02148 -0.009,1.22125 -0.11809,1.3192 0.33398,2.2793 2.44579,-0.39062 4.83525,-0.52644 7.39844,-0.29492 2.2548601,0.0746 4.7250601,-0.0965 6.9316401,0.2207 1.50434,0.21725 2.85755,0.62985 4.41016,0.60352 1.4813,-0.023 2.83916,-0.38201 4.3457,-0.22071 0.79331,0.0845 1.60231,0.48848 2.39453,0.54883 0.84818,0.0658 1.60592,-0.48978 2.83594,-0.21875 l 0.43945,0.38477 c 0.0823,0.88659 -0.34555,1.80908 -0.125,2.68359 0.64848,0.0417 1.50212,-0.96015 2.01563,-1.20703 0.75931,-0.36319 2.17721,-0.5937 3.02539,-0.65625 0.5607,-0.72309 1.44272,-0.86695 2.20312,-1.25977 0.79551,-0.41147 1.59687,-1.02078 2.33204,-1.5332 l 2.70898,-0.11133 c 1.20698,0.58594 1.9916,1.90518 3.27539,2.41211 1.96079,-0.65506 3.37406,1.35592 4.47461,2.6836 0.68798,0.0132 3.77515,-1.54885 4.85156,-1.85938 0.62105,0.33357 1.70021,0.49059 2.39258,0.38086 0.34563,-1.99262 -0.99413,-3.71116 0.56836,-5.64453 0.42464,-0.52558 1.08241,-0.99024 1.57617,-1.47852 1.94764,0.045 3.8749,0.8062 5.83789,0.74805 0.5607,-0.0165 1.41444,-0.15344 1.9082,0.23828 0.1635,0.7187 0.95256,1.6858 1.47266,2.17188 2.69486,2.52259 5.82202,0.92241 8.73633,-0.20118 l 1.00977,0.58399 c 1.17626,-0.26993 2.17854,-0.0383 3.3164,-0.16016 0.58922,-0.0625 1.07442,-0.44866 1.62305,-0.5957 1.34852,-0.3577 1.24414,-0.0781 2.41601,-0.93945 0.55521,0.11411 1.1818,-0.22606 1.69532,-0.40821 3.10523,-1.10603 3.83784,-1.0134 7.10546,-1.0957 0.2392,-0.005 0.50975,-0.2365 0.6875,-0.37695 1.49338,-1.19491 4.43817,-4.04969 6.527347,-3.85547 0.49486,0.0461 1.15353,0.66843 1.51562,0.93945 1.18943,0.88878 1.76951,2.20428 1.94727,3.60547 1.28708,-0.17995 2.84513,-0.28792 4.14648,-0.15625 1.25526,-0.80977 2.63348,-1.85976 4.03907,-2.35352 l 0.2539,0.0937 c 1.23332,1.47033 2.70877,3.59455 3.60742,5.30079 -0.24578,0.73186 -1.77431,4.14385 -1.69531,4.57617 0.39172,1.18065 1.45763,2.42624 2.12696,3.47851 0.37855,0.59471 3.9511,2.51802 4.58203,3.25977 0.22384,0.26115 1.62034,3.93596 1.80468,4.17187 0.62763,0.801 2.33327,2.11118 3.31641,2.47657 0.66275,1.2399 1.46001,2.44847 2.38281,3.51171 0.9184,0.23701 1.84049,0.90154 2.74024,1.03321 0.65725,0.0944 1.45652,0.0115 2.12695,0.0312 0.237,0.12947 0.46276,0.37573 0.65039,0.56445 3.2402,0.55741 6.58113,0.73934 9.84766,1.19141 l 2.12695,-3.79297 c 2.20658,0.0746 4.68204,0.39322 6.85352,0.21875 1.34413,-0.10972 2.80978,-0.55693 4.14843,-0.78516 4.57337,-0.77686 9.18728,-1.37766 13.7793,-2.03711 l 0.54102,-0.0625 c 0.0834,-0.14483 0.17843,-0.28827 0.25195,-0.4375 2.3569,-4.83671 4.86226,-9.62414 7.35742,-14.39062 2.91212,-0.44 5.8142,-1.05188 8.72852,-1.44141 0.8789,-0.1174 1.79297,0.0436 2.67187,0.0644 l 9.73828,0.21875 c 2.11332,0.0472 4.28921,0.43582 6.34766,0.93946 0.83172,0.20409 1.28536,0.36615 2.22461,0.32226 0.26554,-0.82733 -0.0363,-10.13923 -0.15039,-11.65234 -0.0516,-0.6803 -0.36756,-1.57956 -0.27539,-2.23242 0.0603,-0.42684 0.48543,-0.99748 0.83984,-1.22461 0.28419,-0.64628 6.97668,-0.25594 8.04102,-0.32617 0.19531,-1.05885 5.74561,-8.6194 6.23828,-10.08204 -0.38843,-0.93267 -2.03094,-2.67956 -2.66406,-3.64843 0.1185,-0.63422 0.30273,-1.26594 0.40039,-1.90235 0.0834,-0.54862 0.0249,-1.14045 0.12695,-1.68359 0.10095,-0.54314 0.34324,-1.05295 0.42773,-1.61914 0.15691,-1.06763 0.27513,-2.25399 0.55274,-3.30078 0.91401,-3.44428 2.1595,-6.86073 3.19531,-10.27539 0.12399,-0.40818 0.12083,-0.8162 0.20312,-1.22656 0.45427,-2.31192 0.91076,-4.6456 1.38477,-6.95313 0.52559,-2.56099 1.37408,-5.21297 1.71094,-7.80469 0.14594,-1.12798 -2.24333,-5.25913 -2.66797,-6.80078 -0.0636,-0.23042 0.0536,-3.73462 0.0996,-4.61133 0.12728,-2.41616 0.1043,-4.81663 0.15039,-7.23828 0.0132,-0.61556 0.0281,-1.63621 0.25195,-2.20898 1.0369,-1.05775 3.6355,-2.11125 4.60547,-3.21289 0.14045,-0.92609 0.41167,-1.85495 0.35352,-2.80078 -0.0581,-0.91511 -0.1159,-1.94096 -0.25196,-2.8418 -0.0505,-0.32699 -0.24058,-0.69245 -0.22851,-1.0293 0.0384,-1.02045 0.24043,-1.97128 0.20312,-3.01367 0.43013,-0.31272 2.32842,-1.19626 3.04493,-1.6582 l 0.45117,-0.29102 c 0.45426,-0.18434 0.9091,-0.10346 1.33593,-0.45898 0.51681,-1.00289 0.54309,-3.02184 0.82618,-3.49805 0.2414,-0.40269 0.78522,-0.63435 1.0332,-0.98438 0.26773,-0.37635 0.23101,-0.9054 0.37695,-1.3125 0.38843,-1.06982 1.93173,-1.89321 2.39258,-3.67187 0.37965,-1.46703 -0.79474,-3.75617 -0.6543,-5.4668 0.0329,-0.40379 0.52461,-1.96644 0.57618,-2.07617 0.22713,-0.48279 0.72128,-0.91494 0.98242,-1.42187 l 0.95508,-0.32618 0.45312,0.17188 c 1.45387,2.2823 2.69844,1.22786 4.60547,2.16601 0.74614,0.36758 1.39248,1.07543 2.08594,1.55274 0.34893,0.2392 1.12864,0.67028 1.30859,1.04883 0.11412,0.2414 0.17677,0.64094 0.18555,0.90429 0.023,0.65177 -0.045,1.31051 0.0176,1.95899 0.0922,0.96778 0.61621,1.71484 0.52734,2.69141 -0.0439,0.49046 -0.66018,2.68736 -0.58008,2.97265 0.48827,0.2787 0.44065,0.59977 0.70508,0.91797 0.5223,0.63312 1.54552,1.62365 2.21484,2.09766 0.72749,0.51571 1.52719,0.65968 2.08789,1.44531 0.74394,1.03471 1.07976,2.48892 1.98829,3.38867 0.33685,0.33466 3.22333,1.93243 3.66992,2.07617 0.29626,0.0944 0.66931,-0.0198 0.95898,0.0449 0.57167,0.12619 1.26824,0.48113 1.89258,0.8125 1.07312,0.65068 4.69909,3.15453 4.88672,4.20899 0.24908,0.13057 0.94788,0.41494 1.24414,0.33594 0.28858,-0.15472 0.51385,-0.33462 0.75195,-0.55078 -0.31711,-0.37965 -0.50617,-0.68207 -0.75195,-1.11329 0.0395,-0.19092 0.2452,-0.44264 0.4043,-0.54687 0.2392,-0.0143 0.55051,-0.15083 0.73046,-0.30664 0.0658,-0.75052 -0.47639,-1.19273 -0.6289,-1.85547 -0.14374,-0.62215 0.31682,-2.30188 -0.0508,-2.88672 -0.31601,-0.10534 -1.06508,0.054 -1.45899,0.043 -0.31601,-0.39281 -0.55054,-1.10523 -0.45508,-1.5957 0.42354,-0.11522 0.53782,-1.33796 0.70899,-1.87891 0.18543,-0.15581 0.92969,-1.11719 0.92969,-1.11719 -0.25127,-0.0329 -0.56682,-0.24697 -0.70508,-0.46094 0.002,-0.66053 0.66953,-1.48238 0.45117,-2.22851 -0.24139,-0.82514 -1.18353,-1.86339 -1.13086,-2.73242 0.0154,-0.25347 0.18069,-0.89936 0.40234,-1.05078 1.00728,-0.69128 2.51936,-1.11008 3.64844,-1.57422 2.14513,-0.88 4.40803,-2.01886 6.51367,-2.8418 0.35222,-0.13826 0.68647,-0.16481 1.03321,-0.37109 1.75012,0.66823 6.86542,3.0253 8.27539,3.3457 1.01167,-0.7593 1.80458,-1.74281 2.69336,-2.625 1.74573,-1.73038 3.52944,-3.07095 5.68554,-4.26367 0.39941,-0.0592 1.22759,-1.02357 1.66211,-1.42188 1.49775,-1.37376 3.05253,-3.14811 4.83008,-4.15429 0.58703,-0.33357 1.31654,-0.22159 1.91016,-0.43555 0.50254,-0.17995 0.89877,-0.58607 1.35742,-0.78906 1.44509,-0.63531 6.54555,-2.90938 7.62305,-4.13282 2.4392,-2.76399 0.51757,-11.32846 5.28515,-13.64257 6.69875,-3.25118 9.96188,1.97547 13.4336,1.31054 2.04309,-0.39063 3.16153,-1.85422 5.03125,-2.51367 1.30244,-0.45975 3.33397,-0.74648 4.78125,-1.16015 0.72528,-0.20628 1.41456,-0.6272 2.11132,-0.91797 4.92558,-2.04748 9.7538,-4.25998 14.14063,-7.34766 1.32549,-0.93486 2.65723,-2.22945 3.72266,-3.45508 0.13935,-0.1602 0.27387,-0.4345 0.42968,-0.56836 1.83022,-1.55701 4.73346,-1.69381 6.33985,-3.60742 0.42244,-0.50364 0.47025,-1.01572 0.70508,-1.57422 0.09,-0.21507 0.29795,-0.4186 0.37695,-0.63476 0.47182,-1.30793 -0.50197,-4.00952 -0.22656,-5.75196 0.23152,-1.45277 1.0894,-2.96434 1.03125,-4.41601 -0.0494,-1.21137 -0.26435,-2.28292 -0.125,-3.51953 0.0647,-0.57935 0.33065,-1.17697 0.49414,-1.73438 1.93775,-6.58463 8.75589,-10.00105 14.22461,-13.26758 3.26544,-1.94983 6.73389,-3.63473 10.13867,-5.35742 0.94255,-0.47841 1.94314,-1.07429 2.93945,-1.41992 3.93696,-1.62284 12.43808,-6.61853 15.72656,-9.25195 2.37666,-1.90045 4.01696,-4.72056 6.33985,-6.64844 1.10384,-0.91621 4.66012,-3.59395 5.30859,-4.04492 1.63931,-1.14005 3.45535,-2.06832 5.0332,-3.30274 0.25251,-0.19804 0.72632,-0.6348 1.16993,-1.03906 l -338.751957,0 z"
     id="rect4"
     inkscape:connector-curvature="0" />
</svg>
