<?xml version="1.0" encoding="UTF-8" standalone="no"?>
<svg
   xmlns:dc="http://purl.org/dc/elements/1.1/"
   xmlns:cc="http://creativecommons.org/ns#"
   xmlns:rdf="http://www.w3.org/1999/02/22-rdf-syntax-ns#"
   xmlns:svg="http://www.w3.org/2000/svg"
   xmlns="http://www.w3.org/2000/svg"
   xmlns:sodipodi="http://sodipodi.sourceforge.net/DTD/sodipodi-0.dtd"
   xmlns:inkscape="http://www.inkscape.org/namespaces/inkscape"
   width="941.65875"
   height="919.25623"
   viewBox="0 0 188.33176 183.85125"
   id="svg2"
   version="1.1"
   inkscape:version="0.47 r22583"
   sodipodi:docname="ZZ1.svg">
  <metadata
     id="metadata27">
    <rdf:RDF>
      <cc:Work
         rdf:about="">
        <dc:format>image/svg+xml</dc:format>
        <dc:type
           rdf:resource="http://purl.org/dc/dcmitype/StillImage" />
      </cc:Work>
    </rdf:RDF>
  </metadata>
  <defs
     id="defs25">
    <inkscape:perspective
       sodipodi:type="inkscape:persp3d"
       inkscape:vp_x="0 : 250 : 1"
       inkscape:vp_y="0 : 1000 : 0"
       inkscape:vp_z="1000 : 250 : 1"
       inkscape:persp3d-origin="500 : 166.66667 : 1"
       id="perspective29" />
    <inkscape:perspective
       id="perspective2899"
       inkscape:persp3d-origin="0.5 : 0.33333333 : 1"
       inkscape:vp_z="1 : 0.5 : 1"
       inkscape:vp_y="0 : 1000 : 0"
       inkscape:vp_x="0 : 0.5 : 1"
       sodipodi:type="inkscape:persp3d" />
    <inkscape:perspective
       id="perspective2843"
       inkscape:persp3d-origin="0.5 : 0.33333333 : 1"
       inkscape:vp_z="1 : 0.5 : 1"
       inkscape:vp_y="0 : 1000 : 0"
       inkscape:vp_x="0 : 0.5 : 1"
       sodipodi:type="inkscape:persp3d" />
    <inkscape:perspective
       id="perspective2832"
       inkscape:persp3d-origin="0.5 : 0.33333333 : 1"
       inkscape:vp_z="1 : 0.5 : 1"
       inkscape:vp_y="0 : 1000 : 0"
       inkscape:vp_x="0 : 0.5 : 1"
       sodipodi:type="inkscape:persp3d" />
    <inkscape:perspective
       id="perspective2845"
       inkscape:persp3d-origin="0.5 : 0.33333333 : 1"
       inkscape:vp_z="1 : 0.5 : 1"
       inkscape:vp_y="0 : 1000 : 0"
       inkscape:vp_x="0 : 0.5 : 1"
       sodipodi:type="inkscape:persp3d" />
    <inkscape:perspective
       id="perspective2826"
       inkscape:persp3d-origin="0.5 : 0.33333333 : 1"
       inkscape:vp_z="1 : 0.5 : 1"
       inkscape:vp_y="0 : 1000 : 0"
       inkscape:vp_x="0 : 0.5 : 1"
       sodipodi:type="inkscape:persp3d" />
    <inkscape:perspective
       id="perspective3637"
       inkscape:persp3d-origin="0.5 : 0.33333333 : 1"
       inkscape:vp_z="1 : 0.5 : 1"
       inkscape:vp_y="0 : 1000 : 0"
       inkscape:vp_x="0 : 0.5 : 1"
       sodipodi:type="inkscape:persp3d" />
    <inkscape:perspective
       id="perspective3672"
       inkscape:persp3d-origin="0.5 : 0.33333333 : 1"
       inkscape:vp_z="1 : 0.5 : 1"
       inkscape:vp_y="0 : 1000 : 0"
       inkscape:vp_x="0 : 0.5 : 1"
       sodipodi:type="inkscape:persp3d" />
  </defs>
  <sodipodi:namedview
     pagecolor="#ffffff"
     bordercolor="#666666"
     borderopacity="1"
     objecttolerance="10"
     gridtolerance="10"
     guidetolerance="10"
     inkscape:pageopacity="0"
     inkscape:pageshadow="2"
     inkscape:window-width="1280"
     inkscape:window-height="1004"
     id="namedview23"
     showgrid="false"
     inkscape:zoom="0.5"
     inkscape:cx="678.72016"
     inkscape:cy="292.93289"
     inkscape:window-x="-8"
     inkscape:window-y="-8"
     inkscape:window-maximized="1"
     inkscape:current-layer="svg2" />
  <path
     style="fill:#002395"
     d="m 8.535,3.3912978 -0.225,0.75 -0.975,-0.225 -0.75,0.225 -0.675,-0.45 -0.675,0.45 0.225,0.45 -0.375,0.3 c 0,0 -0.75,-0.3 -1.05,-0.075 -0.3,0.225 -1.2,1.275 -1.2,1.275 l -0.15,0.975 -0.6,0.525 c 0,0 0.525,1.8 0.6,2.1 0.075,0.3 0.675,1.2000002 0.675,1.2000002 l -0.225,0.6 c 0,0 -0.45,0.75 -0.825,1.125 -0.375,0.375 -0.225,1.275 -0.225,1.275 l -1.12499999,0.75 0.59999999,0.675 c 0,0 0.825,2.85 1.2,3.225 0.375,0.375 0.225,0.675 0.075,1.35 -0.15,0.675 -0.6,1.05 -1.35,1.125 -0.74999999,0.075 -0.375,1.2 -0.375,1.2 l -0.44999999,1.125 1.04999999,3 -0.075,0.975 1.725,1.725 -1.8,1.2 -1.34999999,0.375 0.675,1.05 -0.15,0.6 c 0,0 1.49999999,2.4 1.79999999,2.85 0.3,0.45 0.675,0.75 1.2,0.975 0.525,0.225 0.375,0.825 0.375,1.2 0,0.375 0.975,0.6 0.975,0.6 0,0 0.3,-0.375 0.6,-0.825 0.3,-0.45 0.6,-0.9 0.9,-0.3 0.3,0.6 0.825,0.15 0.9,-0.3 0.075,-0.45 0.525,-0.75 0.525,-0.75 0,0 0.6,0.45 1.05,1.125 0.45,0.675 0.675,1.65 0.675,1.65 l 1.2,-0.075 c 0,0 0.225,0.825 0.375,1.125 0.15,0.3 0.225,0.75 0.45,1.2 0.225,0.45 0.825,0.525 1.125,0.9 0.3,0.375 0.525,0.45 1.125,0.375 0.6,-0.075 0.9,1.125 0.975,1.5 0.075,0.375 0.6,0.675 0.6,0.675 l 0.15,0.975 c 0,0 -0.525,0.75 -0.525,1.05 0,0.29995 -0.225,0.375 -0.975,0.375 -0.75,0 -0.45,0.75 -0.375,1.125 0.075,0.375 0.225,0.75 0.525,1.05 0.3,0.3 1.575,1.275 1.575,1.275 0,0 0.675,0.075 1.05,0.225 0.375,0.15 0.825,0.15 1.5,0.825 0.675,0.675 0.675,1.35 1.125,2.4 0.45,1.05 0.6,1.65 0.6,1.65 0,0 0.225,0.9 0.075,1.35 -0.15,0.45 0.075,1.275 0.075,1.275 l 0.6,-0.225 c 0,0 0.75,0.825 0.75,1.2 0,0.375002 -0.375,0.6 -0.75,0.6 l -1.275,0 0.15,1.2 1.575,-0.075 0.675,0.6 c 0,0 0.9,0.525 1.35,0.975 0.45,0.45 0.3,1.125 0.3,1.125 0,0 -0.45,0.825 -0.675,1.275 -0.225,0.45 -0.6,1.05 -0.6,1.8 0,0.75 0.3,2.775 0.3,2.775 l 0.9,0.15 0.6,1.5 -0.6,0.75 c 0,0 0.975,0.975 1.275,1.2 0.3,0.225 1.5,1.875 1.95,2.25 0.45,0.375 0.675,0.675 0.75,0.975 0.075,0.3 0.675,0.9 0.6,1.725 -0.075,0.825 1.05,1.125 1.95,1.425 0.9,0.3 0.45,0.375 0.45,0.75 0,0.375 0.3,0.525 0.75,0.825 0.45,0.3 2.4,0 2.4,0 l 0.675,1.125 -0.225,0.75 0,1.275 c 0,0.375 0.675,0.45 0.675,0.45 l 2.475,0.15 0.675,1.65 1.2,1.8 0.975,1.95 1.575,0.6 0.375,0.6 c 0,0 0.525,0.9 0.975,1.725 0.45,0.825 2.475,2.175 3.675,3.3 1.20006,1.125 1.425,1.65 1.2,2.625 -0.225,0.975 0.3,1.575002 0.3,1.575002 l 1.2,1.875 c 0,0 1.35,0.15 2.1,0.525 0.75,0.375 1.65,2.175 1.65,2.175 l 2.175,1.725 c 0,0 0.375,0.75 0.45,1.275 0.075,0.525 1.425,1.05 1.725,1.425 0.3,0.375 0.825,1.65 0.825,1.65 l 1.875,1.725 0.825,1.65 1.35,1.5 0.825,0.675 1.5,0.525 c 0,0 0.9,0.525 1.2,0.825 0.3,0.3 0.9,0.9 1.275,1.35 0.375,0.45 1.65,1.5 1.65,1.5 l 1.275,0.45 c 0,0 0.525,-0.525 0.825,-0.6 0.3,-0.075 0.675,-0.075 1.35,0.075 0.675,0.15 1.5,0.75 1.95,1.05 0.45,0.3 1.125,0.825 1.2,1.575 0.075,0.75 -0.15,1.8 -0.375,2.325 -0.225,0.525 -1.275,1.65 -1.275,1.65 l 0.075,0.6 0.825,2.475 c 0,0 1.875,3.6 2.025,3.9 0.15,0.3 0.75,1.65 0.75,1.65 l 1.05,1.125 c 0,0 1.2,0.15 1.95,0.375 0.75,0.225 1.5,0.825 1.8,1.125 0.3,0.3 0.975,1.65 0.825,1.95 -0.15,0.3 0.15,1.125 0.15,1.125 l 1.05,0.975 c 0,0 4.05,2.775 4.35,2.925 0.3,0.15 4.2,2.4 4.2,2.4 0,0 2.25,4.575 2.25,4.95 0,0.375 1.2,2.85 1.2,2.85 l -3.675,1.575 -0.825,0.75 -2.075,0.65625 0.16875,0.175 0.55,0.275 0.43125,0.1 0.25,0.4375 0.5125,0.3875 -0.35,0.0187 -1.09375,-0.46875 -0.725,-0.5375 -0.4125,-0.51875 -0.125,0.0375 -0.025,0.1875 -0.58125,-0.13125 -0.025,0.1125 0.30625,0.33125 3.33125,1.8 0.7625,0.8375 0.225,0.075 c 0,0 0.525,-1.45 0.825,-1.9 0.3,-0.45 0.525,-0.825 1.275,-0.675 0.75,0.15 2.85,0.525 2.85,0.525 0,0 0.675,0.45 1.125,0.975 0.45,0.525 0.525,0.6 0.525,0.6 l 1.125,-1.65 1.35,0.825 0.825,1.05 c 0,0 -0.075,1.125 0.15,1.65 0.225,0.525 0.75,1.5 0.75,1.5 l 1.2,0.675 -0.6,0.975 0.15,0.675 0.9,-0.15 1.95,0.75 c 0,0 1.05,1.425 1.8,1.425 0.75,0 0.6,0.9 0.6,0.9 l 0.525,1.05 c 0,0 1.2,-0.675 1.65,0 0.45,0.675 1.5,1.65 1.5,1.65 0,0 1.8,0.9 1.725,1.575 -0.075,0.675 -0.225,1.05 -0.225,1.05 l 1.725,0.375 0.975,1.875 0.75,-0.375 c 0,0 0.975,0.3 1.425,1.2 0.45,0.9 0.6,1.275 0.975,1.425 0.375,0.15 0.825,0.225 0.825,0.6 0,0.375 0.375,0.75 0.675,0.6 0.3,-0.15 1.275,-0.825 1.275,-0.825 0,0 1.2,0.15 1.725,0 0.525,-0.15 2.475,-0.15 2.625,0.15 0.15,0.3 0.6,0.9 0.825,1.2 0.225,0.3 0.9,1.05 0.9,1.05 l 2.09375,1.3 c 0.2584,-0.22529 0.83145,-0.37978 1.1625,-0.71875 0.36357,-0.37217 0.46465,-1.04043 1.04375,-1.18125 0.20937,-0.051 0.52255,0.16015 0.775,0.175 0.49443,0.0291 0.69346,0.45674 0.99375,0.76875 0.11758,-0.003 0.6509,-0.33945 0.725,-0.43125 0.12959,-0.50684 -0.41396,-1.44951 -0.9625,-1.4875 0.0427,-0.26025 -0.007,-0.3127 -0.0875,-0.54375 -0.0822,-0.0876 -0.10595,-0.15684 -0.13125,-0.225 -0.0831,-0.0529 -0.26525,-0.23467 -0.25625,-0.34375 0.16474,-0.27842 0.45508,-1.09678 0.79375,-1.19375 0.39952,-0.11436 0.76943,-0.39024 1.1875,-0.425 0.17998,-0.015 0.35576,0.0639 0.525,0.05 0.0523,-0.10352 -0.15995,-0.8333 -0.20625,-0.875 l -0.2375,-0.10624 c -0.0118,-0.10742 0.0257,-0.22177 -0.0125,-0.325 -0.24307,-0.12832 -0.69445,-0.40947 -0.75625,-0.65 0.0101,-0.38936 0.0811,-0.50283 -0.0563,-0.9 -0.0308,-0.0888 -0.1209,-0.36289 -0.0875,-0.44375 0.0231,-0.056 0.19854,0.0729 0.30625,0.025 0.16045,-0.33379 0.1915,-0.50996 0.44375,-0.8125 0.0469,-0.48613 0.2114,-0.77773 0.175,-1.25625 -0.14941,-0.0868 -0.30723,-0.15635 -0.4625,-0.23125 -0.13496,0.0512 -0.21135,0.2211 -0.26875,0.23125 -0.42197,0.0742 -0.66054,-0.15176 -1.05,-0.1625 -0.1251,-0.0719 -0.2416,-0.22647 -0.35625,-0.28125 -0.14531,-0.14092 -0.266,-0.3377 -0.325,-0.46875 -0.22666,0.003 -0.35761,-0.0484 -0.5875,0.0125 l -0.2125,-0.19375 c 0.0347,-0.0759 0.12095,-0.32246 0.0937,-0.4 -0.093,-0.0401 -0.34445,-0.26045 -0.35625,-0.3625 -0.41523,-0.35996 -0.90664,-4e-4 -1.025,-0.75 -0.0112,-0.0716 -0.0739,-0.18418 -0.0562,-0.25 l 0.1375,-0.15 c -0.0232,-0.10352 0.10985,-0.23711 0.0563,-0.3125 0.0997,-0.11182 0.0804,-0.0923 -0.05,-0.125 l 0.1125,-0.0688 c -0.0218,-0.10918 -0.11065,-0.12656 -0.13125,-0.1375 -0.0657,-0.0351 -0.15375,-0.14473 -0.16875,-0.21875 -0.0274,-0.13525 -4e-4,-0.53887 -0.0437,-0.6125 -0.12569,-0.0135 -0.2595,-0.14003 -0.2625,-0.26875 0.0749,-0.17793 0.26045,-0.42149 0.23125,-0.63125 -0.0243,-0.12715 -0.0867,-0.23086 -0.11875,-0.3375 -0.018,-0.1498 -0.0411,-0.34063 -0.025,-0.44375 -0.11816,-0.19532 -0.2033,-0.546 -0.3,-0.60625 0.20293,-0.19112 0.52168,-0.29824 0.7625,-0.4375 -0.75528,-0.5916 -0.45254,-1.88349 0.1875,-2.25625 0.10957,0.0366 0.29179,0.2002 0.4,0.175 0.51997,-0.28076 0.4083,-0.9461 0.0937,-1.35 0.32099,-0.15615 0.64443,-0.29531 0.9625,-0.45625 -0.0695,-0.16162 -0.19125,-0.26739 -0.24375,-0.45 -0.0875,-0.30342 -0.11866,-0.60547 -0.2375,-0.90625 -0.18135,-0.4585 -0.50146,-0.88291 -0.675,-1.3375 -0.077,-0.20156 0.0161,-2.37812 0.075,-2.60625 0.0382,-0.14834 0.1623,-0.2626 0.2125,-0.40625 0.18769,-0.53701 0.25097,-1.13282 0.41875,-1.68125 0.1498,-0.10264 0.28193,-0.26894 0.4375,-0.35 0.0293,-0.39199 0.29111,-0.91015 0.4125,-1.29375 0.34629,-0.304 0.73447,-0.55391 1.0875,-0.85 0.26992,0.0149 3.88457,0.19609 3.99375,0.1625 0.46416,-0.14277 0.9625,-0.40742 1.4125,-0.6 l 0.51875,0.0812 c -0.0951,-0.61298 -0.0973,-1.27754 -0.225,-1.875 0.1293,-0.64541 -0.23671,-3.71954 -0.3375,-4.4875 -0.0349,-0.26582 -0.16005,-0.83711 -0.13125,-1.0875 0.0397,-0.34434 0.27255,-0.77773 0.36875,-1.125 0.24404,-0.88154 0.31445,-1.82422 0.55625,-2.70625 0.85312,-0.53262 1.66816,-1.18652 2.375,-1.90625 -0.37676,-0.54024 -0.91318,-1.08018 -1.3875,-1.54375 0.65889,-0.51016 1.52744,-1.38017 2.2,-1.7875 0.87529,-0.52998 1.78252,-1.09795 2.7,-1.55 0.0787,-0.0388 0.15844,-0.0744 0.2375,-0.1125 L 31.6475,14.885048 31.635,15.241298 c 0,0 -0.525,0.525 -0.9,0.975 -0.375,0.45 -0.45,0.75 -0.45,1.35 0,0.6 -0.075,1.125 -0.075,1.125 0,0 -0.3,0.15 -0.75,0.15 -0.45,0 -2.1,0.3 -2.1,0.3 0,0 -0.6,-0.675 -0.825,-1.125 -0.225,-0.45 -1.05,-0.225 -1.425,-0.15 -0.375,0.075 -0.825,-0.075 -0.825,-0.075 0,0 -0.3,-0.525 -0.675,-0.825 -0.375,-0.3 -0.75,-0.075 -1.2,-0.3 -0.45,-0.225 -0.825,-1.65 -0.9,-2.025 -0.075,-0.375 -0.3,-0.675 -0.9,-1.2 -0.6,-0.525 -1.5,-0.9 -1.95,-0.825 -0.45,0.075 -0.525,-0.15 -0.9,-0.6 -0.375,-0.45 -0.375,-0.9 -0.3,-1.5 0.075,-0.6000002 -0.975,-2.1000002 -1.35,-2.4750002 -0.375,-0.375 -0.45,-1.125 -0.45,-1.125 l -1.5,-0.15 -0.15,-0.45 0.675,-1.05 -0.525,-0.975 c 0,0 -0.75,-0.375 -1.275,-0.75 -0.525,-0.375 -1.125,0.3 -1.5,0.525 -0.375,0.225 -0.75,0.375 -1.275,0.375 -0.525,0 -0.15,-0.6 -0.15,-0.6 l -0.375,-0.45 -1.05,0 z m 158.5625,20.5625002 0,23.34375 c 0.20013,-0.331572 0.47305,-0.667298 0.61875,-0.79375 0.50352,-0.43711 1.16787,-0.143554 1.33125,-0.53125 0.15264,-0.361866 -0.57444,-1.26528 -0.05,-1.33125 0.0973,-0.01226 0.2248,-0.0397 0.3125,0.01874 0.15723,0.0958 0.2579,0.05693 0.3375,0.0062 0.26875,-0.171142 -0.004,-0.795948 0.0875,-1.10625 0.049,-0.167432 0.30673,-0.07212 0.4125,-0.33125 0.0498,-0.122216 -0.0262,-0.23706 -0.0125,-0.35 0.005,-0.04263 0.2106,-0.3623 0.25,-0.45625 0.0772,-0.183692 -0.0516,-0.293068 -0.0125,-0.425 0.15987,-0.540136 0.58154,-0.897804 1.075,-1.1375 0.22432,-0.256982 -0.61631,-0.628808 -0.175,-1.11875 0.38584,-0.19629 1.33155,0.430664 1.25625,-0.2875 -0.0224,-0.213574 4e-4,-0.295508 0.0625,-0.51875 0.0443,-0.158008 0.41543,-0.19375 0.58125,-0.54375 -0.003,-0.04102 -0.007,-0.08765 -0.025,-0.125 0.0381,-0.36978 0.2169,-0.245848 0.35625,-0.43125 0.16699,-0.222266 -0.0825,-0.589892 0.3875,-0.90625 0.065,-0.168896 -0.28535,-0.354884 -0.13125,-0.58125 0.0997,-0.146484 0.51797,0.100976 0.70625,-0.04375 0.39013,-0.299854 -0.2561,-0.463476 -0.3,-0.75 -0.0199,-0.12959 0.3165,-0.265722 0.3125,-0.39375 -0.004,-0.133642 -0.75781,-0.427734 -0.64375,-0.9375 0.11045,-0.493506 0.52686,0.111768 0.74375,-0.2125 0.1625,-0.24292 -0.21575,-0.543798 -0.16875,-0.725 0.0542,-0.208838 0.41975,-0.184472 0.51875,-0.3875 0.0664,-0.136426 -0.0285,-0.323242 -0.0375,-0.4625 -0.007,-0.126612 0.0284,-0.260694 -0.0125,-0.3875 0.0289,-0.105908 0.4003,-0.143798 0.3875,-0.36875 -0.0669,-0.236572 -0.425,-0.477198 -0.425,-0.725 0,-0.265332 0.4117,-0.353614 0.325,-0.5375 -0.0709,-0.150098 -0.5376,-0.130224 -0.39375,-0.45625 0.0948,-0.21494 0.65371,0.119628 0.79375,-0.25 0.009,-0.02319 -0.22854,-0.698438 -0.006,-0.96875 0.20352,-0.24712 0.43067,0.383932 0.56875,0.075 0.10899,-0.243702 -0.3599,-0.59462 -0.45,-0.825 -0.16289,-0.41616 0.40575,-0.49219 0.38125,-0.8875 -0.0257,-0.41523 -0.7569,0.31905 -0.7,-0.16875 0.007,-0.0626 0.0436,-0.11299 0.0937,-0.15 0.0903,-0.0668 0.18275,-0.09492 0.25625,-0.1875 0.008,-0.10908 0.0968,-0.173 0.0937,-0.275 -0.004,-0.14722 -0.41165,-0.20098 -0.50625,-0.3125 -0.1709,-0.0559 -0.26582,0.22424 -0.50625,0.09375 -0.35947,-0.19517 -0.64492,-0.45195 -1.025,-0.6375 -0.0566,-0.0277 -0.12205,-0.05612 -0.16875,-0.1 -0.2542,-0.23935 -0.39873,-0.49361 -0.7875,-0.5625 -0.43964,-0.0779 -0.63398,-0.06609 -1.03125,0.11875 -0.0976,0.0454 -0.2957,0.19624 -0.4,0.15625 -0.31504,-0.12095 -0.77256,-0.65039 -1.11875,-0.5875 -0.6169,0.11221 -1.15987,1.14018 -1.6625,1.175 -0.91543,0.0634 -0.28819,-1.42461 -1.5,-1.7125 z m 0,24.125 0,1.425 c 0.38525,-0.370606 0.71674,-0.844892 0.35625,-1.3 -0.082,-0.10354 -0.22571,-0.104528 -0.35625,-0.125 z m 0,1.425 c -0.0813,0.07824 -0.16361,0.150224 -0.24375,0.21875 0.0798,-0.06708 0.16278,-0.140856 0.24375,-0.21875 z m -0.24375,0.21875 c -0.0801,0.06853 -0.15813,0.13359 -0.225,0.1875 0.0672,-0.05415 0.14451,-0.119828 0.225,-0.1875 z m 1.125,16.84375 c -0.40389,-0.03818 -0.6254,0.275868 -0.88125,0.46875 l 0,50.750002 c 0.21952,-0.0323 0.46398,-0.10655 0.65625,-0.075 0.23359,0.0385 0.51375,0.32 0.55625,0.325 0.37159,-0.0611 0.60283,0.11386 0.875,0.325 l 0.11875,0.006 c 1.32051,0.14453 0.68125,-0.70283 0.68125,-1.40625 0,-0.3375 0.17125,-0.75488 0.23125,-1.0875 0.0231,-0.12822 -0.0552,-0.2541 0.0375,-0.375 -0.0613,-0.2709 0.0872,-0.26553 0.0812,-0.44375 -0.009,-0.29502 -0.35292,-1.0545 0.0688,-1.11875 0.0651,0.0202 0.1754,0.11807 0.2625,0.15 0.36738,-0.79287 0.75449,-0.28633 1.01875,-0.65625 0.10664,0.0721 0.21318,0.14747 0.33125,0.2 0.2267,0.0122 0.0356,-0.42646 0.1875,-0.4375 0.19316,-0.014 0.33476,0.67373 0.525,0.78125 0.28271,0.15967 1.51669,0.0823 1.8,-0.0812 0.0424,-0.0245 0.6316,-0.75743 0.725,-0.85625 0.19444,-0.20567 0.217,-0.0597 0.3125,-0.10625 0.14512,-0.0707 0.1667,-0.28662 0.2875,-0.39375 0.1196,0.13291 0.0487,0.28906 0.0937,0.41875 0.13799,0.16914 0.47754,0.1749 0.58125,0.30625 0.0281,0.13408 -0.0235,0.25742 0.0125,0.40625 0.16201,0.67099 0.46279,-0.0776 0.9125,0.48125 -0.12324,0.16377 -0.41753,0.98115 0.025,0.525 0.0613,-0.0329 0.1461,-8e-4 0.1875,0.05 0.0293,0.0858 0.075,0.93642 0.0437,1.05 -0.10791,0.0802 -0.20557,0.17989 -0.30625,0.26875 -0.125,0.11036 0.24735,0.59824 0.30625,0.69375 0.0586,0.0951 0.24629,0.54199 0.29375,0.53125 0.16064,-0.0367 0.52636,-0.48184 0.75,-0.59375 0.0656,-0.14199 0.0178,-0.35567 0.125,-0.48125 0.1832,-0.21475 0.66015,-0.35528 0.725,-0.46875 -0.0393,-0.23574 0.17275,-0.65498 0.4,-0.73125 0.23594,-0.7041 1.9626,0.80019 2.26875,0.45 0.16895,-0.5334 0.34365,-0.42295 0.7625,-0.55 0.0737,-0.0682 0.0705,-0.18613 0.1125,-0.275 0.2,-0.42275 -0.42305,-0.25196 -0.775,-0.625 -0.13184,-0.13965 -0.1621,-0.32725 -0.25,-0.4875 -0.13837,-0.25196 -0.16611,-0.006 -0.2125,0.0625 -0.16474,-0.26123 0.16299,-1.01621 0.3,-1.275 l -0.0375,-0.1 c -0.0435,-0.0137 -0.28145,-0.10635 -0.3,-0.125 -0.17354,-0.25029 0.13906,-0.33877 -0.25625,-0.875 0.0176,-0.1083 0.48799,-0.63496 0.575,-0.475 0.0589,0.10479 -0.01,0.24766 0.0625,0.35 0.0279,0.0393 0.13916,0.013 0.175,0.006 0.2583,-0.0489 0.15273,-0.38261 0.2,-0.6 0.16484,-0.75947 0.3752,-1.49697 0.34375,-2.29375 -0.01,-0.25 -0.18623,-0.5043 -0.26875,-0.7375 -0.0658,-0.18594 -0.2841,-1.20927 -0.2875,-1.40625 -0.004,-0.24013 0.17861,-0.58056 0.1125,-0.79375 -0.0384,-0.12343 -0.14746,-0.21035 -0.19375,-0.33125 -0.14023,-0.0103 -1.00059,-0.55889 -1.04375,-0.64375 -0.0386,-0.0759 -0.0148,-0.16573 -0.0375,-0.24375 -0.18389,-0.63282 0.0493,-0.61182 -0.4875,-0.9375 -0.13203,-0.23604 -0.16836,-0.44678 -0.1875,-0.7125 -0.0175,-0.24336 -0.89541,-0.89981 -1.15,-0.9625 -0.12968,-0.032 -0.46904,0.0153 -0.5375,-0.0563 -0.0514,-0.11358 0.008,-0.42149 -0.025,-0.5875 -0.0592,-0.29053 -0.2249,-0.26719 -0.2625,-0.35 -0.0511,-0.1124 -0.0718,-0.25137 -0.18125,-0.325 -0.18985,-0.127834 -0.18623,0.18017 -0.4375,0.125 -0.14688,-0.0323 -0.26113,-0.19307 -0.4,-0.231252 -0.13564,-0.03721 -0.28819,-0.02783 -0.4125,-0.09375 -0.10985,-0.281054 -0.12685,-0.535352 -0.19375,-0.7125 -0.0483,-0.127734 -0.15937,-0.177442 -0.26875,-0.2375 -0.0995,-0.05469 -0.66935,-0.790722 -0.68125,-0.84375 -0.0427,-0.190528 0.1789,-0.416602 0.125,-0.65 -0.39844,-0.191894 -0.79824,-0.476952 -1.0125,-0.74375 -0.008,-0.07725 -0.022,-0.156446 -0.0437,-0.23125 -0.30684,-0.287012 -0.62373,-0.674512 -0.8875,-1.025 l -0.19375,-0.0875 c 0.0391,-0.07588 0.22475,-0.394728 0.21875,-0.4625 -0.0642,-0.03936 -0.984,-0.717284 -1.05,-0.80625 0.0808,-0.254394 0.26914,-0.380858 0.11875,-0.64375 -0.16719,-0.292676 -0.5752,-0.468848 -0.74375,-0.73125 -0.19776,-0.308204 -0.10655,-0.733204 -0.31875,-1.025 -0.10996,-0.151172 -0.4352,-0.306054 -0.45,-0.49375 -0.28545,-0.222168 -0.47969,-0.613672 -0.65625,-0.93125 -0.009,-0.0165 0.0526,-0.13418 -0.05,-0.25625 -0.19268,-0.229394 -0.52061,-0.262012 -0.75625,-0.43125 -0.0183,-0.03467 -0.11475,-0.24336 -0.11875,-0.275 0.0819,-0.0333 0.0923,-0.13164 0.13125,-0.2 0.32989,-0.575684 -0.45,-1.145116 -0.675,-1.5875 -0.18115,-0.35625 -0.47195,-2.058398 0.025,-2.2375 0.59033,-0.212792 0.80693,0.904296 1.6,1.09375 0.49336,0.11777 1.22373,-0.04023 1.5875,0.1125 0.47803,0.200782 1.16211,0.896582 1.38125,0.9625 0.29786,0.08975 0.78321,-0.03467 0.9375,0.05625 0.22175,0.130664 0.0613,0.302442 0.19375,0.46875 0.23604,0.296484 1.0831,0.919336 1.43125,0.9875 0.38144,0.07471 0.57363,-0.490724 0.775,-0.5125 0.0883,-0.0097 0.70214,0.545996 0.93125,0.60625 0.53779,0.14121 1.00157,-0.04814 1.55,-0.01875 0.3044,0.0164 0.592,0.175098 0.9,0.20625 0.63633,0.06436 1.25752,0.06709 1.9,0.04375 0.0921,-0.0034 0.57841,0.0035 0.64375,-0.025 0.23056,-0.100878 0.3545,-0.949512 0.65625,-1.24375 0.43428,-0.423438 1.25801,-0.62246 1.30625,-0.74375 0.14864,-0.374414 -0.2999,-0.684472 -0.175,-0.9125 0.32275,-0.264356 0.77657,-0.19287 1.14375,-0.31875 0.20879,-0.07148 0.18291,-0.309376 0.38125,-0.4125 0.45772,-0.23789 1.13877,-0.01631 1.25625,-0.675 0.0583,-0.32666 -0.39961,-0.718458 -0.375,-1.0625 0.0197,-0.275196 0.63458,-0.923144 0.3125,-1.15 -0.28964,-0.203906 -0.43076,0.287012 -0.825,0.10625 -0.15391,-0.148144 -0.0233,-0.751368 -0.075,-1.00625 -0.0741,-0.365721 -0.68057,-0.558106 -0.9125,-0.24375 -0.16484,0.22334 0.17481,1.44707 -0.31875,1.45625 -0.49609,0.0091 -0.53808,-1.104492 -0.9,-1.4875 -0.52734,-0.558106 -1.51094,-0.381152 -2.1,-0.78125 -0.24707,-0.167872 -0.82051,-1.108692 -0.89375,-1.41875 -0.0708,-0.299708 0.0497,-0.661034 -0.0875,-0.93125 -0.11347,-0.223438 -0.95332,0.251758 -1.13125,-0.4125 -0.20508,-0.76582 0.97031,-0.996876 0.59375,-1.59375 -0.38428,-0.60918 -1.18789,-0.09707 -1.375,0.4 -0.19199,0.51055 -0.14727,0.7292 -0.68125,0.4125 -0.15,-0.08906 -0.88925,-0.577734 -0.975,-0.725 -0.24053,-0.413282 -0.27666,-1.692772 -0.71875,-1.825 -0.0815,-0.02441 -0.23415,-0.03974 -0.30625,0.01875 -0.0696,0.01114 -0.57197,-0.44395 -0.69375,-0.5125 -0.41582,-0.23418 -1.02969,-0.07539 -1.2,-0.35625 -0.0573,-0.09463 -0.1959,-1.083106 -0.1625,-1.1875 0.0519,-0.161816 0.24765,-0.27744 0.16875,-0.475 -0.24541,-0.613574 -0.65108,-0.29756 -0.7625,-0.825 -0.0545,-0.25752 0.271,-0.580762 0.275,-0.725 -0.29912,-0.472754 -0.17158,-0.643846 -0.675,-1.05625 -0.0637,-0.05215 -0.11035,-0.14805 -0.20625,-0.14375 -0.3185,-0.257812 0.0308,-1.304492 -0.3125,-1.51875 -0.57011,-0.35586 -0.85312,0.20625 -1.4,0.10625 -0.32461,-0.05938 -0.5665,-0.48164 -0.8,-0.44375 -0.0766,0.0124 -0.20885,0.24717 -0.29375,0.31875 -0.27735,0.23418 -1.20605,0.71113 -1.5625,0.6875 -1.4031,-0.09326 -0.78125,-1.60088 -1.3375,-1.8875 -0.1439,-0.07412 -0.26968,-0.114452 -0.38125,-0.125 z m -0.88125,51.218752 c -0.0681,0.01 -0.1388,0.0151 -0.2,0.0125 0.0631,0.003 0.12963,-0.002 0.2,-0.0125 z m -0.575,-50.643752 c 0.0339,0.01248 0.0686,0.0187 0.1,0.025 -0.0311,-0.0063 -0.0665,-0.01264 -0.1,-0.025 z m 0.1375,0.03125 c 0.0254,0.0034 0.051,0.0066 0.075,0.0062 -0.0244,4e-4 -0.049,-0.0028 -0.075,-0.0062 z"
     id="rect4" />
  <path
     style="fill:#ffffff"
     d="M 8.8475,3.3912978 5.76,13.053798 l -3.65624,0 c -0.0859,0.394234 -0.0188,0.8375 -0.0188,0.8375 l -1.12499999,0.75 0.59999999,0.675 c 0,0 0.7033,2.427162 1.10624,3.09375 l 1.11252,0.81875 -2.175,6.80625 0.10624,0.30625 -0.075,0.975 0.65,0.65 6.66876,-4.91875 8.36874,6.175 -3.19374,-9.99375 7.06249,-5.2125 c -0.1371,-0.165986 -0.32406,-0.349958 -0.58125,-0.575 -0.16228,-0.141994 -0.34617,-0.273388 -0.5375,-0.3875 l -7.925,0 -3.0875,-9.6625002 -0.2125,0 z m 18.84375,18.7000002 -3.19375,9.99375 -10.35,0 8.36875,6.175 -3.19375,9.99375 8.36875,-6.175 8.36875,6.175 -3.19375,-9.99375 8.36875,-6.175 -10.35,0 -3.19375,-9.99375 z m 18.7375,19.03125 -3.19375,9.99375 -10.35,0 8.36875,6.175 -3.19375,9.99375 8.36875,-6.175 8.36875,6.175 -3.19375,-9.99375 8.36875,-6.175 -10.35,0 -3.19375,-9.99375 z m 18.7375,19.03125 -3.19375,9.99375 -10.35,0 8.36875,6.175 -3.19375,9.99375 8.36875,-6.175 8.36875,6.175 -3.19375,-9.99375 8.36875,-6.175 -10.35,0 -3.19375,-9.99375 z m 18.7375,19.025 -3.19375,9.99375 -10.35,0 8.36875,6.18125 -3.19375,9.993752 8.36875,-6.175002 8.36875,6.175002 -3.19375,-9.993752 8.36875,-6.18125 -10.35,0 -3.19375,-9.99375 z m 18.7375,19.03125 -3.19375,9.993752 -10.35,0 8.36875,6.175 -3.19375,9.99375 8.36875,-6.175 8.36875,6.175 -3.19375,-9.99375 8.36875,-6.175 -10.35,0 -3.19375,-9.993752 z m 18.7375,19.031252 -3.19375,9.99375 -10.35,0 8.36875,6.175 -3.19375,9.99375 8.36875,-6.175 8.36875,6.175 -3.19375,-9.99375 8.36875,-6.175 -10.35,0 -3.19375,-9.99375 z m 18.7375,19.03125 -3.1875,9.9875 -10.35625,0.006 8.34375,6.18125 0.0937,0 c 0.29042,-0.23175 0.59609,-0.44209 0.88125,-0.68125 0.26992,0.0149 3.88457,0.1961 3.99375,0.1625 0.46416,-0.14277 0.9625,-0.40742 1.4125,-0.6 l 0.51875,0.0812 c -0.0951,-0.61298 -0.0973,-1.27754 -0.225,-1.875 0.1293,-0.64541 -0.23671,-3.71954 -0.3375,-4.4875 -0.0349,-0.26582 -0.16005,-0.83711 -0.13125,-1.0875 0.0397,-0.34434 0.27255,-0.77773 0.36875,-1.125 0.12202,-0.44077 0.20292,-0.89388 0.28125,-1.35 4e-4,-0.002 -4e-4,-0.004 0,-0.006 l -1.65625,-5.20625 z"
     id="path11689" />
  <path
     style="fill:#fecb00;stroke:#fecb00;stroke-width:0.42000002;stroke-miterlimit:4;stroke-opacity:1;stroke-dasharray:none"
     d="m 58.21625,0.21003781 c -0.0193,-4e-4 -0.0423,0.0036 -0.0625,0.0062 -0.3551,0.04634 -0.81715,0.564062 -0.86875,0.92499999 -0.075,0.525 0,1.2 -0.675,0.525 -0.675,-0.67499999 -0.15,0.825 -0.75,0.75 -0.6,-0.075 0.3,0.75 -0.375,0.825 -0.675,0.075 0.15,0.6 -0.225,0.9 -0.375,0.3 -0.6,0.3 -1.275,-0.075 -0.675,-0.375 -0.225,0.525 -0.225,1.2 0,0.675 -0.45,0.9 -0.45,0.9 0,0 -0.975,0.3 -1.35,0.15 -0.375,-0.15 -1.5,-0.525 -2.1,-0.9 -0.6,-0.375 -1.5,-0.675 -2.175,-0.075 -0.67504,0.6 -2.025,0.15 -2.025,0.15 0,0 -2.025,-0.675 -2.325,-1.05 -0.3,-0.375 -1.575,-1.05 -1.575,-1.05 0,0 -0.675,0.525 -1.5,0.675 -0.825,0.15 -1.2,-0.525 -1.2,-0.525 0,0 -1.2,0.375 -1.575,0.675 -0.375,0.3 -0.75,1.2 -0.9,1.5 -0.15,0.3 -0.675,1.125 -0.675,2.025 0,0.9 -0.9,1.95 -1.125,2.4000002 -0.225,0.449999 -0.975,0.449999 -2.1,0.824999 -1.125,0.375 -0.15,1.425 -0.15,1.425 l -0.825,0.9 -0.0625,1.59375 116.525,118.343753 c 0.93692,-0.45156 1.89572,-0.86351 2.8125,-1.35 -0.0215,-0.0664 0.006,-0.12765 -0.0125,-0.19375 -0.25664,-0.27881 0.12207,-0.39218 -0.65625,-1.05625 -0.009,-0.0401 0.0481,-0.18735 0.0375,-0.28125 0.16055,0.004 0.6652,-0.0748 0.7625,-0.1875 0.24199,0.0203 0.24531,-0.10085 0.38125,-0.18125 0.0765,-0.0449 0.2672,0.002 0.3625,-0.006 0.44571,-0.0349 -0.0449,-0.15515 0.7625,-0.0937 0.0804,0.006 0.16395,-0.0502 0.24375,-0.025 0.16543,0.10508 0.28624,0.16954 0.46875,-0.025 0.0184,-0.10058 0.3341,-0.3133 0.4125,-0.3 0.0492,0.008 0.1806,0.0223 0.2125,0.0687 0.1999,0.28974 0.38808,0.41338 0.63125,0.6625 0.0226,0.0665 0.10925,0.26455 0.10625,0.31875 0.0366,0.0508 0.082,0.0682 0.11875,0.10625 0.15196,0.15713 0.59482,0.78715 0.725,0.86875 0.10908,0.0685 0.30507,-0.13405 0.48125,-0.0438 0.1599,0.0819 0.17165,0.86895 0.0937,1.00625 -0.75694,0.39922 -0.32294,1.8515 -0.175,1.925 0.0896,0.0127 0.15685,-0.0383 0.23125,-0.0312 0.42744,0.0415 0.90527,0.54015 1.1,0.60625 0.28535,0.56563 0.0206,1.068 0.10625,1.1625 0.28594,0.12422 0.77646,0.88057 0.96875,0.54375 0.11962,-0.20938 0.29155,-0.42988 0.38125,-0.65 0.20332,-0.49922 0.43936,-0.98545 0.5875,-1.50625 0.087,-0.30556 0.18291,-1.12481 0.45,-1.35 0.5377,-0.45345 2.10371,-0.0637 2.21875,-0.46875 0.0352,-0.12412 -0.2763,-0.60869 -0.3375,-0.725 -0.2784,-0.52949 -0.12647,-0.45703 -0.25,-0.93125 -0.0518,-0.19863 -0.2406,-0.30146 -0.3,-0.49375 -0.0506,-0.16367 0.0416,-0.36016 -0.0375,-0.525 -0.10938,-0.22803 -0.56055,-0.1663 -0.93125,-0.7625 -0.0328,-0.0528 -0.045,-0.1151 -0.0562,-0.175 -0.13047,-0.6915 -0.24445,-0.71514 -0.34375,-1.14375 -0.0631,-0.27266 -0.0889,-0.56699 -0.13125,-0.84375 -0.008,-0.0604 -0.0238,-0.1132 -0.0125,-0.175 0.27188,-1.47207 -0.5815,-1.5541 -0.6,-2.20625 -0.0212,-0.0279 -0.0689,-0.0583 -0.10625,-0.0563 -0.069,-0.0593 -0.2459,-0.338 -0.3125,-0.4 -0.0146,-0.0802 0.0573,-0.1822 0.0187,-0.2375 -0.0703,-0.1006 -0.16875,0.10195 -0.16875,-0.0625 0,-0.1252 0.2522,-0.18295 0.175,-0.25625 -0.1013,-0.0961 -0.1531,0.16525 -0.2,0.14375 -0.0752,-0.0346 0.0888,-0.28905 -0.0812,-0.19375 -0.1476,0.0826 0.1,0.2947 -0.1,0.35 -0.0347,0.0454 -0.0754,0.2066 -0.1625,0.1625 -0.1154,-0.0995 -0.0261,-0.2809 -0.0625,-0.375 -0.0304,-0.0429 -0.29205,-0.2445 -0.30625,-0.2375 -0.0365,0.0192 -0.1108,0.1741 -0.1375,0.1625 -0.0448,-0.0195 -0.0135,-0.16125 -0.0437,-0.21875 -0.012,-0.023 -0.11235,-0.1315 -0.0937,-0.1625 0.0107,-0.0179 0.135,0.0151 0.0875,-0.0625 -0.0435,-0.071 -0.18815,0.0553 -0.23125,-0.0125 -0.0607,-0.17886 -0.10645,-0.032 -0.16875,-0.0688 -0.009,-0.0154 -0.0742,-0.171 -0.0937,-0.175 -0.0354,-0.006 -0.0673,0.15765 -0.10625,0.18125 -0.12217,0.0737 -0.22675,-0.0732 -0.6,0.16875 -0.0708,-0.0189 -0.15155,-0.15325 -0.19375,-0.15625 l -0.13125,0.0625 0,-0.15625 c -0.0805,-0.23838 0.1284,-0.22734 0.225,-0.39375 0.004,-0.007 -0.0459,-0.51005 -0.0312,-0.56875 l 0.025,-0.16875 c 0.0229,-0.11846 -0.1828,-0.21885 -0.2,-0.31875 -0.0857,-0.4998 0.33472,-0.19834 -0.05,-1.09375 -0.13896,-0.1004 -0.23935,-0.0697 -0.26875,-0.0875 -0.11709,-0.0709 -0.23272,-0.63681 -0.5625,-0.34375 0.006,0.28926 0.10135,0.62178 -0.0437,0.89375 -0.0504,0.0944 -0.52505,0.39005 -0.55625,0.30625 -0.0614,-0.28721 -0.20889,-0.53828 -0.3375,-0.8 -0.10274,-0.20918 0.1989,-0.29697 0.1375,-0.45 -0.39223,-0.16015 -0.3889,-0.25068 -0.0812,-0.58125 0.37685,-0.40485 -0.0907,-0.42595 0.8875,-0.46875 0.26504,-0.45029 0.18858,-0.1385 0.48125,-0.225 0.0803,-0.0237 0.1566,-0.096 0.2375,-0.1 0.36748,-0.41211 1.22529,-0.44912 1.33125,-0.5875 0.10045,-0.28662 -0.0506,-0.84346 -0.006,-0.98125 0.0516,-0.15918 0.4524,-0.51406 0.5125,-0.95625 0.0722,-0.0418 0.72515,-0.1084 0.74375,-0.125 0.30107,0.0441 0.3551,0.67422 0.4375,0.9125 0.0353,-0.0244 0.0731,-0.0228 0.1125,-0.0125 0.10996,-0.0299 0.11436,-0.2091 0.28125,-0.175 0.2162,0.10527 0.1744,0.38701 0.2625,0.55 0.0878,0.1625 0.396,0.32695 0.525,0.525 0.0506,0.0775 0.27475,0.34375 0.26875,0.41875 -0.0425,0.1291 -0.12,0.1415 -0.125,0.30625 -0.0114,0.34062 0.1333,0.26573 0.1625,0.5 0.0239,0.19239 -0.0907,0.40029 -0.0312,0.58125 0.0504,0.15357 0.18325,-0.0782 0.21875,-0.006 0.13711,0.51679 0.6455,-0.0557 0.675,-0.1125 0.0335,-0.0639 0.0118,-0.15815 0.0375,-0.23125 0.15528,-0.17175 0.20605,-0.17385 0.425,-0.19375 0.25654,-0.2029 0.57011,-0.16142 0.74375,-0.2625 0.0536,-0.0964 0.1144,-0.1911 0.2,-0.2625 0.0604,-0.16592 0.0735,-0.24365 0.2875,-0.26875 0.074,0.0105 0.1324,0.0645 0.1625,0.13125 0.15781,0.0228 0.33438,0.006 0.49375,0.006 0.22832,0 0.8115,0.35576 0.85,-0.1125 0.12773,-0.1251 0.34885,-0.14525 0.43125,-0.23125 0.87686,-0.91523 0.98535,-0.42855 2.06875,-0.38125 0.0612,0.003 0.13188,-0.003 0.2,-0.0125 l 0,-50.750002 c -0.23887,0.180086 -0.5074,0.25741 -0.98125,-0.15625 -0.44971,-0.39248 -0.47793,-0.915234 -0.85,-1.29375 -0.26211,-0.2667 -0.8209,-0.425294 -0.9,-0.84375 -0.0886,-0.46836 0.40244,-1.0167 0.2125,-1.3875 -0.14688,-0.286622 -0.79375,0.04346 -0.98125,-0.4125 -0.0359,-0.08721 -0.254,-0.64043 -0.25,-0.7375 0.0133,-0.08525 0.01,-0.06474 0.0312,-0.10625 0.14746,-0.2792 0.5833,-0.241894 0.35625,-0.625 -0.0423,-0.07139 -0.11345,-0.1546 -0.20625,-0.15 -0.0701,0.02285 -0.10405,0.11415 -0.18125,0.11875 -0.58169,0.03467 -0.12615,-0.897754 -0.0937,-1.06875 0.0544,-0.287402 -0.0817,-0.59453 0.075,-0.8875 0.30742,-0.574416 1.55908,-0.79746 1.7875,-1.14375 0.24755,-0.375292 -0.12881,-1.12334 0.125,-1.78125 0.01,-0.02568 -0.0145,-0.27988 -0.0125,-0.3125 0.0811,-0.989454 0.0698,-0.415038 -0.20625,-1.2625 -0.0737,-0.226562 -0.0878,-0.471094 -0.175,-0.69375 -0.10654,-0.272364 -0.2839,-0.335838 -0.3625,-0.6875 -0.0607,-0.271192 0.0827,-0.62334 0.025,-0.84375 -0.0747,-0.285546 -0.49697,-0.154688 -0.61875,-0.44375 -0.042,-0.09951 0.0676,-0.30137 0.11875,-0.38125 0.12383,-0.19336 0.2516,-0.292188 0.3125,-0.53125 0.0722,-0.28291 -0.0787,-0.53164 0.18125,-0.74375 0.34922,-0.285058 0.5582,0.18154 0.775,0.25625 0.052,0.01788 0.8897,-0.03144 0.9875,-0.05625 0.4073,-0.103124 0.0353,-0.686426 0.3625,-0.95 0.13374,-0.10782 0.30609,-0.249772 0.46875,-0.40625 l 0,-1.425 c -0.098,-0.01536 -0.18918,-0.04152 -0.2375,-0.13125 -0.0234,-0.155274 0.0874,-0.401322 0.2375,-0.65 l 0,-23.34375 c -1.01738,-0.2417 -1.05342,0.57031 -1.7125,1.0875 -0.28663,0.225 -0.64815,0.28111 -0.9875,0.3875 -0.25488,0.08 -0.33477,0.87832 -0.7375,0.96875 -0.42549,0.0956 -0.96377,0.13076 -1.325,0.4 -0.50655,0.37759 -0.30616,1.08144 -1.3,1.29375 -0.2583,0.0552 -0.53291,0.03915 -0.79375,0.08125 -0.45713,0.0736 -0.86435,0.23755 -1.33125,0.2625 -1.82861,0.07485 -5.38408,0.353032 -7.21875,-0.075 -0.44717,-0.1043 -0.97754,-0.3771 -1.4125,-0.54375 -0.0174,-0.007 -0.10165,-0.11772 -0.11875,-0.1375 -0.26016,-0.30171 -0.53868,-0.57246 -0.825,-0.85 -0.0563,-0.0547 -0.13025,-0.09712 -0.19375,-0.14375 -0.55069,-0.40527 -1.15674,-0.81968 -1.65,-1.2875 -0.13233,-0.12544 -0.22891,-0.35171 -0.35,-0.49375 -0.15118,-0.17735 -0.4127,-0.34775 -0.59375,-0.5 -0.1278,-0.573 -0.2428,-0.93047 -0.2,-1.31875 -0.075,-0.675 0.5625,-1.01875 1.6875,-0.41875 1.125,0.6 0.45,-1.05 0.15,-1.5 -0.3,-0.45 -0.45,-1.050001 -0.15,-1.500001 0.3,-0.45 0.375,-0.75 0,-1.125 -0.375,-0.375 -1.125,-0.15 -1.95,0.225 -0.825,0.375 -1.05,-0.3 -0.675,-0.9 0.375,-0.6 -0.15,-0.975 -0.525,-1.35 -0.375,-0.375 -0.825,-0.825 -1.35,-0.675 -0.525,0.15 -0.675,-0.675 -0.975,-1.125 -0.3,-0.45 -0.3,-0.75 0.3,-1.425 0.6,-0.675 -0.45,-1.275 -0.9,-1.2 -0.45,0.075 -0.825,0.675 -0.675,1.725 0.15,1.05 -0.525,0.75 -1.425,0.45 -0.9,-0.3 -0.075,-0.525 0.6,-1.275 0.675,-0.75 -0.6,-1.35 -0.75,-0.675 -0.15,0.675 -0.6,1.125 -1.35,0.075 -0.75,-1.05 -0.825,0 -0.525,0.9 0.3,0.9 -0.375,0.75 -0.525,0.375 -0.15,-0.375 -0.3,-0.6 -0.75,-1.2 -0.45,-0.6 -0.6,-0.375 -0.975,0.075 -0.375,0.45 0.075,0.525 0.525,0.825 0.45,0.3 0.15,0.825 -0.225,0.975 -0.375,0.15 -0.975,0.375 -1.5,0.525 -0.525,0.15 -1.875,-0.675 -2.175,-0.975 -0.3,-0.3 -0.975,-1.2 -1.5,-2.1 -0.525,-0.9 -2.925,-0.375 -3.75,-0.225 -0.825,0.15 -1.65,0.225 -1.725,-0.15 -0.075,-0.375 -0.3,-0.75 -0.75,-0.525 -0.45,0.225 -1.425,-0.15 -1.425,-1.1249992 0,-0.975 -0.225,-1.125 -1.875,-0.6 -1.65,0.525 -1.2,1.2749992 -0.9,1.7249992 0.3,0.45 -0.3,0.975 -0.75,1.575 -0.45,0.6 -2.1,0.6 -2.4,0.225 -0.3,-0.375 -0.6,-0.375 -1.5,-0.075 -0.9,0.3 -1.2,0 -1.35,-0.45 -0.15,-0.45 -0.375,-0.6 -0.975,-0.75 -0.6,-0.15 -0.45,-0.45 0,-0.75 0.45,-0.3 0.3,-0.45 -0.15,-1.4999992 -0.45,-1.05 -1.65,-0.45 -1.8,0.3 -0.15,0.7499992 -0.45,0.225 -0.75,-0.675 -0.3,-0.9 -0.75,-0.675 -1.425,-0.45 -0.675,0.225 -0.825,1.05 -0.975,1.65 -0.15,0.5999992 -0.6,0.8999992 -1.5,0.8249992 -0.9,-0.075 -0.525,1.05 -0.375,1.725 0.15,0.675 -0.3,0.975 -0.6,1.125 -0.3,0.15 -1.125,0.75 -1.65,1.275 -0.525,0.525 -1.875,0.6 -2.4,0.375 -0.525,-0.225 -1.05,-0.6 -1.725,-1.575 -0.675,-0.975 -1.575,-1.05 -1.95,-0.975 -0.375,0.075 -1.05,-0.45 -1.575,-0.975 -0.525,-0.525 -1.2,-0.525 -2.025,-1.575 -0.825,-1.0499992 -2.325,0.075 -2.625,0.525 -0.3,0.45 -1.125,0.825 -1.575,0.375 -0.45,-0.45 -0.9,-0.15 -1.35,0.075 -0.45,0.225 -0.525,0.3 -0.6,-0.75 -0.075,-1.0499992 -0.75,0 -0.75,0.45 0,0.45 -0.375,0.9 -1.125,0.6 -0.75,-0.3 -0.525,-0.3 -1.35,-0.075 -0.825,0.225 0.075,-0.6 0.3,-1.4249992 0.225,-0.825 -0.6,-0.3 -1.05,0.1500002 -0.45,0.449999 -0.375,0.374999 -0.825,0.149999 -0.45,-0.224999 -0.075,-0.6749992 0,-1.6499992 0.075,-0.975 -0.825,-0.675 -0.9,-0.3 -0.075,0.375 -0.3,0.6 -0.825,1.125 -0.525,0.525 -3.525,-0.225 -3.825,-0.375 -0.3,-0.15 -0.825,-0.375 -0.825,-1.35 0,-0.975 -1.05,-0.9 -1.65,-0.9 -0.6,0 -0.525,-0.225 -0.825,-0.75 -0.3,-0.525 -0.375,0 -0.525,0.375 -0.15,0.375 -0.5625,1.83746 -0.6375,2.1 -0.075,0.26246 -0.825,0.375 -1.125,0.375 -0.3,0 -1.35,-0.15 -1.95,-0.075 -0.6,0.075 -2.1,-1.125 -2.1,-1.125 0,0 -0.4875,-0.225 -0.75,-0.45 -0.2625,-0.225 -0.7125,-0.5625 -1.5,-0.7125 -0.7875,-0.15 -0.9375,-0.37504 -1.1625,-0.6375 -0.225,-0.26254 -0.4125,-0.5625 -0.8625,-0.6375 -0.45,-0.075 -0.525,-0.45 -0.675,-1.125 -0.15,-0.675 -0.4875,-0.93746 -0.6375,-1.125 -0.15,-0.18746 -0.45,-0.33746 -0.7125,-0.375 -0.2625,-0.0375 -0.375,0.15 -0.3375,0.675 0.0375,0.525 -0.3375,0.56254 -0.5625,0.525 -0.225,-0.0375 -0.375,-0.52504 -0.375,-1.3125 0,-0.78754 -0.5625,-0.67496 -0.8625,-0.4125 -0.3,0.26254 -0.0375,0.2625 0.225,0.8625 0.2625,0.6 -0.6,0.525 -1.0875,0.45 -0.4875,-0.075 -0.525,-0.26254 -0.525,-0.6 0,-0.33754 0.3,-0.675 0.6,-0.9 0.3,-0.225 0.15,-0.525 -0.0375,-0.675 -0.1881,-0.15014 -0.2631,-0.0376 -0.4881,-0.78763999 -0.0615,-0.205082 -0.17093,-0.290456 -0.30625,-0.29375 z"
     id="path7" />
  <path
     style="fill:none;stroke:none"
     d="m 58.21625,0.21055981 c -0.0193,-4e-4 -0.0423,0.0036 -0.0625,0.0062 -0.3551,0.04634 -0.81715,0.564062 -0.86875,0.92499999 -0.075,0.525 0,1.2 -0.675,0.525 -0.675,-0.67499999 -0.15,0.825 -0.75,0.75 -0.6,-0.075 0.3,0.75 -0.375,0.825 -0.675,0.075 0.15,0.6 -0.225,0.9 -0.375,0.3 -0.6,0.3 -1.275,-0.075 -0.675,-0.375 -0.225,0.525 -0.225,1.2 0,0.675 -0.45,0.9 -0.45,0.9 0,0 -0.975,0.3 -1.35,0.15 -0.375,-0.15 -1.5,-0.525 -2.1,-0.9 -0.6,-0.375 -1.5,-0.675 -2.175,-0.075 -0.67504,0.6 -2.025,0.15 -2.025,0.15 0,0 -2.025,-0.675 -2.325,-1.05 -0.3,-0.375 -1.575,-1.05 -1.575,-1.05 0,0 -0.675,0.525 -1.5,0.675 -0.825,0.15 -1.2,-0.525 -1.2,-0.525 0,0 -1.2,0.375 -1.575,0.675 -0.375,0.3 -0.75,1.2 -0.9,1.5 -0.15,0.3 -0.675,1.125 -0.675,2.025 0,0.9 -0.9,1.95 -1.125,2.4000002 -0.225,0.45 -0.975,0.45 -2.1,0.825 -1.125,0.375 -0.15,1.425 -0.15,1.425 l -0.825,0.9 -0.075,1.95 c 0,0 -0.525,0.525 -0.9,0.975 -0.375,0.45 -0.45,0.75 -0.45,1.35 0,0.6 -0.075,1.125 -0.075,1.125 0,0 -0.3,0.15 -0.75,0.15 -0.45,0 -2.1,0.3 -2.1,0.3 0,0 -0.6,-0.675 -0.825,-1.125 -0.225,-0.45 -1.05,-0.225 -1.425,-0.15 -0.375,0.075 -0.825,-0.075 -0.825,-0.075 0,0 -0.3,-0.525 -0.675,-0.825 -0.375,-0.3 -0.75,-0.075 -1.2,-0.3 -0.45,-0.225 -0.825,-1.65 -0.9,-2.025 -0.075,-0.375 -0.3,-0.675 -0.9,-1.2 -0.6,-0.525 -1.5,-0.9 -1.95,-0.825 -0.45,0.075 -0.525,-0.15 -0.9,-0.6 -0.375,-0.45 -0.375,-0.9 -0.3,-1.5 0.075,-0.6000002 -0.975,-2.1000002 -1.35,-2.4750002 -0.375,-0.375 -0.45,-1.125 -0.45,-1.125 l -1.5,-0.15 -0.15,-0.45 0.675,-1.05 -0.525,-0.975 c 0,0 -0.75,-0.375 -1.275,-0.75 -0.525,-0.375 -1.125,0.3 -1.5,0.525 -0.375,0.225 -0.75,0.375 -1.275,0.375 -0.525,0 -0.15,-0.6 -0.15,-0.6 l -0.375,-0.45 -1.05,0 -0.225,0.75 -0.975,-0.225 -0.75,0.225 -0.675,-0.45 -0.675,0.45 0.225,0.45 -0.375,0.3 c 0,0 -0.75,-0.3 -1.05,-0.075 -0.3,0.225 -1.2,1.275 -1.2,1.275 l -0.15,0.975 -0.6,0.525 c 0,0 0.525,1.8 0.6,2.1 0.075,0.3 0.675,1.2000002 0.675,1.2000002 l -0.225,0.6 c 0,0 -0.45,0.75 -0.825,1.125 -0.375,0.375 -0.225,1.275 -0.225,1.275 l -1.12499999,0.75 L 1.56,15.31676 c 0,0 0.825,2.85 1.2,3.225 0.375,0.375 0.225,0.675 0.075,1.35 -0.15,0.675001 -0.6,1.050001 -1.35,1.125001 -0.74999999,0.075 -0.375,1.2 -0.375,1.2 l -0.44999999,1.125 1.04999999,3 -0.075,0.975 1.725,1.725 -1.8,1.2 -1.34999999,0.375 0.675,1.05 -0.15,0.6 c 0,0 1.49999999,2.4 1.79999999,2.85 0.3,0.45 0.675,0.75 1.2,0.975 0.525,0.225 0.375,0.825 0.375,1.2 0,0.375 0.975,0.6 0.975,0.6 0,0 0.3,-0.375 0.6,-0.825 0.3,-0.45 0.6,-0.9 0.9,-0.3 0.3,0.6 0.825,0.15 0.9,-0.3 0.075,-0.45 0.525,-0.75 0.525,-0.75 0,0 0.6,0.45 1.05,1.125 0.45,0.675 0.675,1.65 0.675,1.65 l 1.2,-0.075 c 0,0 0.225,0.825 0.375,1.125 0.15,0.3 0.225,0.75 0.45,1.2 0.225,0.45 0.825,0.525 1.125,0.9 0.3,0.375 0.525,0.45 1.125,0.375 0.6,-0.075 0.9,1.125 0.975,1.5 0.075,0.375 0.6,0.675 0.6,0.675 l 0.15,0.975 c 0,0 -0.525,0.75 -0.525,1.05 0,0.29995 -0.225,0.375 -0.975,0.375 -0.75,0 -0.45,0.75 -0.375,1.125 0.075,0.375 0.225,0.75 0.525,1.05 0.3,0.3 1.575,1.275 1.575,1.275 0,0 0.675,0.075 1.05,0.225 0.375,0.15 0.825,0.15 1.5,0.825 0.675,0.675 0.675,1.35 1.125,2.4 0.45,1.05 0.6,1.65 0.6,1.65 0,0 0.225,0.9 0.075,1.35 -0.15,0.45 0.075,1.275 0.075,1.275 l 0.6,-0.225 c 0,0 0.75,0.825 0.75,1.2 0,0.375002 -0.375,0.6 -0.75,0.6 l -1.275,0 0.15,1.2 1.575,-0.075 0.675,0.6 c 0,0 0.9,0.525 1.35,0.975 0.45,0.45 0.3,1.125 0.3,1.125 0,0 -0.45,0.825 -0.675,1.275 -0.225,0.45 -0.6,1.05 -0.6,1.8 0,0.75 0.3,2.775 0.3,2.775 l 0.9,0.15 0.6,1.5 -0.6,0.75 c 0,0 0.975,0.975 1.275,1.2 0.3,0.225 1.5,1.875 1.95,2.25 0.45,0.375 0.675,0.675 0.75,0.975 0.075,0.3 0.675,0.9 0.6,1.725 -0.075,0.825 1.05,1.125 1.95,1.425 0.9,0.3 0.45,0.375 0.45,0.75 0,0.375 0.3,0.525 0.75,0.825 0.45,0.3 2.4,0 2.4,0 l 0.675,1.125 -0.225,0.75 0,1.275 c 0,0.375 0.675,0.45 0.675,0.45 l 2.475,0.15 0.675,1.65 1.2,1.8 0.975,1.95 1.575,0.6 0.375,0.6 c 0,0 0.525,0.9 0.975,1.725 0.45,0.825 2.475,2.175 3.675,3.3 1.20006,1.125 1.425,1.65 1.2,2.625 -0.225,0.975 0.3,1.574999 0.3,1.574999 l 1.2,1.87501 c 0,0 1.35,0.15 2.1,0.525 0.75,0.375 1.65,2.175 1.65,2.175 l 2.175,1.725 c 0,0 0.375,0.75 0.45,1.275 0.075,0.525 1.425,1.05 1.725,1.425 0.3,0.375 0.825,1.65 0.825,1.65 l 1.875,1.725 0.825,1.65 1.35,1.5 0.825,0.675 1.5,0.525 c 0,0 0.9,0.525 1.2,0.825 0.3,0.3 0.9,0.9 1.275,1.35 0.375,0.45 1.65,1.5 1.65,1.5 l 1.275,0.45 c 0,0 0.525,-0.525 0.825,-0.6 0.3,-0.075 0.675,-0.075 1.35,0.075 0.675,0.15 1.5,0.75 1.95,1.05 0.45,0.3 1.125,0.825 1.2,1.575 0.075,0.75 -0.15,1.8 -0.375,2.325 -0.225,0.525 -1.275,1.65 -1.275,1.65 l 0.075,0.6 0.825,2.475 c 0,0 1.875,3.6 2.025,3.9 0.15,0.3 0.75,1.65 0.75,1.65 l 1.05,1.125 c 0,0 1.2,0.15 1.95,0.375 0.75,0.225 1.5,0.825 1.8,1.125 0.3,0.3 0.975,1.65 0.825,1.95 -0.15,0.3 0.15,1.125 0.15,1.125 l 1.05,0.975 c 0,0 4.05,2.775 4.35,2.925 0.3,0.15 4.2,2.4 4.2,2.4 0,0 2.25,4.575 2.25,4.95 0,0.375 1.2,2.85 1.2,2.85 l -3.675,1.575 -0.825,0.75 -2.075,0.65625 0.16875,0.175 0.55,0.275 0.43125,0.1 0.25,0.4375 0.5125,0.3875 -0.35,0.0187 -1.09375,-0.46875 -0.725,-0.5375 -0.4125,-0.51875 -0.125,0.0375 -0.025,0.1875 -0.58125,-0.13125 -0.025,0.1125 0.30625,0.33125 3.33125,1.8 0.7625,0.8375 0.225,0.075 c 0,0 0.525,-1.45 0.825,-1.9 0.3,-0.45 0.525,-0.825 1.275,-0.675 0.75,0.15 2.85,0.525 2.85,0.525 0,0 0.675,0.45 1.125,0.975 0.45,0.525 0.525,0.6 0.525,0.6 l 1.125,-1.65 1.35,0.825 0.825,1.05 c 0,0 -0.075,1.125 0.15,1.65 0.225,0.525 0.75,1.5 0.75,1.5 l 1.2,0.675 -0.6,0.975 0.15,0.675 0.9,-0.15 1.95,0.75 c 0,0 1.05,1.425 1.8,1.425 0.75,0 0.6,0.9 0.6,0.9 l 0.525,1.05 c 0,0 1.2,-0.675 1.65,0 0.45,0.675 1.5,1.65 1.5,1.65 0,0 1.8,0.9 1.725,1.575 -0.075,0.675 -0.225,1.05 -0.225,1.05 l 1.725,0.375 0.975,1.875 0.75,-0.375 c 0,0 0.975,0.3 1.425,1.2 0.45,0.9 0.6,1.275 0.975,1.425 0.375,0.15 0.825,0.225 0.825,0.6 0,0.375 0.375,0.75 0.675,0.6 0.3,-0.15 1.275,-0.825 1.275,-0.825 0,0 1.2,0.15 1.725,0 0.525,-0.15 2.475,-0.15 2.625,0.15 0.15,0.3 0.6,0.9 0.825,1.2 0.225,0.3 0.9,1.05 0.9,1.05 l 2.09375,1.3 c 0.2584,-0.22529 0.83145,-0.37978 1.1625,-0.71875 0.36357,-0.37217 0.46465,-1.04043 1.04375,-1.18125 0.20937,-0.051 0.52255,0.16015 0.775,0.175 0.49443,0.0291 0.69346,0.45674 0.99375,0.76875 0.11758,-0.003 0.6509,-0.33945 0.725,-0.43125 0.12959,-0.50684 -0.41396,-1.44951 -0.9625,-1.4875 0.0427,-0.26025 -0.007,-0.3127 -0.0875,-0.54375 -0.0823,-0.0876 -0.10595,-0.15684 -0.13125,-0.225 -0.0831,-0.0529 -0.26525,-0.23467 -0.25625,-0.34375 0.16474,-0.27842 0.45508,-1.09678 0.79375,-1.19375 0.39952,-0.11436 0.76943,-0.39024 1.1875,-0.425 0.17998,-0.015 0.35576,0.0639 0.525,0.05 0.0523,-0.10352 -0.15995,-0.8333 -0.20625,-0.875 l -0.2375,-0.10623 c -0.0118,-0.10742 0.0257,-0.22177 -0.0125,-0.325 -0.24307,-0.12832 -0.69445,-0.40947 -0.75625,-0.65 0.0101,-0.38936 0.0811,-0.50283 -0.0563,-0.9 -0.0308,-0.0888 -0.1209,-0.36289 -0.0875,-0.44375 0.0231,-0.056 0.19854,0.0729 0.30625,0.025 0.16045,-0.33379 0.1915,-0.50996 0.44375,-0.8125 0.0469,-0.48613 0.2114,-0.77773 0.175,-1.25625 -0.14941,-0.0868 -0.30723,-0.15635 -0.4625,-0.23125 -0.13496,0.0512 -0.21135,0.2211 -0.26875,0.23125 -0.42197,0.0742 -0.66054,-0.15176 -1.05,-0.1625 -0.1251,-0.0719 -0.2416,-0.22647 -0.35625,-0.28125 -0.14531,-0.14092 -0.266,-0.3377 -0.325,-0.46875 -0.22666,0.003 -0.35761,-0.0484 -0.5875,0.0125 l -0.2125,-0.19375 c 0.0347,-0.0759 0.12095,-0.32246 0.0937,-0.4 -0.093,-0.0401 -0.34445,-0.26045 -0.35625,-0.3625 -0.41523,-0.35996 -0.90664,-4e-4 -1.025,-0.75 -0.0112,-0.0716 -0.0739,-0.18418 -0.0563,-0.25 l 0.1375,-0.15 c -0.0232,-0.10352 0.10985,-0.23711 0.0563,-0.3125 0.0997,-0.11182 0.0804,-0.0923 -0.05,-0.125 l 0.1125,-0.0688 c -0.0218,-0.10918 -0.11065,-0.12656 -0.13125,-0.1375 -0.0657,-0.0351 -0.15375,-0.14473 -0.16875,-0.21875 -0.0274,-0.13525 -4e-4,-0.53887 -0.0437,-0.6125 -0.12569,-0.0135 -0.2595,-0.14003 -0.2625,-0.26875 0.0749,-0.17793 0.26045,-0.42149 0.23125,-0.63125 -0.0243,-0.12715 -0.0868,-0.23086 -0.11875,-0.3375 -0.018,-0.1498 -0.0411,-0.34063 -0.025,-0.44375 -0.11816,-0.19532 -0.2033,-0.546 -0.3,-0.60625 0.20293,-0.19112 0.52168,-0.29824 0.7625,-0.4375 -0.75528,-0.5916 -0.45254,-1.88349 0.1875,-2.25625 0.10957,0.0366 0.29179,0.2002 0.4,0.175 0.51997,-0.28076 0.4083,-0.9461 0.0937,-1.35 0.32099,-0.15615 0.64443,-0.29531 0.9625,-0.45625 -0.0695,-0.16162 -0.19125,-0.26739 -0.24375,-0.45 -0.0875,-0.30342 -0.11866,-0.60547 -0.2375,-0.90625 -0.18135,-0.4585 -0.50146,-0.88291 -0.675,-1.3375 -0.077,-0.20156 0.0161,-2.37812 0.075,-2.60625 0.0382,-0.14834 0.1623,-0.2626 0.2125,-0.40625 0.18769,-0.53701 0.25097,-1.13282 0.41875,-1.68125 0.1498,-0.10264 0.28193,-0.26894 0.4375,-0.35 0.0293,-0.39199 0.29111,-0.91015 0.4125,-1.29375 0.34629,-0.304 0.73447,-0.55391 1.0875,-0.85 0.26992,0.0149 3.88457,0.19609 3.99375,0.1625 0.46416,-0.14277 0.9625,-0.40742 1.4125,-0.6 l 0.51875,0.0812 c -0.0951,-0.61298 -0.0973,-1.27754 -0.225,-1.875 0.1293,-0.64541 -0.23671,-3.71954 -0.3375,-4.4875 -0.0349,-0.26582 -0.16005,-0.83711 -0.13125,-1.0875 0.0397,-0.34434 0.27255,-0.77773 0.36875,-1.125 0.24404,-0.88154 0.31445,-1.82422 0.55625,-2.70625 0.85312,-0.53262 1.66816,-1.18652 2.375,-1.90625 -0.37676,-0.54024 -0.91318,-1.08018 -1.3875,-1.54375 0.65889,-0.51016 1.52744,-1.38017 2.2,-1.7875 0.87529,-0.52998 1.78252,-1.09795 2.7,-1.55 1.01132,-0.49834 2.05586,-0.93496 3.05,-1.4625 -0.0215,-0.0664 0.006,-0.12763 -0.0125,-0.19375 -0.25664,-0.27881 0.12207,-0.39218 -0.65625,-1.05625 -0.009,-0.0401 0.0481,-0.1874 0.0375,-0.28125 0.16055,0.004 0.6652,-0.0748 0.7625,-0.1875 0.24199,0.0203 0.24531,-0.10088 0.38125,-0.18125 0.0765,-0.0452 0.2672,0.002 0.3625,-0.006 0.44571,-0.035 -0.0449,-0.15512 0.7625,-0.0937 0.0804,0.006 0.16395,-0.0502 0.24375,-0.025 0.16543,0.10508 0.28624,0.16954 0.46875,-0.025 0.0184,-0.10058 0.3341,-0.31328 0.4125,-0.3 0.0492,0.008 0.1806,0.0223 0.2125,0.0687 0.1999,0.28974 0.38808,0.41338 0.63125,0.6625 0.0226,0.0665 0.10925,0.26456 0.10625,0.31875 0.0366,0.0509 0.082,0.0681 0.11875,0.10625 0.15196,0.15713 0.59482,0.78711 0.725,0.86875 0.10908,0.0685 0.30507,-0.13401 0.48125,-0.0438 0.1599,0.0819 0.17165,0.86895 0.0937,1.00625 -0.75694,0.39922 -0.32294,1.85146 -0.175,1.925 0.0896,0.0126 0.15685,-0.0385 0.23125,-0.0312 0.42744,0.0415 0.90527,0.54014 1.1,0.60625 0.28535,0.56563 0.0206,1.06797 0.10625,1.1625 0.28594,0.12422 0.77646,0.88057 0.96875,0.54375 0.11962,-0.20938 0.29155,-0.42988 0.38125,-0.65 0.20332,-0.49922 0.43936,-0.98545 0.5875,-1.50625 0.087,-0.30556 0.18291,-1.12481 0.45,-1.35 0.5377,-0.45342 2.10371,-0.0637 2.21875,-0.46875 0.0352,-0.12412 -0.2763,-0.60869 -0.3375,-0.725 -0.2784,-0.52949 -0.12647,-0.45703 -0.25,-0.93125 -0.0518,-0.19863 -0.2406,-0.30146 -0.3,-0.49375 -0.0506,-0.16367 0.0416,-0.36016 -0.0375,-0.525 -0.10938,-0.22803 -0.56055,-0.1663 -0.93125,-0.7625 -0.0328,-0.0528 -0.045,-0.11514 -0.0563,-0.175 -0.13047,-0.6915 -0.24445,-0.71514 -0.34375,-1.14375 -0.0631,-0.27266 -0.0889,-0.56699 -0.13125,-0.84375 -0.008,-0.0604 -0.0238,-0.11319 -0.0125,-0.175 0.27188,-1.47207 -0.5815,-1.5541 -0.6,-2.20625 -0.0212,-0.0278 -0.0688,-0.0577 -0.10625,-0.0563 -0.069,-0.0593 -0.2459,-0.33799 -0.3125,-0.4 -0.0146,-0.0802 0.0573,-0.18223 0.0187,-0.2375 -0.0703,-0.10059 -0.16875,0.10195 -0.16875,-0.0625 0,-0.1252 0.2522,-0.18291 0.175,-0.25625 -0.1013,-0.0961 -0.1531,0.16524 -0.2,0.14375 -0.0752,-0.0346 0.0889,-0.28906 -0.0812,-0.19375 -0.1476,0.0826 0.1,0.29473 -0.1,0.35 -0.0347,0.0454 -0.0754,0.20664 -0.1625,0.1625 -0.1154,-0.0995 -0.0261,-0.28086 -0.0625,-0.375 -0.0304,-0.0429 -0.29205,-0.2449 -0.30625,-0.2375 -0.0365,0.0192 -0.1108,0.17412 -0.1375,0.1625 -0.0447,-0.0195 -0.0135,-0.16123 -0.0437,-0.21875 -0.012,-0.023 -0.11235,-0.13154 -0.0937,-0.1625 0.0107,-0.0179 0.135,0.0151 0.0875,-0.0625 -0.0435,-0.071 -0.18815,0.0553 -0.23125,-0.0125 -0.0607,-0.17891 -0.10645,-0.032 -0.16875,-0.0688 -0.009,-0.0154 -0.0742,-0.1715 -0.0937,-0.175 -0.0354,-0.006 -0.0673,0.15762 -0.10625,0.18125 -0.12217,0.0738 -0.22675,-0.0732 -0.6,0.16875 -0.0708,-0.0189 -0.15155,-0.15325 -0.19375,-0.15625 l -0.13125,0.0625 0,-0.15625 c -0.0805,-0.23838 0.1284,-0.22734 0.225,-0.39375 0.004,-0.007 -0.0459,-0.51006 -0.0312,-0.56875 l 0.025,-0.16875 c 0.0229,-0.11846 -0.1828,-0.21885 -0.2,-0.31875 -0.0857,-0.4998 0.33472,-0.19834 -0.05,-1.09375 -0.13896,-0.10039 -0.23935,-0.0697 -0.26875,-0.0875 -0.11709,-0.0709 -0.23272,-0.63681 -0.5625,-0.34375 0.006,0.28926 0.10135,0.62178 -0.0437,0.89375 -0.0504,0.0944 -0.52505,0.39004 -0.55625,0.30625 -0.0614,-0.28721 -0.20889,-0.53828 -0.3375,-0.8 -0.10274,-0.20918 0.1989,-0.29697 0.1375,-0.45 -0.39223,-0.16015 -0.3889,-0.25068 -0.0812,-0.58125 0.37685,-0.40488 -0.0907,-0.42597 0.8875,-0.46875 0.26504,-0.45029 0.18858,-0.13848 0.48125,-0.225 0.0803,-0.0237 0.1566,-0.0964 0.2375,-0.1 0.36748,-0.41211 1.22529,-0.44912 1.33125,-0.5875 0.10045,-0.28662 -0.0506,-0.84346 -0.006,-0.98125 0.0516,-0.15918 0.4524,-0.51406 0.5125,-0.95625 0.0722,-0.0418 0.72515,-0.1084 0.74375,-0.125 0.30107,0.0441 0.3551,0.67422 0.4375,0.9125 0.0353,-0.0244 0.0731,-0.0228 0.1125,-0.0125 0.10996,-0.0299 0.11436,-0.20908 0.28125,-0.175 0.2162,0.10527 0.1744,0.38701 0.2625,0.55 0.0878,0.1625 0.396,0.32695 0.525,0.525 0.0506,0.0775 0.27475,0.34375 0.26875,0.41875 -0.0425,0.1291 -0.12,0.1415 -0.125,0.30625 -0.0114,0.34062 0.1333,0.26573 0.1625,0.5 0.0239,0.19239 -0.0906,0.40029 -0.0312,0.58125 0.0504,0.15327 0.18325,-0.0781 0.21875,-0.006 0.13711,0.51679 0.6455,-0.0557 0.675,-0.1125 0.0335,-0.0639 0.0118,-0.1581 0.0375,-0.23125 0.15528,-0.17177 0.20605,-0.17383 0.425,-0.19375 0.25654,-0.20293 0.57011,-0.16142 0.74375,-0.2625 0.0536,-0.0964 0.1144,-0.19112 0.2,-0.2625 0.0604,-0.16592 0.0735,-0.24365 0.2875,-0.26875 0.074,0.0105 0.1324,0.0645 0.1625,0.13125 0.15781,0.023 0.33438,0.006 0.49375,0.006 0.22832,0 0.8115,0.35576 0.85,-0.1125 0.12773,-0.1251 0.34885,-0.14522 0.43125,-0.23125 0.87686,-0.91523 0.98535,-0.42851 2.06875,-0.38125 0.25987,0.0112 0.60234,-0.12916 0.85625,-0.0875 0.23359,0.0385 0.51375,0.32 0.55625,0.325 0.37159,-0.0611 0.60283,0.11386 0.875,0.325 l 0.11875,0.006 c 1.32051,0.14453 0.68125,-0.70283 0.68125,-1.40625 0,-0.3375 0.17125,-0.75488 0.23125,-1.0875 0.0231,-0.12822 -0.0552,-0.2541 0.0375,-0.375 -0.0613,-0.2709 0.0872,-0.26553 0.0812,-0.44375 -0.009,-0.29502 -0.35292,-1.0545 0.0687,-1.11875 0.0651,0.0202 0.1754,0.11807 0.2625,0.15 0.36738,-0.79287 0.75449,-0.28633 1.01875,-0.65625 0.10664,0.0721 0.21318,0.14747 0.33125,0.2 0.2267,0.0122 0.0356,-0.42646 0.1875,-0.4375 0.19316,-0.014 0.33476,0.67373 0.525,0.78125 0.28271,0.15967 1.51669,0.0823 1.8,-0.0812 0.0424,-0.0245 0.6316,-0.75743 0.725,-0.85625 0.19444,-0.20567 0.217,-0.0596 0.3125,-0.10625 0.14512,-0.0707 0.1667,-0.28662 0.2875,-0.39375 0.1196,0.13291 0.0486,0.28906 0.0937,0.41875 0.13799,0.16914 0.47754,0.1749 0.58125,0.30625 0.0281,0.13408 -0.0235,0.25742 0.0125,0.40625 0.16201,0.67099 0.46279,-0.0776 0.9125,0.48125 -0.12324,0.16377 -0.41753,0.98115 0.025,0.525 0.0613,-0.0329 0.1461,-8e-4 0.1875,0.05 0.0293,0.0858 0.075,0.93642 0.0437,1.05 -0.10791,0.0802 -0.20557,0.17989 -0.30625,0.26875 -0.125,0.11036 0.24735,0.59824 0.30625,0.69375 0.0586,0.0951 0.24629,0.54199 0.29375,0.53125 0.16064,-0.0367 0.52636,-0.48184 0.75,-0.59375 0.0656,-0.14199 0.0178,-0.35567 0.125,-0.48125 0.1832,-0.21475 0.66015,-0.35528 0.725,-0.46875 -0.0393,-0.23574 0.17275,-0.65498 0.4,-0.73125 0.23594,-0.7041 1.9626,0.80019 2.26875,0.45 0.16895,-0.5334 0.34365,-0.42295 0.7625,-0.55 0.0737,-0.0682 0.0705,-0.18613 0.1125,-0.275 0.2,-0.42275 -0.42305,-0.25196 -0.775,-0.625 -0.13184,-0.13965 -0.1621,-0.32725 -0.25,-0.4875 -0.13837,-0.25196 -0.16611,-0.006 -0.2125,0.0625 -0.16474,-0.26123 0.16299,-1.01621 0.3,-1.275 l -0.0375,-0.1 c -0.0435,-0.0137 -0.28145,-0.10635 -0.3,-0.125 -0.17354,-0.25029 0.13906,-0.33877 -0.25625,-0.875 0.0176,-0.1083 0.48799,-0.63496 0.575,-0.475 0.0589,0.10479 -0.01,0.24766 0.0625,0.35 0.0279,0.0393 0.13916,0.013 0.175,0.006 0.2583,-0.0489 0.15273,-0.38261 0.2,-0.6 0.16484,-0.75947 0.3752,-1.49697 0.34375,-2.29375 -0.01,-0.25 -0.18623,-0.5043 -0.26875,-0.7375 -0.0658,-0.18594 -0.2841,-1.20927 -0.2875,-1.40625 -0.004,-0.24013 0.17861,-0.58056 0.1125,-0.79375 -0.0384,-0.12343 -0.14746,-0.21035 -0.19375,-0.33125 -0.14023,-0.0103 -1.00059,-0.55889 -1.04375,-0.64375 -0.0386,-0.0759 -0.0148,-0.16573 -0.0375,-0.24375 -0.18389,-0.63282 0.0493,-0.61182 -0.4875,-0.9375 -0.13203,-0.23604 -0.16836,-0.44678 -0.1875,-0.7125 -0.0175,-0.24336 -0.89541,-0.89982 -1.15,-0.96251 -0.12968,-0.032 -0.46904,0.0154 -0.5375,-0.0563 -0.0514,-0.11358 0.008,-0.42149 -0.025,-0.5875 -0.0592,-0.29053 -0.2249,-0.26719 -0.2625,-0.35 -0.0511,-0.1124 -0.0718,-0.25137 -0.18125,-0.325 -0.18985,-0.127831 -0.18623,0.18017 -0.4375,0.125 -0.14688,-0.0323 -0.26113,-0.19307 -0.4,-0.231249 -0.13564,-0.03721 -0.28819,-0.02783 -0.4125,-0.09375 -0.10985,-0.281054 -0.12685,-0.535352 -0.19375,-0.7125 -0.0483,-0.127734 -0.15937,-0.177442 -0.26875,-0.2375 -0.0995,-0.05469 -0.66935,-0.790722 -0.68125,-0.84375 -0.0427,-0.190528 0.1789,-0.416602 0.125,-0.65 -0.39844,-0.191894 -0.79824,-0.476952 -1.0125,-0.74375 -0.008,-0.07725 -0.022,-0.156446 -0.0437,-0.23125 -0.30684,-0.287012 -0.62373,-0.674512 -0.8875,-1.025 l -0.19375,-0.0875 c 0.0391,-0.07588 0.22475,-0.394728 0.21875,-0.4625 -0.0642,-0.03936 -0.984,-0.717284 -1.05,-0.80625 0.0808,-0.254394 0.26914,-0.380858 0.11875,-0.64375 -0.16719,-0.292676 -0.5752,-0.468848 -0.74375,-0.73125 -0.19776,-0.308204 -0.10655,-0.733204 -0.31875,-1.025 -0.10996,-0.151172 -0.4352,-0.306054 -0.45,-0.49375 -0.28545,-0.222168 -0.47969,-0.613672 -0.65625,-0.93125 -0.009,-0.0165 0.0526,-0.13418 -0.05,-0.25625 -0.19268,-0.229394 -0.52061,-0.262012 -0.75625,-0.43125 -0.0183,-0.03467 -0.11475,-0.24336 -0.11875,-0.275 0.0819,-0.0333 0.0923,-0.13164 0.13125,-0.2 0.32989,-0.575684 -0.45,-1.145116 -0.675,-1.5875 -0.18115,-0.35625 -0.47195,-2.058398 0.025,-2.2375 0.59033,-0.212792 0.80693,0.904296 1.6,1.09375 0.49336,0.11777 1.22373,-0.04023 1.5875,0.1125 0.47803,0.200782 1.16211,0.896582 1.38125,0.9625 0.29786,0.08975 0.78321,-0.03467 0.9375,0.05625 0.22175,0.130664 0.0613,0.302442 0.19375,0.46875 0.23604,0.296484 1.0831,0.919336 1.43125,0.9875 0.38144,0.07471 0.57363,-0.490724 0.775,-0.5125 0.0883,-0.0097 0.70214,0.545996 0.93125,0.60625 0.53779,0.14121 1.00157,-0.04814 1.55,-0.01874 0.3044,0.0164 0.592,0.175098 0.9,0.20625 0.63633,0.06436 1.25752,0.06709 1.9,0.04375 0.0921,-0.0034 0.57841,0.0035 0.64375,-0.025 0.23056,-0.100878 0.3545,-0.949512 0.65625,-1.24375 0.43428,-0.423438 1.25801,-0.62246 1.30625,-0.74375 0.14864,-0.374414 -0.2999,-0.684472 -0.175,-0.9125 0.32275,-0.264356 0.77657,-0.19287 1.14375,-0.31875 0.20879,-0.07148 0.18291,-0.309376 0.38125,-0.4125 0.45772,-0.23789 1.13877,-0.0163 1.25625,-0.675 0.0583,-0.32666 -0.39961,-0.718458 -0.375,-1.0625 0.0197,-0.275196 0.63458,-0.923144 0.3125,-1.15 -0.28964,-0.203906 -0.43076,0.287012 -0.825,0.10625 -0.15391,-0.148144 -0.0233,-0.751368 -0.075,-1.00625 -0.0741,-0.365722 -0.68057,-0.558106 -0.9125,-0.24375 -0.16484,0.22334 0.17481,1.44707 -0.31875,1.45625 -0.49609,0.0091 -0.53808,-1.104492 -0.9,-1.4875 -0.52734,-0.558106 -1.51094,-0.381152 -2.1,-0.78125 -0.24707,-0.167872 -0.82051,-1.108692 -0.89375,-1.41875 -0.0708,-0.299708 0.0497,-0.661034 -0.0875,-0.93125 -0.11347,-0.223438 -0.95332,0.251758 -1.13125,-0.4125 -0.20508,-0.76582 0.97031,-0.996876 0.59375,-1.59375 -0.38428,-0.60918 -1.18789,-0.09707 -1.375,0.4 -0.19199,0.51055 -0.14727,0.7292 -0.68125,0.4125 -0.15,-0.08906 -0.88925,-0.577734 -0.975,-0.725 -0.24053,-0.413282 -0.27666,-1.692772 -0.71875,-1.825 -0.0815,-0.02441 -0.23415,-0.03974 -0.30625,0.01874 -0.0696,0.01114 -0.57197,-0.44395 -0.69375,-0.5125 -0.41582,-0.23418 -1.02969,-0.07539 -1.2,-0.35625 -0.0573,-0.09463 -0.1959,-1.083106 -0.1625,-1.1875 0.0519,-0.161816 0.24765,-0.27744 0.16875,-0.475 -0.24541,-0.613574 -0.65108,-0.29756 -0.7625,-0.825 -0.0545,-0.25752 0.271,-0.580762 0.275,-0.725 -0.29912,-0.472754 -0.17158,-0.643846 -0.675,-1.05625 -0.0637,-0.05215 -0.11035,-0.14805 -0.20625,-0.14375 -0.3185,-0.257812 0.0308,-1.304492 -0.3125,-1.51875 -0.57011,-0.35586 -0.85312,0.20625 -1.4,0.10625 -0.32461,-0.05938 -0.5665,-0.48164 -0.8,-0.44375 -0.0766,0.0124 -0.20885,0.24717 -0.29375,0.31875 -0.27735,0.23418 -1.20605,0.71113 -1.5625,0.6875 -1.4031,-0.09326 -0.78125,-1.60088 -1.3375,-1.8875 -1.15118,-0.592968 -1.12217,1.166602 -2.24375,0.1875 -0.44971,-0.39248 -0.47793,-0.915234 -0.85,-1.29375 -0.26211,-0.2667 -0.8209,-0.425294 -0.9,-0.84375 -0.0886,-0.46836 0.40244,-1.0167 0.2125,-1.3875 -0.14688,-0.286622 -0.79375,0.04346 -0.98125,-0.4125 -0.0359,-0.08721 -0.254,-0.64043 -0.25,-0.7375 0.0133,-0.08525 0.01,-0.06474 0.0312,-0.10625 0.14746,-0.2792 0.5833,-0.241894 0.35625,-0.625 -0.0423,-0.07139 -0.11345,-0.1546 -0.20625,-0.15 -0.0701,0.02285 -0.10405,0.11415 -0.18125,0.11875 -0.58169,0.03467 -0.12615,-0.897754 -0.0937,-1.06875 0.0544,-0.287402 -0.0817,-0.59453 0.075,-0.8875 0.30742,-0.574416 1.55908,-0.79746 1.7875,-1.14375 0.24755,-0.375292 -0.12881,-1.12334 0.125,-1.78125 0.01,-0.02568 -0.0145,-0.27988 -0.0125,-0.3125 0.0811,-0.989454 0.0698,-0.415038 -0.20625,-1.2625 -0.0737,-0.226562 -0.0878,-0.471094 -0.175,-0.69375 -0.10654,-0.272364 -0.2839,-0.335838 -0.3625,-0.6875 -0.0607,-0.271192 0.0827,-0.62334 0.025,-0.84375 -0.0747,-0.285546 -0.49697,-0.154688 -0.61875,-0.44375 -0.042,-0.09951 0.0676,-0.30137 0.11875,-0.38125 0.12383,-0.19336 0.2516,-0.292188 0.3125,-0.53125 0.0722,-0.28291 -0.0787,-0.53164 0.18125,-0.74375 0.34922,-0.285058 0.5582,0.18154 0.775,0.25625 0.052,0.01788 0.8897,-0.03144 0.9875,-0.05625 0.4073,-0.103124 0.0353,-0.686426 0.3625,-0.95 0.45048,-0.363184 1.33769,-1.058986 0.825,-1.70625 -0.14346,-0.18125 -0.48106,-0.04698 -0.59375,-0.25625 -0.0545,-0.362304 0.60127,-1.22246 0.85625,-1.44375 0.50352,-0.43711 1.16787,-0.143554 1.33125,-0.53125 0.15264,-0.361866 -0.57444,-1.26528 -0.05,-1.33125 0.0973,-0.01226 0.2248,-0.0397 0.3125,0.01874 0.15723,0.0958 0.2579,0.05693 0.3375,0.0062 0.26875,-0.171142 -0.004,-0.795948 0.0875,-1.10625 0.049,-0.167432 0.30673,-0.07212 0.4125,-0.33125 0.0498,-0.122216 -0.0262,-0.23706 -0.0125,-0.35 0.005,-0.04263 0.2106,-0.3623 0.25,-0.45625 0.0772,-0.183692 -0.0516,-0.293068 -0.0125,-0.425 0.15987,-0.540136 0.58154,-0.897804 1.075,-1.1375 0.22432,-0.256982 -0.61631,-0.628808 -0.175,-1.11875 0.38584,-0.19629 1.33155,0.430664 1.25625,-0.2875 -0.0224,-0.213574 4e-4,-0.295508 0.0625,-0.51875 0.0443,-0.158008 0.41543,-0.19375 0.58125,-0.54375 -0.003,-0.04102 -0.007,-0.08765 -0.025,-0.125 0.0381,-0.36978 0.2169,-0.245848 0.35625,-0.43125 0.16699,-0.222266 -0.0825,-0.589892 0.3875,-0.90625 0.065,-0.168896 -0.28535,-0.354884 -0.13125,-0.58125 0.0997,-0.146484 0.51797,0.100976 0.70625,-0.04375 0.39013,-0.299854 -0.2561,-0.463476 -0.3,-0.75 -0.0199,-0.12959 0.3165,-0.265722 0.3125,-0.39375 -0.004,-0.133642 -0.75781,-0.427734 -0.64375,-0.9375 0.11045,-0.493506 0.52686,0.111768 0.74375,-0.2125 0.1625,-0.24292 -0.21575,-0.543798 -0.16875,-0.725 0.0542,-0.208838 0.41975,-0.184472 0.51875,-0.3875 0.0664,-0.136426 -0.0285,-0.323242 -0.0375,-0.4625 -0.007,-0.126612 0.0284,-0.260694 -0.0125,-0.3875 0.0289,-0.105908 0.4003,-0.143798 0.3875,-0.36875 -0.0669,-0.236572 -0.425,-0.477198 -0.425,-0.725 0,-0.265332 0.4117,-0.353614 0.325,-0.5375 -0.0709,-0.150098 -0.5376,-0.130224 -0.39375,-0.45625 0.0948,-0.21494 0.65371,0.119628 0.79375,-0.25 0.009,-0.02319 -0.22854,-0.698438 -0.006,-0.96875 0.20352,-0.24712 0.43067,0.383932 0.56875,0.075 0.10899,-0.243702 -0.3599,-0.59462 -0.45,-0.825 -0.16289,-0.41616 0.40575,-0.49219 0.38125,-0.8875 -0.0257,-0.41523 -0.7569,0.31905 -0.7,-0.16875 0.007,-0.0626 0.0436,-0.11299 0.0937,-0.15 0.0903,-0.0668 0.18275,-0.09492 0.25625,-0.1875 0.008,-0.10908 0.0968,-0.173 0.0937,-0.275 -0.004,-0.14722 -0.41165,-0.20098 -0.50625,-0.3125 -0.1709,-0.0559 -0.26582,0.22424 -0.50625,0.09375 -0.35947,-0.19517 -0.64492,-0.45195 -1.025,-0.6375 -0.0566,-0.0277 -0.12205,-0.05612 -0.16875,-0.1 -0.2542,-0.23935 -0.39873,-0.49361 -0.7875,-0.5625 -0.43964,-0.0779 -0.63398,-0.06609 -1.03125,0.11875 -0.0976,0.0454 -0.2957,0.19624 -0.4,0.15625 -0.31504,-0.12095 -0.77256,-0.65039 -1.11875,-0.5875 -0.6169,0.11221 -1.15987,1.14018 -1.6625,1.175 -0.91543,0.0634 -0.28819,-1.42461 -1.5,-1.7125 -1.01738,-0.2417 -1.05342,0.57031 -1.7125,1.0875 -0.28663,0.225 -0.64815,0.28111 -0.9875,0.3875 -0.25488,0.08 -0.33477,0.87832 -0.7375,0.96875 -0.42549,0.0956 -0.96377,0.13076 -1.325,0.4 -0.50655,0.37759 -0.30616,1.08144 -1.3,1.29375 -0.2583,0.0552 -0.53291,0.03915 -0.79375,0.08125 -0.45713,0.0736 -0.86435,0.23755 -1.33125,0.2625 -1.82861,0.07485 -5.38408,0.353032 -7.21875,-0.075 -0.44717,-0.1043 -0.97754,-0.3771 -1.4125,-0.54375 -0.0174,-0.007 -0.10165,-0.11772 -0.11875,-0.1375 -0.26016,-0.30171 -0.53868,-0.57246 -0.825,-0.85 -0.0563,-0.0547 -0.13025,-0.09712 -0.19375,-0.14375 -0.55069,-0.40527 -1.15674,-0.81968 -1.65,-1.2875 -0.13233,-0.12544 -0.22891,-0.35171 -0.35,-0.49375 -0.15118,-0.17735 -0.4127,-0.34775 -0.59375,-0.5 -0.1278,-0.573 -0.2428,-0.93047 -0.2,-1.31875 -0.075,-0.675 0.5625,-1.01875 1.6875,-0.41875 1.125,0.6 0.45,-1.05 0.15,-1.5 -0.3,-0.45 -0.45,-1.05 -0.15,-1.500001 0.3,-0.45 0.375,-0.75 0,-1.125 -0.375,-0.375 -1.125,-0.15 -1.95,0.225 -0.825,0.375 -1.05,-0.3 -0.675,-0.9 0.375,-0.6 -0.15,-0.975 -0.525,-1.35 -0.375,-0.375 -0.825,-0.825 -1.35,-0.675 -0.525,0.15 -0.675,-0.675 -0.975,-1.125 -0.3,-0.45 -0.3,-0.75 0.3,-1.425 0.6,-0.675 -0.45,-1.275 -0.9,-1.2 -0.45,0.075 -0.825,0.675 -0.675,1.725 0.15,1.05 -0.525,0.75 -1.425,0.45 -0.9,-0.3 -0.075,-0.525 0.6,-1.275 0.675,-0.75 -0.6,-1.35 -0.75,-0.675 -0.15,0.675 -0.6,1.125 -1.35,0.075 -0.75,-1.05 -0.825,0 -0.525,0.9 0.3,0.9 -0.375,0.75 -0.525,0.375 -0.15,-0.375 -0.3,-0.6 -0.75,-1.2 -0.45,-0.6 -0.6,-0.375 -0.975,0.075 -0.375,0.45 0.075,0.525 0.525,0.825 0.45,0.3 0.15,0.825 -0.225,0.975 -0.375,0.15 -0.975,0.375 -1.5,0.525 -0.525,0.15 -1.875,-0.675 -2.175,-0.975 -0.3,-0.3 -0.975,-1.2 -1.5,-2.1 -0.525,-0.9 -2.925,-0.375 -3.75,-0.225 -0.825,0.15 -1.65,0.225 -1.725,-0.15 -0.075,-0.375 -0.3,-0.75 -0.75,-0.525 -0.45,0.225 -1.425,-0.15 -1.425,-1.1250002 0,-0.975 -0.225,-1.125 -1.875,-0.6 -1.65,0.525 -1.2,1.2750002 -0.9,1.7250002 0.3,0.45 -0.3,0.975 -0.75,1.575 -0.45,0.6 -2.1,0.6 -2.4,0.225 -0.3,-0.375 -0.6,-0.375 -1.5,-0.075 -0.9,0.3 -1.2,0 -1.35,-0.45 -0.15,-0.45 -0.375,-0.6 -0.975,-0.75 -0.6,-0.15 -0.45,-0.45 0,-0.75 0.45,-0.3 0.3,-0.45 -0.15,-1.5000002 -0.45,-1.05 -1.65,-0.45 -1.8,0.3 -0.15,0.7500002 -0.45,0.225 -0.75,-0.675 -0.3,-0.9 -0.75,-0.675 -1.425,-0.45 -0.675,0.225 -0.825,1.05 -0.975,1.65 -0.15,0.6000002 -0.6,0.9000002 -1.5,0.8250002 -0.9,-0.075 -0.525,1.05 -0.375,1.725 0.15,0.675 -0.3,0.975 -0.6,1.125 -0.3,0.15 -1.125,0.75 -1.65,1.275 -0.525,0.525 -1.875,0.6 -2.4,0.375 -0.525,-0.225 -1.05,-0.6 -1.725,-1.575 -0.675,-0.975 -1.575,-1.05 -1.95,-0.975 -0.375,0.075 -1.05,-0.45 -1.575,-0.975 -0.525,-0.525 -1.2,-0.525 -2.025,-1.575 -0.825,-1.0500002 -2.325,0.075 -2.625,0.525 -0.3,0.45 -1.125,0.825 -1.575,0.375 -0.45,-0.45 -0.9,-0.15 -1.35,0.075 -0.45,0.225 -0.525,0.3 -0.6,-0.75 -0.075,-1.0500002 -0.75,0 -0.75,0.45 0,0.45 -0.375,0.9 -1.125,0.6 -0.75,-0.3 -0.525,-0.3 -1.35,-0.075 -0.825,0.225 0.075,-0.6 0.3,-1.4250002 0.225,-0.825 -0.6,-0.3 -1.05,0.1500002 -0.45,0.45 -0.375,0.375 -0.825,0.15 -0.45,-0.225 -0.075,-0.6750002 0,-1.6500002 0.075,-0.975 -0.825,-0.675 -0.9,-0.3 -0.075,0.375 -0.3,0.6 -0.825,1.125 -0.525,0.525 -3.525,-0.225 -3.825,-0.375 -0.3,-0.15 -0.825,-0.375 -0.825,-1.35 0,-0.975 -1.05,-0.9 -1.65,-0.9 -0.6,0 -0.525,-0.225 -0.825,-0.75 -0.3,-0.525 -0.375,0 -0.525,0.375 -0.15,0.375 -0.5625,1.83746 -0.6375,2.1 -0.075,0.26246 -0.825,0.375 -1.125,0.375 -0.3,0 -1.35,-0.15 -1.95,-0.075 -0.6,0.075 -2.1,-1.125 -2.1,-1.125 0,0 -0.4875,-0.225 -0.75,-0.45 -0.2625,-0.225 -0.7125,-0.5625 -1.5,-0.7125 -0.7875,-0.15 -0.9375,-0.37504 -1.1625,-0.6375 -0.225,-0.26254 -0.4125,-0.5625 -0.8625,-0.6375 -0.45,-0.075 -0.525,-0.45 -0.675,-1.125 -0.15,-0.675 -0.4875,-0.93746 -0.6375,-1.125 -0.15,-0.18746 -0.45,-0.33746 -0.7125,-0.375 -0.2625,-0.0375 -0.375,0.15 -0.3375,0.675 0.0375,0.525 -0.3375,0.56254 -0.5625,0.525 -0.225,-0.0375 -0.375,-0.52504 -0.375,-1.3125 0,-0.78754 -0.5625,-0.67496 -0.8625,-0.4125 -0.3,0.26254 -0.0375,0.2625 0.225,0.8625 0.2625,0.6 -0.6,0.525 -1.0875,0.45 -0.4875,-0.075 -0.525,-0.26254 -0.525,-0.6 0,-0.33754 0.3,-0.675 0.6,-0.9 0.3,-0.225 0.15,-0.525 -0.0375,-0.675 -0.1875,-0.15 -0.2625,-0.03746 -0.4875,-0.78749999 -0.0615,-0.205082 -0.17093,-0.290456 -0.30625,-0.29375 z"
     id="rect4-1" />
  <path
     style="fill:none;stroke:#002395;stroke-width:0.42000002;stroke-miterlimit:4;stroke-opacity:1;stroke-dasharray:none"
     d="m 8.535,3.3912978 -0.225,0.75 -0.975,-0.225 -0.75,0.225 -0.675,-0.45 -0.675,0.45 0.225,0.45 -0.375,0.3 c 0,0 -0.75,-0.3 -1.05,-0.075 -0.3,0.225 -1.2,1.275 -1.2,1.275 l -0.15,0.975 -0.6,0.525 c 0,0 0.525,1.8 0.6,2.1 0.075,0.3 0.675,1.2000002 0.675,1.2000002 l -0.225,0.6 c 0,0 -0.45,0.75 -0.825,1.125 -0.375,0.375 -0.225,1.275 -0.225,1.275 l -1.12499999,0.75 0.59999999,0.675 c 0,0 0.825,2.85 1.2,3.225 0.375,0.375 0.225,0.675 0.075,1.35 -0.15,0.675 -0.6,1.05 -1.35,1.125 -0.74999999,0.075 -0.375,1.2 -0.375,1.2 l -0.44999999,1.125 1.04999999,3 -0.075,0.975 1.725,1.725 -1.8,1.2 -1.34999999,0.375 0.675,1.05 -0.15,0.6 c 0,0 1.49999999,2.4 1.79999999,2.85 0.3,0.45 0.675,0.75 1.2,0.975 0.525,0.225 0.375,0.825 0.375,1.2 0,0.375 0.975,0.6 0.975,0.6 0,0 0.3,-0.375 0.6,-0.825 0.3,-0.45 0.6,-0.9 0.9,-0.3 0.3,0.6 0.825,0.15 0.9,-0.3 0.075,-0.45 0.525,-0.75 0.525,-0.75 0,0 0.6,0.45 1.05,1.125 0.45,0.675 0.675,1.65 0.675,1.65 l 1.2,-0.075 c 0,0 0.225,0.825 0.375,1.125 0.15,0.3 0.225,0.75 0.45,1.2 0.225,0.45 0.825,0.525 1.125,0.9 0.3,0.375 0.525,0.45 1.125,0.375 0.6,-0.075 0.9,1.125 0.975,1.5 0.075,0.375 0.6,0.675 0.6,0.675 l 0.15,0.975 c 0,0 -0.525,0.75 -0.525,1.05 0,0.29995 -0.225,0.375 -0.975,0.375 -0.75,0 -0.45,0.75 -0.375,1.125 0.075,0.375 0.225,0.75 0.525,1.05 0.3,0.3 1.575,1.275 1.575,1.275 0,0 0.675,0.075 1.05,0.225 0.375,0.15 0.825,0.15 1.5,0.825 0.675,0.675 0.675,1.35 1.125,2.4 0.45,1.05 0.6,1.65 0.6,1.65 0,0 0.225,0.9 0.075,1.35 -0.15,0.45 0.075,1.275 0.075,1.275 l 0.6,-0.225 c 0,0 0.75,0.825 0.75,1.2 0,0.375002 -0.375,0.6 -0.75,0.6 l -1.275,0 0.15,1.2 1.575,-0.075 0.675,0.6 c 0,0 0.9,0.525 1.35,0.975 0.45,0.45 0.3,1.125 0.3,1.125 0,0 -0.45,0.825 -0.675,1.275 -0.225,0.45 -0.6,1.05 -0.6,1.8 0,0.75 0.3,2.775 0.3,2.775 l 0.9,0.15 0.6,1.5 -0.6,0.75 c 0,0 0.975,0.975 1.275,1.2 0.3,0.225 1.5,1.875 1.95,2.25 0.45,0.375 0.675,0.675 0.75,0.975 0.075,0.3 0.675,0.9 0.6,1.725 -0.075,0.825 1.05,1.125 1.95,1.425 0.9,0.3 0.45,0.375 0.45,0.75 0,0.375 0.3,0.525 0.75,0.825 0.45,0.3 2.4,0 2.4,0 l 0.675,1.125 -0.225,0.75 0,1.275 c 0,0.375 0.675,0.45 0.675,0.45 l 2.475,0.15 0.675,1.65 1.2,1.8 0.975,1.95 1.575,0.6 0.375,0.6 c 0,0 0.525,0.9 0.975,1.725 0.45,0.825 2.475,2.175 3.675,3.3 1.20006,1.125 1.425,1.65 1.2,2.625 -0.225,0.975 0.3,1.575002 0.3,1.575002 l 1.2,1.875 c 0,0 1.35,0.15 2.1,0.525 0.75,0.375 1.65,2.175 1.65,2.175 l 2.175,1.725 c 0,0 0.375,0.75 0.45,1.275 0.075,0.525 1.425,1.05 1.725,1.425 0.3,0.375 0.825,1.65 0.825,1.65 l 1.875,1.725 0.825,1.65 1.35,1.5 0.825,0.675 1.5,0.525 c 0,0 0.9,0.525 1.2,0.825 0.3,0.3 0.9,0.9 1.275,1.35 0.375,0.45 1.65,1.5 1.65,1.5 l 1.275,0.45 c 0,0 0.525,-0.525 0.825,-0.6 0.3,-0.075 0.675,-0.075 1.35,0.075 0.675,0.15 1.5,0.75 1.95,1.05 0.45,0.3 1.125,0.825 1.2,1.575 0.075,0.75 -0.15,1.8 -0.375,2.325 -0.225,0.525 -1.275,1.65 -1.275,1.65 l 0.075,0.6 0.825,2.475 c 0,0 1.875,3.6 2.025,3.9 0.15,0.3 0.75,1.65 0.75,1.65 l 1.05,1.125 c 0,0 1.2,0.15 1.95,0.375 0.75,0.225 1.5,0.825 1.8,1.125 0.3,0.3 0.975,1.65 0.825,1.95 -0.15,0.3 0.15,1.125 0.15,1.125 l 1.05,0.975 c 0,0 4.05,2.775 4.35,2.925 0.3,0.15 4.2,2.4 4.2,2.4 0,0 2.25,4.575 2.25,4.95 0,0.375 1.2,2.85 1.2,2.85 l -3.675,1.575 -0.825,0.75 -2.075,0.65625 0.16875,0.175 0.55,0.275 0.43125,0.1 0.25,0.4375 0.5125,0.3875 -0.35,0.0187 -1.09375,-0.46875 -0.725,-0.5375 -0.4125,-0.51875 -0.125,0.0375 -0.025,0.1875 -0.58125,-0.13125 -0.025,0.1125 0.30625,0.33125 3.33125,1.8 0.7625,0.8375 0.225,0.075 c 0,0 0.525,-1.45 0.825,-1.9 0.3,-0.45 0.525,-0.825 1.275,-0.675 0.75,0.15 2.85,0.525 2.85,0.525 0,0 0.675,0.45 1.125,0.975 0.45,0.525 0.525,0.6 0.525,0.6 l 1.125,-1.65 1.35,0.825 0.825,1.05 c 0,0 -0.075,1.125 0.15,1.65 0.225,0.525 0.75,1.5 0.75,1.5 l 1.2,0.675 -0.6,0.975 0.15,0.675 0.9,-0.15 1.95,0.75 c 0,0 1.05,1.425 1.8,1.425 0.75,0 0.6,0.9 0.6,0.9 l 0.525,1.05 c 0,0 1.2,-0.675 1.65,0 0.45,0.675 1.5,1.65 1.5,1.65 0,0 1.8,0.9 1.725,1.575 -0.075,0.675 -0.225,1.05 -0.225,1.05 l 1.725,0.375 0.975,1.875 0.75,-0.375 c 0,0 0.975,0.3 1.425,1.2 0.45,0.9 0.6,1.275 0.975,1.425 0.375,0.15 0.825,0.225 0.825,0.6 0,0.375 0.375,0.75 0.675,0.6 0.3,-0.15 1.275,-0.825 1.275,-0.825 0,0 1.2,0.15 1.725,0 0.525,-0.15 2.475,-0.15 2.625,0.15 0.15,0.3 0.6,0.9 0.825,1.2 0.225,0.3 0.9,1.05 0.9,1.05 l 2.09375,1.3 c 0.2584,-0.22529 0.83145,-0.37978 1.1625,-0.71875 0.36357,-0.37217 0.46465,-1.04043 1.04375,-1.18125 0.20937,-0.051 0.52255,0.16015 0.775,0.175 0.49443,0.0291 0.69346,0.45674 0.99375,0.76875 0.11758,-0.003 0.6509,-0.33945 0.725,-0.43125 0.12959,-0.50684 -0.41396,-1.44951 -0.9625,-1.4875 0.0427,-0.26025 -0.007,-0.3127 -0.0875,-0.54375 -0.0823,-0.0876 -0.10595,-0.15684 -0.13125,-0.225 -0.0831,-0.0529 -0.26525,-0.23467 -0.25625,-0.34375 0.16474,-0.27842 0.45508,-1.09678 0.79375,-1.19375 0.39952,-0.11436 0.76943,-0.39024 1.1875,-0.425 0.17998,-0.015 0.35576,0.0639 0.525,0.05 0.0523,-0.10352 -0.15995,-0.8333 -0.20625,-0.875 l -0.2375,-0.10624 c -0.0118,-0.10742 0.0257,-0.22177 -0.0125,-0.325 -0.24307,-0.12832 -0.69445,-0.40947 -0.75625,-0.65 0.0101,-0.38936 0.0811,-0.50283 -0.0563,-0.9 -0.0308,-0.0888 -0.1209,-0.36289 -0.0875,-0.44375 0.0231,-0.056 0.19854,0.0729 0.30625,0.025 0.16045,-0.33379 0.1915,-0.50996 0.44375,-0.8125 0.0469,-0.48613 0.2114,-0.77773 0.175,-1.25625 -0.14941,-0.0868 -0.30723,-0.15635 -0.4625,-0.23125 -0.13496,0.0512 -0.21135,0.2211 -0.26875,0.23125 -0.42197,0.0742 -0.66054,-0.15176 -1.05,-0.1625 -0.1251,-0.0719 -0.2416,-0.22647 -0.35625,-0.28125 -0.14531,-0.14092 -0.266,-0.3377 -0.325,-0.46875 -0.22666,0.003 -0.35761,-0.0484 -0.5875,0.0125 l -0.2125,-0.19375 c 0.0347,-0.0759 0.12095,-0.32246 0.0937,-0.4 -0.093,-0.0401 -0.34445,-0.26045 -0.35625,-0.3625 -0.41523,-0.35996 -0.90664,-4e-4 -1.025,-0.75 -0.0112,-0.0716 -0.0739,-0.18418 -0.0563,-0.25 l 0.1375,-0.15 c -0.0232,-0.10352 0.10985,-0.23711 0.0563,-0.3125 0.0997,-0.11182 0.0804,-0.0923 -0.05,-0.125 l 0.1125,-0.0687 c -0.0218,-0.10918 -0.11065,-0.12656 -0.13125,-0.1375 -0.0657,-0.0351 -0.15375,-0.14473 -0.16875,-0.21875 -0.0274,-0.13525 -4e-4,-0.53887 -0.0437,-0.6125 -0.12569,-0.0135 -0.2595,-0.14003 -0.2625,-0.26875 0.0749,-0.17793 0.26045,-0.42149 0.23125,-0.63125 -0.0243,-0.12715 -0.0868,-0.23086 -0.11875,-0.3375 -0.018,-0.1498 -0.0411,-0.34063 -0.025,-0.44375 -0.11816,-0.19532 -0.2033,-0.546 -0.3,-0.60625 0.20293,-0.19112 0.52168,-0.29824 0.7625,-0.4375 -0.75528,-0.5916 -0.45254,-1.88349 0.1875,-2.25625 0.10957,0.0366 0.29179,0.2002 0.4,0.175 0.51997,-0.28076 0.4083,-0.9461 0.0937,-1.35 0.32099,-0.15615 0.64443,-0.29531 0.9625,-0.45625 -0.0695,-0.16162 -0.19125,-0.26739 -0.24375,-0.45 -0.0875,-0.30342 -0.11866,-0.60547 -0.2375,-0.90625 -0.18135,-0.4585 -0.50146,-0.88291 -0.675,-1.3375 -0.077,-0.20156 0.0161,-2.37812 0.075,-2.60625 0.0382,-0.14834 0.1623,-0.2626 0.2125,-0.40625 0.18769,-0.53701 0.25097,-1.13282 0.41875,-1.68125 0.1498,-0.10264 0.28193,-0.26894 0.4375,-0.35 0.0293,-0.39199 0.29111,-0.91015 0.4125,-1.29375 0.34629,-0.304 0.73447,-0.55391 1.0875,-0.85 0.26992,0.0149 3.88457,0.19609 3.99375,0.1625 0.46416,-0.14277 0.9625,-0.40742 1.4125,-0.6 l 0.51875,0.0813 c -0.0951,-0.61298 -0.0973,-1.27754 -0.225,-1.875 0.1293,-0.64541 -0.23671,-3.71954 -0.3375,-4.4875 -0.0349,-0.26582 -0.16005,-0.83711 -0.13125,-1.0875 0.0397,-0.34434 0.27255,-0.77773 0.36875,-1.125 0.24404,-0.88154 0.31445,-1.82422 0.55625,-2.70625 0.85312,-0.53262 1.66816,-1.18652 2.375,-1.90625 -0.37676,-0.54024 -0.91318,-1.08018 -1.3875,-1.54375 0.65889,-0.51016 1.52744,-1.38017 2.2,-1.7875 0.87529,-0.52998 1.78252,-1.09795 2.7,-1.55 0.0787,-0.0388 0.15844,-0.0744 0.2375,-0.1125 L 31.6475,14.885048 31.635,15.241298 c 0,0 -0.525,0.525 -0.9,0.975 -0.375,0.45 -0.45,0.75 -0.45,1.35 0,0.6 -0.075,1.125 -0.075,1.125 0,0 -0.3,0.15 -0.75,0.15 -0.45,0 -2.1,0.3 -2.1,0.3 0,0 -0.6,-0.675 -0.825,-1.125 -0.225,-0.45 -1.05,-0.225 -1.425,-0.15 -0.375,0.075 -0.825,-0.075 -0.825,-0.075 0,0 -0.3,-0.525 -0.675,-0.825 -0.375,-0.3 -0.75,-0.075 -1.2,-0.3 -0.45,-0.225 -0.825,-1.65 -0.9,-2.025 -0.075,-0.375 -0.3,-0.675 -0.9,-1.2 -0.6,-0.525 -1.5,-0.9 -1.95,-0.825 -0.45,0.075 -0.525,-0.15 -0.9,-0.6 -0.375,-0.45 -0.375,-0.9 -0.3,-1.5 0.075,-0.6000002 -0.975,-2.1000002 -1.35,-2.4750002 -0.375,-0.375 -0.45,-1.125 -0.45,-1.125 l -1.5,-0.15 -0.15,-0.45 0.675,-1.05 -0.525,-0.975 c 0,0 -0.75,-0.375 -1.275,-0.75 -0.525,-0.375 -1.125,0.3 -1.5,0.525 -0.375,0.225 -0.75,0.375 -1.275,0.375 -0.525,0 -0.15,-0.6 -0.15,-0.6 l -0.375,-0.45 -1.05,0 z m 158.5625,20.5625002 0,23.34375 c 0.20013,-0.331572 0.47305,-0.667298 0.61875,-0.79375 0.50352,-0.43711 1.16787,-0.143554 1.33125,-0.53125 0.15264,-0.361866 -0.57444,-1.26528 -0.05,-1.33125 0.0973,-0.01226 0.2248,-0.0397 0.3125,0.01874 0.15723,0.0958 0.2579,0.05693 0.3375,0.0062 0.26875,-0.171142 -0.004,-0.795948 0.0875,-1.10625 0.049,-0.167432 0.30673,-0.07212 0.4125,-0.33125 0.0498,-0.122216 -0.0262,-0.23706 -0.0125,-0.35 0.005,-0.04263 0.2106,-0.3623 0.25,-0.45625 0.0772,-0.183692 -0.0516,-0.293068 -0.0125,-0.425 0.15987,-0.540136 0.58154,-0.897804 1.075,-1.1375 0.22432,-0.256982 -0.61631,-0.628808 -0.175,-1.11875 0.38584,-0.19629 1.33155,0.430664 1.25625,-0.2875 -0.0224,-0.213574 4e-4,-0.295508 0.0625,-0.51875 0.0443,-0.158008 0.41543,-0.19375 0.58125,-0.54375 -0.003,-0.04102 -0.007,-0.08765 -0.025,-0.125 0.0381,-0.36978 0.2169,-0.245848 0.35625,-0.43125 0.16699,-0.222266 -0.0825,-0.589892 0.3875,-0.90625 0.065,-0.168896 -0.28535,-0.354884 -0.13125,-0.58125 0.0997,-0.146484 0.51797,0.100976 0.70625,-0.04375 0.39013,-0.299854 -0.2561,-0.463476 -0.3,-0.75 -0.0199,-0.12959 0.3165,-0.265722 0.3125,-0.39375 -0.004,-0.133642 -0.75781,-0.427734 -0.64375,-0.9375 0.11045,-0.493506 0.52686,0.111768 0.74375,-0.2125 0.1625,-0.24292 -0.21575,-0.543798 -0.16875,-0.725 0.0542,-0.208838 0.41975,-0.184472 0.51875,-0.3875 0.0664,-0.136426 -0.0285,-0.323242 -0.0375,-0.4625 -0.007,-0.126612 0.0284,-0.260694 -0.0125,-0.3875 0.0289,-0.105908 0.4003,-0.143798 0.3875,-0.36875 -0.0669,-0.236572 -0.425,-0.477198 -0.425,-0.725 0,-0.265332 0.4117,-0.353614 0.325,-0.5375 -0.0709,-0.150098 -0.5376,-0.130224 -0.39375,-0.45625 0.0948,-0.21494 0.65371,0.119628 0.79375,-0.25 0.009,-0.02319 -0.22854,-0.698438 -0.006,-0.96875 0.20352,-0.24712 0.43067,0.383932 0.56875,0.075 0.10899,-0.243702 -0.3599,-0.59462 -0.45,-0.825 -0.16289,-0.41616 0.40575,-0.49219 0.38125,-0.8875 -0.0257,-0.41523 -0.7569,0.31905 -0.7,-0.16875 0.007,-0.0626 0.0436,-0.11299 0.0937,-0.15 0.0903,-0.0668 0.18275,-0.09492 0.25625,-0.1875 0.008,-0.10908 0.0968,-0.173 0.0937,-0.275 -0.004,-0.14722 -0.41165,-0.20098 -0.50625,-0.3125 -0.1709,-0.0559 -0.26582,0.22424 -0.50625,0.09375 -0.35947,-0.19517 -0.64492,-0.45195 -1.025,-0.6375 -0.0566,-0.0277 -0.12205,-0.05612 -0.16875,-0.1 -0.2542,-0.23935 -0.39873,-0.49361 -0.7875,-0.5625 -0.43964,-0.0779 -0.63398,-0.06609 -1.03125,0.11875 -0.0976,0.0454 -0.2957,0.19624 -0.4,0.15625 -0.31504,-0.12095 -0.77256,-0.65039 -1.11875,-0.5875 -0.6169,0.11221 -1.15987,1.14018 -1.6625,1.175 -0.91543,0.0634 -0.28819,-1.42461 -1.5,-1.7125 z m 0,24.125 0,1.425 c 0.38525,-0.370606 0.71674,-0.844892 0.35625,-1.3 -0.082,-0.10354 -0.22571,-0.104528 -0.35625,-0.125 z m 0,1.425 c -0.0813,0.07824 -0.16361,0.150224 -0.24375,0.21875 0.0798,-0.06708 0.16278,-0.140856 0.24375,-0.21875 z m -0.24375,0.21875 c -0.0801,0.06853 -0.15813,0.13359 -0.225,0.1875 0.0672,-0.05415 0.14451,-0.119828 0.225,-0.1875 z m 1.125,16.84375 c -0.40389,-0.03818 -0.6254,0.275868 -0.88125,0.46875 l 0,50.750002 c 0.21952,-0.0324 0.46398,-0.10655 0.65625,-0.075 0.23359,0.0385 0.51375,0.32 0.55625,0.325 0.37159,-0.0611 0.60283,0.11386 0.875,0.325 l 0.11875,0.006 c 1.32051,0.14453 0.68125,-0.70283 0.68125,-1.40625 0,-0.3375 0.17125,-0.75488 0.23125,-1.0875 0.0231,-0.12822 -0.0552,-0.2541 0.0375,-0.375 -0.0613,-0.2709 0.0872,-0.26553 0.0812,-0.44375 -0.009,-0.29502 -0.35292,-1.0545 0.0687,-1.11875 0.0651,0.0202 0.1754,0.11807 0.2625,0.15 0.36738,-0.79287 0.75449,-0.28633 1.01875,-0.65625 0.10664,0.0721 0.21318,0.14747 0.33125,0.2 0.2267,0.0122 0.0356,-0.42646 0.1875,-0.4375 0.19316,-0.014 0.33476,0.67373 0.525,0.78125 0.28271,0.15967 1.51669,0.0823 1.8,-0.0812 0.0424,-0.0245 0.6316,-0.75743 0.725,-0.85625 0.19444,-0.20567 0.217,-0.0597 0.3125,-0.10625 0.14512,-0.0707 0.1667,-0.28662 0.2875,-0.39375 0.1196,0.13291 0.0486,0.28906 0.0937,0.41875 0.13799,0.16914 0.47754,0.1749 0.58125,0.30625 0.0281,0.13408 -0.0235,0.25742 0.0125,0.40625 0.16201,0.67099 0.46279,-0.0776 0.9125,0.48125 -0.12324,0.16377 -0.41753,0.98115 0.025,0.525 0.0613,-0.0329 0.1461,-8e-4 0.1875,0.05 0.0293,0.0858 0.075,0.93642 0.0437,1.05 -0.10791,0.0802 -0.20557,0.17989 -0.30625,0.26875 -0.125,0.11036 0.24735,0.59824 0.30625,0.69375 0.0586,0.0951 0.24629,0.54199 0.29375,0.53125 0.16064,-0.0367 0.52636,-0.48184 0.75,-0.59375 0.0656,-0.14199 0.0178,-0.35567 0.125,-0.48125 0.1832,-0.21475 0.66015,-0.35528 0.725,-0.46875 -0.0393,-0.23574 0.17275,-0.65498 0.4,-0.73125 0.23594,-0.7041 1.9626,0.80019 2.26875,0.45 0.16895,-0.5334 0.34365,-0.42295 0.7625,-0.55 0.0737,-0.0682 0.0705,-0.18613 0.1125,-0.275 0.2,-0.42275 -0.42305,-0.25196 -0.775,-0.625 -0.13184,-0.13965 -0.1621,-0.32725 -0.25,-0.4875 -0.13837,-0.25196 -0.16611,-0.006 -0.2125,0.0625 -0.16474,-0.26123 0.16299,-1.01621 0.3,-1.275 l -0.0375,-0.1 c -0.0435,-0.0137 -0.28145,-0.10635 -0.3,-0.125 -0.17354,-0.25029 0.13906,-0.33877 -0.25625,-0.875 0.0176,-0.1083 0.48799,-0.63496 0.575,-0.475 0.0589,0.10479 -0.01,0.24766 0.0625,0.35 0.0279,0.0393 0.13916,0.013 0.175,0.006 0.2583,-0.0489 0.15273,-0.38261 0.2,-0.6 0.16484,-0.75947 0.3752,-1.49697 0.34375,-2.29375 -0.01,-0.25 -0.18623,-0.5043 -0.26875,-0.7375 -0.0658,-0.18594 -0.2841,-1.20927 -0.2875,-1.40625 -0.004,-0.24013 0.17861,-0.58056 0.1125,-0.79375 -0.0384,-0.12343 -0.14746,-0.21035 -0.19375,-0.33125 -0.14023,-0.0103 -1.00059,-0.55889 -1.04375,-0.64375 -0.0386,-0.0759 -0.0148,-0.16573 -0.0375,-0.24375 -0.18389,-0.63282 0.0493,-0.61182 -0.4875,-0.9375 -0.13203,-0.23604 -0.16836,-0.44678 -0.1875,-0.7125 -0.0175,-0.24336 -0.89541,-0.89981 -1.15,-0.9625 -0.12968,-0.032 -0.46904,0.0154 -0.5375,-0.0563 -0.0514,-0.11358 0.008,-0.42149 -0.025,-0.5875 -0.0592,-0.29053 -0.2249,-0.26719 -0.2625,-0.35 -0.0511,-0.1124 -0.0718,-0.25137 -0.18125,-0.325 -0.18985,-0.127834 -0.18623,0.18017 -0.4375,0.125 -0.14688,-0.0323 -0.26113,-0.19307 -0.4,-0.231252 -0.13564,-0.03721 -0.28819,-0.02783 -0.4125,-0.09375 -0.10985,-0.281054 -0.12685,-0.535352 -0.19375,-0.7125 -0.0483,-0.127734 -0.15937,-0.177442 -0.26875,-0.2375 -0.0995,-0.05469 -0.66935,-0.790722 -0.68125,-0.84375 -0.0427,-0.190528 0.1789,-0.416602 0.125,-0.65 -0.39844,-0.191894 -0.79824,-0.476952 -1.0125,-0.74375 -0.008,-0.07725 -0.022,-0.156446 -0.0437,-0.23125 -0.30684,-0.287012 -0.62373,-0.674512 -0.8875,-1.025 l -0.19375,-0.0875 c 0.0391,-0.07588 0.22475,-0.394728 0.21875,-0.4625 -0.0642,-0.03936 -0.984,-0.717284 -1.05,-0.80625 0.0808,-0.254394 0.26914,-0.380858 0.11875,-0.64375 -0.16719,-0.292676 -0.5752,-0.468848 -0.74375,-0.73125 -0.19776,-0.308204 -0.10655,-0.733204 -0.31875,-1.025 -0.10996,-0.151172 -0.4352,-0.306054 -0.45,-0.49375 -0.28545,-0.222168 -0.47969,-0.613672 -0.65625,-0.93125 -0.009,-0.0165 0.0526,-0.13418 -0.05,-0.25625 -0.19268,-0.229394 -0.52061,-0.262012 -0.75625,-0.43125 -0.0183,-0.03467 -0.11475,-0.24336 -0.11875,-0.275 0.0819,-0.0333 0.0923,-0.13164 0.13125,-0.2 0.32989,-0.575684 -0.45,-1.145116 -0.675,-1.5875 -0.18115,-0.35625 -0.47195,-2.058398 0.025,-2.2375 0.59033,-0.212792 0.80693,0.904296 1.6,1.09375 0.49336,0.11777 1.22373,-0.04023 1.5875,0.1125 0.47803,0.200782 1.16211,0.896582 1.38125,0.9625 0.29786,0.08975 0.78321,-0.03467 0.9375,0.05625 0.22175,0.130664 0.0613,0.302442 0.19375,0.46875 0.23604,0.296484 1.0831,0.919336 1.43125,0.9875 0.38144,0.07471 0.57363,-0.490724 0.775,-0.5125 0.0883,-0.0097 0.70214,0.545996 0.93125,0.60625 0.53779,0.14121 1.00157,-0.04814 1.55,-0.01874 0.3044,0.0164 0.592,0.175098 0.9,0.20625 0.63633,0.06436 1.25752,0.06709 1.9,0.04375 0.0921,-0.0034 0.57841,0.0035 0.64375,-0.025 0.23056,-0.100878 0.3545,-0.949512 0.65625,-1.24375 0.43428,-0.423438 1.25801,-0.62246 1.30625,-0.74375 0.14864,-0.374414 -0.2999,-0.684472 -0.175,-0.9125 0.32275,-0.264356 0.77657,-0.19287 1.14375,-0.31875 0.20879,-0.07148 0.18291,-0.309376 0.38125,-0.4125 0.45772,-0.23789 1.13877,-0.0163 1.25625,-0.675 0.0583,-0.32666 -0.39961,-0.718458 -0.375,-1.0625 0.0197,-0.275196 0.63458,-0.923144 0.3125,-1.15 -0.28964,-0.203906 -0.43076,0.287012 -0.825,0.10625 -0.15391,-0.148144 -0.0233,-0.751368 -0.075,-1.00625 -0.0741,-0.36572 -0.68057,-0.558106 -0.9125,-0.24375 -0.16484,0.22334 0.17481,1.44707 -0.31875,1.45625 -0.49609,0.0091 -0.53808,-1.104492 -0.9,-1.4875 -0.52734,-0.558106 -1.51094,-0.381152 -2.1,-0.78125 -0.24707,-0.167872 -0.82051,-1.108692 -0.89375,-1.41875 -0.0708,-0.299708 0.0497,-0.661034 -0.0875,-0.93125 -0.11347,-0.223438 -0.95332,0.251758 -1.13125,-0.4125 -0.20508,-0.76582 0.97031,-0.996876 0.59375,-1.59375 -0.38428,-0.60918 -1.18789,-0.09707 -1.375,0.4 -0.19199,0.51055 -0.14727,0.7292 -0.68125,0.4125 -0.15,-0.08906 -0.88925,-0.577734 -0.975,-0.725 -0.24053,-0.413282 -0.27666,-1.692772 -0.71875,-1.825 -0.0815,-0.02441 -0.23415,-0.03974 -0.30625,0.01874 -0.0696,0.01114 -0.57197,-0.44395 -0.69375,-0.5125 -0.41582,-0.23418 -1.02969,-0.07539 -1.2,-0.35625 -0.0573,-0.09463 -0.1959,-1.083106 -0.1625,-1.1875 0.0519,-0.161816 0.24765,-0.27744 0.16875,-0.475 -0.24541,-0.613574 -0.65108,-0.29756 -0.7625,-0.825 -0.0545,-0.25752 0.271,-0.580762 0.275,-0.725 -0.29912,-0.472754 -0.17158,-0.643846 -0.675,-1.05625 -0.0637,-0.05215 -0.11035,-0.14805 -0.20625,-0.14375 -0.3185,-0.257812 0.0308,-1.304492 -0.3125,-1.51875 -0.57011,-0.35586 -0.85312,0.20625 -1.4,0.10625 -0.32461,-0.05938 -0.5665,-0.48164 -0.8,-0.44375 -0.0766,0.0124 -0.20885,0.24717 -0.29375,0.31875 -0.27735,0.23418 -1.20605,0.71113 -1.5625,0.6875 -1.4031,-0.09326 -0.78125,-1.60088 -1.3375,-1.8875 -0.1439,-0.07412 -0.26968,-0.114452 -0.38125,-0.125 z m -0.88125,51.218752 c -0.0681,0.01 -0.1388,0.0151 -0.2,0.0125 0.0631,0.003 0.12963,-0.002 0.2,-0.0125 z m -0.575,-50.643752 c 0.0339,0.01248 0.0686,0.0187 0.1,0.025 -0.0311,-0.0063 -0.0665,-0.01264 -0.1,-0.025 z m 0.1375,0.03125 c 0.0254,0.0034 0.051,0.0066 0.075,0.0062 -0.0244,4e-4 -0.049,-0.0028 -0.075,-0.0062 z"
     id="rect4-7" />
</svg>
